<svg viewBox="0 0 75 18" fill="none" xmlns="http://www.w3.org/2000/svg">
<path id="Vector" d="M7.5 17.5H0.5V8.29534H7.5C13.2576 8.29534 18.4938 5.44159 22.5 0.777432C26.5062 5.44159 31.7425 8.29534 37.5 8.29534C43.2575 8.29534 48.4938 5.4416 52.5 0.777435C56.5062 5.4416 61.7425 8.29534 67.5 8.29534H74.5V17.5H67.5C62.1625 17.5 57.1458 15.5593 52.8092 12.1461L52.5 11.9027L52.1908 12.1461C47.8542 15.5593 42.8375 17.5 37.5 17.5C32.1625 17.5 27.1457 15.5593 22.8092 12.1461L22.5 11.9027L22.1908 12.1461C17.8543 15.5593 12.8377 17.5 7.5 17.5Z" fill="#F9F9F9" stroke="#F9F9F9"/>
</svg>
