<svg viewBox="0 0 84 84" fill="none" xmlns="http://www.w3.org/2000/svg">
<circle cx="42" cy="42" r="40" fill="#317B74" stroke="#317B74" stroke-width="3"/>
<path fill-rule="evenodd" clip-rule="evenodd" d="M22.5 42C22.5 31.23 31.23 22.5 42 22.5C52.77 22.5 61.5 31.23 61.5 42C61.5 52.77 52.77 61.5 42 61.5C31.23 61.5 22.5 52.77 22.5 42ZM49.22 38.372C49.34 38.2121 49.4268 38.0298 49.4754 37.8359C49.5239 37.642 49.5332 37.4403 49.5027 37.2427C49.4722 37.0451 49.4025 36.8556 49.2977 36.6854C49.1929 36.5151 49.0552 36.3676 48.8925 36.2513C48.7299 36.1351 48.5456 36.0525 48.3506 36.0085C48.1556 35.9644 47.9538 35.9598 47.757 35.9949C47.5601 36.03 47.3723 36.1041 47.2046 36.2128C47.0368 36.3215 46.8924 36.4627 46.78 36.628L40.308 45.688L37.06 42.44C36.7757 42.175 36.3996 42.0308 36.011 42.0376C35.6224 42.0445 35.2516 42.2019 34.9768 42.4768C34.7019 42.7516 34.5445 43.1224 34.5376 43.511C34.5308 43.8996 34.675 44.2757 34.94 44.56L39.44 49.06C39.594 49.2139 39.7796 49.3324 39.984 49.4073C40.1884 49.4822 40.4066 49.5118 40.6235 49.4939C40.8405 49.476 41.0509 49.4111 41.2403 49.3037C41.4296 49.1963 41.5933 49.049 41.72 48.872L49.22 38.372Z" fill="#F9F9F9"/>
</svg>
