<svg width="16" height="16" viewBox="0 0 16 16" fill="none" xmlns="http://www.w3.org/2000/svg">
<path d="M3.71067 3.10467C3.96797 3.0349 4.23341 2.9997 4.5 3H11.5C11.7733 3 12.0373 3.03667 12.2887 3.10467C12.1224 2.77265 11.8671 2.49346 11.5512 2.29836C11.2353 2.10326 10.8713 1.99995 10.5 2H5.5C5.12859 1.99983 4.76447 2.10308 4.44843 2.29819C4.1324 2.4933 3.87693 2.77255 3.71067 3.10467ZM1.5 8C1.5 7.46957 1.71071 6.96086 2.08579 6.58579C2.46086 6.21071 2.96957 6 3.5 6H12.5C13.0304 6 13.5391 6.21071 13.9142 6.58579C14.2893 6.96086 14.5 7.46957 14.5 8V12C14.5 12.5304 14.2893 13.0391 13.9142 13.4142C13.5391 13.7893 13.0304 14 12.5 14H3.5C2.96957 14 2.46086 13.7893 2.08579 13.4142C1.71071 13.0391 1.5 12.5304 1.5 12V8ZM3.5 5C3.22667 5 2.96267 5.03667 2.71067 5.10467C2.87693 4.77255 3.1324 4.4933 3.44843 4.29819C3.76447 4.10308 4.12859 3.99983 4.5 4H11.5C11.8713 3.99995 12.2353 4.10326 12.5512 4.29836C12.8671 4.49346 13.1224 4.77265 13.2887 5.10467C13.0316 5.03496 12.7664 4.99976 12.5 5H3.5Z" fill="#B0B0B0"/>
</svg>
