<svg width="50" height="50" viewBox="0 0 50 50" fill="none" xmlns="http://www.w3.org/2000/svg">
<path d="M25 0C38.807 0 50 11.1929 50 25C50 38.807 38.807 50 25 50C11.1929 50 0 38.807 0 25C0 11.1929 11.1929 0 25 0ZM35.0107 27.1943C34.1472 25.8832 33.5243 24.9365 31.1555 25.312C26.6793 26.0225 26.183 26.806 25.9692 28.0938L25.909 28.4858L25.8483 28.8993C25.604 30.607 25.6132 31.253 26.3972 32.077C29.5602 35.3955 31.455 37.7875 32.029 39.1865C32.3092 39.871 33.0298 41.9377 32.534 43.9817C35.593 42.7665 38.289 40.833 40.4132 38.3897C40.6888 37.4552 40.8878 36.2915 40.8878 34.8795V34.618C40.8878 32.3118 40.8877 31.26 39.2578 30.3285C38.57 29.9377 38.0568 29.7025 37.6455 29.516C36.7275 29.0985 36.1198 28.8242 35.2995 27.6248C35.2018 27.482 35.1062 27.3395 35.0107 27.1943ZM25 4.58332C19.2065 4.58332 13.9766 6.99645 10.2605 10.8724C10.7029 11.1796 11.0884 11.6113 11.3532 12.2064C11.8632 13.3507 11.8632 14.528 11.8632 15.5691C11.8622 16.3905 11.861 17.168 12.1248 17.7326C12.4861 18.5034 14.041 18.8307 15.4137 19.1184C15.9041 19.2217 16.4099 19.3271 16.8699 19.4544C18.1351 19.8058 19.1138 20.9413 19.8985 21.853C20.224 22.2328 20.7048 22.7907 20.9457 22.9292C21.0715 22.839 21.475 22.402 21.6747 21.6838C21.8267 21.1367 21.7835 20.6493 21.5598 20.3857C20.162 18.7361 20.238 15.558 20.67 14.3874C21.3505 12.5401 23.4762 12.6764 25.03 12.7774C25.6095 12.8147 26.1565 12.8506 26.5643 12.7994C28.1205 12.6041 28.599 10.2385 28.9375 9.775C29.6677 8.77452 31.9017 7.26775 33.2895 6.33635C30.7562 5.20955 27.9513 4.58332 25 4.58332Z" fill="#0156F7"/>
</svg>
