<svg width="314" height="265" viewBox="0 0 314 265" fill="none" xmlns="http://www.w3.org/2000/svg">
<path d="M198.922 1.15969L3.31018 55.4681L3.57768 56.4316L199.189 2.12319L198.922 1.15969Z" fill="#407BFF"/>
<path d="M244.018 47.09H239.671V238.768H244.018V47.09Z" fill="#407BFF"/>
<path d="M278.253 47.09H273.906V238.768H278.253V47.09Z" fill="#407BFF"/>
<path d="M275.803 126.505V122.158H242.071V126.505H275.803Z" fill="#407BFF"/>
<path d="M240.444 125.429L274.832 47.09H277.98L243.592 125.429H240.444Z" fill="#407BFF"/>
<path d="M244.018 0.424011H239.671V47.091H244.018V0.424011Z" fill="#407BFF"/>
<path d="M278.48 47.09L244.091 0.424011H239.944L274.332 47.09H278.48Z" fill="#407BFF"/>
<path d="M277.49 68.891V56.821L251.112 68.891V56.821L224.735 68.891V56.821L198.358 68.891V56.821L171.98 68.891V56.821L145.602 68.891V56.821L119.224 68.891V56.821L92.847 68.891V56.821L66.469 68.891V56.821L40.092 68.891V56.821L15.13 68.243L14.298 66.424L42.092 53.706V65.776L68.469 53.706V65.776L94.847 53.706V65.776L121.224 53.706V65.776L147.602 53.706V65.776L173.98 53.706V65.776L200.358 53.706V65.776L226.735 53.706V65.776L253.112 53.706V65.776L279.49 53.706V65.776L304.452 54.355L305.284 56.173L277.49 68.891Z" fill="#263238"/>
<path opacity="0.4" d="M277.49 68.891V56.821L251.112 68.891V56.821L224.735 68.891V56.821L198.358 68.891V56.821L171.98 68.891V56.821L145.602 68.891V56.821L119.224 68.891V56.821L92.847 68.891V56.821L66.469 68.891V56.821L40.092 68.891V56.821L15.13 68.243L14.298 66.424L42.092 53.706V65.776L68.469 53.706V65.776L94.847 53.706V65.776L121.224 53.706V65.776L147.602 53.706V65.776L173.98 53.706V65.776L200.358 53.706V65.776L226.735 53.706V65.776L253.112 53.706V65.776L279.49 53.706V65.776L304.452 54.355L305.284 56.173L277.49 68.891Z" fill="white"/>
<path d="M306.368 68.833H14.1569L1.81995 58.197C1.01295 57.501 0.730946 56.406 1.10195 55.407C1.47295 54.408 2.40195 53.762 3.46695 53.762H306.368V68.833ZM15.2709 65.833H303.368V56.763H4.75095L15.2709 65.833Z" fill="#263238"/>
<g opacity="0.6">
<path d="M306.368 68.833H14.1569L1.81995 58.197C1.01295 57.501 0.730946 56.406 1.10195 55.407C1.47295 54.408 2.40195 53.762 3.46695 53.762H306.368V68.833ZM15.2709 65.833H303.368V56.763H4.75095L15.2709 65.833Z" fill="white"/>
</g>
<path d="M242.796 4.77109V0.424072L199.064 0.424072V4.77109L242.796 4.77109Z" fill="#407BFF"/>
<path d="M201.238 47.09H196.891V238.768H201.238V47.09Z" fill="#407BFF"/>
<path d="M201.238 0.424011H196.891V47.091H201.238V0.424011Z" fill="#407BFF"/>
<path d="M235.472 47.09H231.125V238.768H235.472V47.09Z" fill="#407BFF"/>
<path d="M233.071 126.505V122.158H198.339V126.505H233.071Z" fill="#407BFF"/>
<path d="M235.7 47.09L201.311 0.424011H197.163L231.552 47.09H235.7Z" fill="#407BFF"/>
<path d="M197.163 125.429L231.552 47.09H234.7L200.312 125.429H197.163Z" fill="#407BFF"/>
<g opacity="0.3">
<path d="M201.238 47.09H196.891V238.768H201.238V47.09Z" fill="white"/>
<path d="M201.238 0.424011H196.891V47.091H201.238V0.424011Z" fill="white"/>
<path d="M235.472 47.09H231.125V238.768H235.472V47.09Z" fill="white"/>
<path d="M233.071 126.505V122.158H198.339V126.505H233.071Z" fill="white"/>
<path d="M235.7 47.09L201.311 0.424011H197.163L231.552 47.09H235.7Z" fill="white"/>
<path d="M197.163 125.429L231.552 47.09H234.7L200.312 125.429H197.163Z" fill="white"/>
</g>
<path d="M280.804 49.264V44.917L233.072 44.917V49.264L280.804 49.264Z" fill="#263238"/>
<path opacity="0.3" d="M280.804 49.264V44.917L233.072 44.917V49.264L280.804 49.264Z" fill="white"/>
<path d="M233.072 49.2641V44.9171L194.34 44.9171V49.2641L233.072 49.2641Z" fill="#263238"/>
<path opacity="0.6" d="M233.072 49.2641V44.9171L194.34 44.9171V49.2641L233.072 49.2641Z" fill="white"/>
<path d="M73.193 71.833C73.193 72.559 72.604 73.148 71.878 73.148C71.152 73.148 70.563 72.559 70.563 71.833C70.563 71.107 71.152 70.518 71.878 70.518C72.604 70.518 73.193 71.107 73.193 71.833Z" fill="#407BFF"/>
<path d="M79.3019 73.148C80.0282 73.148 80.6169 72.5592 80.6169 71.833C80.6169 71.1067 80.0282 70.518 79.3019 70.518C78.5757 70.518 77.9869 71.1067 77.9869 71.833C77.9869 72.5592 78.5757 73.148 79.3019 73.148Z" fill="#407BFF"/>
<g opacity="0.2">
<path d="M73.193 71.833C73.193 72.559 72.604 73.148 71.878 73.148C71.152 73.148 70.563 72.559 70.563 71.833C70.563 71.107 71.152 70.518 71.878 70.518C72.604 70.518 73.193 71.107 73.193 71.833Z" fill="black"/>
<path d="M79.3019 73.148C80.0282 73.148 80.6169 72.5592 80.6169 71.833C80.6169 71.1067 80.0282 70.518 79.3019 70.518C78.5757 70.518 77.9869 71.1067 77.9869 71.833C77.9869 72.5592 78.5757 73.148 79.3019 73.148Z" fill="black"/>
</g>
<path d="M95.732 82.135L78.155 70.558C76.542 69.497 74.459 69.495 72.846 70.558L55.269 82.135L54.719 81.3L72.296 69.723C74.242 68.441 76.758 68.441 78.705 69.723L96.282 81.3L95.732 82.135Z" fill="#263238"/>
<path d="M93.924 79.906H84.789H66.212V107.618H84.789H93.924H112.501V79.906H93.924Z" fill="#407BFF"/>
<path d="M66.212 79.906H38.5V107.618H66.212V79.906Z" fill="#407BFF"/>
<path opacity="0.3" d="M66.212 79.906H38.5V107.618H66.212V79.906Z" fill="white"/>
<path opacity="0.2" d="M53.856 82.202V105.324C53.856 105.763 54.212 106.119 54.651 106.119H63.918C64.357 106.119 64.713 105.763 64.713 105.324V82.202C64.713 81.763 64.357 81.407 63.918 81.407H54.651C54.212 81.407 53.856 81.763 53.856 82.202Z" fill="white"/>
<g opacity="0.2">
<path d="M62.215 85.573H42.4969C41.9589 85.573 41.5229 85.137 41.5229 84.599C41.5229 84.061 41.9589 83.625 42.4969 83.625H62.215C62.753 83.625 63.1889 84.061 63.1889 84.599C63.1889 85.136 62.753 85.573 62.215 85.573Z" fill="black"/>
<path d="M62.215 91.682H42.4969C41.9589 91.682 41.5229 91.246 41.5229 90.708C41.5229 90.17 41.9589 89.734 42.4969 89.734H62.215C62.753 89.734 63.1889 90.17 63.1889 90.708C63.1889 91.246 62.753 91.682 62.215 91.682Z" fill="black"/>
<path d="M62.215 97.791H42.4969C41.9589 97.791 41.5229 97.355 41.5229 96.817C41.5229 96.279 41.9589 95.843 42.4969 95.843H62.215C62.753 95.843 63.1889 96.279 63.1889 96.817C63.1889 97.355 62.753 97.791 62.215 97.791Z" fill="black"/>
<path d="M62.215 103.9H42.4969C41.9589 103.9 41.5229 103.464 41.5229 102.926C41.5229 102.388 41.9589 101.952 42.4969 101.952H62.215C62.753 101.952 63.1889 102.388 63.1889 102.926C63.1889 103.464 62.753 103.9 62.215 103.9Z" fill="black"/>
</g>
<path opacity="0.2" d="M88.2581 103.622V83.904C88.2581 83.366 88.6941 82.93 89.2321 82.93C89.7701 82.93 90.2061 83.366 90.2061 83.904V103.622C90.2061 104.16 89.7701 104.596 89.2321 104.596C88.6941 104.596 88.2581 104.16 88.2581 103.622Z" fill="black"/>
<path opacity="0.2" d="M82.1479 103.622V83.904C82.1479 83.366 82.5839 82.93 83.1219 82.93C83.6599 82.93 84.0959 83.366 84.0959 83.904V103.622C84.0959 104.16 83.6599 104.596 83.1219 104.596C82.5849 104.596 82.1479 104.16 82.1479 103.622Z" fill="black"/>
<path opacity="0.2" d="M76.0391 103.622V83.904C76.0391 83.366 76.4751 82.93 77.0131 82.93C77.5511 82.93 77.9871 83.366 77.9871 83.904V103.622C77.9871 104.16 77.5511 104.596 77.0131 104.596C76.4751 104.596 76.0391 104.16 76.0391 103.622Z" fill="black"/>
<path opacity="0.2" d="M69.9299 103.622V83.904C69.9299 83.366 70.3659 82.93 70.9039 82.93C71.4419 82.93 71.8779 83.366 71.8779 83.904V103.622C71.8779 104.16 71.4419 104.596 70.9039 104.596C70.3659 104.596 69.9299 104.16 69.9299 103.622Z" fill="black"/>
<path opacity="0.2" d="M106.835 103.622V83.904C106.835 83.366 107.271 82.93 107.809 82.93C108.347 82.93 108.783 83.366 108.783 83.904V103.622C108.783 104.16 108.347 104.596 107.809 104.596C107.271 104.596 106.835 104.16 106.835 103.622Z" fill="black"/>
<path opacity="0.2" d="M100.725 103.622V83.904C100.725 83.366 101.161 82.93 101.699 82.93C102.237 82.93 102.673 83.366 102.673 83.904V103.622C102.673 104.16 102.237 104.596 101.699 104.596C101.161 104.596 100.725 104.16 100.725 103.622Z" fill="black"/>
<path opacity="0.2" d="M94.616 103.622V83.904C94.616 83.366 95.052 82.93 95.59 82.93C96.128 82.93 96.564 83.366 96.564 83.904V103.622C96.564 104.16 96.128 104.596 95.59 104.596C95.052 104.596 94.616 104.16 94.616 103.622Z" fill="black"/>
<path d="M84.097 68.532H67.2531V71.833H84.097V68.532Z" fill="#407BFF"/>
<path d="M309.422 243.138H174.039V264.39H309.422V243.138Z" fill="#263238"/>
<path opacity="0.1" d="M309.422 243.138H174.039V248.494H309.422V243.138Z" fill="black"/>
<path d="M313.317 234.398H170.144V243.138H313.317V234.398Z" fill="#263238"/>
<path d="M313.317 234.398H170.144V243.138H313.317V234.398Z" fill="#263238"/>
<path d="M204.76 206.686H177.048V234.398H204.76V206.686Z" fill="#407BFF"/>
<path opacity="0.5" d="M192.404 208.982V232.105C192.404 232.544 192.76 232.9 193.199 232.9H202.466C202.905 232.9 203.261 232.544 203.261 232.105V208.982C203.261 208.543 202.905 208.187 202.466 208.187H193.199C192.76 208.187 192.404 208.543 192.404 208.982Z" fill="white"/>
<g opacity="0.2">
<path d="M200.763 212.353H181.044C180.506 212.353 180.07 211.917 180.07 211.379C180.07 210.841 180.506 210.405 181.044 210.405H200.763C201.301 210.405 201.737 210.841 201.737 211.379C201.737 211.917 201.301 212.353 200.763 212.353Z" fill="black"/>
<path d="M200.763 218.462H181.044C180.506 218.462 180.07 218.026 180.07 217.488C180.07 216.95 180.506 216.514 181.044 216.514H200.763C201.301 216.514 201.737 216.95 201.737 217.488C201.737 218.026 201.301 218.462 200.763 218.462Z" fill="black"/>
<path d="M200.763 224.571H181.044C180.506 224.571 180.07 224.135 180.07 223.597C180.07 223.059 180.506 222.623 181.044 222.623H200.763C201.301 222.623 201.737 223.059 201.737 223.597C201.737 224.135 201.301 224.571 200.763 224.571Z" fill="black"/>
<path d="M200.763 230.68H181.044C180.506 230.68 180.07 230.244 180.07 229.706C180.07 229.168 180.506 228.732 181.044 228.732H200.763C201.301 228.732 201.737 229.168 201.737 229.706C201.737 230.244 201.301 230.68 200.763 230.68Z" fill="black"/>
</g>
<path d="M232.472 206.686H204.76V234.398H232.472V206.686Z" fill="#407BFF"/>
<path opacity="0.2" d="M232.472 206.686H204.76V234.398H232.472V206.686Z" fill="black"/>
<g opacity="0.2">
<path d="M226.806 230.402V210.683C226.806 210.145 227.242 209.709 227.78 209.709C228.318 209.709 228.754 210.145 228.754 210.683V230.402C228.754 230.94 228.318 231.376 227.78 231.376C227.242 231.376 226.806 230.94 226.806 230.402Z" fill="black"/>
<path d="M220.697 230.402V210.683C220.697 210.145 221.133 209.709 221.671 209.709C222.209 209.709 222.645 210.145 222.645 210.683V230.402C222.645 230.94 222.209 231.376 221.671 231.376C221.133 231.376 220.697 230.94 220.697 230.402Z" fill="black"/>
<path d="M214.587 230.402V210.683C214.587 210.145 215.023 209.709 215.561 209.709C216.099 209.709 216.535 210.145 216.535 210.683V230.402C216.535 230.94 216.099 231.376 215.561 231.376C215.023 231.376 214.587 230.94 214.587 230.402Z" fill="black"/>
<path d="M208.478 230.402V210.683C208.478 210.145 208.914 209.709 209.452 209.709C209.99 209.709 210.426 210.145 210.426 210.683V230.402C210.426 230.94 209.99 231.376 209.452 231.376C208.914 231.376 208.478 230.94 208.478 230.402Z" fill="black"/>
</g>
<path d="M246.328 206.686H218.616V234.398H246.328V206.686Z" fill="#263238"/>
<path opacity="0.6" d="M246.328 206.686H218.616V234.398H246.328V206.686Z" fill="white"/>
<path opacity="0.5" d="M233.972 208.982V232.105C233.972 232.544 234.328 232.9 234.767 232.9H244.034C244.473 232.9 244.829 232.544 244.829 232.105V208.982C244.829 208.543 244.473 208.187 244.034 208.187H234.767C234.328 208.187 233.972 208.543 233.972 208.982Z" fill="white"/>
<g opacity="0.2">
<path d="M242.331 212.353H222.612C222.074 212.353 221.638 211.917 221.638 211.379C221.638 210.841 222.074 210.405 222.612 210.405H242.331C242.869 210.405 243.305 210.841 243.305 211.379C243.305 211.917 242.869 212.353 242.331 212.353Z" fill="black"/>
<path d="M242.331 218.462H222.612C222.074 218.462 221.638 218.026 221.638 217.488C221.638 216.95 222.074 216.514 222.612 216.514H242.331C242.869 216.514 243.305 216.95 243.305 217.488C243.305 218.026 242.869 218.462 242.331 218.462Z" fill="black"/>
<path d="M242.331 224.571H222.612C222.074 224.571 221.638 224.135 221.638 223.597C221.638 223.059 222.074 222.623 222.612 222.623H242.331C242.869 222.623 243.305 223.059 243.305 223.597C243.305 224.135 242.869 224.571 242.331 224.571Z" fill="black"/>
<path d="M242.331 230.68H222.612C222.074 230.68 221.638 230.244 221.638 229.706C221.638 229.168 222.074 228.732 222.612 228.732H242.331C242.869 228.732 243.305 229.168 243.305 229.706C243.305 230.244 242.869 230.68 242.331 230.68Z" fill="black"/>
</g>
<path d="M274.04 206.686H246.328V234.398H274.04V206.686Z" fill="#263238"/>
<path opacity="0.4" d="M274.04 206.686H246.328V234.398H274.04V206.686Z" fill="white"/>
<g opacity="0.2">
<path d="M268.374 230.402V210.683C268.374 210.145 268.81 209.709 269.348 209.709C269.886 209.709 270.322 210.145 270.322 210.683V230.402C270.322 230.94 269.886 231.376 269.348 231.376C268.81 231.376 268.374 230.94 268.374 230.402Z" fill="black"/>
<path d="M262.265 230.402V210.683C262.265 210.145 262.701 209.709 263.239 209.709C263.777 209.709 264.213 210.145 264.213 210.683V230.402C264.213 230.94 263.777 231.376 263.239 231.376C262.701 231.376 262.265 230.94 262.265 230.402Z" fill="black"/>
<path d="M256.155 230.402V210.683C256.155 210.145 256.591 209.709 257.129 209.709C257.667 209.709 258.103 210.145 258.103 210.683V230.402C258.103 230.94 257.667 231.376 257.129 231.376C256.591 231.376 256.155 230.94 256.155 230.402Z" fill="black"/>
<path d="M250.046 230.402V210.683C250.046 210.145 250.482 209.709 251.02 209.709C251.558 209.709 251.994 210.145 251.994 210.683V230.402C251.994 230.94 251.558 231.376 251.02 231.376C250.482 231.376 250.046 230.94 250.046 230.402Z" fill="black"/>
</g>
<path d="M281.775 206.686H254.063V234.398H281.775V206.686Z" fill="#407BFF"/>
<path opacity="0.2" d="M281.775 206.686H254.063V234.398H281.775V206.686Z" fill="white"/>
<path opacity="0.5" d="M269.419 208.982V232.105C269.419 232.544 269.775 232.9 270.214 232.9H279.481C279.92 232.9 280.276 232.544 280.276 232.105V208.982C280.276 208.543 279.92 208.187 279.481 208.187H270.214C269.775 208.187 269.419 208.543 269.419 208.982Z" fill="white"/>
<g opacity="0.2">
<path d="M277.778 212.353H258.06C257.522 212.353 257.086 211.917 257.086 211.379C257.086 210.841 257.522 210.405 258.06 210.405H277.779C278.317 210.405 278.753 210.841 278.753 211.379C278.752 211.917 278.316 212.353 277.778 212.353Z" fill="black"/>
<path d="M277.778 218.462H258.06C257.522 218.462 257.086 218.026 257.086 217.488C257.086 216.95 257.522 216.514 258.06 216.514H277.779C278.317 216.514 278.753 216.95 278.753 217.488C278.752 218.026 278.316 218.462 277.778 218.462Z" fill="black"/>
<path d="M277.778 224.571H258.06C257.522 224.571 257.086 224.135 257.086 223.597C257.086 223.059 257.522 222.623 258.06 222.623H277.779C278.317 222.623 278.753 223.059 278.753 223.597C278.752 224.135 278.316 224.571 277.778 224.571Z" fill="black"/>
<path d="M277.778 230.68H258.06C257.522 230.68 257.086 230.244 257.086 229.706C257.086 229.168 257.522 228.732 258.06 228.732H277.779C278.317 228.732 278.753 229.168 278.753 229.706C278.752 230.244 278.316 230.68 277.778 230.68Z" fill="black"/>
</g>
<path d="M309.487 206.686H281.775V234.398H309.487V206.686Z" fill="#407BFF"/>
<g opacity="0.2">
<path d="M303.82 230.402V210.683C303.82 210.145 304.256 209.709 304.794 209.709C305.332 209.709 305.768 210.145 305.768 210.683V230.402C305.768 230.94 305.332 231.376 304.794 231.376C304.257 231.376 303.82 230.94 303.82 230.402Z" fill="black"/>
<path d="M297.711 230.402V210.683C297.711 210.145 298.147 209.709 298.685 209.709C299.223 209.709 299.659 210.145 299.659 210.683V230.402C299.659 230.94 299.223 231.376 298.685 231.376C298.147 231.376 297.711 230.94 297.711 230.402Z" fill="black"/>
<path d="M291.602 230.402V210.683C291.602 210.145 292.038 209.709 292.576 209.709C293.114 209.709 293.55 210.145 293.55 210.683V230.402C293.55 230.94 293.114 231.376 292.576 231.376C292.038 231.376 291.602 230.94 291.602 230.402Z" fill="black"/>
<path d="M285.493 230.402V210.683C285.493 210.145 285.929 209.709 286.467 209.709C287.005 209.709 287.441 210.145 287.441 210.683V230.402C287.441 230.94 287.005 231.376 286.467 231.376C285.929 231.376 285.493 230.94 285.493 230.402Z" fill="black"/>
</g>
<path d="M218.616 179.046H190.904V206.758H218.616V179.046Z" fill="#407BFF"/>
<path opacity="0.6" d="M218.616 179.046H190.904V206.758H218.616V179.046Z" fill="white"/>
<path opacity="0.5" d="M206.26 181.341V204.464C206.26 204.903 206.616 205.259 207.055 205.259H216.322C216.761 205.259 217.117 204.903 217.117 204.464V181.341C217.117 180.902 216.761 180.546 216.322 180.546H207.055C206.616 180.547 206.26 180.903 206.26 181.341Z" fill="white"/>
<g opacity="0.2">
<path d="M214.619 184.713H194.9C194.362 184.713 193.926 184.277 193.926 183.739C193.926 183.201 194.362 182.765 194.9 182.765H214.619C215.157 182.765 215.593 183.201 215.593 183.739C215.593 184.276 215.157 184.713 214.619 184.713Z" fill="black"/>
<path d="M214.619 190.822H194.9C194.362 190.822 193.926 190.386 193.926 189.848C193.926 189.31 194.362 188.874 194.9 188.874H214.619C215.157 188.874 215.593 189.31 215.593 189.848C215.593 190.386 215.157 190.822 214.619 190.822Z" fill="black"/>
<path d="M214.619 196.931H194.9C194.362 196.931 193.926 196.495 193.926 195.957C193.926 195.419 194.362 194.983 194.9 194.983H214.619C215.157 194.983 215.593 195.419 215.593 195.957C215.593 196.495 215.157 196.931 214.619 196.931Z" fill="black"/>
<path d="M214.619 203.04H194.9C194.362 203.04 193.926 202.604 193.926 202.066C193.926 201.528 194.362 201.092 194.9 201.092H214.619C215.157 201.092 215.593 201.528 215.593 202.066C215.593 202.604 215.157 203.04 214.619 203.04Z" fill="black"/>
</g>
<path d="M246.328 179.046H218.616V206.758H246.328V179.046Z" fill="#407BFF"/>
<path opacity="0.4" d="M246.328 179.046H218.616V206.758H246.328V179.046Z" fill="white"/>
<g opacity="0.2">
<path d="M240.662 202.762V183.043C240.662 182.505 241.098 182.069 241.636 182.069C242.174 182.069 242.61 182.505 242.61 183.043V202.762C242.61 203.3 242.174 203.736 241.636 203.736C241.098 203.736 240.662 203.3 240.662 202.762Z" fill="black"/>
<path d="M234.553 202.762V183.043C234.553 182.505 234.989 182.069 235.527 182.069C236.065 182.069 236.501 182.505 236.501 183.043V202.762C236.501 203.3 236.065 203.736 235.527 203.736C234.989 203.736 234.553 203.3 234.553 202.762Z" fill="black"/>
<path d="M228.443 202.762V183.043C228.443 182.505 228.879 182.069 229.417 182.069C229.955 182.069 230.391 182.505 230.391 183.043V202.762C230.391 203.3 229.955 203.736 229.417 203.736C228.879 203.736 228.443 203.3 228.443 202.762Z" fill="black"/>
<path d="M222.334 202.762V183.043C222.334 182.505 222.77 182.069 223.308 182.069C223.846 182.069 224.282 182.505 224.282 183.043V202.762C224.282 203.3 223.846 203.736 223.308 203.736C222.77 203.736 222.334 203.3 222.334 202.762Z" fill="black"/>
</g>
<path d="M262.265 179.046H234.553V206.758H262.265V179.046Z" fill="#263238"/>
<path opacity="0.6" d="M262.265 179.046H234.553V206.758H262.265V179.046Z" fill="white"/>
<path opacity="0.5" d="M249.909 181.341V204.464C249.909 204.903 250.265 205.259 250.704 205.259H259.971C260.41 205.259 260.766 204.903 260.766 204.464V181.341C260.766 180.902 260.41 180.546 259.971 180.546H250.704C250.265 180.547 249.909 180.903 249.909 181.341Z" fill="white"/>
<g opacity="0.2">
<path d="M258.268 184.713H238.549C238.011 184.713 237.575 184.277 237.575 183.739C237.575 183.201 238.011 182.765 238.549 182.765H258.268C258.806 182.765 259.242 183.201 259.242 183.739C259.242 184.276 258.806 184.713 258.268 184.713Z" fill="black"/>
<path d="M258.268 190.822H238.549C238.011 190.822 237.575 190.386 237.575 189.848C237.575 189.31 238.011 188.874 238.549 188.874H258.268C258.806 188.874 259.242 189.31 259.242 189.848C259.242 190.386 258.806 190.822 258.268 190.822Z" fill="black"/>
<path d="M258.268 196.931H238.549C238.011 196.931 237.575 196.495 237.575 195.957C237.575 195.419 238.011 194.983 238.549 194.983H258.268C258.806 194.983 259.242 195.419 259.242 195.957C259.242 196.495 258.806 196.931 258.268 196.931Z" fill="black"/>
<path d="M258.268 203.04H238.549C238.011 203.04 237.575 202.604 237.575 202.066C237.575 201.528 238.011 201.092 238.549 201.092H258.268C258.806 201.092 259.242 201.528 259.242 202.066C259.242 202.604 258.806 203.04 258.268 203.04Z" fill="black"/>
</g>
<path d="M289.977 179.046H262.265V206.758H289.977V179.046Z" fill="#263238"/>
<path opacity="0.4" d="M289.977 179.046H262.265V206.758H289.977V179.046Z" fill="white"/>
<g opacity="0.2">
<path d="M284.31 202.762V183.043C284.31 182.505 284.746 182.069 285.284 182.069C285.822 182.069 286.258 182.505 286.258 183.043V202.762C286.258 203.3 285.822 203.736 285.284 203.736C284.746 203.736 284.31 203.3 284.31 202.762Z" fill="black"/>
<path d="M278.201 202.762V183.043C278.201 182.505 278.637 182.069 279.175 182.069C279.713 182.069 280.149 182.505 280.149 183.043V202.762C280.149 203.3 279.713 203.736 279.175 203.736C278.637 203.736 278.201 203.3 278.201 202.762Z" fill="black"/>
<path d="M272.092 202.762V183.043C272.092 182.505 272.528 182.069 273.066 182.069C273.604 182.069 274.04 182.505 274.04 183.043V202.762C274.04 203.3 273.604 203.736 273.066 203.736C272.528 203.736 272.092 203.3 272.092 202.762Z" fill="black"/>
<path d="M265.983 202.762V183.043C265.983 182.505 266.419 182.069 266.957 182.069C267.495 182.069 267.931 182.505 267.931 183.043V202.762C267.931 203.3 267.495 203.736 266.957 203.736C266.419 203.736 265.983 203.3 265.983 202.762Z" fill="black"/>
</g>
<path d="M246.828 151.406H219.116V179.118H246.828V151.406Z" fill="#263238"/>
<path opacity="0.7" d="M246.828 151.406H219.116V179.118H246.828V151.406Z" fill="white"/>
<path opacity="0.5" d="M234.473 153.702V176.825C234.473 177.264 234.829 177.62 235.268 177.62H244.535C244.974 177.62 245.33 177.264 245.33 176.825V153.702C245.33 153.263 244.974 152.907 244.535 152.907H235.268C234.828 152.907 234.473 153.263 234.473 153.702Z" fill="white"/>
<g opacity="0.2">
<path d="M242.832 157.073H223.113C222.575 157.073 222.139 156.637 222.139 156.099C222.139 155.561 222.575 155.125 223.113 155.125H242.832C243.37 155.125 243.806 155.561 243.806 156.099C243.806 156.637 243.37 157.073 242.832 157.073Z" fill="black"/>
<path d="M242.832 163.182H223.113C222.575 163.182 222.139 162.746 222.139 162.208C222.139 161.67 222.575 161.234 223.113 161.234H242.832C243.37 161.234 243.806 161.67 243.806 162.208C243.806 162.746 243.37 163.182 242.832 163.182Z" fill="black"/>
<path d="M242.832 169.291H223.113C222.575 169.291 222.139 168.855 222.139 168.317C222.139 167.779 222.575 167.343 223.113 167.343H242.832C243.37 167.343 243.806 167.779 243.806 168.317C243.806 168.855 243.37 169.291 242.832 169.291Z" fill="black"/>
<path d="M242.832 175.4H223.113C222.575 175.4 222.139 174.964 222.139 174.426C222.139 173.888 222.575 173.452 223.113 173.452H242.832C243.37 173.452 243.806 173.888 243.806 174.426C243.806 174.964 243.37 175.4 242.832 175.4Z" fill="black"/>
</g>
<path d="M274.54 151.406H246.828V179.118H274.54V151.406Z" fill="#263238"/>
<path opacity="0.5" d="M274.54 151.406H246.828V179.118H274.54V151.406Z" fill="white"/>
<g opacity="0.2">
<path d="M268.874 175.122V155.403C268.874 154.865 269.31 154.429 269.848 154.429C270.386 154.429 270.822 154.865 270.822 155.403V175.122C270.822 175.66 270.386 176.096 269.848 176.096C269.31 176.096 268.874 175.66 268.874 175.122Z" fill="black"/>
<path d="M262.765 175.122V155.403C262.765 154.865 263.201 154.429 263.739 154.429C264.277 154.429 264.713 154.865 264.713 155.403V175.122C264.713 175.66 264.277 176.096 263.739 176.096C263.201 176.096 262.765 175.66 262.765 175.122Z" fill="black"/>
<path d="M256.655 175.122V155.403C256.655 154.865 257.091 154.429 257.629 154.429C258.167 154.429 258.603 154.865 258.603 155.403V175.122C258.603 175.66 258.167 176.096 257.629 176.096C257.092 176.096 256.655 175.66 256.655 175.122Z" fill="black"/>
<path d="M250.546 175.122V155.403C250.546 154.865 250.982 154.429 251.52 154.429C252.058 154.429 252.494 154.865 252.494 155.403V175.122C252.494 175.66 252.058 176.096 251.52 176.096C250.982 176.096 250.546 175.66 250.546 175.122Z" fill="black"/>
</g>
</svg>
