<svg width="509" height="310" viewBox="0 0 509 310" fill="none" xmlns="http://www.w3.org/2000/svg">
<g opacity="0.2">
<path d="M507.538 309.296H420.182V196.652L507.538 198.856V309.296Z" fill="#FFFEFF"/>
<path d="M507.54 309.949H420.184C419.824 309.949 419.533 309.658 419.533 309.299V196.652C419.533 196.477 419.604 196.307 419.728 196.186C419.855 196.064 420.017 195.993 420.201 196.002L507.557 198.205C507.91 198.214 508.19 198.502 508.19 198.856V309.296C508.19 309.655 507.899 309.946 507.54 309.946V309.949ZM420.837 308.648H506.889V199.492L420.837 197.32V308.645V308.648Z" fill="black"/>
<path d="M434.43 257.508C434.071 257.508 433.779 257.216 433.779 256.857V211.051C433.779 210.692 434.071 210.401 434.43 210.401C434.789 210.401 435.08 210.692 435.08 211.051V256.857C435.08 257.216 434.789 257.508 434.43 257.508Z" fill="black"/>
<path d="M449.004 259.434C448.645 259.434 448.354 259.142 448.354 258.783V211.051C448.354 210.692 448.645 210.401 449.004 210.401C449.364 210.401 449.655 210.692 449.655 211.051V258.783C449.655 259.142 449.364 259.434 449.004 259.434Z" fill="black"/>
<path d="M463.579 294.165C463.22 294.165 462.929 293.873 462.929 293.514V212.145C462.929 211.786 463.22 211.495 463.579 211.495C463.938 211.495 464.23 211.786 464.23 212.145V293.514C464.23 293.873 463.938 294.165 463.579 294.165Z" fill="black"/>
<path d="M478.154 295.256C477.794 295.256 477.503 294.965 477.503 294.606V212.145C477.503 211.786 477.794 211.495 478.154 211.495C478.513 211.495 478.804 211.786 478.804 212.145V294.606C478.804 294.965 478.513 295.256 478.154 295.256Z" fill="black"/>
<path d="M492.728 295.256C492.369 295.256 492.078 294.965 492.078 294.606V236.946C492.078 236.587 492.369 236.296 492.728 236.296C493.087 236.296 493.379 236.587 493.379 236.946V294.606C493.379 294.965 493.087 295.256 492.728 295.256Z" fill="black"/>
<path d="M420.187 309.296V196.653L297.653 206.218V303.128L420.187 309.296Z" fill="#FFFEFF"/>
<path d="M420.187 309.949C420.187 309.949 420.164 309.949 420.153 309.949L297.619 303.778C297.274 303.761 297 303.475 297 303.127V206.218C297 205.878 297.26 205.595 297.6 205.567L420.133 196.002C420.32 195.988 420.492 196.05 420.625 196.174C420.758 196.299 420.835 196.471 420.835 196.652V309.299C420.835 309.477 420.761 309.646 420.631 309.771C420.509 309.887 420.348 309.949 420.181 309.949H420.187ZM298.304 302.508L419.536 308.611V197.354L298.304 206.817V302.505V302.508Z" fill="black"/>
<path d="M407.935 256.554C407.576 256.554 407.285 256.263 407.285 255.904V206.429C407.285 206.07 407.576 205.779 407.935 205.779C408.295 205.779 408.586 206.07 408.586 206.429V255.904C408.586 256.263 408.295 256.554 407.935 256.554Z" fill="black"/>
<path d="M393.877 231.821C393.517 231.821 393.226 231.53 393.226 231.171V208.304C393.226 207.945 393.517 207.654 393.877 207.654C394.236 207.654 394.527 207.945 394.527 208.304V231.171C394.527 231.53 394.236 231.821 393.877 231.821Z" fill="black"/>
<path d="M379.818 252.77C379.459 252.77 379.167 252.479 379.167 252.12V210.177C379.167 209.818 379.459 209.526 379.818 209.526C380.177 209.526 380.468 209.818 380.468 210.177V252.12C380.468 252.479 380.177 252.77 379.818 252.77Z" fill="black"/>
<path d="M365.763 278.962C365.403 278.962 365.112 278.472 365.112 277.867V211.844C365.112 211.239 365.403 210.748 365.763 210.748C366.122 210.748 366.413 211.239 366.413 211.844V277.867C366.413 278.472 366.122 278.962 365.763 278.962Z" fill="black"/>
<path d="M351.704 249.405C351.345 249.405 351.053 249.113 351.053 248.754V212.618C351.053 212.258 351.345 211.967 351.704 211.967C352.063 211.967 352.354 212.258 352.354 212.618V248.754C352.354 249.113 352.063 249.405 351.704 249.405Z" fill="black"/>
<path d="M337.649 282.823C337.289 282.823 336.998 281.93 336.998 280.829V230C336.998 228.899 337.289 228.006 337.649 228.006C338.008 228.006 338.299 228.899 338.299 230V280.829C338.299 281.93 338.008 282.823 337.649 282.823Z" fill="black"/>
<path d="M323.586 244.2C323.227 244.2 322.936 243.909 322.936 243.55V214.411C322.936 214.051 323.227 213.76 323.586 213.76C323.945 213.76 324.237 214.051 324.237 214.411V243.55C324.237 243.909 323.945 244.2 323.586 244.2Z" fill="black"/>
<path d="M309.531 241.675C309.172 241.675 308.88 241.384 308.88 241.025V214.979C308.88 214.62 309.172 214.329 309.531 214.329C309.89 214.329 310.181 214.62 310.181 214.979V241.025C310.181 241.384 309.89 241.675 309.531 241.675Z" fill="black"/>
</g>
<g opacity="0.2">
<path d="M-112.494 178.805C-110.593 178.171 64.8249 1.0155 64.8249 1.0155L132.79 32.343H76.857L-48.5323 157.732L-112.494 190.468V178.805Z" fill="#FFFEFF"/>
<path d="M-112.492 191.479C-112.677 191.479 -112.857 191.431 -113.02 191.33C-113.319 191.145 -113.504 190.819 -113.504 190.467V178.805C-113.504 178.435 -113.301 178.101 -112.989 177.925C-109.135 175.004 4.44624 60.5555 64.1097 0.302507C64.4089 -0.00104531 64.8664 -0.0846323 65.2536 0.0957396L133.219 31.4233C133.65 31.6212 133.887 32.0964 133.782 32.5583C133.68 33.0246 133.267 33.3546 132.792 33.3546H77.2813L-47.8132 158.449C-47.888 158.524 -47.976 158.585 -48.0684 158.634L-112.03 191.369C-112.175 191.444 -112.334 191.479 -112.492 191.479ZM-111.48 179.201V188.809L-49.1374 156.9L76.1463 31.6256C76.3354 31.4365 76.595 31.3309 76.8634 31.3309H128.177L65.0468 2.22941C13.94 53.8422 -101.34 170.129 -111.48 179.205V179.201Z" fill="black"/>
<path d="M-106.175 50.3847C-106.615 50.3847 -107.024 50.0943 -107.148 49.6456C-107.301 49.1089 -106.985 48.5458 -106.448 48.3962L64.5445 0.0389502C65.0812 -0.115026 65.6443 0.201725 65.7939 0.738441C65.9435 1.27516 65.6312 1.83827 65.0944 1.98785L-105.898 50.3451C-105.99 50.3715 -106.083 50.3847 -106.175 50.3847Z" fill="black"/>
<path d="M141.119 41.2039H124.445V66.9354H141.119V41.2039Z" fill="#FFFEFF"/>
<path d="M133.234 90.0138C128.104 90.0138 123.929 85.8388 123.929 80.7092C123.929 80.1505 124.382 79.6974 124.941 79.6974C125.5 79.6974 125.953 80.1505 125.953 80.7092C125.953 84.7214 129.217 87.9901 133.234 87.9901C137.25 87.9901 140.515 84.7258 140.515 80.7092C140.515 76.6926 137.25 73.4283 133.234 73.4283C132.675 73.4283 132.222 72.9752 132.222 72.4165V32.3431C132.222 31.7844 132.675 31.3313 133.234 31.3313C133.793 31.3313 134.246 31.7844 134.246 32.3431V71.4574C138.9 71.9634 142.538 75.9184 142.538 80.7092C142.538 85.8388 138.363 90.0138 133.234 90.0138Z" fill="black"/>
<path d="M291.709 292.07H174.594V140.202L291.709 143.176V292.07Z" fill="#FFFEFF"/>
<path d="M291.711 293.082H174.597C174.038 293.082 173.585 292.629 173.585 292.07V140.201C173.585 139.929 173.695 139.665 173.888 139.476C174.086 139.286 174.346 139.181 174.623 139.19L291.737 142.164C292.287 142.177 292.723 142.625 292.723 143.175V292.07C292.723 292.629 292.269 293.082 291.711 293.082ZM175.608 291.058H290.694V144.165L175.608 141.244V291.058Z" fill="black"/>
<path d="M192.274 275.006C191.715 275.006 191.262 274.552 191.262 273.994V155.767C191.262 155.208 191.715 154.755 192.274 154.755C192.833 154.755 193.286 155.208 193.286 155.767V273.994C193.286 274.552 192.833 275.006 192.274 275.006Z" fill="black"/>
<path d="M212.903 275.006C212.344 275.006 211.891 274.552 211.891 273.994V214.88C211.891 214.321 212.344 213.868 212.903 213.868C213.461 213.868 213.915 214.321 213.915 214.88V273.994C213.915 274.552 213.461 275.006 212.903 275.006Z" fill="black"/>
<path d="M233.671 275.005C233.113 275.005 232.66 274.552 232.66 273.994V237.849C232.66 237.29 233.113 236.837 233.671 236.837C234.23 236.837 234.683 237.29 234.683 237.849V273.994C234.683 274.552 234.23 275.005 233.671 275.005Z" fill="black"/>
<path d="M212.903 188.229C212.344 188.229 211.891 187.776 211.891 187.217V169.739C211.891 169.18 212.344 168.727 212.903 168.727C213.461 168.727 213.915 169.18 213.915 169.739V187.217C213.915 187.776 213.461 188.229 212.903 188.229Z" fill="black"/>
<path d="M174.589 292.07V140.202L8.73035 162.691V297.279L174.589 292.07Z" fill="#FFFEFF"/>
<path d="M8.7323 298.296C8.46834 298.296 8.21759 298.194 8.02842 298.01C7.83045 297.82 7.72046 297.556 7.72046 297.284V162.695C7.72046 162.19 8.0944 161.758 8.59592 161.692L174.454 139.203C174.745 139.164 175.035 139.252 175.26 139.445C175.48 139.639 175.607 139.916 175.607 140.206V292.075C175.607 292.62 175.172 293.069 174.626 293.087L8.7675 298.3C8.7675 298.3 8.7455 298.3 8.7367 298.3L8.7323 298.296ZM9.74416 163.58V296.241L173.575 291.094V141.368L9.74416 163.58Z" fill="black"/>
<path d="M157.413 275.005C156.854 275.005 156.401 274.552 156.401 273.994V157.121C156.401 156.563 156.854 156.11 157.413 156.11C157.971 156.11 158.424 156.563 158.424 157.121V273.994C158.424 274.552 157.971 275.005 157.413 275.005Z" fill="black"/>
<path d="M138.462 275.005C137.903 275.005 137.45 274.552 137.45 273.993V159.642C137.45 159.083 137.903 158.63 138.462 158.63C139.02 158.63 139.473 159.083 139.473 159.642V273.993C139.473 274.552 139.02 275.005 138.462 275.005Z" fill="black"/>
<path d="M119.51 276.458C118.952 276.458 118.499 276.005 118.499 275.446V162.164C118.499 161.605 118.952 161.152 119.51 161.152C120.069 161.152 120.522 161.605 120.522 162.164V275.446C120.522 276.005 120.069 276.458 119.51 276.458Z" fill="black"/>
<path d="M100.559 276.457C100.001 276.457 99.5475 276.004 99.5475 275.445V164.688C99.5475 164.129 100.001 163.676 100.559 163.676C101.118 163.676 101.571 164.129 101.571 164.688V275.445C101.571 276.004 101.118 276.457 100.559 276.457Z" fill="black"/>
<path d="M81.6082 226.362C81.0494 226.362 80.5963 225.909 80.5963 225.35V167.213C80.5963 166.655 81.0494 166.202 81.6082 166.202C82.1669 166.202 82.62 166.655 82.62 167.213V225.35C82.62 225.909 82.1669 226.362 81.6082 226.362Z" fill="black"/>
<path d="M81.6082 276.457C81.0494 276.457 80.5963 276.004 80.5963 275.445V253.669C80.5963 253.11 81.0494 252.657 81.6082 252.657C82.1669 252.657 82.62 253.11 82.62 253.669V275.445C82.62 276.004 82.1669 276.457 81.6082 276.457Z" fill="black"/>
<path d="M62.6571 205.708C62.0984 205.708 61.6453 205.254 61.6453 204.696V169.739C61.6453 169.18 62.0984 168.727 62.6571 168.727C63.2158 168.727 63.669 169.18 63.669 169.739V204.696C63.669 205.254 63.2158 205.708 62.6571 205.708Z" fill="black"/>
<path d="M43.6948 205.325C43.136 205.325 42.6829 204.872 42.6829 204.313V172.264C42.6829 171.705 43.136 171.252 43.6948 171.252C44.2535 171.252 44.7066 171.705 44.7066 172.264V204.313C44.7066 204.872 44.2535 205.325 43.6948 205.325Z" fill="black"/>
<path d="M43.6948 279.347C43.136 279.347 42.6829 278.894 42.6829 278.336V246.287C42.6829 245.728 43.136 245.275 43.6948 245.275C44.2535 245.275 44.7066 245.728 44.7066 246.287V278.336C44.7066 278.894 44.2535 279.347 43.6948 279.347Z" fill="black"/>
<path d="M24.7437 279.348C24.185 279.348 23.7319 278.895 23.7319 278.336V174.789C23.7319 174.231 24.185 173.778 24.7437 173.778C25.3024 173.778 25.7555 174.231 25.7555 174.789V278.336C25.7555 278.895 25.3024 279.348 24.7437 279.348Z" fill="black"/>
<path d="M174.593 141.213C174.267 141.213 173.95 141.059 173.757 140.773L140.696 92.4292C140.379 91.9672 140.498 91.3381 140.96 91.0214C141.422 90.7046 142.051 90.8234 142.368 91.2853L175.429 139.629C175.745 140.091 175.626 140.72 175.165 141.037C174.989 141.156 174.791 141.213 174.593 141.213Z" fill="black"/>
<path d="M85.481 144.355C85.2434 144.355 85.0015 144.271 84.8079 144.1C84.39 143.73 84.3504 143.088 84.7243 142.67L123.698 98.7429C124.067 98.325 124.71 98.2854 125.128 98.6593C125.546 99.0288 125.585 99.6711 125.211 100.089L86.2377 144.016C86.0353 144.241 85.7581 144.355 85.481 144.355Z" fill="black"/>
<path d="M8.7365 163.702C8.41095 163.702 8.08981 163.544 7.89184 163.254C7.57949 162.787 7.70707 162.158 8.169 161.85L132.221 78.888C132.498 78.7033 132.85 78.6637 133.158 78.7868L292.074 141.943C292.593 142.15 292.849 142.74 292.642 143.259C292.435 143.778 291.846 144.033 291.326 143.826L132.903 80.8677L9.29522 163.531C9.12365 163.645 8.92569 163.702 8.73212 163.702H8.7365Z" fill="black"/>
</g>
</svg>
