<svg width="16" height="16" viewBox="0 0 16 16" fill="none" xmlns="http://www.w3.org/2000/svg">
<path d="M3.75 1C3.05933 1 2.5 1.56 2.5 2.25V13.75C2.5 14.44 3.06 15 3.75 15H12.25C12.94 15 13.5 14.44 13.5 13.75V8.5C13.5 7.83696 13.2366 7.20107 12.7678 6.73223C12.2989 6.26339 11.663 6 11 6H9.75C9.41848 6 9.10054 5.8683 8.86612 5.63388C8.6317 5.39946 8.5 5.08152 8.5 4.75V3.5C8.5 2.83696 8.23661 2.20107 7.76777 1.73223C7.29893 1.26339 6.66304 1 6 1H3.75Z" fill="#B0B0B0"/>
<path d="M8.64648 1.21069C9.19749 1.846 9.50032 2.65906 9.49915 3.50003V4.75003C9.49915 4.88803 9.61115 5.00003 9.74915 5.00003H10.9992C11.8401 4.99886 12.6532 5.30168 13.2885 5.85269C12.9952 4.73717 12.4108 3.71956 11.5952 2.90395C10.7796 2.08834 9.76201 1.504 8.64648 1.21069Z" fill="#B0B0B0"/>
</svg>
