<svg width="579" height="382" viewBox="0 0 579 382" fill="none" xmlns="http://www.w3.org/2000/svg">
<rect x="198" y="1" width="380" height="380" rx="20" fill="#FFFEFF" stroke="black" stroke-opacity="0.1"/>
<path d="M198 21C198 9.95431 206.954 1 218 1H558C569.046 1 578 9.95431 578 21V65H198V21Z" fill="#F4F4F4"/>
<path d="M224.976 39L222.416 34.552H221.024V39H219.2V27.88H223.04C223.893 27.88 224.613 28.0293 225.2 28.328C225.797 28.6267 226.24 29.0267 226.528 29.528C226.827 30.0293 226.976 30.5893 226.976 31.208C226.976 31.9333 226.763 32.5947 226.336 33.192C225.92 33.7787 225.275 34.1787 224.4 34.392L227.152 39H224.976ZM221.024 33.096H223.04C223.723 33.096 224.235 32.9253 224.576 32.584C224.928 32.2427 225.104 31.784 225.104 31.208C225.104 30.632 224.933 30.184 224.592 29.864C224.251 29.5333 223.733 29.368 223.04 29.368H221.024V33.096ZM237.389 34.376C237.389 34.7067 237.368 35.0053 237.325 35.272H230.589C230.643 35.976 230.904 36.5413 231.373 36.968C231.843 37.3947 232.419 37.608 233.101 37.608C234.083 37.608 234.776 37.1973 235.181 36.376H237.149C236.883 37.1867 236.397 37.8533 235.693 38.376C235 38.888 234.136 39.144 233.101 39.144C232.259 39.144 231.501 38.9573 230.829 38.584C230.168 38.2 229.645 37.6667 229.261 36.984C228.888 36.2907 228.701 35.4907 228.701 34.584C228.701 33.6773 228.883 32.8827 229.245 32.2C229.619 31.5067 230.136 30.9733 230.797 30.6C231.469 30.2267 232.237 30.04 233.101 30.04C233.933 30.04 234.675 30.2213 235.325 30.584C235.976 30.9467 236.483 31.4587 236.845 32.12C237.208 32.7707 237.389 33.5227 237.389 34.376ZM235.485 33.8C235.475 33.128 235.235 32.5893 234.765 32.184C234.296 31.7787 233.715 31.576 233.021 31.576C232.392 31.576 231.853 31.7787 231.405 32.184C230.957 32.5787 230.691 33.1173 230.605 33.8H235.485ZM238.576 34.552C238.576 33.6667 238.758 32.8827 239.12 32.2C239.494 31.5173 239.995 30.9893 240.624 30.616C241.264 30.232 241.974 30.04 242.752 30.04C243.328 30.04 243.894 30.168 244.448 30.424C245.014 30.6693 245.462 31 245.792 31.416V27.16H247.632V39H245.792V37.672C245.494 38.0987 245.078 38.4507 244.544 38.728C244.022 39.0053 243.419 39.144 242.736 39.144C241.968 39.144 241.264 38.952 240.624 38.568C239.995 38.1733 239.494 37.6293 239.12 36.936C238.758 36.232 238.576 35.4373 238.576 34.552ZM245.792 34.584C245.792 33.976 245.664 33.448 245.408 33C245.163 32.552 244.838 32.2107 244.432 31.976C244.027 31.7413 243.59 31.624 243.12 31.624C242.651 31.624 242.214 31.7413 241.808 31.976C241.403 32.2 241.072 32.536 240.816 32.984C240.571 33.4213 240.448 33.944 240.448 34.552C240.448 35.16 240.571 35.6933 240.816 36.152C241.072 36.6107 241.403 36.9627 241.808 37.208C242.224 37.4427 242.662 37.56 243.12 37.56C243.59 37.56 244.027 37.4427 244.432 37.208C244.838 36.9733 245.163 36.632 245.408 36.184C245.664 35.7253 245.792 35.192 245.792 34.584ZM257.816 27.88C259 27.88 260.035 28.1093 260.92 28.568C261.816 29.016 262.504 29.6667 262.984 30.52C263.475 31.3627 263.72 32.3493 263.72 33.48C263.72 34.6107 263.475 35.592 262.984 36.424C262.504 37.256 261.816 37.896 260.92 38.344C260.035 38.7813 259 39 257.816 39H254.184V27.88H257.816ZM257.816 37.512C259.118 37.512 260.115 37.16 260.808 36.456C261.502 35.752 261.848 34.76 261.848 33.48C261.848 32.1893 261.502 31.1813 260.808 30.456C260.115 29.7307 259.118 29.368 257.816 29.368H256.008V37.512H257.816ZM267.352 31.464C267.619 31.016 267.971 30.6693 268.408 30.424C268.856 30.168 269.384 30.04 269.992 30.04V31.928H269.528C268.813 31.928 268.269 32.1093 267.896 32.472C267.533 32.8347 267.352 33.464 267.352 34.36V39H265.528V30.184H267.352V31.464ZM272.597 29.016C272.266 29.016 271.989 28.904 271.765 28.68C271.541 28.456 271.429 28.1787 271.429 27.848C271.429 27.5173 271.541 27.24 271.765 27.016C271.989 26.792 272.266 26.68 272.597 26.68C272.917 26.68 273.189 26.792 273.413 27.016C273.637 27.24 273.749 27.5173 273.749 27.848C273.749 28.1787 273.637 28.456 273.413 28.68C273.189 28.904 272.917 29.016 272.597 29.016ZM273.493 30.184V39H271.669V30.184H273.493ZM283.968 34.376C283.968 34.7067 283.946 35.0053 283.904 35.272H277.168C277.221 35.976 277.482 36.5413 277.952 36.968C278.421 37.3947 278.997 37.608 279.68 37.608C280.661 37.608 281.354 37.1973 281.76 36.376H283.727C283.461 37.1867 282.976 37.8533 282.272 38.376C281.578 38.888 280.714 39.144 279.68 39.144C278.837 39.144 278.08 38.9573 277.408 38.584C276.746 38.2 276.224 37.6667 275.84 36.984C275.466 36.2907 275.28 35.4907 275.28 34.584C275.28 33.6773 275.461 32.8827 275.824 32.2C276.197 31.5067 276.714 30.9733 277.376 30.6C278.048 30.2267 278.816 30.04 279.68 30.04C280.512 30.04 281.253 30.2213 281.904 30.584C282.554 30.9467 283.061 31.4587 283.424 32.12C283.786 32.7707 283.968 33.5227 283.968 34.376ZM282.064 33.8C282.053 33.128 281.813 32.5893 281.344 32.184C280.874 31.7787 280.293 31.576 279.6 31.576C278.97 31.576 278.432 31.7787 277.984 32.184C277.536 32.5787 277.269 33.1173 277.184 33.8H282.064ZM285.155 34.552C285.155 33.6667 285.336 32.8827 285.699 32.2C286.072 31.5173 286.573 30.9893 287.203 30.616C287.843 30.232 288.552 30.04 289.331 30.04C289.907 30.04 290.472 30.168 291.027 30.424C291.592 30.6693 292.04 31 292.371 31.416V27.16H294.211V39H292.371V37.672C292.072 38.0987 291.656 38.4507 291.123 38.728C290.6 39.0053 289.997 39.144 289.315 39.144C288.547 39.144 287.843 38.952 287.203 38.568C286.573 38.1733 286.072 37.6293 285.699 36.936C285.336 36.232 285.155 35.4373 285.155 34.552ZM292.371 34.584C292.371 33.976 292.243 33.448 291.987 33C291.741 32.552 291.416 32.2107 291.011 31.976C290.605 31.7413 290.168 31.624 289.699 31.624C289.229 31.624 288.792 31.7413 288.387 31.976C287.981 32.2 287.651 32.536 287.395 32.984C287.149 33.4213 287.027 33.944 287.027 34.552C287.027 35.16 287.149 35.6933 287.395 36.152C287.651 36.6107 287.981 36.9627 288.387 37.208C288.803 37.4427 289.24 37.56 289.699 37.56C290.168 37.56 290.605 37.4427 291.011 37.208C291.416 36.9733 291.741 36.632 291.987 36.184C292.243 35.7253 292.371 35.192 292.371 34.584ZM300.155 33.416C300.155 32.328 300.405 31.352 300.907 30.488C301.419 29.624 302.107 28.952 302.971 28.472C303.845 27.9813 304.8 27.736 305.835 27.736C307.019 27.736 308.069 28.0293 308.987 28.616C309.915 29.192 310.587 30.0133 311.003 31.08H308.811C308.523 30.4933 308.123 30.056 307.611 29.768C307.099 29.48 306.507 29.336 305.835 29.336C305.099 29.336 304.443 29.5013 303.867 29.832C303.291 30.1627 302.837 30.6373 302.507 31.256C302.187 31.8747 302.027 32.5947 302.027 33.416C302.027 34.2373 302.187 34.9573 302.507 35.576C302.837 36.1947 303.291 36.6747 303.867 37.016C304.443 37.3467 305.099 37.512 305.835 37.512C306.507 37.512 307.099 37.368 307.611 37.08C308.123 36.792 308.523 36.3547 308.811 35.768H311.003C310.587 36.8347 309.915 37.656 308.987 38.232C308.069 38.808 307.019 39.096 305.835 39.096C304.789 39.096 303.835 38.856 302.971 38.376C302.107 37.8853 301.419 37.208 300.907 36.344C300.405 35.48 300.155 34.504 300.155 33.416ZM317.698 30.04C318.37 30.04 318.967 30.184 319.49 30.472C320.023 30.76 320.439 31.1867 320.738 31.752C321.047 32.3173 321.202 33 321.202 33.8V39H319.394V34.072C319.394 33.2827 319.196 32.68 318.802 32.264C318.407 31.8373 317.868 31.624 317.186 31.624C316.503 31.624 315.959 31.8373 315.554 32.264C315.159 32.68 314.962 33.2827 314.962 34.072V39H313.138V27.16H314.962V31.208C315.271 30.8347 315.66 30.5467 316.13 30.344C316.61 30.1413 317.132 30.04 317.698 30.04ZM324.456 29.016C324.125 29.016 323.848 28.904 323.624 28.68C323.4 28.456 323.288 28.1787 323.288 27.848C323.288 27.5173 323.4 27.24 323.624 27.016C323.848 26.792 324.125 26.68 324.456 26.68C324.776 26.68 325.048 26.792 325.272 27.016C325.496 27.24 325.608 27.5173 325.608 27.848C325.608 28.1787 325.496 28.456 325.272 28.68C325.048 28.904 324.776 29.016 324.456 29.016ZM325.352 30.184V39H323.528V30.184H325.352ZM329.571 27.16V39H327.747V27.16H329.571ZM333.79 27.16V39H331.966V27.16H333.79ZM337.112 29.016C336.782 29.016 336.504 28.904 336.28 28.68C336.056 28.456 335.944 28.1787 335.944 27.848C335.944 27.5173 336.056 27.24 336.28 27.016C336.504 26.792 336.782 26.68 337.112 26.68C337.432 26.68 337.704 26.792 337.928 27.016C338.152 27.24 338.264 27.5173 338.264 27.848C338.264 28.1787 338.152 28.456 337.928 28.68C337.704 28.904 337.432 29.016 337.112 29.016ZM338.008 30.184V39H336.184V30.184H338.008Z" fill="black"/>
<rect x="218" y="95" width="197" height="22" rx="11" fill="#F4F4F4"/>
<rect x="218" y="199" width="265" height="22" rx="11" fill="#F4F4F4"/>
<rect x="218" y="241" width="101" height="22" rx="11" fill="#F4F4F4"/>
<rect x="218" y="303" width="189" height="48" rx="24" fill="#F4F4F4"/>
<rect x="218" y="137" width="325" height="22" rx="11" fill="#F4F4F4"/>
<g filter="url(#filter0_d_33_1333)">
<rect x="41" y="136" width="380" height="111" rx="20" fill="#FFFEFF" shape-rendering="crispEdges"/>
<rect x="41" y="136" width="380" height="111" rx="20" stroke="black" stroke-opacity="0.1" shape-rendering="crispEdges"/>
</g>
<circle opacity="0.2" cx="376" cy="191" r="30" fill="#F59F00"/>
<path d="M376 196.333H370.667V185.667H376C378.945 185.667 381.333 188.054 381.333 191C381.333 193.945 378.945 196.333 376 196.333ZM373.333 188.333V193.667H376C377.473 193.667 378.667 192.473 378.667 191C378.667 189.527 377.473 188.333 376 188.333H373.333ZM380 180.333H366.667V201.667H385.333V185.667H380V180.333ZM364 178.989C364 178.259 364.597 177.667 365.331 177.667H381.333L388 184.333L388 202.99C388 203.732 387.407 204.333 386.675 204.333H365.325C364.593 204.333 364 203.726 364 203.011V178.989Z" fill="#F59F00"/>
<g opacity="0.7">
<path d="M62.272 184.112C61.2373 184.112 60.2827 183.872 59.408 183.392C58.544 182.901 57.856 182.224 57.344 181.36C56.8427 180.485 56.592 179.504 56.592 178.416C56.592 177.328 56.8427 176.352 57.344 175.488C57.856 174.624 58.544 173.952 59.408 173.472C60.2827 172.981 61.2373 172.736 62.272 172.736C63.3173 172.736 64.272 172.981 65.136 173.472C66.0107 173.952 66.6987 174.624 67.2 175.488C67.7013 176.352 67.952 177.328 67.952 178.416C67.952 179.504 67.7013 180.485 67.2 181.36C66.6987 182.224 66.0107 182.901 65.136 183.392C64.272 183.872 63.3173 184.112 62.272 184.112ZM62.272 182.528C63.008 182.528 63.664 182.363 64.24 182.032C64.816 181.691 65.264 181.211 65.584 180.592C65.9147 179.963 66.08 179.237 66.08 178.416C66.08 177.595 65.9147 176.875 65.584 176.256C65.264 175.637 64.816 175.163 64.24 174.832C63.664 174.501 63.008 174.336 62.272 174.336C61.536 174.336 60.88 174.501 60.304 174.832C59.728 175.163 59.2747 175.637 58.944 176.256C58.624 176.875 58.464 177.595 58.464 178.416C58.464 179.237 58.624 179.963 58.944 180.592C59.2747 181.211 59.728 181.691 60.304 182.032C60.88 182.363 61.536 182.528 62.272 182.528ZM71.5709 176.464C71.8375 176.016 72.1895 175.669 72.6269 175.424C73.0749 175.168 73.6029 175.04 74.2109 175.04V176.928H73.7469C73.0322 176.928 72.4882 177.109 72.1149 177.472C71.7522 177.835 71.5709 178.464 71.5709 179.36V184H69.7469V175.184H71.5709V176.464ZM75.2795 179.552C75.2795 178.667 75.4608 177.883 75.8235 177.2C76.1968 176.517 76.6982 175.989 77.3275 175.616C77.9675 175.232 78.6768 175.04 79.4555 175.04C80.0315 175.04 80.5968 175.168 81.1515 175.424C81.7168 175.669 82.1648 176 82.4955 176.416V172.16H84.3355V184H82.4955V182.672C82.1968 183.099 81.7808 183.451 81.2475 183.728C80.7248 184.005 80.1222 184.144 79.4395 184.144C78.6715 184.144 77.9675 183.952 77.3275 183.568C76.6982 183.173 76.1968 182.629 75.8235 181.936C75.4608 181.232 75.2795 180.437 75.2795 179.552ZM82.4955 179.584C82.4955 178.976 82.3675 178.448 82.1115 178C81.8662 177.552 81.5408 177.211 81.1355 176.976C80.7302 176.741 80.2928 176.624 79.8235 176.624C79.3542 176.624 78.9168 176.741 78.5115 176.976C78.1062 177.2 77.7755 177.536 77.5195 177.984C77.2742 178.421 77.1515 178.944 77.1515 179.552C77.1515 180.16 77.2742 180.693 77.5195 181.152C77.7755 181.611 78.1062 181.963 78.5115 182.208C78.9275 182.443 79.3648 182.56 79.8235 182.56C80.2928 182.56 80.7302 182.443 81.1355 182.208C81.5408 181.973 81.8662 181.632 82.1115 181.184C82.3675 180.725 82.4955 180.192 82.4955 179.584ZM94.8113 179.376C94.8113 179.707 94.7899 180.005 94.7473 180.272H88.0113C88.0646 180.976 88.3259 181.541 88.7953 181.968C89.2646 182.395 89.8406 182.608 90.5233 182.608C91.5046 182.608 92.1979 182.197 92.6033 181.376H94.5712C94.3046 182.187 93.8193 182.853 93.1153 183.376C92.4219 183.888 91.5579 184.144 90.5233 184.144C89.6806 184.144 88.9233 183.957 88.2513 183.584C87.5899 183.2 87.0673 182.667 86.6833 181.984C86.3099 181.291 86.1233 180.491 86.1233 179.584C86.1233 178.677 86.3046 177.883 86.6673 177.2C87.0406 176.507 87.5579 175.973 88.2193 175.6C88.8913 175.227 89.6593 175.04 90.5233 175.04C91.3553 175.04 92.0966 175.221 92.7473 175.584C93.3979 175.947 93.9046 176.459 94.2673 177.12C94.6299 177.771 94.8113 178.523 94.8113 179.376ZM92.9073 178.8C92.8966 178.128 92.6566 177.589 92.1873 177.184C91.7179 176.779 91.1366 176.576 90.4433 176.576C89.8139 176.576 89.2753 176.779 88.8273 177.184C88.3793 177.579 88.1126 178.117 88.0273 178.8H92.9073ZM98.4303 176.464C98.6969 176.016 99.0489 175.669 99.4863 175.424C99.9343 175.168 100.462 175.04 101.07 175.04V176.928H100.606C99.8916 176.928 99.3476 177.109 98.9743 177.472C98.6116 177.835 98.4303 178.464 98.4303 179.36V184H96.6063V175.184H98.4303V176.464ZM110.567 184.112C109.82 184.112 109.148 183.984 108.551 183.728C107.954 183.461 107.484 183.088 107.143 182.608C106.802 182.128 106.631 181.568 106.631 180.928H108.583C108.626 181.408 108.812 181.803 109.143 182.112C109.484 182.421 109.959 182.576 110.567 182.576C111.196 182.576 111.687 182.427 112.039 182.128C112.391 181.819 112.567 181.424 112.567 180.944C112.567 180.571 112.455 180.267 112.231 180.032C112.018 179.797 111.746 179.616 111.415 179.488C111.095 179.36 110.647 179.221 110.071 179.072C109.346 178.88 108.754 178.688 108.295 178.496C107.847 178.293 107.463 177.984 107.143 177.568C106.823 177.152 106.663 176.597 106.663 175.904C106.663 175.264 106.823 174.704 107.143 174.224C107.463 173.744 107.911 173.376 108.487 173.12C109.063 172.864 109.73 172.736 110.487 172.736C111.564 172.736 112.444 173.008 113.127 173.552C113.82 174.085 114.204 174.821 114.279 175.76H112.263C112.231 175.355 112.039 175.008 111.687 174.72C111.335 174.432 110.871 174.288 110.295 174.288C109.772 174.288 109.346 174.421 109.015 174.688C108.684 174.955 108.519 175.339 108.519 175.84C108.519 176.181 108.62 176.464 108.823 176.688C109.036 176.901 109.303 177.072 109.623 177.2C109.943 177.328 110.38 177.467 110.935 177.616C111.671 177.819 112.268 178.021 112.727 178.224C113.196 178.427 113.591 178.741 113.911 179.168C114.242 179.584 114.407 180.144 114.407 180.848C114.407 181.413 114.252 181.947 113.943 182.448C113.644 182.949 113.202 183.355 112.615 183.664C112.039 183.963 111.356 184.112 110.567 184.112ZM118.687 176.672V181.552C118.687 181.883 118.762 182.123 118.911 182.272C119.071 182.411 119.338 182.48 119.711 182.48H120.831V184H119.391C118.57 184 117.941 183.808 117.503 183.424C117.066 183.04 116.847 182.416 116.847 181.552V176.672H115.807V175.184H116.847V172.992H118.687V175.184H120.831V176.672H118.687ZM121.905 179.552C121.905 178.667 122.086 177.883 122.449 177.2C122.822 176.517 123.323 175.989 123.953 175.616C124.593 175.232 125.297 175.04 126.065 175.04C126.758 175.04 127.361 175.179 127.873 175.456C128.395 175.723 128.811 176.059 129.121 176.464V175.184H130.961V184H129.121V182.688C128.811 183.104 128.39 183.451 127.857 183.728C127.323 184.005 126.715 184.144 126.033 184.144C125.275 184.144 124.582 183.952 123.953 183.568C123.323 183.173 122.822 182.629 122.449 181.936C122.086 181.232 121.905 180.437 121.905 179.552ZM129.121 179.584C129.121 178.976 128.993 178.448 128.737 178C128.491 177.552 128.166 177.211 127.761 176.976C127.355 176.741 126.918 176.624 126.449 176.624C125.979 176.624 125.542 176.741 125.137 176.976C124.731 177.2 124.401 177.536 124.145 177.984C123.899 178.421 123.777 178.944 123.777 179.552C123.777 180.16 123.899 180.693 124.145 181.152C124.401 181.611 124.731 181.963 125.137 182.208C125.553 182.443 125.99 182.56 126.449 182.56C126.918 182.56 127.355 182.443 127.761 182.208C128.166 181.973 128.491 181.632 128.737 181.184C128.993 180.725 129.121 180.192 129.121 179.584ZM135.484 176.672V181.552C135.484 181.883 135.559 182.123 135.708 182.272C135.868 182.411 136.135 182.48 136.508 182.48H137.628V184H136.188C135.367 184 134.738 183.808 134.3 183.424C133.863 183.04 133.644 182.416 133.644 181.552V176.672H132.604V175.184H133.644V172.992H135.484V175.184H137.628V176.672H135.484ZM147.389 179.376C147.389 179.707 147.368 180.005 147.325 180.272H140.589C140.643 180.976 140.904 181.541 141.373 181.968C141.843 182.395 142.419 182.608 143.101 182.608C144.083 182.608 144.776 182.197 145.181 181.376H147.149C146.883 182.187 146.397 182.853 145.693 183.376C145 183.888 144.136 184.144 143.101 184.144C142.259 184.144 141.501 183.957 140.829 183.584C140.168 183.2 139.645 182.667 139.261 181.984C138.888 181.291 138.701 180.491 138.701 179.584C138.701 178.677 138.883 177.883 139.245 177.2C139.619 176.507 140.136 175.973 140.797 175.6C141.469 175.227 142.237 175.04 143.101 175.04C143.933 175.04 144.675 175.221 145.325 175.584C145.976 175.947 146.483 176.459 146.845 177.12C147.208 177.771 147.389 178.523 147.389 179.376ZM145.485 178.8C145.475 178.128 145.235 177.589 144.765 177.184C144.296 176.779 143.715 176.576 143.021 176.576C142.392 176.576 141.853 176.779 141.405 177.184C140.957 177.579 140.691 178.117 140.605 178.8H145.485ZM159.856 175.04C160.55 175.04 161.168 175.184 161.712 175.472C162.267 175.76 162.699 176.187 163.008 176.752C163.328 177.317 163.488 178 163.488 178.8V184H161.68V179.072C161.68 178.283 161.483 177.68 161.088 177.264C160.694 176.837 160.155 176.624 159.472 176.624C158.79 176.624 158.246 176.837 157.84 177.264C157.446 177.68 157.248 178.283 157.248 179.072V184H155.44V179.072C155.44 178.283 155.243 177.68 154.848 177.264C154.454 176.837 153.915 176.624 153.232 176.624C152.55 176.624 152.006 176.837 151.6 177.264C151.206 177.68 151.008 178.283 151.008 179.072V184H149.184V175.184H151.008V176.192C151.307 175.829 151.686 175.547 152.144 175.344C152.603 175.141 153.094 175.04 153.616 175.04C154.32 175.04 154.95 175.189 155.504 175.488C156.059 175.787 156.486 176.219 156.784 176.784C157.051 176.251 157.467 175.829 158.032 175.52C158.598 175.2 159.206 175.04 159.856 175.04ZM173.889 179.376C173.889 179.707 173.868 180.005 173.825 180.272H167.089C167.143 180.976 167.404 181.541 167.873 181.968C168.343 182.395 168.919 182.608 169.601 182.608C170.583 182.608 171.276 182.197 171.681 181.376H173.649C173.383 182.187 172.897 182.853 172.193 183.376C171.5 183.888 170.636 184.144 169.601 184.144C168.759 184.144 168.001 183.957 167.329 183.584C166.668 183.2 166.145 182.667 165.761 181.984C165.388 181.291 165.201 180.491 165.201 179.584C165.201 178.677 165.383 177.883 165.745 177.2C166.119 176.507 166.636 175.973 167.297 175.6C167.969 175.227 168.737 175.04 169.601 175.04C170.433 175.04 171.175 175.221 171.825 175.584C172.476 175.947 172.983 176.459 173.345 177.12C173.708 177.771 173.889 178.523 173.889 179.376ZM171.985 178.8C171.975 178.128 171.735 177.589 171.265 177.184C170.796 176.779 170.215 176.576 169.521 176.576C168.892 176.576 168.353 176.779 167.905 177.184C167.457 177.579 167.191 178.117 167.105 178.8H171.985ZM180.132 175.04C180.826 175.04 181.444 175.184 181.988 175.472C182.543 175.76 182.975 176.187 183.284 176.752C183.594 177.317 183.748 178 183.748 178.8V184H181.94V179.072C181.94 178.283 181.743 177.68 181.348 177.264C180.954 176.837 180.415 176.624 179.732 176.624C179.05 176.624 178.506 176.837 178.1 177.264C177.706 177.68 177.508 178.283 177.508 179.072V184H175.684V175.184H177.508V176.192C177.807 175.829 178.186 175.547 178.644 175.344C179.114 175.141 179.61 175.04 180.132 175.04ZM188.203 176.672V181.552C188.203 181.883 188.278 182.123 188.427 182.272C188.587 182.411 188.854 182.48 189.227 182.48H190.347V184H188.907C188.086 184 187.456 183.808 187.019 183.424C186.582 183.04 186.363 182.416 186.363 181.552V176.672H185.323V175.184H186.363V172.992H188.203V175.184H190.347V176.672H188.203Z" fill="black"/>
</g>
<g opacity="0.7">
<path d="M59.822 197.939C60.81 197.939 61.6637 198.125 62.383 198.498C63.111 198.862 63.6657 199.386 64.047 200.071C64.437 200.756 64.632 201.562 64.632 202.489C64.632 203.416 64.437 204.222 64.047 204.907C63.6657 205.583 63.111 206.103 62.383 206.467C61.6637 206.822 60.81 207 59.822 207H57.001V197.939H59.822ZM59.822 206.025C60.992 206.025 61.8847 205.717 62.5 205.102C63.1153 204.478 63.423 203.607 63.423 202.489C63.423 201.362 63.111 200.483 62.487 199.85C61.8717 199.217 60.9833 198.901 59.822 198.901H58.184V206.025H59.822ZM66.8034 198.719C66.5781 198.719 66.3874 198.641 66.2314 198.485C66.0754 198.329 65.9974 198.138 65.9974 197.913C65.9974 197.688 66.0754 197.497 66.2314 197.341C66.3874 197.185 66.5781 197.107 66.8034 197.107C67.0201 197.107 67.2021 197.185 67.3494 197.341C67.5054 197.497 67.5834 197.688 67.5834 197.913C67.5834 198.138 67.5054 198.329 67.3494 198.485C67.2021 198.641 67.0201 198.719 66.8034 198.719ZM67.3754 199.876V207H66.1924V199.876H67.3754ZM72.3296 199.759C72.945 199.759 73.4823 199.893 73.9416 200.162C74.4096 200.431 74.7563 200.769 74.9816 201.176V199.876H76.1776V207.156C76.1776 207.806 76.039 208.382 75.7616 208.885C75.4843 209.396 75.0856 209.795 74.5656 210.081C74.0543 210.367 73.4563 210.51 72.7716 210.51C71.8356 210.51 71.0556 210.289 70.4316 209.847C69.8076 209.405 69.4393 208.803 69.3266 208.04H70.4966C70.6266 208.473 70.8953 208.82 71.3026 209.08C71.71 209.349 72.1996 209.483 72.7716 209.483C73.4216 209.483 73.9503 209.279 74.3576 208.872C74.7736 208.465 74.9816 207.893 74.9816 207.156V205.661C74.7476 206.077 74.401 206.424 73.9416 206.701C73.4823 206.978 72.945 207.117 72.3296 207.117C71.697 207.117 71.1206 206.961 70.6006 206.649C70.0893 206.337 69.6863 205.899 69.3916 205.336C69.097 204.773 68.9496 204.131 68.9496 203.412C68.9496 202.684 69.097 202.047 69.3916 201.501C69.6863 200.946 70.0893 200.517 70.6006 200.214C71.1206 199.911 71.697 199.759 72.3296 199.759ZM74.9816 203.425C74.9816 202.888 74.8733 202.42 74.6566 202.021C74.44 201.622 74.1453 201.319 73.7726 201.111C73.4086 200.894 73.0056 200.786 72.5636 200.786C72.1216 200.786 71.7186 200.89 71.3546 201.098C70.9906 201.306 70.7003 201.609 70.4836 202.008C70.267 202.407 70.1586 202.875 70.1586 203.412C70.1586 203.958 70.267 204.435 70.4836 204.842C70.7003 205.241 70.9906 205.548 71.3546 205.765C71.7186 205.973 72.1216 206.077 72.5636 206.077C73.0056 206.077 73.4086 205.973 73.7726 205.765C74.1453 205.548 74.44 205.241 74.6566 204.842C74.8733 204.435 74.9816 203.962 74.9816 203.425ZM78.7878 198.719C78.5624 198.719 78.3718 198.641 78.2158 198.485C78.0598 198.329 77.9818 198.138 77.9818 197.913C77.9818 197.688 78.0598 197.497 78.2158 197.341C78.3718 197.185 78.5624 197.107 78.7878 197.107C79.0044 197.107 79.1864 197.185 79.3338 197.341C79.4898 197.497 79.5678 197.688 79.5678 197.913C79.5678 198.138 79.4898 198.329 79.3338 198.485C79.1864 198.641 79.0044 198.719 78.7878 198.719ZM79.3598 199.876V207H78.1768V199.876H79.3598ZM82.819 200.851V205.05C82.819 205.397 82.8927 205.644 83.04 205.791C83.1873 205.93 83.443 205.999 83.807 205.999H84.678V207H83.612C82.9533 207 82.4593 206.848 82.13 206.545C81.8007 206.242 81.636 205.743 81.636 205.05V200.851H80.713V199.876H81.636V198.082H82.819V199.876H84.678V200.851H82.819ZM85.6694 203.412C85.6694 202.684 85.8167 202.047 86.1114 201.501C86.406 200.946 86.809 200.517 87.3204 200.214C87.8404 199.911 88.4167 199.759 89.0494 199.759C89.6734 199.759 90.215 199.893 90.6744 200.162C91.1337 200.431 91.476 200.769 91.7014 201.176V199.876H92.8974V207H91.7014V205.674C91.4674 206.09 91.1164 206.437 90.6484 206.714C90.189 206.983 89.6517 207.117 89.0364 207.117C88.4037 207.117 87.8317 206.961 87.3204 206.649C86.809 206.337 86.406 205.899 86.1114 205.336C85.8167 204.773 85.6694 204.131 85.6694 203.412ZM91.7014 203.425C91.7014 202.888 91.593 202.42 91.3764 202.021C91.1597 201.622 90.865 201.319 90.4924 201.111C90.1284 200.894 89.7254 200.786 89.2834 200.786C88.8414 200.786 88.4384 200.89 88.0744 201.098C87.7104 201.306 87.42 201.609 87.2034 202.008C86.9867 202.407 86.8784 202.875 86.8784 203.412C86.8784 203.958 86.9867 204.435 87.2034 204.842C87.42 205.241 87.7104 205.548 88.0744 205.765C88.4384 205.973 88.8414 206.077 89.2834 206.077C89.7254 206.077 90.1284 205.973 90.4924 205.765C90.865 205.548 91.1597 205.241 91.3764 204.842C91.593 204.435 91.7014 203.962 91.7014 203.425ZM96.0795 197.38V207H94.8965V197.38H96.0795ZM99.2787 197.38V207H98.0957V197.38H99.2787ZM107.431 199.876L103.141 210.354H101.919L103.323 206.922L100.45 199.876H101.763L103.999 205.648L106.209 199.876H107.431ZM114.959 207.091C114.361 207.091 113.824 206.987 113.347 206.779C112.879 206.562 112.511 206.268 112.242 205.895C111.973 205.514 111.835 205.076 111.826 204.582H113.087C113.13 205.007 113.304 205.366 113.607 205.661C113.919 205.947 114.37 206.09 114.959 206.09C115.522 206.09 115.964 205.951 116.285 205.674C116.614 205.388 116.779 205.024 116.779 204.582C116.779 204.235 116.684 203.954 116.493 203.737C116.302 203.52 116.064 203.356 115.778 203.243C115.492 203.13 115.106 203.009 114.621 202.879C114.023 202.723 113.542 202.567 113.178 202.411C112.823 202.255 112.515 202.012 112.255 201.683C112.004 201.345 111.878 200.894 111.878 200.331C111.878 199.837 112.004 199.399 112.255 199.018C112.506 198.637 112.857 198.342 113.308 198.134C113.767 197.926 114.292 197.822 114.881 197.822C115.73 197.822 116.424 198.034 116.961 198.459C117.507 198.884 117.815 199.447 117.884 200.149H116.584C116.541 199.802 116.359 199.499 116.038 199.239C115.717 198.97 115.293 198.836 114.764 198.836C114.27 198.836 113.867 198.966 113.555 199.226C113.243 199.477 113.087 199.833 113.087 200.292C113.087 200.621 113.178 200.89 113.36 201.098C113.551 201.306 113.78 201.466 114.049 201.579C114.326 201.683 114.712 201.804 115.206 201.943C115.804 202.108 116.285 202.272 116.649 202.437C117.013 202.593 117.325 202.84 117.585 203.178C117.845 203.507 117.975 203.958 117.975 204.53C117.975 204.972 117.858 205.388 117.624 205.778C117.39 206.168 117.043 206.484 116.584 206.727C116.125 206.97 115.583 207.091 114.959 207.091ZM120.327 198.719C120.102 198.719 119.911 198.641 119.755 198.485C119.599 198.329 119.521 198.138 119.521 197.913C119.521 197.688 119.599 197.497 119.755 197.341C119.911 197.185 120.102 197.107 120.327 197.107C120.544 197.107 120.726 197.185 120.873 197.341C121.029 197.497 121.107 197.688 121.107 197.913C121.107 198.138 121.029 198.329 120.873 198.485C120.726 198.641 120.544 198.719 120.327 198.719ZM120.899 199.876V207H119.716V199.876H120.899ZM125.853 199.759C126.468 199.759 127.006 199.893 127.465 200.162C127.933 200.431 128.28 200.769 128.505 201.176V199.876H129.701V207.156C129.701 207.806 129.562 208.382 129.285 208.885C129.008 209.396 128.609 209.795 128.089 210.081C127.578 210.367 126.98 210.51 126.295 210.51C125.359 210.51 124.579 210.289 123.955 209.847C123.331 209.405 122.963 208.803 122.85 208.04H124.02C124.15 208.473 124.419 208.82 124.826 209.08C125.233 209.349 125.723 209.483 126.295 209.483C126.945 209.483 127.474 209.279 127.881 208.872C128.297 208.465 128.505 207.893 128.505 207.156V205.661C128.271 206.077 127.924 206.424 127.465 206.701C127.006 206.978 126.468 207.117 125.853 207.117C125.22 207.117 124.644 206.961 124.124 206.649C123.613 206.337 123.21 205.899 122.915 205.336C122.62 204.773 122.473 204.131 122.473 203.412C122.473 202.684 122.62 202.047 122.915 201.501C123.21 200.946 123.613 200.517 124.124 200.214C124.644 199.911 125.22 199.759 125.853 199.759ZM128.505 203.425C128.505 202.888 128.397 202.42 128.18 202.021C127.963 201.622 127.669 201.319 127.296 201.111C126.932 200.894 126.529 200.786 126.087 200.786C125.645 200.786 125.242 200.89 124.878 201.098C124.514 201.306 124.224 201.609 124.007 202.008C123.79 202.407 123.682 202.875 123.682 203.412C123.682 203.958 123.79 204.435 124.007 204.842C124.224 205.241 124.514 205.548 124.878 205.765C125.242 205.973 125.645 206.077 126.087 206.077C126.529 206.077 126.932 205.973 127.296 205.765C127.669 205.548 127.963 205.241 128.18 204.842C128.397 204.435 128.505 203.962 128.505 203.425ZM135.171 199.746C136.038 199.746 136.74 200.01 137.277 200.539C137.815 201.059 138.083 201.813 138.083 202.801V207H136.913V202.97C136.913 202.259 136.736 201.718 136.38 201.345C136.025 200.964 135.54 200.773 134.924 200.773C134.3 200.773 133.802 200.968 133.429 201.358C133.065 201.748 132.883 202.316 132.883 203.061V207H131.7V199.876H132.883V200.89C133.117 200.526 133.434 200.244 133.832 200.045C134.24 199.846 134.686 199.746 135.171 199.746ZM146.516 203.165C146.516 203.39 146.503 203.629 146.477 203.88H140.783C140.826 204.582 141.064 205.132 141.498 205.531C141.94 205.921 142.473 206.116 143.097 206.116C143.608 206.116 144.033 205.999 144.371 205.765C144.717 205.522 144.96 205.202 145.099 204.803H146.373C146.182 205.488 145.801 206.047 145.229 206.48C144.657 206.905 143.946 207.117 143.097 207.117C142.421 207.117 141.814 206.965 141.277 206.662C140.748 206.359 140.332 205.93 140.029 205.375C139.725 204.812 139.574 204.162 139.574 203.425C139.574 202.688 139.721 202.043 140.016 201.488C140.31 200.933 140.722 200.509 141.251 200.214C141.788 199.911 142.403 199.759 143.097 199.759C143.773 199.759 144.371 199.906 144.891 200.201C145.411 200.496 145.809 200.903 146.087 201.423C146.373 201.934 146.516 202.515 146.516 203.165ZM145.294 202.918C145.294 202.467 145.194 202.082 144.995 201.761C144.795 201.432 144.522 201.185 144.176 201.02C143.838 200.847 143.461 200.76 143.045 200.76C142.447 200.76 141.935 200.951 141.511 201.332C141.095 201.713 140.856 202.242 140.796 202.918H145.294ZM147.635 203.412C147.635 202.684 147.783 202.047 148.077 201.501C148.372 200.946 148.775 200.517 149.286 200.214C149.806 199.911 150.387 199.759 151.028 199.759C151.583 199.759 152.099 199.889 152.575 200.149C153.052 200.4 153.416 200.734 153.667 201.15V197.38H154.863V207H153.667V205.661C153.433 206.086 153.087 206.437 152.627 206.714C152.168 206.983 151.631 207.117 151.015 207.117C150.383 207.117 149.806 206.961 149.286 206.649C148.775 206.337 148.372 205.899 148.077 205.336C147.783 204.773 147.635 204.131 147.635 203.412ZM153.667 203.425C153.667 202.888 153.559 202.42 153.342 202.021C153.126 201.622 152.831 201.319 152.458 201.111C152.094 200.894 151.691 200.786 151.249 200.786C150.807 200.786 150.404 200.89 150.04 201.098C149.676 201.306 149.386 201.609 149.169 202.008C148.953 202.407 148.844 202.875 148.844 203.412C148.844 203.958 148.953 204.435 149.169 204.842C149.386 205.241 149.676 205.548 150.04 205.765C150.404 205.973 150.807 206.077 151.249 206.077C151.691 206.077 152.094 205.973 152.458 205.765C152.831 205.548 153.126 205.241 153.342 204.842C153.559 204.435 153.667 203.962 153.667 203.425ZM159.886 203.412C159.886 202.684 160.033 202.047 160.328 201.501C160.623 200.946 161.026 200.517 161.537 200.214C162.057 199.911 162.633 199.759 163.266 199.759C163.89 199.759 164.432 199.893 164.891 200.162C165.35 200.431 165.693 200.769 165.918 201.176V199.876H167.114V207H165.918V205.674C165.684 206.09 165.333 206.437 164.865 206.714C164.406 206.983 163.868 207.117 163.253 207.117C162.62 207.117 162.048 206.961 161.537 206.649C161.026 206.337 160.623 205.899 160.328 205.336C160.033 204.773 159.886 204.131 159.886 203.412ZM165.918 203.425C165.918 202.888 165.81 202.42 165.593 202.021C165.376 201.622 165.082 201.319 164.709 201.111C164.345 200.894 163.942 200.786 163.5 200.786C163.058 200.786 162.655 200.89 162.291 201.098C161.927 201.306 161.637 201.609 161.42 202.008C161.203 202.407 161.095 202.875 161.095 203.412C161.095 203.958 161.203 204.435 161.42 204.842C161.637 205.241 161.927 205.548 162.291 205.765C162.655 205.973 163.058 206.077 163.5 206.077C163.942 206.077 164.345 205.973 164.709 205.765C165.082 205.548 165.376 205.241 165.593 204.842C165.81 204.435 165.918 203.962 165.918 203.425ZM172.584 199.746C173.451 199.746 174.153 200.01 174.69 200.539C175.228 201.059 175.496 201.813 175.496 202.801V207H174.326V202.97C174.326 202.259 174.149 201.718 173.793 201.345C173.438 200.964 172.953 200.773 172.337 200.773C171.713 200.773 171.215 200.968 170.842 201.358C170.478 201.748 170.296 202.316 170.296 203.061V207H169.113V199.876H170.296V200.89C170.53 200.526 170.847 200.244 171.245 200.045C171.653 199.846 172.099 199.746 172.584 199.746ZM176.987 203.412C176.987 202.684 177.134 202.047 177.429 201.501C177.723 200.946 178.126 200.517 178.638 200.214C179.158 199.911 179.738 199.759 180.38 199.759C180.934 199.759 181.45 199.889 181.927 200.149C182.403 200.4 182.767 200.734 183.019 201.15V197.38H184.215V207H183.019V205.661C182.785 206.086 182.438 206.437 181.979 206.714C181.519 206.983 180.982 207.117 180.367 207.117C179.734 207.117 179.158 206.961 178.638 206.649C178.126 206.337 177.723 205.899 177.429 205.336C177.134 204.773 176.987 204.131 176.987 203.412ZM183.019 203.425C183.019 202.888 182.91 202.42 182.694 202.021C182.477 201.622 182.182 201.319 181.81 201.111C181.446 200.894 181.043 200.786 180.601 200.786C180.159 200.786 179.756 200.89 179.392 201.098C179.028 201.306 178.737 201.609 178.521 202.008C178.304 202.407 178.196 202.875 178.196 203.412C178.196 203.958 178.304 204.435 178.521 204.842C178.737 205.241 179.028 205.548 179.392 205.765C179.756 205.973 180.159 206.077 180.601 206.077C181.043 206.077 181.446 205.973 181.81 205.765C182.182 205.548 182.477 205.241 182.694 204.842C182.91 204.435 183.019 203.962 183.019 203.425ZM197.168 197.939L193.749 207H192.384L188.965 197.939H190.226L193.073 205.752L195.92 197.939H197.168ZM198.023 203.412C198.023 202.684 198.17 202.047 198.465 201.501C198.76 200.946 199.163 200.517 199.674 200.214C200.194 199.911 200.77 199.759 201.403 199.759C202.027 199.759 202.569 199.893 203.028 200.162C203.487 200.431 203.83 200.769 204.055 201.176V199.876H205.251V207H204.055V205.674C203.821 206.09 203.47 206.437 203.002 206.714C202.543 206.983 202.005 207.117 201.39 207.117C200.757 207.117 200.185 206.961 199.674 206.649C199.163 206.337 198.76 205.899 198.465 205.336C198.17 204.773 198.023 204.131 198.023 203.412ZM204.055 203.425C204.055 202.888 203.947 202.42 203.73 202.021C203.513 201.622 203.219 201.319 202.846 201.111C202.482 200.894 202.079 200.786 201.637 200.786C201.195 200.786 200.792 200.89 200.428 201.098C200.064 201.306 199.774 201.609 199.557 202.008C199.34 202.407 199.232 202.875 199.232 203.412C199.232 203.958 199.34 204.435 199.557 204.842C199.774 205.241 200.064 205.548 200.428 205.765C200.792 205.973 201.195 206.077 201.637 206.077C202.079 206.077 202.482 205.973 202.846 205.765C203.219 205.548 203.513 205.241 203.73 204.842C203.947 204.435 204.055 203.962 204.055 203.425ZM208.433 197.38V207H207.25V197.38H208.433ZM211.06 198.719C210.835 198.719 210.644 198.641 210.488 198.485C210.332 198.329 210.254 198.138 210.254 197.913C210.254 197.688 210.332 197.497 210.488 197.341C210.644 197.185 210.835 197.107 211.06 197.107C211.277 197.107 211.459 197.185 211.606 197.341C211.762 197.497 211.84 197.688 211.84 197.913C211.84 198.138 211.762 198.329 211.606 198.485C211.459 198.641 211.277 198.719 211.06 198.719ZM211.632 199.876V207H210.449V199.876H211.632ZM213.206 203.412C213.206 202.684 213.354 202.047 213.648 201.501C213.943 200.946 214.346 200.517 214.857 200.214C215.377 199.911 215.958 199.759 216.599 199.759C217.154 199.759 217.67 199.889 218.146 200.149C218.623 200.4 218.987 200.734 219.238 201.15V197.38H220.434V207H219.238V205.661C219.004 206.086 218.658 206.437 218.198 206.714C217.739 206.983 217.202 207.117 216.586 207.117C215.954 207.117 215.377 206.961 214.857 206.649C214.346 206.337 213.943 205.899 213.648 205.336C213.354 204.773 213.206 204.131 213.206 203.412ZM219.238 203.425C219.238 202.888 219.13 202.42 218.913 202.021C218.697 201.622 218.402 201.319 218.029 201.111C217.665 200.894 217.262 200.786 216.82 200.786C216.378 200.786 215.975 200.89 215.611 201.098C215.247 201.306 214.957 201.609 214.74 202.008C214.524 202.407 214.415 202.875 214.415 203.412C214.415 203.958 214.524 204.435 214.74 204.842C214.957 205.241 215.247 205.548 215.611 205.765C215.975 205.973 216.378 206.077 216.82 206.077C217.262 206.077 217.665 205.973 218.029 205.765C218.402 205.548 218.697 205.241 218.913 204.842C219.13 204.435 219.238 203.962 219.238 203.425ZM221.992 203.412C221.992 202.684 222.139 202.047 222.434 201.501C222.728 200.946 223.131 200.517 223.643 200.214C224.163 199.911 224.739 199.759 225.372 199.759C225.996 199.759 226.537 199.893 226.997 200.162C227.456 200.431 227.798 200.769 228.024 201.176V199.876H229.22V207H228.024V205.674C227.79 206.09 227.439 206.437 226.971 206.714C226.511 206.983 225.974 207.117 225.359 207.117C224.726 207.117 224.154 206.961 223.643 206.649C223.131 206.337 222.728 205.899 222.434 205.336C222.139 204.773 221.992 204.131 221.992 203.412ZM228.024 203.425C228.024 202.888 227.915 202.42 227.699 202.021C227.482 201.622 227.187 201.319 226.815 201.111C226.451 200.894 226.048 200.786 225.606 200.786C225.164 200.786 224.761 200.89 224.397 201.098C224.033 201.306 223.742 201.609 223.526 202.008C223.309 202.407 223.201 202.875 223.201 203.412C223.201 203.958 223.309 204.435 223.526 204.842C223.742 205.241 224.033 205.548 224.397 205.765C224.761 205.973 225.164 206.077 225.606 206.077C226.048 206.077 226.451 205.973 226.815 205.765C227.187 205.548 227.482 205.241 227.699 204.842C227.915 204.435 228.024 203.962 228.024 203.425ZM232.662 200.851V205.05C232.662 205.397 232.735 205.644 232.883 205.791C233.03 205.93 233.286 205.999 233.65 205.999H234.521V207H233.455C232.796 207 232.302 206.848 231.973 206.545C231.643 206.242 231.479 205.743 231.479 205.05V200.851H230.556V199.876H231.479V198.082H232.662V199.876H234.521V200.851H232.662ZM242.454 203.165C242.454 203.39 242.441 203.629 242.415 203.88H236.721C236.764 204.582 237.003 205.132 237.436 205.531C237.878 205.921 238.411 206.116 239.035 206.116C239.546 206.116 239.971 205.999 240.309 205.765C240.656 205.522 240.898 205.202 241.037 204.803H242.311C242.12 205.488 241.739 206.047 241.167 206.48C240.595 206.905 239.884 207.117 239.035 207.117C238.359 207.117 237.752 206.965 237.215 206.662C236.686 206.359 236.27 205.93 235.967 205.375C235.664 204.812 235.512 204.162 235.512 203.425C235.512 202.688 235.659 202.043 235.954 201.488C236.249 200.933 236.66 200.509 237.189 200.214C237.726 199.911 238.342 199.759 239.035 199.759C239.711 199.759 240.309 199.906 240.829 200.201C241.349 200.496 241.748 200.903 242.025 201.423C242.311 201.934 242.454 202.515 242.454 203.165ZM241.232 202.918C241.232 202.467 241.132 202.082 240.933 201.761C240.734 201.432 240.461 201.185 240.114 201.02C239.776 200.847 239.399 200.76 238.983 200.76C238.385 200.76 237.874 200.951 237.449 201.332C237.033 201.713 236.795 202.242 236.734 202.918H241.232ZM243.574 203.412C243.574 202.684 243.721 202.047 244.016 201.501C244.31 200.946 244.713 200.517 245.225 200.214C245.745 199.911 246.325 199.759 246.967 199.759C247.521 199.759 248.037 199.889 248.514 200.149C248.99 200.4 249.354 200.734 249.606 201.15V197.38H250.802V207H249.606V205.661C249.372 206.086 249.025 206.437 248.566 206.714C248.106 206.983 247.569 207.117 246.954 207.117C246.321 207.117 245.745 206.961 245.225 206.649C244.713 206.337 244.31 205.899 244.016 205.336C243.721 204.773 243.574 204.131 243.574 203.412ZM249.606 203.425C249.606 202.888 249.497 202.42 249.281 202.021C249.064 201.622 248.769 201.319 248.397 201.111C248.033 200.894 247.63 200.786 247.188 200.786C246.746 200.786 246.343 200.89 245.979 201.098C245.615 201.306 245.324 201.609 245.108 202.008C244.891 202.407 244.783 202.875 244.783 203.412C244.783 203.958 244.891 204.435 245.108 204.842C245.324 205.241 245.615 205.548 245.979 205.765C246.343 205.973 246.746 206.077 247.188 206.077C247.63 206.077 248.033 205.973 248.397 205.765C248.769 205.548 249.064 205.241 249.281 204.842C249.497 204.435 249.606 203.962 249.606 203.425Z" fill="black"/>
</g>
<defs>
<filter id="filter0_d_33_1333" x="0.5" y="88.5" width="461" height="192" filterUnits="userSpaceOnUse" color-interpolation-filters="sRGB">
<feFlood flood-opacity="0" result="BackgroundImageFix"/>
<feColorMatrix in="SourceAlpha" type="matrix" values="0 0 0 0 0 0 0 0 0 0 0 0 0 0 0 0 0 0 127 0" result="hardAlpha"/>
<feOffset dy="-7"/>
<feGaussianBlur stdDeviation="20"/>
<feComposite in2="hardAlpha" operator="out"/>
<feColorMatrix type="matrix" values="0 0 0 0 0 0 0 0 0 0 0 0 0 0 0 0 0 0 0.1 0"/>
<feBlend mode="normal" in2="BackgroundImageFix" result="effect1_dropShadow_33_1333"/>
<feBlend mode="normal" in="SourceGraphic" in2="effect1_dropShadow_33_1333" result="shape"/>
</filter>
</defs>
</svg>
