<svg viewBox="0 0 200 42" fill="none" xmlns="http://www.w3.org/2000/svg">
<path d="M80.9696 4.09351V37.1925H76.7639V22.7392H58.5897V37.1925H54.3452V4.09351H58.5897V18.9405H76.7639V4.09351H80.9696Z" fill="black"/>
<path d="M103.886 28.8278L103.847 29.0479C103.064 32.4055 100.747 34.1827 97.1327 34.1827C91.4681 34.1827 89.9334 30.2036 89.6496 26.8615L89.6339 26.6647H107.31V24.9108C107.31 17.8494 103.211 13.4612 96.5955 13.4612C89.9796 13.4612 85.4587 18.1325 85.4587 25.3665C85.4587 33.1986 89.8262 37.8778 97.1327 37.8778C105.115 37.8778 107.448 31.7831 108.077 29.173L108.161 28.8113H103.886V28.8269V28.8278ZM89.6339 23.0638C89.8641 19.5724 92.6654 17.2212 96.5872 17.2212C100.509 17.2212 102.934 19.5171 103.141 23.0638L103.157 23.2451H89.6182L89.6339 23.0638Z" fill="black"/>
<path d="M129.913 28.1763H134.188L134.158 28.4904C133.59 34.9855 128.364 37.8797 123.444 37.8797C116.437 37.8797 111.732 32.965 111.732 25.6438C111.732 18.3226 116.544 13.4631 123.444 13.4631C128.363 13.4631 133.598 16.365 134.158 22.8524L134.188 23.1665H129.913L129.875 22.9145C129.2 18.2353 126.007 17.2522 123.444 17.2522C117.94 17.2522 115.975 21.5929 115.975 25.6351C115.975 29.6772 117.94 34.0732 123.444 34.0732C126.007 34.0732 129.2 33.09 129.875 28.4109L129.913 28.1588V28.1744V28.1763Z" fill="black"/>
<path d="M152.722 33.6083V37.4226L143.988 37.8948C142.937 37.9655 142.115 37.7134 141.547 37.1792C140.941 36.5975 140.634 35.6851 140.634 34.4741V17.7239H135.683V13.9261H140.634V8.09905L144.84 6.76978V13.9261H151.823V17.7239H144.84V34.1202L152.729 33.6093H152.722V33.6083Z" fill="black"/>
<path d="M176.943 33.634V24.1264C176.943 17.6468 172.914 13.4631 166.666 13.4631C159.697 13.4631 156.527 18.2683 156.527 22.7419V23.0327H160.679V22.7419C160.679 17.9367 164.425 17.2134 166.666 17.2134C170.304 17.2134 172.314 19.0769 172.652 22.7651L172.682 22.9465L164.025 23.788C158.983 24.331 156.435 26.6744 156.435 30.7631C156.435 32.4385 157.002 37.8797 164.186 37.8797C168.7 37.8797 171.846 35.5207 173.02 31.2188L173.05 31.0927H173.564L173.065 33.1376V34.4503C173.065 36.3139 174.154 37.423 175.989 37.423H180.234V33.6252H176.942V33.633L176.943 33.634ZM172.684 26.5484C172.439 31.054 169.223 34.0897 164.648 34.0897C162.085 34.0897 160.688 32.7526 160.688 30.3152C160.688 28.3654 161.862 27.453 164.718 27.1776L172.7 26.3361L172.684 26.5406V26.5484Z" fill="black"/>
<path d="M200 13.9365V17.7342L188.165 17.3173V37.4329H183.92V16.9324C183.92 15.7447 184.22 14.8488 184.795 14.2826C185.363 13.7319 186.208 13.4653 187.312 13.5118L199.999 13.9365H200Z" fill="black"/>
<g clip-path="url(#clip0_299_332625)">
<path d="M36.2736 0.169938H36.2204C35.8558 0.222277 35.4841 0.294 35.1188 0.372831C35.079 0.379292 35.0258 0.392215 34.9861 0.405785C30.9178 1.36662 27.3481 4.30209 25.2044 8.46591L25.1051 8.68818C24.7667 9.38086 24.3815 10.0348 23.9701 10.6363C21.6873 13.9311 18.356 15.8204 14.819 15.8204C14.6133 15.8204 14.4011 15.8075 14.2018 15.7946V6.01375C14.1954 2.77135 11.521 0.136985 8.2295 0.136985H0V42L1.64577 41.8236C2.06362 41.7713 2.44238 41.6995 2.80704 41.6142C6.92788 40.6793 10.5251 37.7315 12.6817 33.5283H12.6881L12.9605 32.9726C13.2726 32.3646 13.6039 31.8153 13.9429 31.3385C16.3251 27.8867 19.9819 25.9586 23.7182 26.1873V36.045C23.7182 39.2874 26.3926 41.9283 29.6905 41.9283H37.9194V0L36.28 0.169938H36.2736ZM34.9464 39.0716H29.6841C27.9922 39.0716 26.6182 37.7186 26.6182 36.0515V26.8277C31.1242 28.5206 34.4689 33.4301 34.9464 39.0716ZM26.6182 23.8011V11.8647C26.7374 11.6818 26.8572 11.4918 26.9764 11.2896L27.8057 9.7272C29.4182 6.6024 32.0394 4.28206 35.006 3.36V30.24C32.9622 27.0306 29.9821 24.749 26.6175 23.8011H26.6182ZM23.7112 15.2376V23.3371C23.5119 23.3242 23.3061 23.3113 23.094 23.3113C19.8358 23.3113 16.7564 24.5009 14.1884 26.7495V18.6564C14.2281 18.6564 14.2614 18.6564 14.3076 18.6629C14.4736 18.6758 14.6396 18.6822 14.8055 18.6822C18.0638 18.6822 21.1368 17.4927 23.7112 15.237V15.2376ZM11.2948 6.01375V15.1652C6.80868 13.4859 3.47099 8.60935 2.97303 2.99363H8.22886C9.92077 2.99363 11.2948 4.34668 11.2948 6.01375ZM2.90638 11.76C4.95718 14.9694 7.93021 17.251 11.2948 18.1989V30.103C11.2019 30.24 11.109 30.3906 10.9962 30.567L10.3457 31.7242C8.7531 35.143 6.03898 37.6598 2.89997 38.6271V11.76H2.90638Z" fill="black"/>
</g>
<defs>
<clipPath id="clip0_299_332625">
<rect width="37.9194" height="42" fill="white"/>
</clipPath>
</defs>
</svg>
