<!-- width="174" height="43" -->
<svg  viewBox="0 0 174 43" fill="none" xmlns="http://www.w3.org/2000/svg">
<path d="M26.4855 4.12957H26.447C26.1803 4.16948 25.9094 4.22413 25.6427 4.2837C25.6135 4.28861 25.575 4.29843 25.5458 4.30887C22.5754 5.04084 19.9686 7.27725 18.4038 10.4495L18.3308 10.619C18.0839 11.1471 17.8026 11.6451 17.502 12.1032C15.8349 14.6134 13.4027 16.0528 10.8199 16.0528C10.6699 16.0528 10.5146 16.043 10.3693 16.0332V8.58274C10.3646 6.11237 8.41156 4.10562 6.00851 4.10562H0V36L1.20182 35.8655C1.50709 35.8256 1.78317 35.771 2.04992 35.7059C5.05884 34.9936 7.68545 32.7473 9.26025 29.545H9.26492L9.46337 29.1219C9.69101 28.6589 9.93324 28.2401 10.1807 27.8766C11.9201 25.2472 14.5899 23.7777 17.3181 23.9521V31.4627C17.3181 33.9331 19.2711 35.9447 21.6788 35.9447H27.6873V4L26.4908 4.12957H26.4861H26.4855ZM25.5166 33.7679H21.6742C20.4385 33.7679 19.4357 32.7369 19.4357 31.467V24.4397C22.726 25.7298 25.1681 29.4701 25.5166 33.7679ZM19.4357 22.1339V13.0396C19.5227 12.9002 19.6102 12.7559 19.6972 12.6012L20.3031 11.4111C21.4804 9.0304 23.3943 7.26251 25.5604 6.56002V27.0396C24.0679 24.5944 21.8925 22.856 19.4357 22.1339ZM17.3134 15.6095V21.7802C17.1681 21.7703 17.0181 21.7605 16.8628 21.7605C14.4837 21.7605 12.2353 22.6669 10.3599 24.3801V18.2143C10.3891 18.2143 10.413 18.2143 10.4469 18.2192C10.5683 18.229 10.6891 18.234 10.8105 18.234C13.1896 18.234 15.4334 17.3276 17.3134 15.6095ZM8.24754 8.58213V15.5548C4.97187 14.2751 2.53438 10.5594 2.17133 6.28124H6.00909C7.24476 6.28124 8.24754 7.31225 8.24754 8.58213ZM2.12288 12.9598C3.62005 15.405 5.79079 17.1434 8.24754 17.8655V26.9346C8.17984 27.039 8.11213 27.1538 8.02924 27.2883L7.55412 28.1701C6.39141 30.7749 4.4092 32.692 2.11763 33.4295V12.9598H2.1223H2.12288Z" fill="#0156F7"/>
<path d="M63.0174 7V35.1694H59.4494V22.8687H44.0306V35.1694H40.4297V7H44.0306V19.6357H59.4494V7H63.0174Z" fill="#202020"/>
<path d="M82.4598 28.0489L82.4269 28.2362C81.7625 31.0938 79.7962 32.6063 76.7302 32.6063C71.9244 32.6063 70.6224 29.2198 70.3816 26.3755L70.3683 26.208H85.3643V24.7153C85.3643 18.7056 81.8872 14.9709 76.2744 14.9709C70.6616 14.9709 66.8262 18.9466 66.8262 25.1031C66.8262 31.7688 70.5314 35.751 76.7302 35.751C83.5022 35.751 85.4811 30.564 86.0153 28.3427L86.0867 28.0349H82.4598V28.0481V28.0489ZM70.3683 23.1434C70.5636 20.1719 72.9402 18.1709 76.2674 18.1709C79.5946 18.1709 81.6519 20.1249 81.8276 23.1434L81.841 23.2977H70.355L70.3683 23.1434Z" fill="#202020"/>
<path d="M104.54 27.4969H108.167L108.141 27.7643C107.66 33.292 103.226 35.7551 99.0514 35.7551C93.1068 35.7551 89.1152 31.5724 89.1152 25.3416C89.1152 19.1108 93.1978 14.9751 99.0514 14.9751C103.225 14.9751 107.666 17.4448 108.141 22.966L108.167 23.2333H104.54L104.508 23.0188C103.935 19.0365 101.226 18.1998 99.0514 18.1998C94.3821 18.1998 92.7154 21.8941 92.7154 25.3342C92.7154 28.7743 94.3821 32.5156 99.0514 32.5156C101.226 32.5156 103.935 31.6788 104.508 27.6966L104.54 27.4821V27.4953V27.4969Z" fill="#202020"/>
<path d="M123.891 32.1186V35.3648L116.481 35.7667C115.59 35.8269 114.892 35.6124 114.411 35.1577C113.896 34.6626 113.636 33.8861 113.636 32.8555V18.6H109.436V15.3679H113.636V10.4086L117.204 9.27734V15.3679H123.129V18.6H117.204V32.5543L123.897 32.1195H123.891V32.1186Z" fill="#202020"/>
<path d="M144.44 32.1418V24.0502C144.44 18.5357 141.022 14.9751 135.721 14.9751C129.809 14.9751 127.119 19.0646 127.119 22.8719V23.1194H130.642V22.8719C130.642 18.7824 133.819 18.1668 135.721 18.1668C138.807 18.1668 140.513 19.7528 140.799 22.8917L140.825 23.046L133.481 23.7622C129.203 24.2243 127.041 26.2188 127.041 29.6985C127.041 31.1243 127.523 35.7551 133.617 35.7551C137.446 35.7551 140.115 33.7475 141.111 30.0863L141.137 29.979H141.573L141.15 31.7193V32.8365C141.15 34.4225 142.074 35.3665 143.631 35.3665H147.232V32.1343H144.439V32.1409L144.44 32.1418ZM140.827 26.1115C140.619 29.946 137.89 32.5296 134.009 32.5296C131.834 32.5296 130.649 31.3917 130.649 29.3172C130.649 27.6578 131.645 26.8814 134.068 26.647L140.84 25.9308L140.827 26.1049V26.1115Z" fill="#202020"/>
<path d="M164.001 15.3761V18.6083L153.96 18.2534V35.3731H150.359V17.9258C150.359 16.915 150.614 16.1526 151.101 15.6707C151.583 15.202 152.3 14.9751 153.237 15.0147L164 15.3761H164.001Z" fill="#202020"/>
</svg>
