<svg viewBox="0 0 102 102" fill="none" xmlns="http://www.w3.org/2000/svg">
<rect x="1" y="1" width="100" height="100" rx="12" fill="black" stroke="black" stroke-width="2"/>
<path fill-rule="evenodd" clip-rule="evenodd" d="M35.0625 24.75C32.4725 24.75 30.375 26.85 30.375 29.4375V72.5625C30.375 75.15 32.475 77.25 35.0625 77.25H66.9375C69.525 77.25 71.625 75.15 71.625 72.5625V52.875C71.625 50.3886 70.6373 48.004 68.8791 46.2459C67.121 44.4877 64.7364 43.5 62.25 43.5H57.5625C56.3193 43.5 55.127 43.0061 54.2479 42.1271C53.3689 41.248 52.875 40.0557 52.875 38.8125V34.125C52.875 31.6386 51.8873 29.254 50.1291 27.4959C48.371 25.7377 45.9864 24.75 43.5 24.75H35.0625ZM39.75 58.5C39.75 58.0027 39.9475 57.5258 40.2992 57.1742C40.6508 56.8225 41.1277 56.625 41.625 56.625H60.375C60.8723 56.625 61.3492 56.8225 61.7008 57.1742C62.0525 57.5258 62.25 58.0027 62.25 58.5C62.25 58.9973 62.0525 59.4742 61.7008 59.8258C61.3492 60.1775 60.8723 60.375 60.375 60.375H41.625C41.1277 60.375 40.6508 60.1775 40.2992 59.8258C39.9475 59.4742 39.75 58.9973 39.75 58.5ZM41.625 64.125C41.1277 64.125 40.6508 64.3225 40.2992 64.6742C39.9475 65.0258 39.75 65.5027 39.75 66C39.75 66.4973 39.9475 66.9742 40.2992 67.3258C40.6508 67.6775 41.1277 67.875 41.625 67.875H51C51.4973 67.875 51.9742 67.6775 52.3258 67.3258C52.6775 66.9742 52.875 66.4973 52.875 66C52.875 65.5027 52.6775 65.0258 52.3258 64.6742C51.9742 64.3225 51.4973 64.125 51 64.125H41.625Z" fill="#FFFEFF"/>
<path d="M53.4275 25.54C55.4938 27.9224 56.6294 30.9714 56.625 34.125V38.8125C56.625 39.33 57.045 39.75 57.5625 39.75H62.25C65.4036 39.7457 68.4526 40.8813 70.835 42.9475C69.7351 38.7643 67.5438 34.9483 64.4853 31.8898C61.4267 28.8312 57.6107 26.6399 53.4275 25.54Z" fill="#FFFEFF"/>
</svg>
