<svg  viewBox="0 0 32 32" fill="none" xmlns="http://www.w3.org/2000/svg">
<path d="M24.4482 24.452H20.8942V18.8829C20.8942 17.5549 20.8673 15.846 19.0422 15.846C17.1893 15.846 16.9062 17.2911 16.9062 18.7849V24.452H13.3522V13H16.7662V14.5609H16.8122C17.2893 13.6609 18.4493 12.711 20.1822 12.711C23.7833 12.711 24.4493 15.0811 24.4493 18.166L24.4482 24.452ZM9.33828 11.433C8.19428 11.433 7.27528 10.507 7.27528 9.368C7.27528 8.23 8.19528 7.305 9.33828 7.305C10.4783 7.305 11.4023 8.23 11.4023 9.368C11.4023 10.507 10.4773 11.433 9.33828 11.433ZM11.1203 24.452H7.55628V13H11.1203V24.452ZM26.2262 4H5.77228C4.79328 4 4.00128 4.774 4.00128 5.729V26.2711C4.00128 27.2269 4.79328 28 5.77228 28H26.2233C27.2013 28 28.0013 27.2269 28.0013 26.2711V5.729C28.0013 4.774 27.2013 4 26.2233 4H26.2262Z" fill="black"/>
</svg>
