<svg width="60" height="60" viewBox="0 0 60 60" fill="none" xmlns="http://www.w3.org/2000/svg">
<path d="M30 5C43.807 5 55 16.1929 55 30C55 43.807 43.807 55 30 55C16.1929 55 5 43.807 5 30C5 16.1929 16.1929 5 30 5ZM40.0107 32.1943C39.1472 30.8832 38.5243 29.9365 36.1555 30.312C31.6793 31.0225 31.183 31.806 30.9692 33.0938L30.909 33.4858L30.8483 33.8993C30.604 35.607 30.6132 36.253 31.3972 37.077C34.5602 40.3955 36.455 42.7875 37.029 44.1865C37.3092 44.871 38.0298 46.9377 37.534 48.9817C40.593 47.7665 43.289 45.833 45.4132 43.3897C45.6888 42.4552 45.8878 41.2915 45.8878 39.8795V39.618C45.8878 37.3118 45.8877 36.26 44.2578 35.3285C43.57 34.9377 43.0568 34.7025 42.6455 34.516C41.7275 34.0985 41.1198 33.8242 40.2995 32.6248C40.2018 32.482 40.1062 32.3395 40.0107 32.1943ZM30 9.58332C24.2065 9.58332 18.9766 11.9964 15.2605 15.8724C15.7029 16.1796 16.0884 16.6113 16.3532 17.2064C16.8632 18.3507 16.8632 19.528 16.8632 20.5691C16.8622 21.3905 16.861 22.168 17.1248 22.7326C17.4861 23.5034 19.041 23.8307 20.4137 24.1184C20.9041 24.2217 21.4099 24.3271 21.8699 24.4544C23.1351 24.8058 24.1138 25.9413 24.8985 26.853C25.224 27.2328 25.7048 27.7907 25.9457 27.9292C26.0715 27.839 26.475 27.402 26.6747 26.6838C26.8267 26.1367 26.7835 25.6493 26.5598 25.3857C25.162 23.7361 25.238 20.558 25.67 19.3874C26.3505 17.5401 28.4762 17.6764 30.03 17.7774C30.6095 17.8147 31.1565 17.8506 31.5643 17.7994C33.1205 17.6041 33.599 15.2385 33.9375 14.775C34.6677 13.7745 36.9017 12.2678 38.2895 11.3364C35.7562 10.2096 32.9513 9.58332 30 9.58332Z" fill="#0156F7"/>
</svg>
