<svg width="50" height="50" viewBox="0 0 50 50" fill="none" xmlns="http://www.w3.org/2000/svg">
<path d="M25 4.16724C36.5058 4.16724 45.8333 13.4946 45.8333 25.0006C45.8333 36.5064 36.5058 45.8339 25 45.8339C13.494 45.8339 4.16663 36.5064 4.16663 25.0006C4.16663 13.4946 13.494 4.16724 25 4.16724ZM33.3423 26.8291C32.6227 25.7366 32.1035 24.9477 30.1295 25.2606C26.3993 25.8527 25.9858 26.5056 25.8077 27.5787L25.7575 27.9054L25.7068 28.2499C25.5033 29.6731 25.511 30.2114 26.1643 30.8981C28.8002 33.6635 30.3791 35.6568 30.8575 36.8227C31.091 37.3931 31.6914 39.1154 31.2783 40.8187C33.8275 39.806 36.0741 38.1947 37.8443 36.1587C38.0739 35.3799 38.2398 34.4102 38.2398 33.2335V33.0156C38.2398 31.0937 38.2398 30.2172 36.8814 29.441C36.3083 29.1154 35.8806 28.9193 35.5379 28.7639C34.7729 28.416 34.2664 28.1874 33.5829 27.1879C33.5014 27.0689 33.4218 26.9502 33.3423 26.8291ZM25 7.98667C20.172 7.98667 15.8138 9.99761 12.717 13.2276C13.0857 13.4836 13.407 13.8433 13.6276 14.3392C14.0526 15.2928 14.0526 16.2739 14.0526 17.1415C14.0518 17.826 14.0508 18.4739 14.2706 18.9444C14.5717 19.5867 15.8675 19.8595 17.0114 20.0992C17.4201 20.1853 17.8415 20.2731 18.2249 20.3792C19.2792 20.6721 20.0948 21.6183 20.7487 22.3781C21.02 22.6945 21.4206 23.1595 21.6214 23.2749C21.7262 23.1997 22.0625 22.8356 22.2289 22.237C22.3556 21.7812 22.3195 21.3749 22.1331 21.1554C20.9683 19.7807 21.0316 17.1322 21.3916 16.1567C21.9587 14.6174 23.7302 14.7309 25.025 14.8151C25.5079 14.8462 25.9637 14.876 26.3035 14.8334C27.6004 14.6707 27.9991 12.6993 28.2812 12.3131C28.8898 11.4793 30.7514 10.2237 31.9079 9.44753C29.7968 8.50853 27.4593 7.98667 25 7.98667Z" fill="#FFFEFF"/>
</svg>
