<svg width="102" height="102" viewBox="0 0 102 102" fill="none" xmlns="http://www.w3.org/2000/svg">
<rect x="1" y="1" width="100" height="100" rx="12" fill="black" stroke="black" stroke-width="2"/>
<path fill-rule="evenodd" clip-rule="evenodd" d="M49.85 76.8775L50.025 76.9775L50.095 77.0175C50.3726 77.1676 50.6832 77.2462 50.9988 77.2462C51.3143 77.2462 51.6249 77.1676 51.9025 77.0175L51.9725 76.98L52.15 76.8775C53.1278 76.2977 54.0819 75.6789 55.01 75.0225C57.4127 73.3262 59.6576 71.4168 61.7175 69.3175C66.5775 64.3425 71.625 56.8675 71.625 47.25C71.625 41.7799 69.452 36.5339 65.5841 32.6659C61.7161 28.798 56.4701 26.625 51 26.625C45.5299 26.625 40.2839 28.798 36.4159 32.6659C32.548 36.5339 30.375 41.7799 30.375 47.25C30.375 56.865 35.425 64.3425 40.2825 69.3175C42.3416 71.4167 44.5857 73.3261 46.9875 75.0225C47.9164 75.6789 48.8714 76.2978 49.85 76.8775ZM51 54.75C52.9891 54.75 54.8968 53.9598 56.3033 52.5533C57.7098 51.1468 58.5 49.2391 58.5 47.25C58.5 45.2609 57.7098 43.3532 56.3033 41.9467C54.8968 40.5402 52.9891 39.75 51 39.75C49.0109 39.75 47.1032 40.5402 45.6967 41.9467C44.2902 43.3532 43.5 45.2609 43.5 47.25C43.5 49.2391 44.2902 51.1468 45.6967 52.5533C47.1032 53.9598 49.0109 54.75 51 54.75Z" fill="#FFFEFF"/>
</svg>
