<svg  viewBox="0 0 102 102" fill="none" xmlns="http://www.w3.org/2000/svg">
<rect x="1" y="1" width="100" height="100" rx="12" fill="black" stroke="black" stroke-width="2"/>
<path d="M52.875 52.875C52.875 53.3723 52.6775 53.8492 52.3258 54.2008C51.9742 54.5525 51.4973 54.75 51 54.75C50.5027 54.75 50.0258 54.5525 49.6742 54.2008C49.3225 53.8492 49.125 53.3723 49.125 52.875C49.125 52.3777 49.3225 51.9008 49.6742 51.5492C50.0258 51.1975 50.5027 51 51 51C51.4973 51 51.9742 51.1975 52.3258 51.5492C52.6775 51.9008 52.875 52.3777 52.875 52.875ZM39.75 60.375C40.2473 60.375 40.7242 60.1775 41.0758 59.8258C41.4275 59.4742 41.625 58.9973 41.625 58.5C41.625 58.0027 41.4275 57.5258 41.0758 57.1742C40.7242 56.8225 40.2473 56.625 39.75 56.625C39.2527 56.625 38.7758 56.8225 38.4242 57.1742C38.0725 57.5258 37.875 58.0027 37.875 58.5C37.875 58.9973 38.0725 59.4742 38.4242 59.8258C38.7758 60.1775 39.2527 60.375 39.75 60.375ZM41.625 64.125C41.625 64.6223 41.4275 65.0992 41.0758 65.4508C40.7242 65.8025 40.2473 66 39.75 66C39.2527 66 38.7758 65.8025 38.4242 65.4508C38.0725 65.0992 37.875 64.6223 37.875 64.125C37.875 63.6277 38.0725 63.1508 38.4242 62.7992C38.7758 62.4475 39.2527 62.25 39.75 62.25C40.2473 62.25 40.7242 62.4475 41.0758 62.7992C41.4275 63.1508 41.625 63.6277 41.625 64.125ZM45.375 60.375C45.8723 60.375 46.3492 60.1775 46.7008 59.8258C47.0525 59.4742 47.25 58.9973 47.25 58.5C47.25 58.0027 47.0525 57.5258 46.7008 57.1742C46.3492 56.8225 45.8723 56.625 45.375 56.625C44.8777 56.625 44.4008 56.8225 44.0492 57.1742C43.6975 57.5258 43.5 58.0027 43.5 58.5C43.5 58.9973 43.6975 59.4742 44.0492 59.8258C44.4008 60.1775 44.8777 60.375 45.375 60.375ZM47.25 64.125C47.25 64.6223 47.0525 65.0992 46.7008 65.4508C46.3492 65.8025 45.8723 66 45.375 66C44.8777 66 44.4008 65.8025 44.0492 65.4508C43.6975 65.0992 43.5 64.6223 43.5 64.125C43.5 63.6277 43.6975 63.1508 44.0492 62.7992C44.4008 62.4475 44.8777 62.25 45.375 62.25C45.8723 62.25 46.3492 62.4475 46.7008 62.7992C47.0525 63.1508 47.25 63.6277 47.25 64.125ZM51 60.375C51.4973 60.375 51.9742 60.1775 52.3258 59.8258C52.6775 59.4742 52.875 58.9973 52.875 58.5C52.875 58.0027 52.6775 57.5258 52.3258 57.1742C51.9742 56.8225 51.4973 56.625 51 56.625C50.5027 56.625 50.0258 56.8225 49.6742 57.1742C49.3225 57.5258 49.125 58.0027 49.125 58.5C49.125 58.9973 49.3225 59.4742 49.6742 59.8258C50.0258 60.1775 50.5027 60.375 51 60.375ZM52.875 64.125C52.875 64.6223 52.6775 65.0992 52.3258 65.4508C51.9742 65.8025 51.4973 66 51 66C50.5027 66 50.0258 65.8025 49.6742 65.4508C49.3225 65.0992 49.125 64.6223 49.125 64.125C49.125 63.6277 49.3225 63.1508 49.6742 62.7992C50.0258 62.4475 50.5027 62.25 51 62.25C51.4973 62.25 51.9742 62.4475 52.3258 62.7992C52.6775 63.1508 52.875 63.6277 52.875 64.125ZM56.625 60.375C57.1223 60.375 57.5992 60.1775 57.9508 59.8258C58.3025 59.4742 58.5 58.9973 58.5 58.5C58.5 58.0027 58.3025 57.5258 57.9508 57.1742C57.5992 56.8225 57.1223 56.625 56.625 56.625C56.1277 56.625 55.6508 56.8225 55.2992 57.1742C54.9475 57.5258 54.75 58.0027 54.75 58.5C54.75 58.9973 54.9475 59.4742 55.2992 59.8258C55.6508 60.1775 56.1277 60.375 56.625 60.375ZM58.5 64.125C58.5 64.6223 58.3025 65.0992 57.9508 65.4508C57.5992 65.8025 57.1223 66 56.625 66C56.1277 66 55.6508 65.8025 55.2992 65.4508C54.9475 65.0992 54.75 64.6223 54.75 64.125C54.75 63.6277 54.9475 63.1508 55.2992 62.7992C55.6508 62.4475 56.1277 62.25 56.625 62.25C57.1223 62.25 57.5992 62.4475 57.9508 62.7992C58.3025 63.1508 58.5 63.6277 58.5 64.125ZM62.25 60.375C62.7473 60.375 63.2242 60.1775 63.5758 59.8258C63.9275 59.4742 64.125 58.9973 64.125 58.5C64.125 58.0027 63.9275 57.5258 63.5758 57.1742C63.2242 56.8225 62.7473 56.625 62.25 56.625C61.7527 56.625 61.2758 56.8225 60.9242 57.1742C60.5725 57.5258 60.375 58.0027 60.375 58.5C60.375 58.9973 60.5725 59.4742 60.9242 59.8258C61.2758 60.1775 61.7527 60.375 62.25 60.375ZM58.5 52.875C58.5 53.3723 58.3025 53.8492 57.9508 54.2008C57.5992 54.5525 57.1223 54.75 56.625 54.75C56.1277 54.75 55.6508 54.5525 55.2992 54.2008C54.9475 53.8492 54.75 53.3723 54.75 52.875C54.75 52.3777 54.9475 51.9008 55.2992 51.5492C55.6508 51.1975 56.1277 51 56.625 51C57.1223 51 57.5992 51.1975 57.9508 51.5492C58.3025 51.9008 58.5 52.3777 58.5 52.875ZM62.25 54.75C62.7473 54.75 63.2242 54.5525 63.5758 54.2008C63.9275 53.8492 64.125 53.3723 64.125 52.875C64.125 52.3777 63.9275 51.9008 63.5758 51.5492C63.2242 51.1975 62.7473 51 62.25 51C61.7527 51 61.2758 51.1975 60.9242 51.5492C60.5725 51.9008 60.375 52.3777 60.375 52.875C60.375 53.3723 60.5725 53.8492 60.9242 54.2008C61.2758 54.5525 61.7527 54.75 62.25 54.75Z" fill="#FFFEFF"/>
<path fill-rule="evenodd" clip-rule="evenodd" d="M37.875 26.625C38.3723 26.625 38.8492 26.8225 39.2008 27.1742C39.5525 27.5258 39.75 28.0027 39.75 28.5V32.25H62.25V28.5C62.25 28.0027 62.4475 27.5258 62.7992 27.1742C63.1508 26.8225 63.6277 26.625 64.125 26.625C64.6223 26.625 65.0992 26.8225 65.4508 27.1742C65.8025 27.5258 66 28.0027 66 28.5V32.25H67.875C69.8641 32.25 71.7718 33.0402 73.1783 34.4467C74.5848 35.8532 75.375 37.7609 75.375 39.75V67.875C75.375 69.8641 74.5848 71.7718 73.1783 73.1783C71.7718 74.5848 69.8641 75.375 67.875 75.375H34.125C32.1359 75.375 30.2282 74.5848 28.8217 73.1783C27.4152 71.7718 26.625 69.8641 26.625 67.875V39.75C26.625 37.7609 27.4152 35.8532 28.8217 34.4467C30.2282 33.0402 32.1359 32.25 34.125 32.25H36V28.5C36 28.0027 36.1975 27.5258 36.5492 27.1742C36.9008 26.8225 37.3777 26.625 37.875 26.625ZM71.625 49.125C71.625 48.1304 71.2299 47.1766 70.5266 46.4733C69.8234 45.7701 68.8696 45.375 67.875 45.375H34.125C33.1304 45.375 32.1766 45.7701 31.4733 46.4733C30.7701 47.1766 30.375 48.1304 30.375 49.125V67.875C30.375 68.8696 30.7701 69.8234 31.4733 70.5266C32.1766 71.2299 33.1304 71.625 34.125 71.625H67.875C68.8696 71.625 69.8234 71.2299 70.5266 70.5266C71.2299 69.8234 71.625 68.8696 71.625 67.875V49.125Z" fill="#FFFEFF"/>
</svg>
