<svg width="120" height="120" viewBox="0 0 120 120" fill="none" xmlns="http://www.w3.org/2000/svg">
<path d="M53.4366 5.74365C57.1944 2.45523 62.8056 2.45523 66.5634 5.74365C69.1672 8.0223 72.7666 8.78737 76.0721 7.7648C80.8425 6.28908 85.9686 8.57139 88.064 13.1039C89.5159 16.2446 92.4929 18.4076 95.9286 18.8179C100.887 19.41 104.641 23.58 104.712 28.5729C104.761 32.0327 106.601 35.2195 109.573 36.9917C113.861 39.5494 115.595 44.886 113.629 49.476C112.267 52.6565 112.651 56.3162 114.645 59.1439C117.523 63.2248 116.936 68.8053 113.273 72.1987C110.735 74.5501 109.598 78.0498 110.269 81.4441C111.238 86.3426 108.432 91.2021 103.706 92.8122C100.43 93.9279 97.9682 96.6625 97.201 100.036C96.0938 104.906 91.5542 108.204 86.5812 107.752C83.1353 107.439 79.7737 108.936 77.7005 111.706C74.7086 115.704 69.2199 116.871 64.8606 114.435C61.8399 112.748 58.1601 112.748 55.1394 114.435C50.7801 116.871 45.2914 115.704 42.2995 111.706C40.2263 108.936 36.8647 107.439 33.4188 107.752C28.4458 108.204 23.9062 104.906 22.799 100.036C22.0318 96.6625 19.5696 93.9279 16.2943 92.8122C11.5676 91.2021 8.76195 86.3426 9.73094 81.4441C10.4024 78.0498 9.26527 74.5501 6.72693 72.1987C3.06374 68.8053 2.4772 63.2248 5.35482 59.1439C7.3488 56.3162 7.73344 52.6565 6.37096 49.476C4.40468 44.886 6.13866 39.5494 10.4273 36.9917C13.3991 35.2195 15.239 32.0327 15.2879 28.5729C15.3586 23.58 19.1132 19.41 24.0714 18.8179C27.5071 18.4076 30.4841 16.2446 31.936 13.1039C34.0314 8.57139 39.1575 6.28908 43.9279 7.7648C47.2334 8.78737 50.8328 8.0223 53.4366 5.74365Z" fill="black"/>
<path d="M59.005 64.3998L62.535 67.9298L83.6987 46.7658L87.2345 50.3013L62.535 75.0008L46.625 59.0908L50.1605 55.5553L55.4725 60.8673L59.005 64.3998ZM59.0092 57.3305L71.3907 44.9487L74.9165 48.4744L62.535 60.856L59.0092 57.3305ZM51.9425 71.4683L48.4099 75.0008L32.5 59.0908L36.0355 55.5553L39.5681 59.088L39.5651 59.0908L51.9425 71.4683Z" fill="#FFFEFF"/>
</svg>
