<svg viewBox="0 0 459 322" fill="none" xmlns="http://www.w3.org/2000/svg">
<path opacity="0.2" fill-rule="evenodd" clip-rule="evenodd" d="M2 205.281C2 205.281 50.7658 112.923 81.0775 112.923C124.564 112.923 129.83 158.187 183.869 158.187C237.909 158.187 248.919 111.563 317.479 56.452C386.039 1.34067 457 16.3742 457 16.3742V284C457 288.418 453.418 292 449 292H10C5.58172 292 2 288.418 2 284V205.281Z" fill="url(#paint0_linear_298_66660)"/>
<path d="M2 204.432C2 204.432 50.7658 111.958 81.0775 111.958C124.564 111.958 129.83 157.307 183.869 157.307C237.909 157.307 248.919 110.596 317.479 55.3811C386.039 0.166618 457 15.2283 457 15.2283" stroke="white" stroke-width="3" stroke-linecap="round"/>
<circle cx="443" cy="14" r="14" fill="#FFFEFF"/>
<circle cx="443" cy="14" r="8" fill="#BED8A6"/>
<path d="M439.49 314.053L441.36 315.537L440.564 316.235L438.728 314.766L439.49 314.053ZM441.375 311.25V311.641C441.375 312.178 441.305 312.66 441.165 313.086C441.025 313.512 440.825 313.875 440.564 314.175C440.304 314.474 439.993 314.704 439.632 314.863C439.27 315.02 438.87 315.098 438.43 315.098C437.994 315.098 437.595 315.02 437.234 314.863C436.876 314.704 436.565 314.474 436.301 314.175C436.038 313.875 435.833 313.512 435.686 313.086C435.543 312.66 435.471 312.178 435.471 311.641V311.25C435.471 310.713 435.543 310.233 435.686 309.81C435.829 309.383 436.031 309.02 436.292 308.721C436.555 308.418 436.866 308.188 437.224 308.032C437.586 307.873 437.984 307.793 438.421 307.793C438.86 307.793 439.26 307.873 439.622 308.032C439.986 308.188 440.299 308.418 440.559 308.721C440.82 309.02 441.02 309.383 441.16 309.81C441.303 310.233 441.375 310.713 441.375 311.25ZM440.144 311.641V311.24C440.144 310.843 440.105 310.493 440.027 310.19C439.952 309.884 439.84 309.629 439.69 309.424C439.544 309.215 439.363 309.059 439.148 308.955C438.937 308.848 438.694 308.794 438.421 308.794C438.154 308.794 437.914 308.848 437.703 308.955C437.491 309.059 437.311 309.215 437.161 309.424C437.011 309.629 436.897 309.884 436.819 310.19C436.741 310.493 436.702 310.843 436.702 311.24V311.641C436.702 312.038 436.741 312.389 436.819 312.695C436.897 313.001 437.011 313.26 437.161 313.472C437.314 313.68 437.496 313.838 437.708 313.945C437.923 314.049 438.163 314.102 438.43 314.102C438.704 314.102 438.946 314.049 439.158 313.945C439.369 313.838 439.549 313.68 439.695 313.472C439.841 313.26 439.952 313.001 440.027 312.695C440.105 312.389 440.144 312.038 440.144 311.641ZM447.748 312.466V313.403H442.621L442.582 312.695L445.649 307.891H446.591L445.571 309.639L443.808 312.466H447.748ZM446.86 307.891V315H445.683V307.891H446.86Z" fill="white"/>
<path d="M295.49 314.053L297.36 315.537L296.564 316.235L294.728 314.766L295.49 314.053ZM297.375 311.25V311.641C297.375 312.178 297.305 312.66 297.165 313.086C297.025 313.512 296.825 313.875 296.564 314.175C296.304 314.474 295.993 314.704 295.632 314.863C295.27 315.02 294.87 315.098 294.43 315.098C293.994 315.098 293.595 315.02 293.234 314.863C292.876 314.704 292.565 314.474 292.301 314.175C292.038 313.875 291.833 313.512 291.686 313.086C291.543 312.66 291.471 312.178 291.471 311.641V311.25C291.471 310.713 291.543 310.233 291.686 309.81C291.829 309.383 292.031 309.02 292.292 308.721C292.555 308.418 292.866 308.188 293.224 308.032C293.586 307.873 293.984 307.793 294.421 307.793C294.86 307.793 295.26 307.873 295.622 308.032C295.986 308.188 296.299 308.418 296.559 308.721C296.82 309.02 297.02 309.383 297.16 309.81C297.303 310.233 297.375 310.713 297.375 311.25ZM296.144 311.641V311.24C296.144 310.843 296.105 310.493 296.027 310.19C295.952 309.884 295.84 309.629 295.69 309.424C295.544 309.215 295.363 309.059 295.148 308.955C294.937 308.848 294.694 308.794 294.421 308.794C294.154 308.794 293.914 308.848 293.703 308.955C293.491 309.059 293.311 309.215 293.161 309.424C293.011 309.629 292.897 309.884 292.819 310.19C292.741 310.493 292.702 310.843 292.702 311.24V311.641C292.702 312.038 292.741 312.389 292.819 312.695C292.897 313.001 293.011 313.26 293.161 313.472C293.314 313.68 293.496 313.838 293.708 313.945C293.923 314.049 294.163 314.102 294.43 314.102C294.704 314.102 294.946 314.049 295.158 313.945C295.369 313.838 295.549 313.68 295.695 313.472C295.841 313.26 295.952 313.001 296.027 312.695C296.105 312.389 296.144 312.038 296.144 311.641ZM300.233 310.913H300.936C301.209 310.913 301.436 310.866 301.615 310.771C301.797 310.677 301.932 310.547 302.02 310.381C302.108 310.215 302.152 310.024 302.152 309.81C302.152 309.585 302.111 309.393 302.03 309.233C301.951 309.071 301.831 308.945 301.668 308.857C301.509 308.77 301.305 308.726 301.058 308.726C300.85 308.726 300.661 308.768 300.492 308.853C300.326 308.934 300.194 309.051 300.096 309.204C299.998 309.354 299.95 309.533 299.95 309.741H298.768C298.768 309.364 298.867 309.028 299.066 308.735C299.264 308.442 299.535 308.213 299.876 308.047C300.221 307.878 300.609 307.793 301.038 307.793C301.497 307.793 301.898 307.869 302.24 308.022C302.585 308.172 302.853 308.397 303.045 308.696C303.237 308.996 303.333 309.367 303.333 309.81C303.333 310.011 303.286 310.216 303.192 310.425C303.097 310.633 302.957 310.824 302.772 310.996C302.586 311.165 302.355 311.304 302.078 311.411C301.802 311.515 301.481 311.567 301.117 311.567H300.233V310.913ZM300.233 311.831V311.187H301.117C301.533 311.187 301.888 311.235 302.181 311.333C302.477 311.431 302.718 311.566 302.904 311.738C303.089 311.908 303.224 312.101 303.309 312.319C303.397 312.537 303.441 312.769 303.441 313.013C303.441 313.345 303.381 313.641 303.26 313.901C303.143 314.159 302.975 314.377 302.757 314.556C302.539 314.735 302.284 314.87 301.991 314.961C301.701 315.052 301.385 315.098 301.043 315.098C300.737 315.098 300.444 315.055 300.164 314.971C299.884 314.886 299.634 314.761 299.412 314.595C299.191 314.425 299.015 314.215 298.885 313.965C298.758 313.711 298.695 313.418 298.695 313.086H299.871C299.871 313.298 299.92 313.485 300.018 313.647C300.119 313.807 300.259 313.932 300.438 314.023C300.62 314.115 300.828 314.16 301.063 314.16C301.31 314.16 301.523 314.116 301.702 314.028C301.882 313.94 302.018 313.81 302.113 313.638C302.21 313.465 302.259 313.257 302.259 313.013C302.259 312.736 302.205 312.511 302.098 312.339C301.991 312.166 301.838 312.039 301.639 311.958C301.44 311.873 301.206 311.831 300.936 311.831H300.233Z" fill="white"/>
<path d="M151.49 314.053L153.36 315.537L152.564 316.235L150.728 314.766L151.49 314.053ZM153.375 311.25V311.641C153.375 312.178 153.305 312.66 153.165 313.086C153.025 313.512 152.825 313.875 152.564 314.175C152.304 314.474 151.993 314.704 151.632 314.863C151.27 315.02 150.87 315.098 150.43 315.098C149.994 315.098 149.595 315.02 149.234 314.863C148.876 314.704 148.565 314.474 148.301 314.175C148.038 313.875 147.833 313.512 147.686 313.086C147.543 312.66 147.471 312.178 147.471 311.641V311.25C147.471 310.713 147.543 310.233 147.686 309.81C147.829 309.383 148.031 309.02 148.292 308.721C148.555 308.418 148.866 308.188 149.224 308.032C149.586 307.873 149.984 307.793 150.421 307.793C150.86 307.793 151.26 307.873 151.622 308.032C151.986 308.188 152.299 308.418 152.559 308.721C152.82 309.02 153.02 309.383 153.16 309.81C153.303 310.233 153.375 310.713 153.375 311.25ZM152.144 311.641V311.24C152.144 310.843 152.105 310.493 152.027 310.19C151.952 309.884 151.84 309.629 151.69 309.424C151.544 309.215 151.363 309.059 151.148 308.955C150.937 308.848 150.694 308.794 150.421 308.794C150.154 308.794 149.914 308.848 149.703 308.955C149.491 309.059 149.311 309.215 149.161 309.424C149.011 309.629 148.897 309.884 148.819 310.19C148.741 310.493 148.702 310.843 148.702 311.24V311.641C148.702 312.038 148.741 312.389 148.819 312.695C148.897 313.001 149.011 313.26 149.161 313.472C149.314 313.68 149.496 313.838 149.708 313.945C149.923 314.049 150.163 314.102 150.43 314.102C150.704 314.102 150.946 314.049 151.158 313.945C151.369 313.838 151.549 313.68 151.695 313.472C151.841 313.26 151.952 313.001 152.027 312.695C152.105 312.389 152.144 312.038 152.144 311.641ZM159.617 314.062V315H154.851V314.194L157.165 311.67C157.419 311.383 157.619 311.136 157.766 310.928C157.912 310.719 158.015 310.532 158.074 310.366C158.135 310.197 158.166 310.033 158.166 309.873C158.166 309.648 158.124 309.451 158.039 309.282C157.958 309.11 157.838 308.975 157.678 308.877C157.519 308.776 157.325 308.726 157.097 308.726C156.833 308.726 156.612 308.783 156.433 308.896C156.254 309.01 156.119 309.168 156.028 309.37C155.937 309.569 155.891 309.797 155.891 310.054H154.714C154.714 309.64 154.809 309.263 154.997 308.921C155.186 308.576 155.46 308.302 155.818 308.101C156.176 307.896 156.607 307.793 157.112 307.793C157.587 307.793 157.991 307.873 158.323 308.032C158.655 308.192 158.907 308.418 159.079 308.711C159.255 309.004 159.343 309.351 159.343 309.751C159.343 309.972 159.307 310.192 159.236 310.41C159.164 310.628 159.062 310.846 158.928 311.064C158.798 311.279 158.643 311.496 158.464 311.714C158.285 311.929 158.088 312.147 157.873 312.368L156.335 314.062H159.617Z" fill="white"/>
<path d="M10.4899 314.053L12.36 315.537L11.5641 316.235L9.72819 314.766L10.4899 314.053ZM12.3747 311.25V311.641C12.3747 312.178 12.3047 312.66 12.1647 313.086C12.0247 313.512 11.8245 313.875 11.5641 314.175C11.3037 314.474 10.9928 314.704 10.6315 314.863C10.2702 315.02 9.86979 315.098 9.43034 315.098C8.99414 315.098 8.59538 315.02 8.23405 314.863C7.87598 314.704 7.5651 314.474 7.30143 314.175C7.03776 313.875 6.83268 313.512 6.6862 313.086C6.54297 312.66 6.47135 312.178 6.47135 311.641V311.25C6.47135 310.713 6.54297 310.233 6.6862 309.81C6.82943 309.383 7.03125 309.02 7.29167 308.721C7.55534 308.418 7.86621 308.188 8.22428 308.032C8.58561 307.873 8.98437 307.793 9.42057 307.793C9.86003 307.793 10.2604 307.873 10.6217 308.032C10.9863 308.188 11.2988 308.418 11.5592 308.721C11.8197 309.02 12.0199 309.383 12.1598 309.81C12.3031 310.233 12.3747 310.713 12.3747 311.25ZM11.1442 311.641V311.24C11.1442 310.843 11.1051 310.493 11.027 310.19C10.9521 309.884 10.8398 309.629 10.6901 309.424C10.5436 309.215 10.363 309.059 10.1481 308.955C9.93652 308.848 9.69401 308.794 9.42057 308.794C9.15365 308.794 8.91439 308.848 8.7028 308.955C8.49121 309.059 8.31055 309.215 8.16081 309.424C8.01107 309.629 7.89714 309.884 7.81901 310.19C7.74089 310.493 7.70182 310.843 7.70182 311.24V311.641C7.70182 312.038 7.74089 312.389 7.81901 312.695C7.89714 313.001 8.01107 313.26 8.16081 313.472C8.3138 313.68 8.49609 313.838 8.70768 313.945C8.92253 314.049 9.16341 314.102 9.43034 314.102C9.70378 314.102 9.94629 314.049 10.1579 313.945C10.3695 313.838 10.5485 313.68 10.695 313.472C10.8415 313.26 10.9521 313.001 11.027 312.695C11.1051 312.389 11.1442 312.038 11.1442 311.641ZM17.0638 307.866V315H15.887V309.263L14.1439 309.854V308.882L16.9222 307.866H17.0638Z" fill="white"/>
<defs>
<linearGradient id="paint0_linear_298_66660" x1="2" y1="13.1521" x2="2" y2="300" gradientUnits="userSpaceOnUse">
<stop stop-color="white"/>
<stop offset="1" stop-color="white" stop-opacity="0"/>
</linearGradient>
</defs>
</svg>
