<svg width="579" height="382" viewBox="0 0 579 382" fill="none" xmlns="http://www.w3.org/2000/svg">
<rect x="198" y="1" width="380" height="380" rx="20" fill="#FFFEFF" stroke="black" stroke-opacity="0.1"/>
<path d="M198 21C198 9.95431 206.954 1 218 1H558C569.046 1 578 9.95431 578 21V65H198V21Z" fill="#F4F4F4"/>
<path d="M224.976 39L222.416 34.552H221.024V39H219.2V27.88H223.04C223.893 27.88 224.613 28.0293 225.2 28.328C225.797 28.6267 226.24 29.0267 226.528 29.528C226.827 30.0293 226.976 30.5893 226.976 31.208C226.976 31.9333 226.763 32.5947 226.336 33.192C225.92 33.7787 225.275 34.1787 224.4 34.392L227.152 39H224.976ZM221.024 33.096H223.04C223.723 33.096 224.235 32.9253 224.576 32.584C224.928 32.2427 225.104 31.784 225.104 31.208C225.104 30.632 224.933 30.184 224.592 29.864C224.251 29.5333 223.733 29.368 223.04 29.368H221.024V33.096ZM237.389 34.376C237.389 34.7067 237.368 35.0053 237.325 35.272H230.589C230.643 35.976 230.904 36.5413 231.373 36.968C231.843 37.3947 232.419 37.608 233.101 37.608C234.083 37.608 234.776 37.1973 235.181 36.376H237.149C236.883 37.1867 236.397 37.8533 235.693 38.376C235 38.888 234.136 39.144 233.101 39.144C232.259 39.144 231.501 38.9573 230.829 38.584C230.168 38.2 229.645 37.6667 229.261 36.984C228.888 36.2907 228.701 35.4907 228.701 34.584C228.701 33.6773 228.883 32.8827 229.245 32.2C229.619 31.5067 230.136 30.9733 230.797 30.6C231.469 30.2267 232.237 30.04 233.101 30.04C233.933 30.04 234.675 30.2213 235.325 30.584C235.976 30.9467 236.483 31.4587 236.845 32.12C237.208 32.7707 237.389 33.5227 237.389 34.376ZM235.485 33.8C235.475 33.128 235.235 32.5893 234.765 32.184C234.296 31.7787 233.715 31.576 233.021 31.576C232.392 31.576 231.853 31.7787 231.405 32.184C230.957 32.5787 230.691 33.1173 230.605 33.8H235.485ZM238.576 34.552C238.576 33.6667 238.758 32.8827 239.12 32.2C239.494 31.5173 239.995 30.9893 240.624 30.616C241.264 30.232 241.974 30.04 242.752 30.04C243.328 30.04 243.894 30.168 244.448 30.424C245.014 30.6693 245.462 31 245.792 31.416V27.16H247.632V39H245.792V37.672C245.494 38.0987 245.078 38.4507 244.544 38.728C244.022 39.0053 243.419 39.144 242.736 39.144C241.968 39.144 241.264 38.952 240.624 38.568C239.995 38.1733 239.494 37.6293 239.12 36.936C238.758 36.232 238.576 35.4373 238.576 34.552ZM245.792 34.584C245.792 33.976 245.664 33.448 245.408 33C245.163 32.552 244.838 32.2107 244.432 31.976C244.027 31.7413 243.59 31.624 243.12 31.624C242.651 31.624 242.214 31.7413 241.808 31.976C241.403 32.2 241.072 32.536 240.816 32.984C240.571 33.4213 240.448 33.944 240.448 34.552C240.448 35.16 240.571 35.6933 240.816 36.152C241.072 36.6107 241.403 36.9627 241.808 37.208C242.224 37.4427 242.662 37.56 243.12 37.56C243.59 37.56 244.027 37.4427 244.432 37.208C244.838 36.9733 245.163 36.632 245.408 36.184C245.664 35.7253 245.792 35.192 245.792 34.584ZM257.816 27.88C259 27.88 260.035 28.1093 260.92 28.568C261.816 29.016 262.504 29.6667 262.984 30.52C263.475 31.3627 263.72 32.3493 263.72 33.48C263.72 34.6107 263.475 35.592 262.984 36.424C262.504 37.256 261.816 37.896 260.92 38.344C260.035 38.7813 259 39 257.816 39H254.184V27.88H257.816ZM257.816 37.512C259.118 37.512 260.115 37.16 260.808 36.456C261.502 35.752 261.848 34.76 261.848 33.48C261.848 32.1893 261.502 31.1813 260.808 30.456C260.115 29.7307 259.118 29.368 257.816 29.368H256.008V37.512H257.816ZM267.352 31.464C267.619 31.016 267.971 30.6693 268.408 30.424C268.856 30.168 269.384 30.04 269.992 30.04V31.928H269.528C268.813 31.928 268.269 32.1093 267.896 32.472C267.533 32.8347 267.352 33.464 267.352 34.36V39H265.528V30.184H267.352V31.464ZM272.597 29.016C272.266 29.016 271.989 28.904 271.765 28.68C271.541 28.456 271.429 28.1787 271.429 27.848C271.429 27.5173 271.541 27.24 271.765 27.016C271.989 26.792 272.266 26.68 272.597 26.68C272.917 26.68 273.189 26.792 273.413 27.016C273.637 27.24 273.749 27.5173 273.749 27.848C273.749 28.1787 273.637 28.456 273.413 28.68C273.189 28.904 272.917 29.016 272.597 29.016ZM273.493 30.184V39H271.669V30.184H273.493ZM283.968 34.376C283.968 34.7067 283.946 35.0053 283.904 35.272H277.168C277.221 35.976 277.482 36.5413 277.952 36.968C278.421 37.3947 278.997 37.608 279.68 37.608C280.661 37.608 281.354 37.1973 281.76 36.376H283.727C283.461 37.1867 282.976 37.8533 282.272 38.376C281.578 38.888 280.714 39.144 279.68 39.144C278.837 39.144 278.08 38.9573 277.408 38.584C276.746 38.2 276.224 37.6667 275.84 36.984C275.466 36.2907 275.28 35.4907 275.28 34.584C275.28 33.6773 275.461 32.8827 275.824 32.2C276.197 31.5067 276.714 30.9733 277.376 30.6C278.048 30.2267 278.816 30.04 279.68 30.04C280.512 30.04 281.253 30.2213 281.904 30.584C282.554 30.9467 283.061 31.4587 283.424 32.12C283.786 32.7707 283.968 33.5227 283.968 34.376ZM282.064 33.8C282.053 33.128 281.813 32.5893 281.344 32.184C280.874 31.7787 280.293 31.576 279.6 31.576C278.97 31.576 278.432 31.7787 277.984 32.184C277.536 32.5787 277.269 33.1173 277.184 33.8H282.064ZM285.155 34.552C285.155 33.6667 285.336 32.8827 285.699 32.2C286.072 31.5173 286.573 30.9893 287.203 30.616C287.843 30.232 288.552 30.04 289.331 30.04C289.907 30.04 290.472 30.168 291.027 30.424C291.592 30.6693 292.04 31 292.371 31.416V27.16H294.211V39H292.371V37.672C292.072 38.0987 291.656 38.4507 291.123 38.728C290.6 39.0053 289.997 39.144 289.315 39.144C288.547 39.144 287.843 38.952 287.203 38.568C286.573 38.1733 286.072 37.6293 285.699 36.936C285.336 36.232 285.155 35.4373 285.155 34.552ZM292.371 34.584C292.371 33.976 292.243 33.448 291.987 33C291.741 32.552 291.416 32.2107 291.011 31.976C290.605 31.7413 290.168 31.624 289.699 31.624C289.229 31.624 288.792 31.7413 288.387 31.976C287.981 32.2 287.651 32.536 287.395 32.984C287.149 33.4213 287.027 33.944 287.027 34.552C287.027 35.16 287.149 35.6933 287.395 36.152C287.651 36.6107 287.981 36.9627 288.387 37.208C288.803 37.4427 289.24 37.56 289.699 37.56C290.168 37.56 290.605 37.4427 291.011 37.208C291.416 36.9733 291.741 36.632 291.987 36.184C292.243 35.7253 292.371 35.192 292.371 34.584ZM300.155 33.416C300.155 32.328 300.405 31.352 300.907 30.488C301.419 29.624 302.107 28.952 302.971 28.472C303.845 27.9813 304.8 27.736 305.835 27.736C307.019 27.736 308.069 28.0293 308.987 28.616C309.915 29.192 310.587 30.0133 311.003 31.08H308.811C308.523 30.4933 308.123 30.056 307.611 29.768C307.099 29.48 306.507 29.336 305.835 29.336C305.099 29.336 304.443 29.5013 303.867 29.832C303.291 30.1627 302.837 30.6373 302.507 31.256C302.187 31.8747 302.027 32.5947 302.027 33.416C302.027 34.2373 302.187 34.9573 302.507 35.576C302.837 36.1947 303.291 36.6747 303.867 37.016C304.443 37.3467 305.099 37.512 305.835 37.512C306.507 37.512 307.099 37.368 307.611 37.08C308.123 36.792 308.523 36.3547 308.811 35.768H311.003C310.587 36.8347 309.915 37.656 308.987 38.232C308.069 38.808 307.019 39.096 305.835 39.096C304.789 39.096 303.835 38.856 302.971 38.376C302.107 37.8853 301.419 37.208 300.907 36.344C300.405 35.48 300.155 34.504 300.155 33.416ZM317.698 30.04C318.37 30.04 318.967 30.184 319.49 30.472C320.023 30.76 320.439 31.1867 320.738 31.752C321.047 32.3173 321.202 33 321.202 33.8V39H319.394V34.072C319.394 33.2827 319.196 32.68 318.802 32.264C318.407 31.8373 317.868 31.624 317.186 31.624C316.503 31.624 315.959 31.8373 315.554 32.264C315.159 32.68 314.962 33.2827 314.962 34.072V39H313.138V27.16H314.962V31.208C315.271 30.8347 315.66 30.5467 316.13 30.344C316.61 30.1413 317.132 30.04 317.698 30.04ZM324.456 29.016C324.125 29.016 323.848 28.904 323.624 28.68C323.4 28.456 323.288 28.1787 323.288 27.848C323.288 27.5173 323.4 27.24 323.624 27.016C323.848 26.792 324.125 26.68 324.456 26.68C324.776 26.68 325.048 26.792 325.272 27.016C325.496 27.24 325.608 27.5173 325.608 27.848C325.608 28.1787 325.496 28.456 325.272 28.68C325.048 28.904 324.776 29.016 324.456 29.016ZM325.352 30.184V39H323.528V30.184H325.352ZM329.571 27.16V39H327.747V27.16H329.571ZM333.79 27.16V39H331.966V27.16H333.79ZM337.112 29.016C336.782 29.016 336.504 28.904 336.28 28.68C336.056 28.456 335.944 28.1787 335.944 27.848C335.944 27.5173 336.056 27.24 336.28 27.016C336.504 26.792 336.782 26.68 337.112 26.68C337.432 26.68 337.704 26.792 337.928 27.016C338.152 27.24 338.264 27.5173 338.264 27.848C338.264 28.1787 338.152 28.456 337.928 28.68C337.704 28.904 337.432 29.016 337.112 29.016ZM338.008 30.184V39H336.184V30.184H338.008Z" fill="black"/>
<rect x="218" y="95" width="197" height="22" rx="11" fill="#F4F4F4"/>
<rect x="218" y="199" width="265" height="22" rx="11" fill="#F4F4F4"/>
<rect x="218" y="241" width="101" height="22" rx="11" fill="#F4F4F4"/>
<rect x="218" y="303" width="189" height="48" rx="24" fill="#F4F4F4"/>
<rect x="218" y="137" width="325" height="22" rx="11" fill="#F4F4F4"/>
<g filter="url(#filter0_d_33_1299)">
<rect x="41" y="136" width="380" height="111" rx="20" fill="#FFFEFF" shape-rendering="crispEdges"/>
<rect x="41" y="136" width="380" height="111" rx="20" stroke="black" stroke-opacity="0.1" shape-rendering="crispEdges"/>
</g>
<rect x="56" y="151" width="85" height="23" rx="11.5" fill="#EFFCEF"/>
<path d="M71.58 162.704C72.052 162.792 72.44 163.028 72.744 163.412C73.048 163.796 73.2 164.236 73.2 164.732C73.2 165.18 73.088 165.576 72.864 165.92C72.648 166.256 72.332 166.52 71.916 166.712C71.5 166.904 71.008 167 70.44 167H66.828V158.624H70.284C70.852 158.624 71.34 158.716 71.748 158.9C72.164 159.084 72.476 159.34 72.684 159.668C72.9 159.996 73.008 160.368 73.008 160.784C73.008 161.272 72.876 161.68 72.612 162.008C72.356 162.336 72.012 162.568 71.58 162.704ZM68.508 162.08H70.044C70.444 162.08 70.752 161.992 70.968 161.816C71.184 161.632 71.292 161.372 71.292 161.036C71.292 160.7 71.184 160.44 70.968 160.256C70.752 160.072 70.444 159.98 70.044 159.98H68.508V162.08ZM70.2 165.632C70.608 165.632 70.924 165.536 71.148 165.344C71.38 165.152 71.496 164.88 71.496 164.528C71.496 164.168 71.376 163.888 71.136 163.688C70.896 163.48 70.572 163.376 70.164 163.376H68.508V165.632H70.2ZM76.2189 159.98V162.08H79.0389V163.412H76.2189V165.632H79.3989V167H74.5389V158.612H79.3989V159.98H76.2189ZM83.8177 167.084C83.2337 167.084 82.7057 166.984 82.2337 166.784C81.7697 166.584 81.4017 166.296 81.1297 165.92C80.8577 165.544 80.7177 165.1 80.7097 164.588H82.5097C82.5337 164.932 82.6537 165.204 82.8697 165.404C83.0937 165.604 83.3977 165.704 83.7817 165.704C84.1737 165.704 84.4817 165.612 84.7057 165.428C84.9297 165.236 85.0417 164.988 85.0417 164.684C85.0417 164.436 84.9657 164.232 84.8137 164.072C84.6617 163.912 84.4697 163.788 84.2377 163.7C84.0137 163.604 83.7017 163.5 83.3017 163.388C82.7577 163.228 82.3137 163.072 81.9697 162.92C81.6337 162.76 81.3417 162.524 81.0937 162.212C80.8537 161.892 80.7337 161.468 80.7337 160.94C80.7337 160.444 80.8577 160.012 81.1057 159.644C81.3537 159.276 81.7017 158.996 82.1497 158.804C82.5977 158.604 83.1097 158.504 83.6857 158.504C84.5497 158.504 85.2497 158.716 85.7857 159.14C86.3297 159.556 86.6297 160.14 86.6857 160.892H84.8377C84.8217 160.604 84.6977 160.368 84.4657 160.184C84.2417 159.992 83.9417 159.896 83.5657 159.896C83.2377 159.896 82.9737 159.98 82.7737 160.148C82.5817 160.316 82.4857 160.56 82.4857 160.88C82.4857 161.104 82.5577 161.292 82.7017 161.444C82.8537 161.588 83.0377 161.708 83.2537 161.804C83.4777 161.892 83.7897 161.996 84.1897 162.116C84.7337 162.276 85.1777 162.436 85.5217 162.596C85.8657 162.756 86.1617 162.996 86.4097 163.316C86.6577 163.636 86.7817 164.056 86.7817 164.576C86.7817 165.024 86.6657 165.44 86.4337 165.824C86.2017 166.208 85.8617 166.516 85.4137 166.748C84.9657 166.972 84.4337 167.084 83.8177 167.084ZM93.9382 158.624V159.98H91.7062V167H90.0262V159.98H87.7942V158.624H93.9382ZM104.131 161.216C104.131 161.664 104.023 162.084 103.807 162.476C103.599 162.868 103.267 163.184 102.811 163.424C102.363 163.664 101.795 163.784 101.107 163.784H99.7033V167H98.0233V158.624H101.107C101.755 158.624 102.307 158.736 102.763 158.96C103.219 159.184 103.559 159.492 103.783 159.884C104.015 160.276 104.131 160.72 104.131 161.216ZM101.035 162.428C101.499 162.428 101.843 162.324 102.067 162.116C102.291 161.9 102.403 161.6 102.403 161.216C102.403 160.4 101.947 159.992 101.035 159.992H99.7033V162.428H101.035ZM109.644 167L107.796 163.736H107.004V167H105.324V158.624H108.468C109.116 158.624 109.668 158.74 110.124 158.972C110.58 159.196 110.92 159.504 111.144 159.896C111.376 160.28 111.492 160.712 111.492 161.192C111.492 161.744 111.332 162.244 111.012 162.692C110.692 163.132 110.216 163.436 109.584 163.604L111.588 167H109.644ZM107.004 162.476H108.408C108.864 162.476 109.204 162.368 109.428 162.152C109.652 161.928 109.764 161.62 109.764 161.228C109.764 160.844 109.652 160.548 109.428 160.34C109.204 160.124 108.864 160.016 108.408 160.016H107.004V162.476ZM114.692 158.624V167H113.012V158.624H114.692ZM115.943 162.8C115.943 161.976 116.127 161.24 116.495 160.592C116.871 159.936 117.379 159.428 118.019 159.068C118.667 158.7 119.391 158.516 120.191 158.516C121.127 158.516 121.947 158.756 122.651 159.236C123.355 159.716 123.847 160.38 124.127 161.228H122.195C122.003 160.828 121.731 160.528 121.379 160.328C121.035 160.128 120.635 160.028 120.179 160.028C119.691 160.028 119.255 160.144 118.871 160.376C118.495 160.6 118.199 160.92 117.983 161.336C117.775 161.752 117.671 162.24 117.671 162.8C117.671 163.352 117.775 163.84 117.983 164.264C118.199 164.68 118.495 165.004 118.871 165.236C119.255 165.46 119.691 165.572 120.179 165.572C120.635 165.572 121.035 165.472 121.379 165.272C121.731 165.064 122.003 164.76 122.195 164.36H124.127C123.847 165.216 123.355 165.884 122.651 166.364C121.955 166.836 121.135 167.072 120.191 167.072C119.391 167.072 118.667 166.892 118.019 166.532C117.379 166.164 116.871 165.656 116.495 165.008C116.127 164.36 115.943 163.624 115.943 162.8ZM127.242 159.98V162.08H130.062V163.412H127.242V165.632H130.422V167H125.562V158.612H130.422V159.98H127.242Z" fill="#109710"/>
<g opacity="0.7">
<path d="M62.976 204L60.416 199.552H59.024V204H57.2V192.88H61.04C61.8933 192.88 62.6133 193.029 63.2 193.328C63.7973 193.627 64.24 194.027 64.528 194.528C64.8267 195.029 64.976 195.589 64.976 196.208C64.976 196.933 64.7627 197.595 64.336 198.192C63.92 198.779 63.2747 199.179 62.4 199.392L65.152 204H62.976ZM59.024 198.096H61.04C61.7227 198.096 62.2347 197.925 62.576 197.584C62.928 197.243 63.104 196.784 63.104 196.208C63.104 195.632 62.9333 195.184 62.592 194.864C62.2507 194.533 61.7333 194.368 61.04 194.368H59.024V198.096ZM75.3894 199.376C75.3894 199.707 75.368 200.005 75.3254 200.272H68.5894C68.6427 200.976 68.904 201.541 69.3734 201.968C69.8427 202.395 70.4187 202.608 71.1014 202.608C72.0827 202.608 72.776 202.197 73.1814 201.376H75.1494C74.8827 202.187 74.3974 202.853 73.6934 203.376C73 203.888 72.136 204.144 71.1014 204.144C70.2587 204.144 69.5014 203.957 68.8294 203.584C68.168 203.2 67.6454 202.667 67.2614 201.984C66.888 201.291 66.7014 200.491 66.7014 199.584C66.7014 198.677 66.8827 197.883 67.2454 197.2C67.6187 196.507 68.136 195.973 68.7974 195.6C69.4694 195.227 70.2374 195.04 71.1014 195.04C71.9334 195.04 72.6747 195.221 73.3254 195.584C73.976 195.947 74.4827 196.459 74.8454 197.12C75.208 197.771 75.3894 198.523 75.3894 199.376ZM73.4854 198.8C73.4747 198.128 73.2347 197.589 72.7654 197.184C72.296 196.779 71.7147 196.576 71.0214 196.576C70.392 196.576 69.8534 196.779 69.4054 197.184C68.9574 197.579 68.6907 198.117 68.6054 198.8H73.4854ZM76.5764 199.552C76.5764 198.667 76.7577 197.883 77.1204 197.2C77.4937 196.517 77.995 195.989 78.6244 195.616C79.2644 195.232 79.9737 195.04 80.7524 195.04C81.3284 195.04 81.8937 195.168 82.4484 195.424C83.0137 195.669 83.4617 196 83.7924 196.416V192.16H85.6324V204H83.7924V202.672C83.4937 203.099 83.0777 203.451 82.5444 203.728C82.0217 204.005 81.419 204.144 80.7364 204.144C79.9684 204.144 79.2644 203.952 78.6244 203.568C77.995 203.173 77.4937 202.629 77.1204 201.936C76.7577 201.232 76.5764 200.437 76.5764 199.552ZM83.7924 199.584C83.7924 198.976 83.6644 198.448 83.4084 198C83.163 197.552 82.8377 197.211 82.4324 196.976C82.027 196.741 81.5897 196.624 81.1204 196.624C80.651 196.624 80.2137 196.741 79.8084 196.976C79.403 197.2 79.0724 197.536 78.8164 197.984C78.571 198.421 78.4484 198.944 78.4484 199.552C78.4484 200.16 78.571 200.693 78.8164 201.152C79.0724 201.611 79.403 201.963 79.8084 202.208C80.2244 202.443 80.6617 202.56 81.1204 202.56C81.5897 202.56 82.027 202.443 82.4324 202.208C82.8377 201.973 83.163 201.632 83.4084 201.184C83.6644 200.725 83.7924 200.192 83.7924 199.584ZM95.8164 192.88C97.0004 192.88 98.035 193.109 98.9204 193.568C99.8164 194.016 100.504 194.667 100.984 195.52C101.475 196.363 101.72 197.349 101.72 198.48C101.72 199.611 101.475 200.592 100.984 201.424C100.504 202.256 99.8164 202.896 98.9204 203.344C98.035 203.781 97.0004 204 95.8164 204H92.1844V192.88H95.8164ZM95.8164 202.512C97.1177 202.512 98.115 202.16 98.8084 201.456C99.5017 200.752 99.8484 199.76 99.8484 198.48C99.8484 197.189 99.5017 196.181 98.8084 195.456C98.115 194.731 97.1177 194.368 95.8164 194.368H94.0084V202.512H95.8164ZM105.352 196.464C105.619 196.016 105.971 195.669 106.408 195.424C106.856 195.168 107.384 195.04 107.992 195.04V196.928H107.528C106.813 196.928 106.269 197.109 105.896 197.472C105.533 197.835 105.352 198.464 105.352 199.36V204H103.528V195.184H105.352V196.464ZM110.597 194.016C110.266 194.016 109.989 193.904 109.765 193.68C109.541 193.456 109.429 193.179 109.429 192.848C109.429 192.517 109.541 192.24 109.765 192.016C109.989 191.792 110.266 191.68 110.597 191.68C110.917 191.68 111.189 191.792 111.413 192.016C111.637 192.24 111.749 192.517 111.749 192.848C111.749 193.179 111.637 193.456 111.413 193.68C111.189 193.904 110.917 194.016 110.597 194.016ZM111.493 195.184V204H109.669V195.184H111.493ZM121.968 199.376C121.968 199.707 121.946 200.005 121.904 200.272H115.168C115.221 200.976 115.482 201.541 115.952 201.968C116.421 202.395 116.997 202.608 117.68 202.608C118.661 202.608 119.354 202.197 119.76 201.376H121.727C121.461 202.187 120.976 202.853 120.272 203.376C119.578 203.888 118.714 204.144 117.68 204.144C116.837 204.144 116.08 203.957 115.408 203.584C114.746 203.2 114.224 202.667 113.84 201.984C113.466 201.291 113.28 200.491 113.28 199.584C113.28 198.677 113.461 197.883 113.824 197.2C114.197 196.507 114.714 195.973 115.376 195.6C116.048 195.227 116.816 195.04 117.68 195.04C118.512 195.04 119.253 195.221 119.904 195.584C120.554 195.947 121.061 196.459 121.424 197.12C121.786 197.771 121.968 198.523 121.968 199.376ZM120.064 198.8C120.053 198.128 119.813 197.589 119.344 197.184C118.874 196.779 118.293 196.576 117.6 196.576C116.97 196.576 116.432 196.779 115.984 197.184C115.536 197.579 115.269 198.117 115.184 198.8H120.064ZM123.155 199.552C123.155 198.667 123.336 197.883 123.699 197.2C124.072 196.517 124.573 195.989 125.203 195.616C125.843 195.232 126.552 195.04 127.331 195.04C127.907 195.04 128.472 195.168 129.027 195.424C129.592 195.669 130.04 196 130.371 196.416V192.16H132.211V204H130.371V202.672C130.072 203.099 129.656 203.451 129.123 203.728C128.6 204.005 127.997 204.144 127.315 204.144C126.547 204.144 125.843 203.952 125.203 203.568C124.573 203.173 124.072 202.629 123.699 201.936C123.336 201.232 123.155 200.437 123.155 199.552ZM130.371 199.584C130.371 198.976 130.243 198.448 129.987 198C129.741 197.552 129.416 197.211 129.011 196.976C128.605 196.741 128.168 196.624 127.699 196.624C127.229 196.624 126.792 196.741 126.387 196.976C125.981 197.2 125.651 197.536 125.395 197.984C125.149 198.421 125.027 198.944 125.027 199.552C125.027 200.16 125.149 200.693 125.395 201.152C125.651 201.611 125.981 201.963 126.387 202.208C126.803 202.443 127.24 202.56 127.699 202.56C128.168 202.56 128.605 202.443 129.011 202.208C129.416 201.973 129.741 201.632 129.987 201.184C130.243 200.725 130.371 200.192 130.371 199.584ZM138.155 198.416C138.155 197.328 138.405 196.352 138.907 195.488C139.419 194.624 140.107 193.952 140.971 193.472C141.845 192.981 142.8 192.736 143.835 192.736C145.019 192.736 146.069 193.029 146.987 193.616C147.915 194.192 148.587 195.013 149.003 196.08H146.811C146.523 195.493 146.123 195.056 145.611 194.768C145.099 194.48 144.507 194.336 143.835 194.336C143.099 194.336 142.443 194.501 141.867 194.832C141.291 195.163 140.837 195.637 140.507 196.256C140.187 196.875 140.027 197.595 140.027 198.416C140.027 199.237 140.187 199.957 140.507 200.576C140.837 201.195 141.291 201.675 141.867 202.016C142.443 202.347 143.099 202.512 143.835 202.512C144.507 202.512 145.099 202.368 145.611 202.08C146.123 201.792 146.523 201.355 146.811 200.768H149.003C148.587 201.835 147.915 202.656 146.987 203.232C146.069 203.808 145.019 204.096 143.835 204.096C142.789 204.096 141.835 203.856 140.971 203.376C140.107 202.885 139.419 202.208 138.907 201.344C138.405 200.48 138.155 199.504 138.155 198.416ZM155.698 195.04C156.37 195.04 156.967 195.184 157.49 195.472C158.023 195.76 158.439 196.187 158.738 196.752C159.047 197.317 159.202 198 159.202 198.8V204H157.394V199.072C157.394 198.283 157.196 197.68 156.802 197.264C156.407 196.837 155.868 196.624 155.186 196.624C154.503 196.624 153.959 196.837 153.554 197.264C153.159 197.68 152.962 198.283 152.962 199.072V204H151.138V192.16H152.962V196.208C153.271 195.835 153.66 195.547 154.13 195.344C154.61 195.141 155.132 195.04 155.698 195.04ZM162.456 194.016C162.125 194.016 161.848 193.904 161.624 193.68C161.4 193.456 161.288 193.179 161.288 192.848C161.288 192.517 161.4 192.24 161.624 192.016C161.848 191.792 162.125 191.68 162.456 191.68C162.776 191.68 163.048 191.792 163.272 192.016C163.496 192.24 163.608 192.517 163.608 192.848C163.608 193.179 163.496 193.456 163.272 193.68C163.048 193.904 162.776 194.016 162.456 194.016ZM163.352 195.184V204H161.528V195.184H163.352ZM167.571 192.16V204H165.747V192.16H167.571ZM171.79 192.16V204H169.966V192.16H171.79ZM175.112 194.016C174.782 194.016 174.504 193.904 174.28 193.68C174.056 193.456 173.944 193.179 173.944 192.848C173.944 192.517 174.056 192.24 174.28 192.016C174.504 191.792 174.782 191.68 175.112 191.68C175.432 191.68 175.704 191.792 175.928 192.016C176.152 192.24 176.264 192.517 176.264 192.848C176.264 193.179 176.152 193.456 175.928 193.68C175.704 193.904 175.432 194.016 175.112 194.016ZM176.008 195.184V204H174.184V195.184H176.008Z" fill="black"/>
<path d="M361.501 200.832C361.501 201.365 361.368 201.867 361.101 202.336C360.845 202.805 360.461 203.2 359.949 203.52C359.448 203.84 358.85 204.032 358.157 204.096V205.392H357.117V204.096C356.114 204 355.304 203.685 354.685 203.152C354.066 202.619 353.757 201.915 353.757 201.04H355.709C355.741 201.456 355.874 201.803 356.109 202.08C356.344 202.347 356.68 202.517 357.117 202.592V199.072C356.402 198.891 355.821 198.709 355.373 198.528C354.925 198.336 354.541 198.037 354.221 197.632C353.912 197.227 353.757 196.672 353.757 195.968C353.757 195.083 354.066 194.352 354.685 193.776C355.304 193.189 356.114 192.848 357.117 192.752V191.456H358.157V192.752C359.096 192.837 359.848 193.136 360.413 193.648C360.989 194.149 361.314 194.843 361.389 195.728H359.437C359.405 195.397 359.277 195.104 359.053 194.848C358.829 194.581 358.53 194.4 358.157 194.304V197.76C358.872 197.931 359.453 198.112 359.901 198.304C360.349 198.485 360.728 198.779 361.037 199.184C361.346 199.579 361.501 200.128 361.501 200.832ZM355.613 195.872C355.613 196.309 355.741 196.651 355.997 196.896C356.264 197.141 356.637 197.339 357.117 197.488V194.256C356.658 194.309 356.29 194.475 356.013 194.752C355.746 195.029 355.613 195.403 355.613 195.872ZM358.157 202.592C358.626 202.517 358.994 202.331 359.261 202.032C359.528 201.723 359.661 201.355 359.661 200.928C359.661 200.501 359.528 200.171 359.261 199.936C359.005 199.691 358.637 199.493 358.157 199.344V202.592ZM371.683 193.904H366.323V197.088C366.547 196.789 366.878 196.539 367.315 196.336C367.763 196.133 368.238 196.032 368.739 196.032C369.635 196.032 370.36 196.224 370.915 196.608C371.48 196.992 371.88 197.477 372.115 198.064C372.36 198.651 372.483 199.269 372.483 199.92C372.483 200.709 372.328 201.413 372.019 202.032C371.72 202.64 371.267 203.12 370.659 203.472C370.062 203.824 369.326 204 368.451 204C367.288 204 366.355 203.712 365.651 203.136C364.947 202.56 364.526 201.797 364.387 200.848H366.163C366.28 201.349 366.542 201.749 366.947 202.048C367.352 202.336 367.859 202.48 368.467 202.48C369.224 202.48 369.79 202.251 370.163 201.792C370.547 201.333 370.739 200.725 370.739 199.968C370.739 199.2 370.547 198.613 370.163 198.208C369.779 197.792 369.214 197.584 368.467 197.584C367.944 197.584 367.502 197.717 367.139 197.984C366.787 198.24 366.531 198.592 366.371 199.04H364.643V192.304H371.683V193.904ZM376.622 201.808L374.686 206.224H373.502L374.638 201.808H376.622ZM377.944 195.216C378.008 194.224 378.386 193.451 379.08 192.896C379.784 192.341 380.68 192.064 381.768 192.064C382.514 192.064 383.16 192.197 383.704 192.464C384.248 192.731 384.658 193.093 384.936 193.552C385.213 194.011 385.352 194.528 385.352 195.104C385.352 195.765 385.176 196.331 384.824 196.8C384.472 197.269 384.05 197.584 383.56 197.744V197.808C384.189 198 384.68 198.352 385.032 198.864C385.384 199.365 385.56 200.011 385.56 200.8C385.56 201.429 385.416 201.989 385.128 202.48C384.84 202.971 384.413 203.36 383.848 203.648C383.282 203.925 382.605 204.064 381.816 204.064C380.664 204.064 379.714 203.771 378.968 203.184C378.232 202.587 377.837 201.733 377.784 200.624H379.544C379.586 201.189 379.805 201.653 380.2 202.016C380.594 202.368 381.128 202.544 381.8 202.544C382.45 202.544 382.952 202.368 383.304 202.016C383.656 201.653 383.832 201.189 383.832 200.624C383.832 199.877 383.592 199.349 383.112 199.04C382.642 198.72 381.917 198.56 380.936 198.56H380.52V197.056H380.952C381.816 197.045 382.472 196.901 382.92 196.624C383.378 196.347 383.608 195.909 383.608 195.312C383.608 194.8 383.442 194.395 383.112 194.096C382.781 193.787 382.312 193.632 381.704 193.632C381.106 193.632 380.642 193.787 380.312 194.096C379.981 194.395 379.784 194.768 379.72 195.216H377.944ZM388.484 201.52C389.508 200.635 390.313 199.909 390.9 199.344C391.497 198.768 391.993 198.171 392.388 197.552C392.782 196.933 392.98 196.315 392.98 195.696C392.98 195.056 392.825 194.555 392.516 194.192C392.217 193.829 391.742 193.648 391.092 193.648C390.462 193.648 389.972 193.851 389.62 194.256C389.278 194.651 389.097 195.184 389.076 195.856H387.316C387.348 194.64 387.71 193.712 388.404 193.072C389.108 192.421 389.998 192.096 391.076 192.096C392.238 192.096 393.145 192.416 393.796 193.056C394.457 193.696 394.788 194.549 394.788 195.616C394.788 196.384 394.59 197.125 394.196 197.84C393.812 198.544 393.348 199.179 392.804 199.744C392.27 200.299 391.588 200.944 390.756 201.68L390.036 202.32H395.108V203.84H387.332V202.512L388.484 201.52ZM396.71 198.016C396.71 196.171 397.019 194.731 397.638 193.696C398.267 192.651 399.345 192.128 400.87 192.128C402.395 192.128 403.467 192.651 404.086 193.696C404.715 194.731 405.03 196.171 405.03 198.016C405.03 199.883 404.715 201.344 404.086 202.4C403.467 203.445 402.395 203.968 400.87 203.968C399.345 203.968 398.267 203.445 397.638 202.4C397.019 201.344 396.71 199.883 396.71 198.016ZM403.238 198.016C403.238 197.152 403.179 196.421 403.062 195.824C402.955 195.227 402.731 194.741 402.39 194.368C402.049 193.984 401.542 193.792 400.87 193.792C400.198 193.792 399.691 193.984 399.35 194.368C399.009 194.741 398.779 195.227 398.662 195.824C398.555 196.421 398.502 197.152 398.502 198.016C398.502 198.912 398.555 199.664 398.662 200.272C398.769 200.88 398.993 201.371 399.334 201.744C399.686 202.117 400.198 202.304 400.87 202.304C401.542 202.304 402.049 202.117 402.39 201.744C402.742 201.371 402.971 200.88 403.078 200.272C403.185 199.664 403.238 198.912 403.238 198.016Z" fill="black"/>
<path d="M336.354 201.646C336.158 201.842 335.842 201.842 335.646 201.646L330.854 196.854C330.539 196.539 330.762 196 331.207 196H340.793C341.238 196 341.461 196.539 341.146 196.854L336.354 201.646Z" fill="#109710"/>
<path opacity="0.8" d="M354.165 224.907V224.01L358.728 217.692H360.145V223.88H361.445V224.907H360.145V227H358.975V224.907H354.165ZM359.027 218.927L355.53 223.88H359.027V218.927ZM362.626 222.203C362.626 220.712 362.869 219.551 363.354 218.719C363.84 217.878 364.689 217.458 365.902 217.458C367.107 217.458 367.952 217.878 368.437 218.719C368.923 219.551 369.165 220.712 369.165 222.203C369.165 223.72 368.923 224.898 368.437 225.739C367.952 226.58 367.107 227 365.902 227C364.689 227 363.84 226.58 363.354 225.739C362.869 224.898 362.626 223.72 362.626 222.203ZM367.995 222.203C367.995 221.449 367.943 220.812 367.839 220.292C367.744 219.763 367.54 219.339 367.228 219.018C366.925 218.697 366.483 218.537 365.902 218.537C365.313 218.537 364.862 218.697 364.55 219.018C364.247 219.339 364.043 219.763 363.939 220.292C363.844 220.812 363.796 221.449 363.796 222.203C363.796 222.983 363.844 223.637 363.939 224.166C364.043 224.695 364.247 225.119 364.55 225.44C364.862 225.761 365.313 225.921 365.902 225.921C366.483 225.921 366.925 225.761 367.228 225.44C367.54 225.119 367.744 224.695 367.839 224.166C367.943 223.637 367.995 222.983 367.995 222.203ZM377.349 220.851H375.854V227H374.671V220.851H373.748V219.876H374.671V219.369C374.671 218.572 374.875 217.991 375.282 217.627C375.698 217.254 376.361 217.068 377.271 217.068V218.056C376.751 218.056 376.383 218.16 376.166 218.368C375.958 218.567 375.854 218.901 375.854 219.369V219.876H377.349V220.851ZM380.172 220.851V225.05C380.172 225.397 380.245 225.644 380.393 225.791C380.54 225.93 380.796 225.999 381.16 225.999H382.031V227H380.965C380.306 227 379.812 226.848 379.483 226.545C379.153 226.242 378.989 225.743 378.989 225.05V220.851H378.066V219.876H378.989V218.082H380.172V219.876H382.031V220.851H380.172ZM383.841 227.078C383.616 227.078 383.425 227 383.269 226.844C383.113 226.688 383.035 226.497 383.035 226.272C383.035 226.047 383.113 225.856 383.269 225.7C383.425 225.544 383.616 225.466 383.841 225.466C384.058 225.466 384.24 225.544 384.387 225.7C384.543 225.856 384.621 226.047 384.621 226.272C384.621 226.497 384.543 226.688 384.387 226.844C384.24 227 384.058 227.078 383.841 227.078ZM393.377 227L391.687 224.348L390.062 227H388.827L391.128 223.464L388.827 219.876H390.166L391.856 222.515L393.468 219.876H394.703L392.415 223.399L394.716 227H393.377ZM399.125 219.967C399.185 219.17 399.493 218.546 400.048 218.095C400.602 217.644 401.322 217.419 402.206 217.419C402.795 217.419 403.302 217.527 403.727 217.744C404.16 217.952 404.485 218.238 404.702 218.602C404.927 218.966 405.04 219.378 405.04 219.837C405.04 220.374 404.884 220.838 404.572 221.228C404.268 221.618 403.87 221.869 403.376 221.982V222.047C403.939 222.186 404.385 222.459 404.715 222.866C405.044 223.273 405.209 223.806 405.209 224.465C405.209 224.959 405.096 225.405 404.871 225.804C404.645 226.194 404.307 226.502 403.857 226.727C403.406 226.952 402.864 227.065 402.232 227.065C401.313 227.065 400.559 226.827 399.97 226.35C399.38 225.865 399.051 225.18 398.982 224.296H400.126C400.186 224.816 400.399 225.241 400.763 225.57C401.127 225.899 401.612 226.064 402.219 226.064C402.825 226.064 403.285 225.908 403.597 225.596C403.917 225.275 404.078 224.864 404.078 224.361C404.078 223.711 403.861 223.243 403.428 222.957C402.994 222.671 402.34 222.528 401.465 222.528H401.166V221.54H401.478C402.275 221.531 402.877 221.401 403.285 221.15C403.692 220.89 403.896 220.491 403.896 219.954C403.896 219.495 403.744 219.126 403.441 218.849C403.146 218.572 402.721 218.433 402.167 218.433C401.629 218.433 401.196 218.572 400.867 218.849C400.537 219.126 400.342 219.499 400.282 219.967H399.125Z" fill="black"/>
</g>
<g opacity="0.7">
<path opacity="0.8" d="M62.357 224.985H58.405L57.677 227H56.429L59.705 217.991H61.07L64.333 227H63.085L62.357 224.985ZM62.019 224.023L60.381 219.447L58.743 224.023H62.019ZM66.9438 221.033C67.1518 220.626 67.4464 220.309 67.8278 220.084C68.2178 219.859 68.6901 219.746 69.2448 219.746V220.968H68.9328C67.6068 220.968 66.9438 221.687 66.9438 223.126V227H65.7608V219.876H66.9438V221.033ZM71.7934 221.033C72.0014 220.626 72.296 220.309 72.6774 220.084C73.0674 219.859 73.5397 219.746 74.0944 219.746V220.968H73.7824C72.4564 220.968 71.7934 221.687 71.7934 223.126V227H70.6104V219.876H71.7934V221.033ZM76.071 218.719C75.8457 218.719 75.655 218.641 75.499 218.485C75.343 218.329 75.265 218.138 75.265 217.913C75.265 217.688 75.343 217.497 75.499 217.341C75.655 217.185 75.8457 217.107 76.071 217.107C76.2877 217.107 76.4697 217.185 76.617 217.341C76.773 217.497 76.851 217.688 76.851 217.913C76.851 218.138 76.773 218.329 76.617 218.485C76.4697 218.641 76.2877 218.719 76.071 218.719ZM76.643 219.876V227H75.46V219.876H76.643ZM81.3112 225.908L83.5212 219.876H84.7822L81.9872 227H80.6092L77.8142 219.876H79.0882L81.3112 225.908ZM85.5043 223.412C85.5043 222.684 85.6516 222.047 85.9463 221.501C86.241 220.946 86.644 220.517 87.1553 220.214C87.6753 219.911 88.2516 219.759 88.8843 219.759C89.5083 219.759 90.05 219.893 90.5093 220.162C90.9686 220.431 91.311 220.769 91.5363 221.176V219.876H92.7323V227H91.5363V225.674C91.3023 226.09 90.9513 226.437 90.4833 226.714C90.024 226.983 89.4866 227.117 88.8713 227.117C88.2386 227.117 87.6666 226.961 87.1553 226.649C86.644 226.337 86.241 225.899 85.9463 225.336C85.6516 224.773 85.5043 224.131 85.5043 223.412ZM91.5363 223.425C91.5363 222.888 91.428 222.42 91.2113 222.021C90.9946 221.622 90.7 221.319 90.3273 221.111C89.9633 220.894 89.5603 220.786 89.1183 220.786C88.6763 220.786 88.2733 220.89 87.9093 221.098C87.5453 221.306 87.255 221.609 87.0383 222.008C86.8216 222.407 86.7133 222.875 86.7133 223.412C86.7133 223.958 86.8216 224.435 87.0383 224.842C87.255 225.241 87.5453 225.548 87.9093 225.765C88.2733 225.973 88.6763 226.077 89.1183 226.077C89.5603 226.077 89.9633 225.973 90.3273 225.765C90.7 225.548 90.9946 225.241 91.2113 224.842C91.428 224.435 91.5363 223.962 91.5363 223.425ZM95.9145 217.38V227H94.7315V217.38H95.9145ZM100.89 218.68V217.601H103.334V227H102.138V218.68H100.89ZM105.223 226.051C106.323 225.167 107.186 224.443 107.81 223.88C108.434 223.308 108.958 222.714 109.383 222.099C109.816 221.475 110.033 220.864 110.033 220.266C110.033 219.703 109.894 219.261 109.617 218.94C109.348 218.611 108.91 218.446 108.304 218.446C107.714 218.446 107.255 218.632 106.926 219.005C106.605 219.369 106.432 219.859 106.406 220.474H105.262C105.296 219.503 105.591 218.754 106.146 218.225C106.7 217.696 107.415 217.432 108.291 217.432C109.183 217.432 109.89 217.679 110.41 218.173C110.938 218.667 111.203 219.347 111.203 220.214C111.203 220.933 110.986 221.635 110.553 222.32C110.128 222.996 109.643 223.594 109.097 224.114C108.551 224.625 107.853 225.223 107.004 225.908H111.476V226.896H105.223V226.051ZM125.695 218.004V227H124.512V220.292L121.522 227H120.69L117.687 220.279V227H116.504V218.004H117.778L121.106 225.44L124.434 218.004H125.695ZM127.259 223.412C127.259 222.684 127.407 222.047 127.701 221.501C127.996 220.946 128.399 220.517 128.91 220.214C129.43 219.911 130.007 219.759 130.639 219.759C131.263 219.759 131.805 219.893 132.264 220.162C132.724 220.431 133.066 220.769 133.291 221.176V219.876H134.487V227H133.291V225.674C133.057 226.09 132.706 226.437 132.238 226.714C131.779 226.983 131.242 227.117 130.626 227.117C129.994 227.117 129.422 226.961 128.91 226.649C128.399 226.337 127.996 225.899 127.701 225.336C127.407 224.773 127.259 224.131 127.259 223.412ZM133.291 223.425C133.291 222.888 133.183 222.42 132.966 222.021C132.75 221.622 132.455 221.319 132.082 221.111C131.718 220.894 131.315 220.786 130.873 220.786C130.431 220.786 130.028 220.89 129.664 221.098C129.3 221.306 129.01 221.609 128.793 222.008C128.577 222.407 128.468 222.875 128.468 223.412C128.468 223.958 128.577 224.435 128.793 224.842C129.01 225.241 129.3 225.548 129.664 225.765C130.028 225.973 130.431 226.077 130.873 226.077C131.315 226.077 131.718 225.973 132.082 225.765C132.455 225.548 132.75 225.241 132.966 224.842C133.183 224.435 133.291 223.962 133.291 223.425ZM142.622 219.876L138.332 230.354H137.11L138.514 226.922L135.641 219.876H136.954L139.19 225.648L141.4 219.876H142.622ZM145.034 225.362L143.578 228.859H142.785L143.734 225.362H145.034ZM155.432 217.939V218.901H152.962V227H151.779V218.901H149.296V217.939H155.432ZM158.071 221.033C158.279 220.626 158.573 220.309 158.955 220.084C159.345 219.859 159.817 219.746 160.372 219.746V220.968H160.06C158.734 220.968 158.071 221.687 158.071 223.126V227H156.888V219.876H158.071V221.033ZM162.348 218.719C162.123 218.719 161.932 218.641 161.776 218.485C161.62 218.329 161.542 218.138 161.542 217.913C161.542 217.688 161.62 217.497 161.776 217.341C161.932 217.185 162.123 217.107 162.348 217.107C162.565 217.107 162.747 217.185 162.894 217.341C163.05 217.497 163.128 217.688 163.128 217.913C163.128 218.138 163.05 218.329 162.894 218.485C162.747 218.641 162.565 218.719 162.348 218.719ZM162.92 219.876V227H161.737V219.876H162.92ZM168.408 219.746C169.274 219.746 169.976 220.01 170.514 220.539C171.051 221.059 171.32 221.813 171.32 222.801V227H170.15V222.97C170.15 222.259 169.972 221.718 169.617 221.345C169.261 220.964 168.776 220.773 168.161 220.773C167.537 220.773 167.038 220.968 166.666 221.358C166.302 221.748 166.12 222.316 166.12 223.061V227H164.937V219.876H166.12V220.89C166.354 220.526 166.67 220.244 167.069 220.045C167.476 219.846 167.922 219.746 168.408 219.746ZM172.81 223.425C172.81 222.688 172.957 222.047 173.252 221.501C173.547 220.946 173.954 220.517 174.474 220.214C175.003 219.911 175.605 219.759 176.281 219.759C177.156 219.759 177.876 219.971 178.439 220.396C179.011 220.821 179.388 221.41 179.57 222.164H178.296C178.175 221.731 177.936 221.388 177.581 221.137C177.234 220.886 176.801 220.76 176.281 220.76C175.605 220.76 175.059 220.994 174.643 221.462C174.227 221.921 174.019 222.576 174.019 223.425C174.019 224.283 174.227 224.946 174.643 225.414C175.059 225.882 175.605 226.116 176.281 226.116C176.801 226.116 177.234 225.995 177.581 225.752C177.928 225.509 178.166 225.163 178.296 224.712H179.57C179.379 225.44 178.998 226.025 178.426 226.467C177.854 226.9 177.139 227.117 176.281 227.117C175.605 227.117 175.003 226.965 174.474 226.662C173.954 226.359 173.547 225.93 173.252 225.375C172.957 224.82 172.81 224.17 172.81 223.425ZM184.255 227.117C183.588 227.117 182.981 226.965 182.435 226.662C181.898 226.359 181.473 225.93 181.161 225.375C180.858 224.812 180.706 224.162 180.706 223.425C180.706 222.697 180.862 222.056 181.174 221.501C181.495 220.938 181.928 220.509 182.474 220.214C183.02 219.911 183.631 219.759 184.307 219.759C184.983 219.759 185.594 219.911 186.14 220.214C186.686 220.509 187.115 220.933 187.427 221.488C187.748 222.043 187.908 222.688 187.908 223.425C187.908 224.162 187.744 224.812 187.414 225.375C187.094 225.93 186.656 226.359 186.101 226.662C185.547 226.965 184.931 227.117 184.255 227.117ZM184.255 226.077C184.68 226.077 185.079 225.977 185.451 225.778C185.824 225.579 186.123 225.28 186.348 224.881C186.582 224.482 186.699 223.997 186.699 223.425C186.699 222.853 186.587 222.368 186.361 221.969C186.136 221.57 185.841 221.276 185.477 221.085C185.113 220.886 184.719 220.786 184.294 220.786C183.861 220.786 183.462 220.886 183.098 221.085C182.743 221.276 182.457 221.57 182.24 221.969C182.024 222.368 181.915 222.853 181.915 223.425C181.915 224.006 182.019 224.495 182.227 224.894C182.444 225.293 182.73 225.592 183.085 225.791C183.441 225.982 183.831 226.077 184.255 226.077ZM198.031 219.746C198.586 219.746 199.08 219.863 199.513 220.097C199.946 220.322 200.289 220.665 200.54 221.124C200.791 221.583 200.917 222.142 200.917 222.801V227H199.747V222.97C199.747 222.259 199.569 221.718 199.214 221.345C198.867 220.964 198.395 220.773 197.797 220.773C197.182 220.773 196.692 220.972 196.328 221.371C195.964 221.761 195.782 222.329 195.782 223.074V227H194.612V222.97C194.612 222.259 194.434 221.718 194.079 221.345C193.732 220.964 193.26 220.773 192.662 220.773C192.047 220.773 191.557 220.972 191.193 221.371C190.829 221.761 190.647 222.329 190.647 223.074V227H189.464V219.876H190.647V220.903C190.881 220.53 191.193 220.244 191.583 220.045C191.982 219.846 192.419 219.746 192.896 219.746C193.494 219.746 194.023 219.88 194.482 220.149C194.941 220.418 195.284 220.812 195.509 221.332C195.708 220.829 196.038 220.439 196.497 220.162C196.956 219.885 197.468 219.746 198.031 219.746ZM202.415 223.412C202.415 222.684 202.563 222.047 202.857 221.501C203.152 220.946 203.555 220.517 204.066 220.214C204.586 219.911 205.163 219.759 205.795 219.759C206.419 219.759 206.961 219.893 207.42 220.162C207.88 220.431 208.222 220.769 208.447 221.176V219.876H209.643V227H208.447V225.674C208.213 226.09 207.862 226.437 207.394 226.714C206.935 226.983 206.398 227.117 205.782 227.117C205.15 227.117 204.578 226.961 204.066 226.649C203.555 226.337 203.152 225.899 202.857 225.336C202.563 224.773 202.415 224.131 202.415 223.412ZM208.447 223.425C208.447 222.888 208.339 222.42 208.122 222.021C207.906 221.622 207.611 221.319 207.238 221.111C206.874 220.894 206.471 220.786 206.029 220.786C205.587 220.786 205.184 220.89 204.82 221.098C204.456 221.306 204.166 221.609 203.949 222.008C203.733 222.407 203.624 222.875 203.624 223.412C203.624 223.958 203.733 224.435 203.949 224.842C204.166 225.241 204.456 225.548 204.82 225.765C205.184 225.973 205.587 226.077 206.029 226.077C206.471 226.077 206.874 225.973 207.238 225.765C207.611 225.548 207.906 225.241 208.122 224.842C208.339 224.435 208.447 223.962 208.447 223.425ZM212.826 217.38V227H211.643V217.38H212.826ZM221.342 223.165C221.342 223.39 221.329 223.629 221.303 223.88H215.609C215.652 224.582 215.89 225.132 216.324 225.531C216.766 225.921 217.299 226.116 217.923 226.116C218.434 226.116 218.859 225.999 219.197 225.765C219.543 225.522 219.786 225.202 219.925 224.803H221.199C221.008 225.488 220.627 226.047 220.055 226.48C219.483 226.905 218.772 227.117 217.923 227.117C217.247 227.117 216.64 226.965 216.103 226.662C215.574 226.359 215.158 225.93 214.855 225.375C214.551 224.812 214.4 224.162 214.4 223.425C214.4 222.688 214.547 222.043 214.842 221.488C215.136 220.933 215.548 220.509 216.077 220.214C216.614 219.911 217.229 219.759 217.923 219.759C218.599 219.759 219.197 219.906 219.717 220.201C220.237 220.496 220.635 220.903 220.913 221.423C221.199 221.934 221.342 222.515 221.342 223.165ZM220.12 222.918C220.12 222.467 220.02 222.082 219.821 221.761C219.621 221.432 219.348 221.185 219.002 221.02C218.664 220.847 218.287 220.76 217.871 220.76C217.273 220.76 216.761 220.951 216.337 221.332C215.921 221.713 215.682 222.242 215.622 222.918H220.12ZM229.403 223.165C229.403 223.39 229.39 223.629 229.364 223.88H223.67C223.714 224.582 223.952 225.132 224.385 225.531C224.827 225.921 225.36 226.116 225.984 226.116C226.496 226.116 226.92 225.999 227.258 225.765C227.605 225.522 227.848 225.202 227.986 224.803H229.26C229.07 225.488 228.688 226.047 228.116 226.48C227.544 226.905 226.834 227.117 225.984 227.117C225.308 227.117 224.702 226.965 224.164 226.662C223.636 226.359 223.22 225.93 222.916 225.375C222.613 224.812 222.461 224.162 222.461 223.425C222.461 222.688 222.609 222.043 222.903 221.488C223.198 220.933 223.61 220.509 224.138 220.214C224.676 219.911 225.291 219.759 225.984 219.759C226.66 219.759 227.258 219.906 227.778 220.201C228.298 220.496 228.697 220.903 228.974 221.423C229.26 221.934 229.403 222.515 229.403 223.165ZM228.181 222.918C228.181 222.467 228.082 222.082 227.882 221.761C227.683 221.432 227.41 221.185 227.063 221.02C226.725 220.847 226.348 220.76 225.932 220.76C225.334 220.76 224.823 220.951 224.398 221.332C223.982 221.713 223.744 222.242 223.683 222.918H228.181ZM241.412 217.939V227H240.229V222.892H235.614V227H234.431V217.939H235.614V221.917H240.229V217.939H241.412ZM242.99 223.412C242.99 222.684 243.137 222.047 243.432 221.501C243.726 220.946 244.129 220.517 244.641 220.214C245.161 219.911 245.737 219.759 246.37 219.759C246.994 219.759 247.535 219.893 247.995 220.162C248.454 220.431 248.796 220.769 249.022 221.176V219.876H250.218V227H249.022V225.674C248.788 226.09 248.437 226.437 247.969 226.714C247.509 226.983 246.972 227.117 246.357 227.117C245.724 227.117 245.152 226.961 244.641 226.649C244.129 226.337 243.726 225.899 243.432 225.336C243.137 224.773 242.99 224.131 242.99 223.412ZM249.022 223.425C249.022 222.888 248.913 222.42 248.697 222.021C248.48 221.622 248.185 221.319 247.813 221.111C247.449 220.894 247.046 220.786 246.604 220.786C246.162 220.786 245.759 220.89 245.395 221.098C245.031 221.306 244.74 221.609 244.524 222.008C244.307 222.407 244.199 222.875 244.199 223.412C244.199 223.958 244.307 224.435 244.524 224.842C244.74 225.241 245.031 225.548 245.395 225.765C245.759 225.973 246.162 226.077 246.604 226.077C247.046 226.077 247.449 225.973 247.813 225.765C248.185 225.548 248.48 225.241 248.697 224.842C248.913 224.435 249.022 223.962 249.022 223.425ZM253.4 221.033C253.608 220.626 253.902 220.309 254.284 220.084C254.674 219.859 255.146 219.746 255.701 219.746V220.968H255.389C254.063 220.968 253.4 221.687 253.4 223.126V227H252.217V219.876H253.4V221.033ZM258.249 221.202C258.492 220.777 258.847 220.431 259.315 220.162C259.783 219.893 260.316 219.759 260.914 219.759C261.556 219.759 262.132 219.911 262.643 220.214C263.155 220.517 263.558 220.946 263.852 221.501C264.147 222.047 264.294 222.684 264.294 223.412C264.294 224.131 264.147 224.773 263.852 225.336C263.558 225.899 263.15 226.337 262.63 226.649C262.119 226.961 261.547 227.117 260.914 227.117C260.299 227.117 259.757 226.983 259.289 226.714C258.83 226.445 258.483 226.103 258.249 225.687V227H257.066V217.38H258.249V221.202ZM263.085 223.412C263.085 222.875 262.977 222.407 262.76 222.008C262.544 221.609 262.249 221.306 261.876 221.098C261.512 220.89 261.109 220.786 260.667 220.786C260.234 220.786 259.831 220.894 259.458 221.111C259.094 221.319 258.8 221.627 258.574 222.034C258.358 222.433 258.249 222.896 258.249 223.425C258.249 223.962 258.358 224.435 258.574 224.842C258.8 225.241 259.094 225.548 259.458 225.765C259.831 225.973 260.234 226.077 260.667 226.077C261.109 226.077 261.512 225.973 261.876 225.765C262.249 225.548 262.544 225.241 262.76 224.842C262.977 224.435 263.085 223.958 263.085 223.412ZM268.959 227.117C268.291 227.117 267.685 226.965 267.139 226.662C266.601 226.359 266.177 225.93 265.865 225.375C265.561 224.812 265.41 224.162 265.41 223.425C265.41 222.697 265.566 222.056 265.878 221.501C266.198 220.938 266.632 220.509 267.178 220.214C267.724 219.911 268.335 219.759 269.011 219.759C269.687 219.759 270.298 219.911 270.844 220.214C271.39 220.509 271.819 220.933 272.131 221.488C272.451 222.043 272.612 222.688 272.612 223.425C272.612 224.162 272.447 224.812 272.118 225.375C271.797 225.93 271.359 226.359 270.805 226.662C270.25 226.965 269.635 227.117 268.959 227.117ZM268.959 226.077C269.383 226.077 269.782 225.977 270.155 225.778C270.527 225.579 270.826 225.28 271.052 224.881C271.286 224.482 271.403 223.997 271.403 223.425C271.403 222.853 271.29 222.368 271.065 221.969C270.839 221.57 270.545 221.276 270.181 221.085C269.817 220.886 269.422 220.786 268.998 220.786C268.564 220.786 268.166 220.886 267.802 221.085C267.446 221.276 267.16 221.57 266.944 221.969C266.727 222.368 266.619 222.853 266.619 223.425C266.619 224.006 266.723 224.495 266.931 224.894C267.147 225.293 267.433 225.592 267.789 225.791C268.144 225.982 268.534 226.077 268.959 226.077ZM280.485 219.876V227H279.302V225.947C279.077 226.311 278.76 226.597 278.353 226.805C277.954 227.004 277.512 227.104 277.027 227.104C276.472 227.104 275.974 226.991 275.532 226.766C275.09 226.532 274.739 226.185 274.479 225.726C274.228 225.267 274.102 224.708 274.102 224.049V219.876H275.272V223.893C275.272 224.595 275.45 225.137 275.805 225.518C276.16 225.891 276.646 226.077 277.261 226.077C277.894 226.077 278.392 225.882 278.756 225.492C279.12 225.102 279.302 224.534 279.302 223.789V219.876H280.485ZM283.665 221.033C283.873 220.626 284.168 220.309 284.549 220.084C284.939 219.859 285.412 219.746 285.966 219.746V220.968H285.654C284.328 220.968 283.665 221.687 283.665 223.126V227H282.482V219.876H283.665V221.033Z" fill="black"/>
</g>
<defs>
<filter id="filter0_d_33_1299" x="0.5" y="88.5" width="461" height="192" filterUnits="userSpaceOnUse" color-interpolation-filters="sRGB">
<feFlood flood-opacity="0" result="BackgroundImageFix"/>
<feColorMatrix in="SourceAlpha" type="matrix" values="0 0 0 0 0 0 0 0 0 0 0 0 0 0 0 0 0 0 127 0" result="hardAlpha"/>
<feOffset dy="-7"/>
<feGaussianBlur stdDeviation="20"/>
<feComposite in2="hardAlpha" operator="out"/>
<feColorMatrix type="matrix" values="0 0 0 0 0 0 0 0 0 0 0 0 0 0 0 0 0 0 0.1 0"/>
<feBlend mode="normal" in2="BackgroundImageFix" result="effect1_dropShadow_33_1299"/>
<feBlend mode="normal" in="SourceGraphic" in2="effect1_dropShadow_33_1299" result="shape"/>
</filter>
</defs>
</svg>
