<svg width="16" height="16" viewBox="0 0 16 16" fill="none" xmlns="http://www.w3.org/2000/svg">
<path d="M2.25 2C1.55933 2 1 2.56 1 3.25V3.75C1 4.44067 1.56 5 2.25 5H13.75C14.44 5 15 4.44 15 3.75V3.25C15 2.55933 14.44 2 13.75 2H2.25Z" fill="currentcolor"/>
<path fill-rule="evenodd" clip-rule="evenodd" d="M2.05859 6L2.41859 12.1173C2.44851 12.6264 2.67172 13.1047 3.0426 13.4547C3.41348 13.8046 3.90402 13.9997 4.41393 14H11.5853C12.0954 14 12.5863 13.8051 12.9574 13.4551C13.3286 13.1052 13.552 12.6266 13.5819 12.1173L13.9426 6H2.05859ZM6.16726 8.5C6.16726 8.36739 6.21994 8.24022 6.31371 8.14645C6.40747 8.05268 6.53465 8 6.66726 8H9.33393C9.46654 8 9.59371 8.05268 9.68748 8.14645C9.78125 8.24022 9.83393 8.36739 9.83393 8.5C9.83393 8.63261 9.78125 8.75979 9.68748 8.85355C9.59371 8.94732 9.46654 9 9.33393 9H6.66726C6.53465 9 6.40747 8.94732 6.31371 8.85355C6.21994 8.75979 6.16726 8.63261 6.16726 8.5Z" fill="currentcolor"/>
</svg>
