<svg width="389" height="19" viewBox="0 0 389 19" fill="none" xmlns="http://www.w3.org/2000/svg">
<path d="M359.249 13.6299L359.895 12.8969C358.672 13.0329 357.532 13.1199 356.499 13.1459C343.137 13.4739 341.049 0.692936 331.809 5.20194C322.569 9.71094 302.111 12.8969 291.933 13.1459C278.571 13.4729 276.483 0.692936 267.243 5.20194C258.003 9.71094 237.545 12.8969 227.367 13.1459C214.005 13.4729 211.917 0.692936 202.677 5.20194C193.437 9.71094 172.979 12.8969 162.801 13.1459C149.439 13.4729 147.351 0.692936 138.112 5.20194C128.872 9.71094 108.414 12.8969 98.236 13.1459C84.874 13.4729 82.786 0.692936 73.547 5.20194C68.652 7.59094 57.64 9.13594 48.365 10.0609L58.339 14.2229C64.557 14.7239 70.354 14.9149 73.547 14.3279C77.928 13.5229 80.702 14.0179 83.831 14.7489L89.134 14.0119H100.053L116.877 11.6119L123.005 14.1729L132.141 14.334L141.946 12.8039L151.639 13.4479L160.218 14.575L167.794 13.6089L176.373 12.7229L187.403 14.0109L198.322 13.9309L208.795 12.9649L216.26 13.7699L225.953 14.334L243.111 12.1689L251.802 14.0119L261.941 14.0929L273.194 12.8849H278.542L290.241 14.1729L296.369 13.6899L307.399 12.1689L317.872 14.334L327.342 14.0119L336.255 12.8039L346.951 13.1259L356.087 14.334L359.249 13.6299Z" fill="#407BFF"/>
<path opacity="0.4" d="M359.249 13.6299L359.895 12.8969C358.672 13.0329 357.532 13.1199 356.499 13.1459C343.137 13.4739 341.049 0.692936 331.809 5.20194C322.569 9.71094 302.111 12.8969 291.933 13.1459C278.571 13.4729 276.483 0.692936 267.243 5.20194C258.003 9.71094 237.545 12.8969 227.367 13.1459C214.005 13.4729 211.917 0.692936 202.677 5.20194C193.437 9.71094 172.979 12.8969 162.801 13.1459C149.439 13.4729 147.351 0.692936 138.112 5.20194C128.872 9.71094 108.414 12.8969 98.236 13.1459C84.874 13.4729 82.786 0.692936 73.547 5.20194C68.652 7.59094 57.64 9.13594 48.365 10.0609L58.339 14.2229C64.557 14.7239 70.354 14.9149 73.547 14.3279C77.928 13.5229 80.702 14.0179 83.831 14.7489L89.134 14.0119H100.053L116.877 11.6119L123.005 14.1729L132.141 14.334L141.946 12.8039L151.639 13.4479L160.218 14.575L167.794 13.6089L176.373 12.7229L187.403 14.0109L198.322 13.9309L208.795 12.9649L216.26 13.7699L225.953 14.334L243.111 12.1689L251.802 14.0119L261.941 14.0929L273.194 12.8849H278.542L290.241 14.1729L296.369 13.6899L307.399 12.1689L317.872 14.334L327.342 14.0119L336.255 12.8039L346.951 13.1259L356.087 14.334L359.249 13.6299Z" fill="white"/>
<path d="M388.067 10.857C374.697 10.857 372.617 12.815 363.377 15.166C354.137 17.516 333.689 18.17 323.515 18.3C310.153 18.471 308.065 12.816 298.825 15.166C289.585 17.516 269.127 18.17 258.949 18.3C245.587 18.471 243.499 12.816 234.259 15.166C225.019 17.516 204.561 18.17 194.383 18.3C181.021 18.471 178.933 12.816 169.693 15.166C160.453 17.516 139.995 18.17 129.817 18.3C116.455 18.471 114.367 12.816 105.127 15.166C95.887 17.516 75.429 18.17 65.251 18.3C51.889 18.471 49.801 12.816 40.562 15.166C31.322 17.516 0.286011 10.857 0.286011 10.857C0.286011 10.857 31.322 8.77697 40.562 2.53797C49.802 -3.70103 51.889 13.984 65.251 13.531C75.429 13.186 95.887 8.77697 105.127 2.53797C114.367 -3.70103 116.454 13.984 129.817 13.531C139.995 13.186 160.453 8.77697 169.693 2.53797C178.933 -3.70103 181.02 13.984 194.383 13.531C204.561 13.186 225.019 8.77697 234.259 2.53797C243.499 -3.70103 245.586 13.984 258.949 13.531C269.127 13.186 289.585 8.77697 298.825 2.53797C308.065 -3.70103 310.152 13.984 323.515 13.531C333.689 13.186 354.137 8.77697 363.377 2.53797C372.617 -3.70103 374.697 10.857 388.067 10.857Z" fill="#407BFF"/>
<path opacity="0.7" d="M388.067 10.857C374.697 10.857 372.617 12.815 363.377 15.166C354.137 17.516 333.689 18.17 323.515 18.3C310.153 18.471 308.065 12.816 298.825 15.166C289.585 17.516 269.127 18.17 258.949 18.3C245.587 18.471 243.499 12.816 234.259 15.166C225.019 17.516 204.561 18.17 194.383 18.3C181.021 18.471 178.933 12.816 169.693 15.166C160.453 17.516 139.995 18.17 129.817 18.3C116.455 18.471 114.367 12.816 105.127 15.166C95.887 17.516 75.429 18.17 65.251 18.3C51.889 18.471 49.801 12.816 40.562 15.166C31.322 17.516 0.286011 10.857 0.286011 10.857C0.286011 10.857 31.322 8.77697 40.562 2.53797C49.802 -3.70103 51.889 13.984 65.251 13.531C75.429 13.186 95.887 8.77697 105.127 2.53797C114.367 -3.70103 116.454 13.984 129.817 13.531C139.995 13.186 160.453 8.77697 169.693 2.53797C178.933 -3.70103 181.02 13.984 194.383 13.531C204.561 13.186 225.019 8.77697 234.259 2.53797C243.499 -3.70103 245.586 13.984 258.949 13.531C269.127 13.186 289.585 8.77697 298.825 2.53797C308.065 -3.70103 310.152 13.984 323.515 13.531C333.689 13.186 354.137 8.77697 363.377 2.53797C372.617 -3.70103 374.697 10.857 388.067 10.857Z" fill="white"/>
</svg>
