<?xml version="1.0" encoding="utf-8"?>
<!-- Generator: Adobe Illustrator 27.5.0, SVG Export Plug-In . SVG Version: 6.00 Build 0)  -->
<svg version="1.1" xmlns="http://www.w3.org/2000/svg" xmlns:xlink="http://www.w3.org/1999/xlink" x="0px" y="0px"
	 viewBox="0 0 500 500" style="enable-background:new 0 0 500 500;" xml:space="preserve">
<g id="Background_Complete">
	<g>
		<rect x="416.779" y="398.494" style="fill:#EBEBEB;" width="33.122" height="0.25"/>
		<rect x="322.527" y="401.208" style="fill:#EBEBEB;" width="8.693" height="0.25"/>
		<rect x="396.586" y="389.208" style="fill:#EBEBEB;" width="19.192" height="0.25"/>
		<rect x="52.459" y="390.888" style="fill:#EBEBEB;" width="43.193" height="0.25"/>
		<rect x="104.556" y="390.888" style="fill:#EBEBEB;" width="6.333" height="0.25"/>
		<rect x="131.471" y="395.111" style="fill:#EBEBEB;" width="93.676" height="0.25"/>
		<g>
			<path style="fill:#EBEBEB;" d="M238.401,337.8H45.302c-3.147,0-5.708-2.561-5.708-5.708V60.66c0-3.147,2.561-5.708,5.708-5.708
				h193.099c3.146,0,5.707,2.561,5.707,5.708v271.432C244.108,335.239,241.547,337.8,238.401,337.8z M45.302,55.203
				c-3.01,0-5.458,2.448-5.458,5.458v271.432c0,3.01,2.448,5.458,5.458,5.458h193.099c3.009,0,5.457-2.448,5.457-5.458V60.66
				c0-3.009-2.448-5.458-5.457-5.458H45.302z"/>
			<path style="fill:#EBEBEB;" d="M454.698,337.8H261.599c-3.146,0-5.707-2.561-5.707-5.708V60.66c0-3.147,2.561-5.708,5.707-5.708
				h193.099c3.148,0,5.708,2.561,5.708,5.708v271.432C460.406,335.239,457.845,337.8,454.698,337.8z M261.599,55.203
				c-3.009,0-5.457,2.448-5.457,5.458v271.432c0,3.01,2.448,5.458,5.457,5.458h193.099c3.01,0,5.458-2.448,5.458-5.458V60.66
				c0-3.009-2.448-5.458-5.458-5.458H261.599z"/>
		</g>
		<rect y="382.398" style="fill:#EBEBEB;" width="500" height="0.25"/>
	</g>
	<g>
		<g>
			<polygon style="fill:#F0F0F0;" points="80.546,232.6 80.546,223.151 101.197,232.6 101.197,223.151 121.847,232.6 
				121.847,223.151 142.498,232.6 142.498,223.151 163.149,232.6 163.149,223.151 183.799,232.6 183.799,223.151 204.45,232.6 
				204.45,223.151 225.101,232.6 225.101,223.151 245.752,232.6 245.752,223.151 266.402,232.6 266.402,223.151 285.944,232.093 
				286.596,230.669 264.837,220.713 264.837,230.162 244.186,220.713 244.186,230.162 223.535,220.713 223.535,230.162 
				202.885,220.713 202.885,230.162 182.234,220.713 182.234,230.162 161.583,220.713 161.583,230.162 140.932,220.713 
				140.932,230.162 120.282,220.713 120.282,230.162 99.631,220.713 99.631,230.162 78.98,220.713 78.98,230.162 59.438,221.22 
				58.787,222.643 			"/>
			<g>
				<path style="fill:#F5F5F5;" d="M57.938,220.757h237.137c0.834,0,1.561,0.505,1.852,1.288c0.291,0.782,0.07,1.639-0.562,2.184
					l-9.659,8.327H57.938V220.757z M294.07,223.106H60.287v7.101h225.547L294.07,223.106z"/>
			</g>
			<path style="fill:#F0F0F0;" d="M77.952,217.234h1.997v148.361h3.403v-87.89h23.399v87.89h3.403V217.234h3.287v148.361h3.403
				v-87.89h23.399v87.89h3.403V217.234h1.997v-3.403h-1.997v-34.833h-0.214h-1.488h-1.702h-0.058h-30.031h-0.214h-2.233h-0.956
				h-0.058l-25.669,34.833h-3.073V217.234z M106.751,183.326v30.505H84.272L106.751,183.326z M137.678,182.401l-23.161,31.43h-4.363
				v-31.43H137.678z M140.243,213.831h-22.479l22.479-30.505V213.831z M140.243,217.234v52.363l-22.986-52.363H140.243z
				 M116.844,274.302v-52.394l22.999,52.394H116.844z M106.751,217.234v53.255l-23.377-53.255H106.751z M83.352,274.302V222.8
				l22.608,51.502H83.352z"/>
			<g>
				<path style="fill:#E0E0E0;" d="M253.176,242.969l13.761-9.063c1.263-0.831,2.894-0.832,4.156,0l13.76,9.063l0.43-0.654
					l-13.761-9.063c-1.524-1.004-3.493-1.004-5.017,0l-13.76,9.063L253.176,242.969z"/>
			</g>
			<polygon style="fill:#E6E6E6;" points="254.591,241.224 261.743,241.224 276.286,241.224 276.286,262.919 261.743,262.919 
				254.591,262.919 240.047,262.919 240.047,241.224 			"/>
			
				<rect x="276.286" y="241.224" transform="matrix(-1 -1.224647e-16 1.224647e-16 -1 574.268 504.1436)" style="fill:#F5F5F5;" width="21.695" height="21.695"/>
			<path style="fill:#F0F0F0;" d="M275.472,232.319v2.585h-2.592c0,0.569-0.461,1.03-1.029,1.03c-0.569,0-1.029-0.461-1.029-1.03
				h-3.753c0,0.569-0.461,1.03-1.03,1.03c-0.569,0-1.029-0.461-1.029-1.03h-2.724v-2.585H275.472z"/>
		</g>
		<g>
			<polygon style="fill:#F5F5F5;" points="437.86,279.671 437.86,273.566 424.518,279.671 424.518,273.566 411.177,279.671 
				411.177,273.566 397.835,279.671 397.835,273.566 384.493,279.671 384.493,273.566 371.151,279.671 371.151,273.566 
				357.809,279.671 357.809,273.566 344.468,279.671 344.468,273.566 331.126,279.671 331.126,273.566 317.784,279.671 
				317.784,273.566 305.159,279.344 304.738,278.424 318.796,271.991 318.796,278.096 332.138,271.991 332.138,278.096 
				345.479,271.991 345.479,278.096 358.821,271.991 358.821,278.096 372.163,271.991 372.163,278.096 385.505,271.991 
				385.505,278.096 398.846,271.991 398.846,278.096 412.188,271.991 412.188,278.096 425.53,271.991 425.53,278.096 
				438.872,271.991 438.872,278.096 451.497,272.319 451.918,273.239 			"/>
			<g>
				<path style="fill:#F5F5F5;" d="M452.466,279.642h-147.8l-6.24-5.379c-0.408-0.352-0.551-0.906-0.363-1.411
					c0.188-0.505,0.657-0.832,1.196-0.832h153.207V279.642z M305.23,278.125h145.719v-4.587h-151.04L305.23,278.125z"/>
			</g>
			<path style="fill:#F5F5F5;" d="M439.536,267.546h-1.985l-16.584-22.505h-0.038h-0.618h-1.443h-0.138h-19.402h-0.037h-1.099
				h-0.961h-0.138v22.505h-1.29v2.198h1.29v95.851h2.199v-56.783h15.117v56.783h2.199v-95.851h2.124v95.851h2.198v-56.783h15.117
				v56.783h2.199v-95.851h1.29V267.546z M435.452,267.546H420.93v-19.708L435.452,267.546z M418.731,247.239v20.306h-2.819
				l-14.964-20.306H418.731z M399.292,247.837l14.523,19.708h-14.523V247.837z M414.142,269.744l-14.851,33.83v-33.83H414.142z
				 M399.55,306.614l14.859-33.85v33.85H399.55z M436.033,269.744l-15.104,34.407v-34.407H436.033z M421.441,306.614l14.606-33.274
				v33.274H421.441z"/>
		</g>
		<g>
			<rect x="56.482" y="368.543" style="fill:#E6E6E6;" width="384.07" height="14.141"/>
			<rect x="47.534" y="362.097" style="fill:#F0F0F0;" width="399.694" height="8.526"/>
		</g>
	</g>
	<path style="fill:#F5F5F5;" d="M289.041,128.744c-2.241,1.583-0.904,5.177,1.84,5.177h108.985c17.578,0-5.76-21.87-13.424-14.602
		c-7.664,7.268-11.388-32.732-29.86-17.398c-18.471,15.333-23.613-8-35.376,4.667c-11.762,12.667-25.704,6-27.066,16.667
		C293.162,130.921,291.195,127.223,289.041,128.744z"/>
	<path style="fill:#F0F0F0;" d="M67.753,110.043c-1.276,0.902-0.515,2.948,1.048,2.948h62.063c10.01,0-3.28-12.454-7.644-8.315
		c-4.365,4.139-6.485-18.64-17.004-9.908c-10.519,8.732-13.447-4.556-20.145,2.658c-6.698,7.213-14.637,3.417-15.413,9.491
		C70.099,111.283,68.979,109.177,67.753,110.043z"/>
	<path style="fill:#F0F0F0;" d="M267.705,122.757h-88.239c-2.346,0-3.177-3.058-1.183-4.293c2.566-1.589,6.256-2.882,11.176-2.309
		c10.89,1.268,0.404-18.732,18.524-15.398c18.119,3.333,18.839,8.667,29.269,2.667c10.431-6,15.453,4.291,18.275,8.146
		c2.565,3.503,12.201-0.032,14.418,8.302C270.332,121.327,269.211,122.757,267.705,122.757z"/>
	<path style="fill:#F5F5F5;" d="M153.913,128.38h-48.208c-1.282,0-1.736-1.671-0.646-2.345c1.402-0.868,3.418-1.574,6.106-1.261
		c5.95,0.693,0.221-10.234,10.12-8.413c9.899,1.821,10.292,4.735,15.991,1.457c5.698-3.278,8.442,2.345,9.984,4.45
		c1.401,1.914,6.666-0.018,7.877,4.535C155.348,127.599,154.736,128.38,153.913,128.38z"/>
	<path style="fill:#F5F5F5;" d="M435.343,108.986h-48.208c-1.282,0-1.736-1.671-0.646-2.345c1.402-0.868,3.418-1.574,6.106-1.261
		c5.95,0.693,0.221-10.234,10.12-8.413s10.292,4.735,15.991,1.457c5.698-3.278,8.442,2.345,9.984,4.45
		c1.401,1.914,6.665-0.018,7.877,4.535C436.779,108.205,436.166,108.986,435.343,108.986z"/>
</g>
<g id="Background_Simple" style="display:none;">
	<g style="display:inline;">
		<path style="fill:#407BFF;" d="M225.786,402.69c-39.126,2.642-92.05,31.394-120.196-1.398
			c-37.589-43.794,28.988-87.857,34.874-130.104c4.496-32.272-78.526-71.291-38.956-117.75
			c39.609-46.505,114.867,5.601,153.215,1.012c37.941-4.54,93.521-69.432,141.168-34.386
			c46.722,34.366-19.153,95.404-25.824,137.334c-5.918,37.198,68.496,111.205,15.538,147.056
			C335.441,438.415,263.558,400.14,225.786,402.69z"/>
		<path style="opacity:0.9;fill:#FFFFFF;" d="M225.786,402.69c-39.126,2.642-92.05,31.394-120.196-1.398
			c-37.589-43.794,28.988-87.857,34.874-130.104c4.496-32.272-78.526-71.291-38.956-117.75
			c39.609-46.505,114.867,5.601,153.215,1.012c37.941-4.54,93.521-69.432,141.168-34.386
			c46.722,34.366-19.153,95.404-25.824,137.334c-5.918,37.198,68.496,111.205,15.538,147.056
			C335.441,438.415,263.558,400.14,225.786,402.69z"/>
	</g>
</g>
<g id="Shadow">
	<ellipse id="_x3C_Path_x3E__1_" style="fill:#F5F5F5;" cx="245.178" cy="412.391" rx="193.889" ry="11.323"/>
</g>
<g id="Ship">
	<g>
		<g>
			<polygon style="fill:#407BFF;" points="246.503,280.134 246.503,266.634 134.003,266.634 134.003,280.134 146.753,280.134 
				151.891,285.272 151.891,354.626 228.615,354.626 228.615,285.272 233.753,280.134 			"/>
			<polygon style="opacity:0.6;fill:#FFFFFF;" points="246.503,280.134 246.503,266.634 134.003,266.634 134.003,280.134 
				146.753,280.134 151.891,285.272 151.891,354.626 228.615,354.626 228.615,285.272 233.753,280.134 			"/>
			<rect x="172.253" y="270.297" style="fill:#FFFFFF;" width="4" height="7.667"/>
			<rect x="204.253" y="270.297" style="fill:#FFFFFF;" width="4" height="7.667"/>
			<rect x="156.253" y="282.463" style="fill:#FFFFFF;" width="4" height="7.667"/>
			<rect x="188.253" y="282.463" style="fill:#FFFFFF;" width="4" height="7.667"/>
			<rect x="196.253" y="282.463" style="fill:#FFFFFF;" width="4" height="7.667"/>
			<rect x="212.253" y="282.463" style="fill:#FFFFFF;" width="4" height="7.667"/>
			<rect x="220.253" y="282.463" style="fill:#FFFFFF;" width="4" height="7.667"/>
			<rect x="172.253" y="294.63" style="fill:#FFFFFF;" width="4" height="7.667"/>
			<rect x="156.253" y="306.797" style="fill:#FFFFFF;" width="4" height="7.667"/>
			<rect x="180.253" y="306.797" style="fill:#FFFFFF;" width="4" height="7.667"/>
			<rect x="204.253" y="306.797" style="fill:#FFFFFF;" width="4" height="7.667"/>
			<rect x="220.253" y="306.797" style="fill:#FFFFFF;" width="4" height="7.667"/>
			<rect x="164.253" y="318.963" style="fill:#FFFFFF;" width="4" height="7.667"/>
			<rect x="196.253" y="318.963" style="fill:#FFFFFF;" width="4" height="7.667"/>
			<rect x="172.253" y="331.13" style="fill:#FFFFFF;" width="4" height="7.667"/>
			<rect x="212.253" y="331.13" style="fill:#FFFFFF;" width="4" height="7.667"/>
			<rect x="188.253" y="343.297" style="fill:#FFFFFF;" width="4" height="7.667"/>
		</g>
		<g>
			<g>
				<g>
					<rect x="130.54" y="330.101" style="fill:#407BFF;" width="27.712" height="27.712"/>
					<path style="opacity:0.5;fill:#FFFFFF;" d="M145.896,332.396v23.123c0,0.439,0.356,0.795,0.795,0.795h9.267
						c0.439,0,0.795-0.356,0.795-0.795v-23.123c0-0.439-0.356-0.795-0.795-0.795h-9.267
						C146.252,331.602,145.896,331.957,145.896,332.396z"/>
				</g>
				<g style="opacity:0.2;">
					<path d="M154.255,335.767h-19.718c-0.538,0-0.974-0.436-0.974-0.974l0,0c0-0.538,0.436-0.974,0.974-0.974h19.718
						c0.538,0,0.974,0.436,0.974,0.974l0,0C155.23,335.331,154.793,335.767,154.255,335.767z"/>
					<path d="M154.255,341.876h-19.718c-0.538,0-0.974-0.436-0.974-0.974l0,0c0-0.538,0.436-0.974,0.974-0.974h19.718
						c0.538,0,0.974,0.436,0.974,0.974l0,0C155.23,341.44,154.793,341.876,154.255,341.876z"/>
					<path d="M154.255,347.986h-19.718c-0.538,0-0.974-0.436-0.974-0.974l0,0c0-0.538,0.436-0.974,0.974-0.974h19.718
						c0.538,0,0.974,0.436,0.974,0.974l0,0C155.23,347.55,154.793,347.986,154.255,347.986z"/>
					<path d="M154.255,354.095h-19.718c-0.538,0-0.974-0.436-0.974-0.974l0,0c0-0.538,0.436-0.974,0.974-0.974h19.718
						c0.538,0,0.974,0.436,0.974,0.974l0,0C155.23,353.659,154.793,354.095,154.255,354.095z"/>
				</g>
			</g>
			<g>
				<g>
					<rect x="160.896" y="330.101" style="fill:#407BFF;" width="27.712" height="27.712"/>
					<rect x="160.896" y="330.101" style="opacity:0.5;" width="27.712" height="27.712"/>
					<path style="opacity:0.5;fill:#FFFFFF;" d="M176.253,332.396v23.123c0,0.439,0.356,0.795,0.795,0.795h9.267
						c0.439,0,0.795-0.356,0.795-0.795v-23.123c0-0.439-0.356-0.795-0.795-0.795h-9.267
						C176.608,331.602,176.253,331.957,176.253,332.396z"/>
				</g>
				<g style="opacity:0.2;">
					<path d="M184.612,335.767h-19.718c-0.538,0-0.974-0.436-0.974-0.974l0,0c0-0.538,0.436-0.974,0.974-0.974h19.718
						c0.538,0,0.974,0.436,0.974,0.974l0,0C185.586,335.331,185.15,335.767,184.612,335.767z"/>
					<path d="M184.612,341.876h-19.718c-0.538,0-0.974-0.436-0.974-0.974l0,0c0-0.538,0.436-0.974,0.974-0.974h19.718
						c0.538,0,0.974,0.436,0.974,0.974l0,0C185.586,341.44,185.15,341.876,184.612,341.876z"/>
					<path d="M184.612,347.986h-19.718c-0.538,0-0.974-0.436-0.974-0.974l0,0c0-0.538,0.436-0.974,0.974-0.974h19.718
						c0.538,0,0.974,0.436,0.974,0.974l0,0C185.586,347.55,185.15,347.986,184.612,347.986z"/>
					<path d="M184.612,354.095h-19.718c-0.538,0-0.974-0.436-0.974-0.974l0,0c0-0.538,0.436-0.974,0.974-0.974h19.718
						c0.538,0,0.974,0.436,0.974,0.974l0,0C185.586,353.659,185.15,354.095,184.612,354.095z"/>
				</g>
			</g>
			<g>
				<g>
					<rect x="191.253" y="330.101" style="fill:#407BFF;" width="27.712" height="27.712"/>
					<path style="opacity:0.4;fill:#FFFFFF;" d="M206.609,332.396v23.123c0,0.439,0.356,0.795,0.795,0.795h9.267
						c0.439,0,0.795-0.356,0.795-0.795v-23.123c0-0.439-0.356-0.795-0.795-0.795h-9.267
						C206.965,331.602,206.609,331.957,206.609,332.396z"/>
				</g>
				<g style="opacity:0.2;">
					<path d="M214.968,335.767h-19.718c-0.538,0-0.974-0.436-0.974-0.974l0,0c0-0.538,0.436-0.974,0.974-0.974h19.718
						c0.538,0,0.974,0.436,0.974,0.974l0,0C215.942,335.331,215.506,335.767,214.968,335.767z"/>
					<path d="M214.968,341.876h-19.718c-0.538,0-0.974-0.436-0.974-0.974l0,0c0-0.538,0.436-0.974,0.974-0.974h19.718
						c0.538,0,0.974,0.436,0.974,0.974l0,0C215.942,341.44,215.506,341.876,214.968,341.876z"/>
					<path d="M214.968,347.986h-19.718c-0.538,0-0.974-0.436-0.974-0.974l0,0c0-0.538,0.436-0.974,0.974-0.974h19.718
						c0.538,0,0.974,0.436,0.974,0.974l0,0C215.942,347.55,215.506,347.986,214.968,347.986z"/>
					<path d="M214.968,354.095h-19.718c-0.538,0-0.974-0.436-0.974-0.974l0,0c0-0.538,0.436-0.974,0.974-0.974h19.718
						c0.538,0,0.974,0.436,0.974,0.974l0,0C215.942,353.659,215.506,354.095,214.968,354.095z"/>
				</g>
			</g>
			<g>
				<g>
					<rect x="144.396" y="300.803" style="fill:#407BFF;" width="27.712" height="27.712"/>
					<path style="opacity:0.5;fill:#FFFFFF;" d="M159.752,303.098v23.123c0,0.439,0.356,0.795,0.795,0.795h9.267
						c0.439,0,0.795-0.356,0.795-0.795v-23.123c0-0.439-0.356-0.795-0.795-0.795h-9.267
						C160.108,302.303,159.752,302.659,159.752,303.098z"/>
				</g>
				<g style="opacity:0.2;">
					<path d="M168.111,306.469h-19.718c-0.538,0-0.974-0.436-0.974-0.974l0,0c0-0.538,0.436-0.974,0.974-0.974h19.718
						c0.538,0,0.974,0.436,0.974,0.974l0,0C169.086,306.033,168.649,306.469,168.111,306.469z"/>
					<path d="M168.111,312.578h-19.718c-0.538,0-0.974-0.436-0.974-0.974l0,0c0-0.538,0.436-0.974,0.974-0.974h19.718
						c0.538,0,0.974,0.436,0.974,0.974l0,0C169.086,312.142,168.649,312.578,168.111,312.578z"/>
					<path d="M168.111,318.687h-19.718c-0.538,0-0.974-0.436-0.974-0.974l0,0c0-0.538,0.436-0.974,0.974-0.974h19.718
						c0.538,0,0.974,0.436,0.974,0.974l0,0C169.086,318.251,168.649,318.687,168.111,318.687z"/>
					<path d="M168.111,324.797h-19.718c-0.538,0-0.974-0.436-0.974-0.974l0,0c0-0.538,0.436-0.974,0.974-0.974h19.718
						c0.538,0,0.974,0.436,0.974,0.974l0,0C169.086,324.361,168.649,324.797,168.111,324.797z"/>
				</g>
			</g>
			<g>
				<g>
					<rect x="174.752" y="300.803" style="fill:#407BFF;" width="27.712" height="27.712"/>
					<rect x="174.752" y="300.803" style="opacity:0.3;fill:#FFFFFF;" width="27.712" height="27.712"/>
					<path style="opacity:0.4;fill:#FFFFFF;" d="M190.109,303.098v23.123c0,0.439,0.356,0.795,0.795,0.795h9.267
						c0.439,0,0.795-0.356,0.795-0.795v-23.123c0-0.439-0.356-0.795-0.795-0.795h-9.267
						C190.464,302.303,190.109,302.659,190.109,303.098z"/>
				</g>
				<g style="opacity:0.2;">
					<path d="M198.468,306.469h-19.718c-0.538,0-0.974-0.436-0.974-0.974l0,0c0-0.538,0.436-0.974,0.974-0.974h19.718
						c0.538,0,0.974,0.436,0.974,0.974l0,0C199.442,306.033,199.006,306.469,198.468,306.469z"/>
					<path d="M198.468,312.578h-19.718c-0.538,0-0.974-0.436-0.974-0.974l0,0c0-0.538,0.436-0.974,0.974-0.974h19.718
						c0.538,0,0.974,0.436,0.974,0.974l0,0C199.442,312.142,199.006,312.578,198.468,312.578z"/>
					<path d="M198.468,318.687h-19.718c-0.538,0-0.974-0.436-0.974-0.974l0,0c0-0.538,0.436-0.974,0.974-0.974h19.718
						c0.538,0,0.974,0.436,0.974,0.974l0,0C199.442,318.251,199.006,318.687,198.468,318.687z"/>
					<path d="M198.468,324.797h-19.718c-0.538,0-0.974-0.436-0.974-0.974l0,0c0-0.538,0.436-0.974,0.974-0.974h19.718
						c0.538,0,0.974,0.436,0.974,0.974l0,0C199.442,324.361,199.006,324.797,198.468,324.797z"/>
				</g>
			</g>
			<g>
				<g>
					<rect x="205.109" y="300.803" style="fill:#407BFF;" width="27.712" height="27.712"/>
					<path style="opacity:0.5;fill:#FFFFFF;" d="M220.465,303.098v23.123c0,0.439,0.356,0.795,0.795,0.795h9.267
						c0.439,0,0.795-0.356,0.795-0.795v-23.123c0-0.439-0.356-0.795-0.795-0.795h-9.267
						C220.821,302.303,220.465,302.659,220.465,303.098z"/>
				</g>
				<g style="opacity:0.2;">
					<path d="M228.824,306.469h-19.719c-0.538,0-0.974-0.436-0.974-0.974l0,0c0-0.538,0.436-0.974,0.974-0.974h19.719
						c0.538,0,0.974,0.436,0.974,0.974l0,0C229.798,306.033,229.362,306.469,228.824,306.469z"/>
					<path d="M228.824,312.578h-19.719c-0.538,0-0.974-0.436-0.974-0.974l0,0c0-0.538,0.436-0.974,0.974-0.974h19.719
						c0.538,0,0.974,0.436,0.974,0.974l0,0C229.798,312.142,229.362,312.578,228.824,312.578z"/>
					<path d="M228.824,318.687h-19.719c-0.538,0-0.974-0.436-0.974-0.974l0,0c0-0.538,0.436-0.974,0.974-0.974h19.719
						c0.538,0,0.974,0.436,0.974,0.974l0,0C229.798,318.251,229.362,318.687,228.824,318.687z"/>
					<path d="M228.824,324.797h-19.719c-0.538,0-0.974-0.436-0.974-0.974l0,0c0-0.538,0.436-0.974,0.974-0.974h19.719
						c0.538,0,0.974,0.436,0.974,0.974l0,0C229.798,324.361,229.362,324.797,228.824,324.797z"/>
				</g>
			</g>
			<g>
				<g>
					<rect x="221.609" y="330.101" style="fill:#407BFF;" width="27.712" height="27.712"/>
					<rect x="221.609" y="330.101" style="opacity:0.3;" width="27.712" height="27.712"/>
					<path style="opacity:0.5;fill:#FFFFFF;" d="M236.965,332.396v23.123c0,0.439,0.356,0.795,0.795,0.795h9.267
						c0.439,0,0.795-0.356,0.795-0.795v-23.123c0-0.439-0.356-0.795-0.795-0.795h-9.267
						C237.321,331.602,236.965,331.957,236.965,332.396z"/>
				</g>
				<g style="opacity:0.2;">
					<path d="M245.324,335.767h-19.718c-0.538,0-0.974-0.436-0.974-0.974l0,0c0-0.538,0.436-0.974,0.974-0.974h19.718
						c0.538,0,0.974,0.436,0.974,0.974l0,0C246.298,335.331,245.862,335.767,245.324,335.767z"/>
					<path d="M245.324,341.876h-19.718c-0.538,0-0.974-0.436-0.974-0.974l0,0c0-0.538,0.436-0.974,0.974-0.974h19.718
						c0.538,0,0.974,0.436,0.974,0.974l0,0C246.298,341.44,245.862,341.876,245.324,341.876z"/>
					<path d="M245.324,347.986h-19.718c-0.538,0-0.974-0.436-0.974-0.974l0,0c0-0.538,0.436-0.974,0.974-0.974h19.718
						c0.538,0,0.974,0.436,0.974,0.974l0,0C246.298,347.55,245.862,347.986,245.324,347.986z"/>
					<path d="M245.324,354.095h-19.718c-0.538,0-0.974-0.436-0.974-0.974l0,0c0-0.538,0.436-0.974,0.974-0.974h19.718
						c0.538,0,0.974,0.436,0.974,0.974l0,0C246.298,353.659,245.862,354.095,245.324,354.095z"/>
				</g>
			</g>
			<g>
				<path style="fill:#407BFF;" d="M190.253,412.03v-70.667c-8.907,0-80.587,16-80.587,30.5c0,11.537,6.258,26.603,16.908,40.167
					H190.253z"/>
				<path style="opacity:0.6;fill:#FFFFFF;" d="M190.253,412.03v-70.667c-8.907,0-80.587,16-80.587,30.5
					c0,11.537,6.258,26.603,16.908,40.167H190.253z"/>
				<path style="fill:#407BFF;" d="M190.253,412.03v-70.667c8.907,0,80.587,16,80.587,30.5c0,11.537-6.258,26.603-16.908,40.167
					H190.253z"/>
				<path style="opacity:0.5;fill:#FFFFFF;" d="M190.253,412.03v-70.667c8.907,0,80.587,16,80.587,30.5
					c0,11.537-6.258,26.603-16.908,40.167H190.253z"/>
				<polygon style="fill:#407BFF;" points="190.253,412.863 118.714,412.863 119.382,408.363 123.379,406.196 184.173,407.863 
					190.253,409.53 				"/>
				<path style="fill:#263238;" d="M190.253,347.44v-6.077c-8.907,0-80.587,16-80.587,30.5c0,0.557,0.027,1.13,0.056,1.703
					C121.202,360.956,177.969,348.51,190.253,347.44z"/>
				<path style="opacity:0.2;fill:#FFFFFF;" d="M190.253,347.44v-6.077c-8.907,0-80.587,16-80.587,30.5
					c0,0.557,0.027,1.13,0.056,1.703C121.202,360.956,177.969,348.51,190.253,347.44z"/>
				<polygon style="fill:#407BFF;" points="190.253,412.863 261.792,412.863 261.123,408.363 257.126,406.196 196.332,407.863 
					190.253,409.53 				"/>
				<polygon style="opacity:0.3;" points="190.253,412.863 261.792,412.863 261.123,408.363 257.126,406.196 196.332,407.863 
					190.253,409.53 				"/>
				<path style="fill:#263238;" d="M190.253,347.44v-6.077c8.907,0,80.587,16,80.587,30.5c0,0.557-0.027,1.13-0.056,1.703
					C259.304,360.956,202.536,348.51,190.253,347.44z"/>
				<path style="opacity:0.2;fill:#FFFFFF;" d="M200.149,342.773l-9.897,21.866v-23.276
					C191.83,341.363,195.382,341.867,200.149,342.773z"/>
				<polygon style="fill:#407BFF;" points="190.253,411.363 261.123,408.363 262.82,398.568 190.253,401.568 				"/>
				<path style="opacity:0.3;fill:#FFFFFF;" d="M180.356,342.773l9.897,21.866v-23.276
					C188.675,341.363,185.123,341.867,180.356,342.773z"/>
				<polygon style="fill:#407BFF;" points="190.253,411.363 119.382,408.363 117.686,398.568 190.253,401.568 				"/>
				<polygon style="opacity:0.2;fill:#FFFFFF;" points="190.253,411.363 119.382,408.363 117.686,398.568 190.253,401.568 				"/>
				<path style="fill:#407BFF;" d="M204.406,356.014c-1.507,0-2.729,1.362-2.729,3.042s1.222,3.042,2.729,3.042
					s2.729-1.362,2.729-3.042S205.913,356.014,204.406,356.014z M204.406,360.829c-0.879,0-1.592-0.794-1.592-1.774
					s0.713-1.774,1.592-1.774c0.879,0,1.592,0.794,1.592,1.774S205.285,360.829,204.406,360.829z"/>
				<path style="fill:#263238;" d="M200.384,366.6l0.249-0.216l0.003,0c0.012,0.057,0.024,0.115,0.037,0.172
					c0.682,2.901,3.452,3.887,6.264,4.565c0.306,0.074,1.069,0.662,1.069,0.662s0.421-0.867,0.662-1.069
					c2.216-1.859,4.257-3.976,3.576-6.876c-0.014-0.057-0.028-0.114-0.043-0.171l0.003-0.002l0.319,0.082
					c0.127,0.033,0.227-0.11,0.152-0.218l-0.443-0.636c-0.126-0.181-0.405-0.133-0.464,0.079l-0.233,0.844
					c-0.035,0.127,0.107,0.229,0.216,0.155l0.286-0.193c-0.043,2.169-1.277,4.156-3.203,5.154c-0.402,0.208-0.894-0.009-1.003-0.449
					l-1.775-7.198l2.358-0.554l-0.146-0.624l-2.365,0.556l-0.285-1.156c0.331-0.264,0.5-0.703,0.397-1.142
					c-0.145-0.619-0.774-0.999-1.392-0.834c-0.586,0.156-0.951,0.775-0.805,1.363c0.107,0.433,0.451,0.745,0.861,0.833l0.26,1.162
					l-2.365,0.556l0.146,0.624l2.358-0.554l1.617,7.236c0.099,0.442-0.245,0.856-0.698,0.849c-2.17-0.035-4.161-1.266-5.165-3.189
					l0.344,0.046c0.131,0.017,0.212-0.137,0.124-0.235l-0.585-0.652c-0.147-0.164-0.419-0.082-0.451,0.136l-0.113,0.767
					C200.132,366.603,200.285,366.686,200.384,366.6z M204.33,358.761c-0.076-0.323,0.124-0.646,0.447-0.722
					c0.323-0.076,0.646,0.124,0.722,0.447c0.076,0.323-0.124,0.646-0.447,0.722C204.729,359.284,204.406,359.084,204.33,358.761z"/>
			</g>
		</g>
	</g>
</g>
<g id="Buoy">
	<g>
		<path style="fill:#407BFF;" d="M70.185,381.69c-0.38-1.79,0.864-3.068,2.654-3.448c1.79-0.38,3.447,0.281,3.827,2.071l0.816,3.838
			l-6.482,1.378L70.185,381.69z"/>
		<path style="opacity:0.5;fill:#FFFFFF;" d="M70.185,381.69c-0.38-1.79,0.864-3.068,2.654-3.448c1.79-0.38,3.447,0.281,3.827,2.071
			l0.816,3.838l-6.482,1.378L70.185,381.69z"/>
		<path style="fill:#263238;" d="M87.691,406.694c0.989,4.652-1.981,9.225-6.633,10.213c-4.652,0.989-9.225-1.981-10.213-6.633
			l-2.12-9.976l16.846-3.581L87.691,406.694z"/>
		<path style="fill:#263238;" d="M72.184,399.423l3.309-8.7l6.562,6.602l0.418-0.089l-4.956-12.951l-0.438,0.093l-1.882,4.946
			l-3.731-3.754l-0.438,0.093l0.74,13.848L72.184,399.423z M77.315,385.931l3.439,8.986l-4.959-4.989L77.315,385.931z
			 M71.879,387.087l3.014,3.033l-2.501,6.575L71.879,387.087z"/>
		<g style="opacity:0.8;">
			<path style="fill:#FFFFFF;" d="M76.852,381.18l-0.184-0.868c-0.005-0.025-0.017-0.044-0.022-0.069l-6.467,1.375
				c0.005,0.025,0.003,0.047,0.008,0.072l0.185,0.868L76.852,381.18z"/>
			
				<rect x="70.597" y="382.797" transform="matrix(0.9782 -0.2079 0.2079 0.9782 -78.0572 23.7358)" style="fill:#FFFFFF;" width="6.626" height="0.959"/>
		</g>
		
			<rect x="70.031" y="384.469" transform="matrix(0.9781 -0.2079 0.2079 0.9781 -78.4206 23.8556)" style="fill:#407BFF;" width="8.48" height="1.011"/>
		
			<rect x="67.475" y="397.065" transform="matrix(0.9781 -0.2079 0.2079 0.9781 -81.1675 24.7478)" style="fill:#407BFF;" width="19.346" height="2.888"/>
	</g>
</g>
<g id="Crane">
	<g>
		<g>
			<g>
				
					<rect x="112.755" y="176.298" transform="matrix(0.9635 -0.2675 0.2675 0.9635 -39.4889 63.7669)" style="fill:#407BFF;" width="203.022" height="1"/>
			</g>
			<g>
				<rect x="352.671" y="195.09" style="fill:#407BFF;" width="4.347" height="191.678"/>
				<rect x="386.906" y="195.09" style="fill:#407BFF;" width="4.347" height="191.678"/>
				
					<rect x="369.764" y="255.465" transform="matrix(-1.836970e-16 1 -1 -1.836970e-16 644.2686 -99.6064)" style="fill:#407BFF;" width="4.347" height="33.732"/>
				<polygon style="fill:#407BFF;" points="353.444,273.429 387.832,195.09 390.98,195.09 356.592,273.429 				"/>
				<rect x="352.671" y="148.424" style="fill:#407BFF;" width="4.347" height="46.667"/>
				<polygon style="fill:#407BFF;" points="391.48,195.09 357.091,148.424 352.944,148.424 387.332,195.09 				"/>
			</g>
			<g>
				<g>
					<g>
						<polygon style="fill:#263238;" points="390.49,216.891 390.49,204.821 364.112,216.891 364.112,204.821 337.735,216.891 
							337.735,204.821 311.358,216.891 311.358,204.821 284.98,216.891 284.98,204.821 258.602,216.891 258.602,204.821 
							232.224,216.891 232.224,204.821 205.847,216.891 205.847,204.821 179.469,216.891 179.469,204.821 153.092,216.891 
							153.092,204.821 128.13,216.243 127.298,214.424 155.092,201.706 155.092,213.776 181.469,201.706 181.469,213.776 
							207.847,201.706 207.847,213.776 234.224,201.706 234.224,213.776 260.602,201.706 260.602,213.776 286.98,201.706 
							286.98,213.776 313.358,201.706 313.358,213.776 339.735,201.706 339.735,213.776 366.112,201.706 366.112,213.776 
							392.49,201.706 392.49,213.776 417.452,202.355 418.284,204.173 						"/>
						<polygon style="opacity:0.4;fill:#FFFFFF;" points="390.49,216.891 390.49,204.821 364.112,216.891 364.112,204.821 
							337.735,216.891 337.735,204.821 311.358,216.891 311.358,204.821 284.98,216.891 284.98,204.821 258.602,216.891 
							258.602,204.821 232.224,216.891 232.224,204.821 205.847,216.891 205.847,204.821 179.469,216.891 179.469,204.821 
							153.092,216.891 153.092,204.821 128.13,216.243 127.298,214.424 155.092,201.706 155.092,213.776 181.469,201.706 
							181.469,213.776 207.847,201.706 207.847,213.776 234.224,201.706 234.224,213.776 260.602,201.706 260.602,213.776 
							286.98,201.706 286.98,213.776 313.358,201.706 313.358,213.776 339.735,201.706 339.735,213.776 366.112,201.706 
							366.112,213.776 392.49,201.706 392.49,213.776 417.452,202.355 418.284,204.173 						"/>
					</g>
				</g>
				<g>
					<path style="fill:#263238;" d="M419.368,216.833H127.157l-12.337-10.636c-0.807-0.696-1.089-1.791-0.718-2.79
						c0.371-0.999,1.3-1.645,2.365-1.645h302.901V216.833z M128.271,213.833h288.097v-9.07H117.751L128.271,213.833z"/>
				</g>
				<g style="opacity:0.6;">
					<path style="fill:#FFFFFF;" d="M419.368,216.833H127.157l-12.337-10.636c-0.807-0.696-1.089-1.791-0.718-2.79
						c0.371-0.999,1.3-1.645,2.365-1.645h302.901V216.833z M128.271,213.833h288.097v-9.07H117.751L128.271,213.833z"/>
				</g>
			</g>
			
				<rect x="331.757" y="128.731" transform="matrix(-1.836970e-16 1 -1 -1.836970e-16 484.527 -183.3329)" style="fill:#407BFF;" width="4.347" height="43.732"/>
			<g>
				<rect x="309.891" y="195.09" style="fill:#407BFF;" width="4.347" height="191.678"/>
				<rect x="309.891" y="148.424" style="fill:#407BFF;" width="4.347" height="46.667"/>
				<rect x="344.125" y="195.09" style="fill:#407BFF;" width="4.347" height="191.678"/>
				
					<rect x="326.532" y="254.965" transform="matrix(-1.836970e-16 1 -1 -1.836970e-16 601.0364 -56.3742)" style="fill:#407BFF;" width="4.347" height="34.732"/>
				<polygon style="fill:#407BFF;" points="348.7,195.09 314.311,148.424 310.163,148.424 344.552,195.09 				"/>
				<polygon style="fill:#407BFF;" points="310.163,273.429 344.552,195.09 347.7,195.09 313.312,273.429 				"/>
			</g>
			<g style="opacity:0.3;">
				<rect x="309.891" y="195.09" style="fill:#FFFFFF;" width="4.347" height="191.678"/>
				<rect x="309.891" y="148.424" style="fill:#FFFFFF;" width="4.347" height="46.667"/>
				<rect x="344.125" y="195.09" style="fill:#FFFFFF;" width="4.347" height="191.678"/>
				
					<rect x="326.532" y="254.965" transform="matrix(-1.836970e-16 1 -1 -1.836970e-16 601.0364 -56.3742)" style="fill:#FFFFFF;" width="4.347" height="34.732"/>
				<polygon style="fill:#FFFFFF;" points="348.7,195.09 314.311,148.424 310.163,148.424 344.552,195.09 				"/>
				<polygon style="fill:#FFFFFF;" points="310.163,273.429 344.552,195.09 347.7,195.09 313.312,273.429 				"/>
			</g>
			<g>
				
					<rect x="367.764" y="171.224" transform="matrix(-1.836970e-16 1 -1 -1.836970e-16 565.0279 -174.847)" style="fill:#263238;" width="4.347" height="47.732"/>
				
					<rect x="367.764" y="171.224" transform="matrix(-1.836970e-16 1 -1 -1.836970e-16 565.0279 -174.847)" style="opacity:0.3;fill:#FFFFFF;" width="4.347" height="47.732"/>
				
					<rect x="324.532" y="175.724" transform="matrix(-1.836970e-16 1 -1 -1.836970e-16 521.7958 -131.6149)" style="fill:#263238;" width="4.347" height="38.732"/>
				
					<rect x="324.532" y="175.724" transform="matrix(-1.836970e-16 1 -1 -1.836970e-16 521.7958 -131.6149)" style="opacity:0.6;fill:#FFFFFF;" width="4.347" height="38.732"/>
			</g>
			<g>
				<g>
					<g>
						<path style="fill:#407BFF;" d="M186.193,219.833c0,0.726-0.589,1.315-1.315,1.315c-0.726,0-1.315-0.589-1.315-1.315
							c0-0.726,0.589-1.315,1.315-1.315C185.604,218.518,186.193,219.107,186.193,219.833z"/>
						<circle style="fill:#407BFF;" cx="192.302" cy="219.833" r="1.315"/>
					</g>
					<g style="opacity:0.2;">
						<path d="M186.193,219.833c0,0.726-0.589,1.315-1.315,1.315c-0.726,0-1.315-0.589-1.315-1.315c0-0.726,0.589-1.315,1.315-1.315
							C185.604,218.518,186.193,219.107,186.193,219.833z"/>
						<circle cx="192.302" cy="219.833" r="1.315"/>
					</g>
				</g>
				<g>
					<path style="fill:#263238;" d="M208.732,230.135l-17.577-11.577c-1.613-1.061-3.696-1.063-5.309,0l-17.577,11.577l-0.55-0.835
						l17.577-11.577c1.946-1.282,4.462-1.282,6.409,0l17.577,11.577L208.732,230.135z"/>
				</g>
				<g>
					<polygon style="fill:#407BFF;" points="206.924,227.906 197.789,227.906 179.212,227.906 179.212,255.618 197.789,255.618 
						206.924,255.618 225.501,255.618 225.501,227.906 					"/>
					<g>
						<g>
							<rect x="151.5" y="227.906" style="fill:#407BFF;" width="27.712" height="27.712"/>
							<rect x="151.5" y="227.906" style="opacity:0.3;fill:#FFFFFF;" width="27.712" height="27.712"/>
							<path style="opacity:0.2;fill:#FFFFFF;" d="M166.856,230.202v23.122c0,0.439,0.356,0.795,0.795,0.795h9.267
								c0.439,0,0.795-0.356,0.795-0.795v-23.122c0-0.439-0.356-0.795-0.795-0.795h-9.267
								C167.212,229.407,166.856,229.763,166.856,230.202z"/>
						</g>
						<g style="opacity:0.2;">
							<path d="M175.215,233.573h-19.718c-0.538,0-0.974-0.436-0.974-0.974l0,0c0-0.538,0.436-0.974,0.974-0.974h19.718
								c0.538,0,0.974,0.436,0.974,0.974l0,0C176.189,233.136,175.753,233.573,175.215,233.573z"/>
							<path d="M175.215,239.682h-19.718c-0.538,0-0.974-0.436-0.974-0.974l0,0c0-0.538,0.436-0.974,0.974-0.974h19.718
								c0.538,0,0.974,0.436,0.974,0.974l0,0C176.189,239.246,175.753,239.682,175.215,239.682z"/>
							<path d="M175.215,245.791h-19.718c-0.538,0-0.974-0.436-0.974-0.974l0,0c0-0.538,0.436-0.974,0.974-0.974h19.718
								c0.538,0,0.974,0.436,0.974,0.974l0,0C176.189,245.355,175.753,245.791,175.215,245.791z"/>
							<path d="M175.215,251.9h-19.718c-0.538,0-0.974-0.436-0.974-0.974l0,0c0-0.538,0.436-0.974,0.974-0.974h19.718
								c0.538,0,0.974,0.436,0.974,0.974l0,0C176.189,251.464,175.753,251.9,175.215,251.9z"/>
						</g>
					</g>
					<path style="opacity:0.2;" d="M201.258,251.622v-19.718c0-0.538,0.436-0.974,0.974-0.974l0,0c0.538,0,0.974,0.436,0.974,0.974
						v19.718c0,0.538-0.436,0.974-0.974,0.974l0,0C201.694,252.596,201.258,252.16,201.258,251.622z"/>
					<path style="opacity:0.2;" d="M195.148,251.622v-19.718c0-0.538,0.436-0.974,0.974-0.974l0,0c0.538,0,0.974,0.436,0.974,0.974
						v19.718c0,0.538-0.436,0.974-0.974,0.974l0,0C195.585,252.596,195.148,252.16,195.148,251.622z"/>
					<path style="opacity:0.2;" d="M189.039,251.622v-19.718c0-0.538,0.436-0.974,0.974-0.974l0,0c0.538,0,0.974,0.436,0.974,0.974
						v19.718c0,0.538-0.436,0.974-0.974,0.974l0,0C189.475,252.596,189.039,252.16,189.039,251.622z"/>
					<path style="opacity:0.2;" d="M182.93,251.622v-19.718c0-0.538,0.436-0.974,0.974-0.974l0,0c0.538,0,0.974,0.436,0.974,0.974
						v19.718c0,0.538-0.436,0.974-0.974,0.974l0,0C183.366,252.596,182.93,252.16,182.93,251.622z"/>
					<path style="opacity:0.2;" d="M219.835,251.622v-19.718c0-0.538,0.436-0.974,0.974-0.974l0,0c0.538,0,0.974,0.436,0.974,0.974
						v19.718c0,0.538-0.436,0.974-0.974,0.974l0,0C220.271,252.596,219.835,252.16,219.835,251.622z"/>
					<path style="opacity:0.2;" d="M213.725,251.622v-19.718c0-0.538,0.436-0.974,0.974-0.974l0,0c0.538,0,0.974,0.436,0.974,0.974
						v19.718c0,0.538-0.436,0.974-0.974,0.974l0,0C214.161,252.596,213.725,252.16,213.725,251.622z"/>
					<path style="opacity:0.2;" d="M207.616,251.622v-19.718c0-0.538,0.436-0.974,0.974-0.974l0,0c0.538,0,0.974,0.436,0.974,0.974
						v19.718c0,0.538-0.436,0.974-0.974,0.974l0,0C208.052,252.596,207.616,252.16,207.616,251.622z"/>
				</g>
				<rect x="180.253" y="216.532" style="fill:#407BFF;" width="16.844" height="3.301"/>
			</g>
		</g>
		<g>
			<rect x="287.039" y="391.138" style="fill:#263238;" width="135.383" height="21.252"/>
			<rect x="287.039" y="391.138" style="opacity:0.1;" width="135.383" height="5.356"/>
			<rect x="283.144" y="382.398" style="fill:#263238;" width="143.173" height="8.74"/>
			<rect x="283.144" y="382.398" style="fill:#263238;" width="143.173" height="8.74"/>
		</g>
	</g>
</g>
<g id="Cargo">
	<g>
		<g>
			<g>
				<g>
					<rect x="290.048" y="354.686" style="fill:#407BFF;" width="27.712" height="27.712"/>
					<path style="opacity:0.5;fill:#FFFFFF;" d="M305.404,356.982v23.123c0,0.439,0.356,0.795,0.795,0.795h9.267
						c0.439,0,0.795-0.356,0.795-0.795v-23.123c0-0.439-0.356-0.795-0.795-0.795h-9.267
						C305.76,356.187,305.404,356.543,305.404,356.982z"/>
				</g>
				<g style="opacity:0.2;">
					<path d="M313.763,360.353h-19.719c-0.538,0-0.974-0.436-0.974-0.974l0,0c0-0.538,0.436-0.974,0.974-0.974h19.719
						c0.538,0,0.974,0.436,0.974,0.974l0,0C314.737,359.917,314.301,360.353,313.763,360.353z"/>
					<path d="M313.763,366.462h-19.719c-0.538,0-0.974-0.436-0.974-0.974l0,0c0-0.538,0.436-0.974,0.974-0.974h19.719
						c0.538,0,0.974,0.436,0.974,0.974l0,0C314.737,366.026,314.301,366.462,313.763,366.462z"/>
					<path d="M313.763,372.571h-19.719c-0.538,0-0.974-0.436-0.974-0.974l0,0c0-0.538,0.436-0.974,0.974-0.974h19.719
						c0.538,0,0.974,0.436,0.974,0.974l0,0C314.737,372.135,314.301,372.571,313.763,372.571z"/>
					<path d="M313.763,378.68h-19.719c-0.538,0-0.974-0.436-0.974-0.974l0,0c0-0.538,0.436-0.974,0.974-0.974h19.719
						c0.538,0,0.974,0.436,0.974,0.974l0,0C314.737,378.244,314.301,378.68,313.763,378.68z"/>
				</g>
			</g>
			<g>
				<g>
					<rect x="317.76" y="354.686" style="fill:#407BFF;" width="27.712" height="27.712"/>
				</g>
				<rect x="317.76" y="354.686" style="opacity:0.2;" width="27.712" height="27.712"/>
				<g style="opacity:0.2;">
					<path d="M339.806,378.402v-19.719c0-0.538,0.436-0.974,0.974-0.974l0,0c0.538,0,0.974,0.436,0.974,0.974v19.719
						c0,0.538-0.436,0.974-0.974,0.974l0,0C340.242,379.376,339.806,378.94,339.806,378.402z"/>
					<path d="M333.697,378.402v-19.719c0-0.538,0.436-0.974,0.974-0.974l0,0c0.538,0,0.974,0.436,0.974,0.974v19.719
						c0,0.538-0.436,0.974-0.974,0.974l0,0C334.133,379.376,333.697,378.94,333.697,378.402z"/>
					<path d="M327.587,378.402v-19.719c0-0.538,0.436-0.974,0.974-0.974l0,0c0.538,0,0.974,0.436,0.974,0.974v19.719
						c0,0.538-0.436,0.974-0.974,0.974l0,0C328.023,379.376,327.587,378.94,327.587,378.402z"/>
					<path d="M321.478,378.402v-19.719c0-0.538,0.436-0.974,0.974-0.974l0,0c0.538,0,0.974,0.436,0.974,0.974v19.719
						c0,0.538-0.436,0.974-0.974,0.974l0,0C321.914,379.376,321.478,378.94,321.478,378.402z"/>
				</g>
			</g>
		</g>
		<g>
			<g>
				<g>
					<rect x="331.616" y="354.686" style="fill:#263238;" width="27.712" height="27.712"/>
					<rect x="331.616" y="354.686" style="opacity:0.6;fill:#FFFFFF;" width="27.712" height="27.712"/>
					<path style="opacity:0.5;fill:#FFFFFF;" d="M346.972,356.982v23.123c0,0.439,0.356,0.795,0.795,0.795h9.267
						c0.439,0,0.795-0.356,0.795-0.795v-23.123c0-0.439-0.356-0.795-0.795-0.795h-9.267
						C347.328,356.187,346.972,356.543,346.972,356.982z"/>
				</g>
				<g style="opacity:0.2;">
					<path d="M355.331,360.353h-19.719c-0.538,0-0.974-0.436-0.974-0.974l0,0c0-0.538,0.436-0.974,0.974-0.974h19.719
						c0.538,0,0.974,0.436,0.974,0.974l0,0C356.305,359.917,355.869,360.353,355.331,360.353z"/>
					<path d="M355.331,366.462h-19.719c-0.538,0-0.974-0.436-0.974-0.974l0,0c0-0.538,0.436-0.974,0.974-0.974h19.719
						c0.538,0,0.974,0.436,0.974,0.974l0,0C356.305,366.026,355.869,366.462,355.331,366.462z"/>
					<path d="M355.331,372.571h-19.719c-0.538,0-0.974-0.436-0.974-0.974l0,0c0-0.538,0.436-0.974,0.974-0.974h19.719
						c0.538,0,0.974,0.436,0.974,0.974l0,0C356.305,372.135,355.869,372.571,355.331,372.571z"/>
					<path d="M355.331,378.68h-19.719c-0.538,0-0.974-0.436-0.974-0.974l0,0c0-0.538,0.436-0.974,0.974-0.974h19.719
						c0.538,0,0.974,0.436,0.974,0.974l0,0C356.305,378.244,355.869,378.68,355.331,378.68z"/>
				</g>
			</g>
			<g>
				<g>
					<rect x="359.328" y="354.686" style="fill:#263238;" width="27.712" height="27.712"/>
					<rect x="359.328" y="354.686" style="opacity:0.4;fill:#FFFFFF;" width="27.712" height="27.712"/>
				</g>
				<g style="opacity:0.2;">
					<path d="M381.374,378.402v-19.719c0-0.538,0.436-0.974,0.974-0.974l0,0c0.538,0,0.974,0.436,0.974,0.974v19.719
						c0,0.538-0.436,0.974-0.974,0.974l0,0C381.81,379.376,381.374,378.94,381.374,378.402z"/>
					<path d="M375.265,378.402v-19.719c0-0.538,0.436-0.974,0.974-0.974l0,0c0.538,0,0.974,0.436,0.974,0.974v19.719
						c0,0.538-0.436,0.974-0.974,0.974l0,0C375.701,379.376,375.265,378.94,375.265,378.402z"/>
					<path d="M369.155,378.402v-19.719c0-0.538,0.436-0.974,0.974-0.974l0,0c0.538,0,0.974,0.436,0.974,0.974v19.719
						c0,0.538-0.436,0.974-0.974,0.974l0,0C369.591,379.376,369.155,378.94,369.155,378.402z"/>
					<path d="M363.046,378.402v-19.719c0-0.538,0.436-0.974,0.974-0.974l0,0c0.538,0,0.974,0.436,0.974,0.974v19.719
						c0,0.538-0.436,0.974-0.974,0.974l0,0C363.482,379.376,363.046,378.94,363.046,378.402z"/>
				</g>
			</g>
		</g>
		<g>
			<g>
				<g>
					<rect x="367.063" y="354.686" style="fill:#407BFF;" width="27.712" height="27.712"/>
					<rect x="367.063" y="354.686" style="opacity:0.2;fill:#FFFFFF;" width="27.712" height="27.712"/>
					<path style="opacity:0.5;fill:#FFFFFF;" d="M382.419,356.982v23.123c0,0.439,0.356,0.795,0.795,0.795h9.267
						c0.439,0,0.795-0.356,0.795-0.795v-23.123c0-0.439-0.356-0.795-0.795-0.795h-9.267
						C382.775,356.187,382.419,356.543,382.419,356.982z"/>
				</g>
				<g style="opacity:0.2;">
					<path d="M390.778,360.353H371.06c-0.538,0-0.974-0.436-0.974-0.974l0,0c0-0.538,0.436-0.974,0.974-0.974h19.719
						c0.538,0,0.974,0.436,0.974,0.974l0,0C391.752,359.917,391.316,360.353,390.778,360.353z"/>
					<path d="M390.778,366.462H371.06c-0.538,0-0.974-0.436-0.974-0.974l0,0c0-0.538,0.436-0.974,0.974-0.974h19.719
						c0.538,0,0.974,0.436,0.974,0.974l0,0C391.752,366.026,391.316,366.462,390.778,366.462z"/>
					<path d="M390.778,372.571H371.06c-0.538,0-0.974-0.436-0.974-0.974l0,0c0-0.538,0.436-0.974,0.974-0.974h19.719
						c0.538,0,0.974,0.436,0.974,0.974l0,0C391.752,372.135,391.316,372.571,390.778,372.571z"/>
					<path d="M390.778,378.68H371.06c-0.538,0-0.974-0.436-0.974-0.974l0,0c0-0.538,0.436-0.974,0.974-0.974h19.719
						c0.538,0,0.974,0.436,0.974,0.974l0,0C391.752,378.244,391.316,378.68,390.778,378.68z"/>
				</g>
			</g>
			<g>
				<g>
					<rect x="394.775" y="354.686" style="fill:#407BFF;" width="27.712" height="27.712"/>
				</g>
				<g style="opacity:0.2;">
					<path d="M416.82,378.402v-19.719c0-0.538,0.436-0.974,0.974-0.974l0,0c0.538,0,0.974,0.436,0.974,0.974v19.719
						c0,0.538-0.436,0.974-0.974,0.974l0,0C417.257,379.376,416.82,378.94,416.82,378.402z"/>
					<path d="M410.711,378.402v-19.719c0-0.538,0.436-0.974,0.974-0.974l0,0c0.538,0,0.974,0.436,0.974,0.974v19.719
						c0,0.538-0.436,0.974-0.974,0.974l0,0C411.147,379.376,410.711,378.94,410.711,378.402z"/>
					<path d="M404.602,378.402v-19.719c0-0.538,0.436-0.974,0.974-0.974l0,0c0.538,0,0.974,0.436,0.974,0.974v19.719
						c0,0.538-0.436,0.974-0.974,0.974l0,0C405.038,379.376,404.602,378.94,404.602,378.402z"/>
					<path d="M398.493,378.402v-19.719c0-0.538,0.436-0.974,0.974-0.974l0,0c0.538,0,0.974,0.436,0.974,0.974v19.719
						c0,0.538-0.436,0.974-0.974,0.974l0,0C398.929,379.376,398.493,378.94,398.493,378.402z"/>
				</g>
			</g>
		</g>
		<g>
			<g>
				<g>
					<rect x="303.904" y="327.046" style="fill:#407BFF;" width="27.712" height="27.712"/>
					<rect x="303.904" y="327.046" style="opacity:0.6;fill:#FFFFFF;" width="27.712" height="27.712"/>
					<path style="opacity:0.5;fill:#FFFFFF;" d="M319.26,329.341v23.123c0,0.439,0.356,0.795,0.795,0.795h9.267
						c0.439,0,0.795-0.356,0.795-0.795v-23.123c0-0.439-0.356-0.795-0.795-0.795h-9.267
						C319.616,328.547,319.26,328.903,319.26,329.341z"/>
				</g>
				<g style="opacity:0.2;">
					<path d="M327.619,332.713h-19.719c-0.538,0-0.974-0.436-0.974-0.974l0,0c0-0.538,0.436-0.974,0.974-0.974h19.719
						c0.538,0,0.974,0.436,0.974,0.974l0,0C328.593,332.276,328.157,332.713,327.619,332.713z"/>
					<path d="M327.619,338.822h-19.719c-0.538,0-0.974-0.436-0.974-0.974l0,0c0-0.538,0.436-0.974,0.974-0.974h19.719
						c0.538,0,0.974,0.436,0.974,0.974l0,0C328.593,338.386,328.157,338.822,327.619,338.822z"/>
					<path d="M327.619,344.931h-19.719c-0.538,0-0.974-0.436-0.974-0.974l0,0c0-0.538,0.436-0.974,0.974-0.974h19.719
						c0.538,0,0.974,0.436,0.974,0.974l0,0C328.593,344.495,328.157,344.931,327.619,344.931z"/>
					<path d="M327.619,351.04h-19.719c-0.538,0-0.974-0.436-0.974-0.974l0,0c0-0.538,0.436-0.974,0.974-0.974h19.719
						c0.538,0,0.974,0.436,0.974,0.974l0,0C328.593,350.604,328.157,351.04,327.619,351.04z"/>
				</g>
			</g>
			<g>
				<g>
					<rect x="331.616" y="327.046" style="fill:#407BFF;" width="27.712" height="27.712"/>
				</g>
				<rect x="331.616" y="327.046" style="opacity:0.4;fill:#FFFFFF;" width="27.712" height="27.712"/>
				<g style="opacity:0.2;">
					<path d="M353.662,350.762v-19.719c0-0.538,0.436-0.974,0.974-0.974l0,0c0.538,0,0.974,0.436,0.974,0.974v19.719
						c0,0.538-0.436,0.974-0.974,0.974l0,0C354.098,351.736,353.662,351.3,353.662,350.762z"/>
					<path d="M347.553,350.762v-19.719c0-0.538,0.436-0.974,0.974-0.974l0,0c0.538,0,0.974,0.436,0.974,0.974v19.719
						c0,0.538-0.436,0.974-0.974,0.974l0,0C347.989,351.736,347.553,351.3,347.553,350.762z"/>
					<path d="M341.443,350.762v-19.719c0-0.538,0.436-0.974,0.974-0.974l0,0c0.538,0,0.974,0.436,0.974,0.974v19.719
						c0,0.538-0.436,0.974-0.974,0.974l0,0C341.879,351.736,341.443,351.3,341.443,350.762z"/>
					<path d="M335.334,350.762v-19.719c0-0.538,0.436-0.974,0.974-0.974l0,0c0.538,0,0.974,0.436,0.974,0.974v19.719
						c0,0.538-0.436,0.974-0.974,0.974l0,0C335.77,351.736,335.334,351.3,335.334,350.762z"/>
				</g>
			</g>
		</g>
		<g>
			<g>
				<g>
					<rect x="347.553" y="327.046" style="fill:#263238;" width="27.712" height="27.712"/>
					<rect x="347.553" y="327.046" style="opacity:0.6;fill:#FFFFFF;" width="27.712" height="27.712"/>
					<path style="opacity:0.5;fill:#FFFFFF;" d="M362.909,329.341v23.123c0,0.439,0.356,0.795,0.795,0.795h9.267
						c0.439,0,0.795-0.356,0.795-0.795v-23.123c0-0.439-0.356-0.795-0.795-0.795h-9.267
						C363.265,328.547,362.909,328.903,362.909,329.341z"/>
				</g>
				<g style="opacity:0.2;">
					<path d="M371.268,332.713h-19.719c-0.538,0-0.974-0.436-0.974-0.974l0,0c0-0.538,0.436-0.974,0.974-0.974h19.719
						c0.538,0,0.974,0.436,0.974,0.974l0,0C372.242,332.276,371.806,332.713,371.268,332.713z"/>
					<path d="M371.268,338.822h-19.719c-0.538,0-0.974-0.436-0.974-0.974l0,0c0-0.538,0.436-0.974,0.974-0.974h19.719
						c0.538,0,0.974,0.436,0.974,0.974l0,0C372.242,338.386,371.806,338.822,371.268,338.822z"/>
					<path d="M371.268,344.931h-19.719c-0.538,0-0.974-0.436-0.974-0.974l0,0c0-0.538,0.436-0.974,0.974-0.974h19.719
						c0.538,0,0.974,0.436,0.974,0.974l0,0C372.242,344.495,371.806,344.931,371.268,344.931z"/>
					<path d="M371.268,351.04h-19.719c-0.538,0-0.974-0.436-0.974-0.974l0,0c0-0.538,0.436-0.974,0.974-0.974h19.719
						c0.538,0,0.974,0.436,0.974,0.974l0,0C372.242,350.604,371.806,351.04,371.268,351.04z"/>
				</g>
			</g>
			<g>
				<g>
					<rect x="375.265" y="327.046" style="fill:#263238;" width="27.712" height="27.712"/>
					<rect x="375.265" y="327.046" style="opacity:0.4;fill:#FFFFFF;" width="27.712" height="27.712"/>
				</g>
				<g style="opacity:0.2;">
					<path d="M397.31,350.762v-19.719c0-0.538,0.436-0.974,0.974-0.974l0,0c0.538,0,0.974,0.436,0.974,0.974v19.719
						c0,0.538-0.436,0.974-0.974,0.974l0,0C397.746,351.736,397.31,351.3,397.31,350.762z"/>
					<path d="M391.201,350.762v-19.719c0-0.538,0.436-0.974,0.974-0.974l0,0c0.538,0,0.974,0.436,0.974,0.974v19.719
						c0,0.538-0.436,0.974-0.974,0.974l0,0C391.637,351.736,391.201,351.3,391.201,350.762z"/>
					<path d="M385.092,350.762v-19.719c0-0.538,0.436-0.974,0.974-0.974l0,0c0.538,0,0.974,0.436,0.974,0.974v19.719
						c0,0.538-0.436,0.974-0.974,0.974l0,0C385.528,351.736,385.092,351.3,385.092,350.762z"/>
					<path d="M378.983,350.762v-19.719c0-0.538,0.436-0.974,0.974-0.974l0,0c0.538,0,0.974,0.436,0.974,0.974v19.719
						c0,0.538-0.436,0.974-0.974,0.974l0,0C379.419,351.736,378.983,351.3,378.983,350.762z"/>
				</g>
			</g>
		</g>
		<g>
			<g>
				<g>
					<rect x="332.116" y="299.406" style="fill:#263238;" width="27.712" height="27.712"/>
					<rect x="332.116" y="299.406" style="opacity:0.7;fill:#FFFFFF;" width="27.712" height="27.712"/>
					<path style="opacity:0.5;fill:#FFFFFF;" d="M347.473,301.702v23.123c0,0.439,0.356,0.795,0.795,0.795h9.267
						c0.439,0,0.795-0.356,0.795-0.795v-23.123c0-0.439-0.356-0.795-0.795-0.795h-9.267
						C347.828,300.907,347.473,301.263,347.473,301.702z"/>
				</g>
				<g style="opacity:0.2;">
					<path d="M355.832,305.073h-19.719c-0.538,0-0.974-0.436-0.974-0.974l0,0c0-0.538,0.436-0.974,0.974-0.974h19.719
						c0.538,0,0.974,0.436,0.974,0.974l0,0C356.806,304.637,356.37,305.073,355.832,305.073z"/>
					<path d="M355.832,311.182h-19.719c-0.538,0-0.974-0.436-0.974-0.974l0,0c0-0.538,0.436-0.974,0.974-0.974h19.719
						c0.538,0,0.974,0.436,0.974,0.974l0,0C356.806,310.746,356.37,311.182,355.832,311.182z"/>
					<path d="M355.832,317.291h-19.719c-0.538,0-0.974-0.436-0.974-0.974l0,0c0-0.538,0.436-0.974,0.974-0.974h19.719
						c0.538,0,0.974,0.436,0.974,0.974l0,0C356.806,316.855,356.37,317.291,355.832,317.291z"/>
					<path d="M355.832,323.4h-19.719c-0.538,0-0.974-0.436-0.974-0.974l0,0c0-0.538,0.436-0.974,0.974-0.974h19.719
						c0.538,0,0.974,0.436,0.974,0.974l0,0C356.806,322.964,356.37,323.4,355.832,323.4z"/>
				</g>
			</g>
			<g>
				<g>
					<rect x="359.828" y="299.406" style="fill:#263238;" width="27.712" height="27.712"/>
					<rect x="359.828" y="299.406" style="opacity:0.5;fill:#FFFFFF;" width="27.712" height="27.712"/>
				</g>
				<g style="opacity:0.2;">
					<path d="M381.874,323.122v-19.719c0-0.538,0.436-0.974,0.974-0.974l0,0c0.538,0,0.974,0.436,0.974,0.974v19.719
						c0,0.538-0.436,0.974-0.974,0.974l0,0C382.31,324.096,381.874,323.66,381.874,323.122z"/>
					<path d="M375.765,323.122v-19.719c0-0.538,0.436-0.974,0.974-0.974l0,0c0.538,0,0.974,0.436,0.974,0.974v19.719
						c0,0.538-0.436,0.974-0.974,0.974l0,0C376.201,324.096,375.765,323.66,375.765,323.122z"/>
					<path d="M369.655,323.122v-19.719c0-0.538,0.436-0.974,0.974-0.974l0,0c0.538,0,0.974,0.436,0.974,0.974v19.719
						c0,0.538-0.436,0.974-0.974,0.974l0,0C370.092,324.096,369.655,323.66,369.655,323.122z"/>
					<path d="M363.546,323.122v-19.719c0-0.538,0.436-0.974,0.974-0.974l0,0c0.538,0,0.974,0.436,0.974,0.974v19.719
						c0,0.538-0.436,0.974-0.974,0.974l0,0C363.982,324.096,363.546,323.66,363.546,323.122z"/>
				</g>
			</g>
		</g>
	</g>
</g>
<g id="Sea">
	<g>
		<path style="fill:#407BFF;" d="M410.249,415.63l0.646-0.733c-1.223,0.136-2.363,0.223-3.396,0.249
			c-13.362,0.328-15.45-12.453-24.69-7.944c-9.24,4.509-29.698,7.695-39.876,7.944c-13.362,0.327-15.45-12.453-24.69-7.944
			c-9.24,4.509-29.698,7.695-39.876,7.944c-13.362,0.327-15.45-12.453-24.69-7.944c-9.24,4.509-29.698,7.695-39.876,7.944
			c-13.362,0.327-15.45-12.453-24.689-7.944c-9.24,4.509-29.698,7.695-39.876,7.944c-13.362,0.327-15.45-12.453-24.689-7.944
			c-4.895,2.389-15.907,3.934-25.182,4.859l9.974,4.162c6.218,0.501,12.015,0.692,15.208,0.105c4.381-0.805,7.155-0.31,10.284,0.421
			l5.303-0.737h10.919l16.824-2.4l6.128,2.561l9.136,0.161l9.805-1.53l9.693,0.644l8.579,1.127l7.576-0.966l8.579-0.886l11.03,1.288
			l10.919-0.08l10.473-0.966l7.465,0.805l9.693,0.564l17.158-2.165l8.691,1.843l10.139,0.081l11.253-1.208h5.348l11.699,1.288
			l6.128-0.483l11.03-1.521l10.473,2.165l9.47-0.322l8.913-1.208l10.696,0.322l9.136,1.208L410.249,415.63z"/>
		<path style="opacity:0.4;fill:#FFFFFF;" d="M410.249,415.63l0.646-0.733c-1.223,0.136-2.363,0.223-3.396,0.249
			c-13.362,0.328-15.45-12.453-24.69-7.944c-9.24,4.509-29.698,7.695-39.876,7.944c-13.362,0.327-15.45-12.453-24.69-7.944
			c-9.24,4.509-29.698,7.695-39.876,7.944c-13.362,0.327-15.45-12.453-24.69-7.944c-9.24,4.509-29.698,7.695-39.876,7.944
			c-13.362,0.327-15.45-12.453-24.689-7.944c-9.24,4.509-29.698,7.695-39.876,7.944c-13.362,0.327-15.45-12.453-24.689-7.944
			c-4.895,2.389-15.907,3.934-25.182,4.859l9.974,4.162c6.218,0.501,12.015,0.692,15.208,0.105c4.381-0.805,7.155-0.31,10.284,0.421
			l5.303-0.737h10.919l16.824-2.4l6.128,2.561l9.136,0.161l9.805-1.53l9.693,0.644l8.579,1.127l7.576-0.966l8.579-0.886l11.03,1.288
			l10.919-0.08l10.473-0.966l7.465,0.805l9.693,0.564l17.158-2.165l8.691,1.843l10.139,0.081l11.253-1.208h5.348l11.699,1.288
			l6.128-0.483l11.03-1.521l10.473,2.165l9.47-0.322l8.913-1.208l10.696,0.322l9.136,1.208L410.249,415.63z"/>
		<path style="fill:#407BFF;" d="M439.067,412.857c-13.37,0-15.45,1.958-24.69,4.309c-9.24,2.35-29.688,3.004-39.862,3.134
			c-13.362,0.171-15.45-5.484-24.69-3.134c-9.24,2.35-29.698,3.004-39.876,3.134c-13.362,0.171-15.45-5.484-24.69-3.134
			c-9.24,2.35-29.698,3.004-39.876,3.134c-13.362,0.171-15.45-5.484-24.69-3.134c-9.24,2.35-29.698,3.004-39.876,3.134
			c-13.362,0.171-15.45-5.484-24.69-3.134c-9.24,2.35-29.698,3.004-39.876,3.134c-13.362,0.171-15.45-5.484-24.689-3.134
			c-9.24,2.35-40.276-4.309-40.276-4.309s31.036-2.08,40.276-8.319c9.24-6.239,11.327,11.446,24.689,10.993
			c10.178-0.345,30.636-4.754,39.876-10.993c9.24-6.239,11.327,11.446,24.69,10.993c10.178-0.345,30.636-4.754,39.876-10.993
			c9.24-6.239,11.327,11.446,24.69,10.993c10.178-0.345,30.636-4.754,39.876-10.993c9.24-6.239,11.327,11.446,24.69,10.993
			c10.178-0.345,30.636-4.754,39.876-10.993c9.24-6.239,11.327,11.446,24.69,10.993c10.174-0.345,30.622-4.754,39.862-10.993
			C423.617,398.299,425.697,412.857,439.067,412.857z"/>
		<path style="opacity:0.7;fill:#FFFFFF;" d="M439.067,412.857c-13.37,0-15.45,1.958-24.69,4.309
			c-9.24,2.35-29.688,3.004-39.862,3.134c-13.362,0.171-15.45-5.484-24.69-3.134c-9.24,2.35-29.698,3.004-39.876,3.134
			c-13.362,0.171-15.45-5.484-24.69-3.134c-9.24,2.35-29.698,3.004-39.876,3.134c-13.362,0.171-15.45-5.484-24.69-3.134
			c-9.24,2.35-29.698,3.004-39.876,3.134c-13.362,0.171-15.45-5.484-24.69-3.134c-9.24,2.35-29.698,3.004-39.876,3.134
			c-13.362,0.171-15.45-5.484-24.689-3.134c-9.24,2.35-40.276-4.309-40.276-4.309s31.036-2.08,40.276-8.319
			c9.24-6.239,11.327,11.446,24.689,10.993c10.178-0.345,30.636-4.754,39.876-10.993c9.24-6.239,11.327,11.446,24.69,10.993
			c10.178-0.345,30.636-4.754,39.876-10.993c9.24-6.239,11.327,11.446,24.69,10.993c10.178-0.345,30.636-4.754,39.876-10.993
			c9.24-6.239,11.327,11.446,24.69,10.993c10.178-0.345,30.636-4.754,39.876-10.993c9.24-6.239,11.327,11.446,24.69,10.993
			c10.174-0.345,30.622-4.754,39.862-10.993C423.617,398.299,425.697,412.857,439.067,412.857z"/>
	</g>
</g>
<g id="Birds">
	<g>
		<path style="fill:#407BFF;" d="M95.614,156.551c0,0-0.367-4.519-3.363-6.374c-2.996-1.855-7.107-7.177-7.107-7.177
			s-2.647,2.682-1.327,4.964c1.32,2.282,6.3,4.669,5.356,7.191L95.614,156.551z"/>
		<path style="opacity:0.6;fill:#FFFFFF;" d="M95.614,156.551c0,0-0.367-4.519-3.363-6.374c-2.996-1.855-7.107-7.177-7.107-7.177
			s-2.647,2.682-1.327,4.964c1.32,2.282,6.3,4.669,5.356,7.191L95.614,156.551z"/>
		<path style="fill:#407BFF;" d="M84.722,155.102c0,0,0.998-2.408,3.891-1.437s4.874,0.176,4.874,0.176s3.726-5.772,7.725-6.729
			c3.999-0.957,11.58-5.927,11.58-5.927s0.275,4.848-2.591,7.2c-2.421,1.986-7.653,3.907-9.873,6.74
			c-0.577,0.737-0.166,1.829,0.745,2.04l5.932,1.732c0,0-2.928,1.103-3.272,2.176c-0.344,1.074-2.29,0.13-2.29,0.13l-3.4-1.347
			c0,0-6.955,2.836-9.246-2.925C88.799,156.934,83.419,157.852,84.722,155.102z"/>
		<path style="opacity:0.8;fill:#FFFFFF;" d="M84.722,155.102c0,0,0.998-2.408,3.891-1.437s4.874,0.176,4.874,0.176
			s3.726-5.772,7.725-6.729c3.999-0.957,11.58-5.927,11.58-5.927s0.275,4.848-2.591,7.2c-2.421,1.986-7.653,3.907-9.873,6.74
			c-0.577,0.737-0.166,1.829,0.745,2.04l5.932,1.732c0,0-2.928,1.103-3.272,2.176c-0.344,1.074-2.29,0.13-2.29,0.13l-3.4-1.347
			c0,0-6.955,2.836-9.246-2.925C88.799,156.934,83.419,157.852,84.722,155.102z"/>
		<path style="fill:#407BFF;" d="M84.704,155.309c0,0-2.392,0.416-2.305,1.18c0.037,0.322,2.606,0.145,2.606,0.145
			s1.875-0.395,1.843-0.757C86.829,155.659,85.134,155.51,84.704,155.309z"/>
		<path style="fill:#263238;" d="M106.829,150.515c1.304-0.73,2.516-1.426,3.373-2.13c2.866-2.352,2.591-7.2,2.591-7.2
			s-1.316,0.862-3.139,1.937C109.534,144.79,108.973,147.617,106.829,150.515z"/>
		<path style="fill:#263238;" d="M85.527,145.537c0.126-0.468,0.959-0.243,1.89,0.178c-1.32-1.483-2.274-2.716-2.274-2.716
			s-2.647,2.682-1.328,4.964c0.571,0.988,1.828,1.996,2.994,3.025C84.451,146.828,85.223,146.67,85.527,145.537z"/>
		<g>
			<path style="fill:#263238;" d="M86.461,154.74c-0.02,0.236,0.086,0.437,0.242,0.452c0.156,0.015,0.297-0.165,0.317-0.401
				c0.02-0.236-0.083-0.438-0.239-0.453C86.625,154.324,86.483,154.504,86.461,154.74z"/>
			<path style="fill:#263238;" d="M86.166,154.073c0.034,0.035,0.087,0.044,0.13,0.022c0.47-0.219,1.052,0.108,1.057,0.111
				c0.053,0.031,0.122,0.013,0.153-0.041c0.031-0.053,0.013-0.122-0.041-0.153c-0.03-0.005-0.689-0.388-1.262-0.122
				c-0.055,0.027-0.08,0.092-0.054,0.148C86.151,154.051,86.157,154.063,86.166,154.073z"/>
		</g>
	</g>
	<g>
		<path style="fill:#407BFF;" d="M419.065,250.309c0,0-0.491-4.675-2.637-6.494c-2.146-1.82-5.239-7.196-5.239-7.196
			s-1.666,2.875-0.643,5.196c1.023,2.321,4.554,4.623,4.043,7.271L419.065,250.309z"/>
		<path style="opacity:0.6;fill:#FFFFFF;" d="M419.065,250.309c0,0-0.491-4.675-2.637-6.494c-2.146-1.82-5.239-7.196-5.239-7.196
			s-1.666,2.875-0.643,5.196c1.023,2.321,4.554,4.623,4.043,7.271L419.065,250.309z"/>
		<path style="fill:#407BFF;" d="M412.247,249.667c0,0,0.598-1.68,2.608-1.118c2.011,0.562,3.337-0.051,3.337-0.051
			s2.343-4.075,5.042-4.869c2.699-0.794,7.705-4.456,7.705-4.456s0.358,3.303-1.518,5.011c-1.584,1.442-5.092,2.938-6.509,4.952
			c-0.369,0.524-0.049,1.255,0.581,1.368l4.114,0.976c0,0-1.962,0.856-2.16,1.602c-0.198,0.745-1.56,0.169-1.56,0.169l-2.371-0.801
			c0,0-4.653,2.182-6.42-1.674C415.096,250.775,411.453,251.591,412.247,249.667z"/>
		<path style="opacity:0.8;fill:#FFFFFF;" d="M412.247,249.667c0,0,0.598-1.68,2.608-1.118c2.011,0.562,3.337-0.051,3.337-0.051
			s2.343-4.075,5.042-4.869c2.699-0.794,7.705-4.456,7.705-4.456s0.358,3.303-1.518,5.011c-1.584,1.442-5.092,2.938-6.509,4.952
			c-0.369,0.524-0.049,1.255,0.581,1.368l4.114,0.976c0,0-1.962,0.856-2.16,1.602c-0.198,0.745-1.56,0.169-1.56,0.169l-2.371-0.801
			c0,0-4.653,2.182-6.42-1.674C415.096,250.775,411.453,251.591,412.247,249.667z"/>
		<path style="fill:#407BFF;" d="M412.241,249.808c0,0-1.62,0.368-1.534,0.887c0.036,0.219,1.786,0.008,1.786,0.008
			s1.268-0.336,1.233-0.582C413.706,249.973,412.543,249.931,412.241,249.808z"/>
		<path style="fill:#263238;" d="M427.191,245.757c0.865-0.545,1.669-1.063,2.23-1.574c1.876-1.707,1.518-5.011,1.518-5.011
			s-0.869,0.635-2.077,1.434C428.839,241.75,428.555,243.702,427.191,245.757z"/>
		<path style="fill:#263238;" d="M411.587,239.239c0.061-0.49,0.642-0.286,1.301,0.118c-0.981-1.492-1.698-2.738-1.698-2.738
			s-1.666,2.875-0.643,5.196c0.443,1.005,1.355,2.006,2.207,3.033C410.92,240.615,411.439,240.424,411.587,239.239z"/>
		<g>
			<path style="fill:#263238;" d="M413.422,249.359c-0.005,0.162,0.074,0.296,0.181,0.301c0.107,0.005,0.197-0.123,0.202-0.285
				c0.005-0.162-0.072-0.296-0.179-0.301C413.52,249.068,413.43,249.196,413.422,249.359z"/>
			<path style="fill:#263238;" d="M413.197,248.913c0.025,0.022,0.061,0.027,0.09,0.011c0.313-0.166,0.723,0.037,0.726,0.039
				c0.038,0.019,0.084,0.004,0.103-0.033c0.019-0.038,0.004-0.084-0.033-0.103c-0.021-0.002-0.484-0.241-0.867-0.039
				c-0.037,0.02-0.051,0.066-0.032,0.103C413.186,248.898,413.191,248.906,413.197,248.913z"/>
		</g>
	</g>
</g>
</svg>
