<svg width="16" height="16" viewBox="0 0 16 16" fill="none" xmlns="http://www.w3.org/2000/svg">
<g opacity="0.3">
<path fill-rule="evenodd" clip-rule="evenodd" d="M5.44067 1.72001C5.61432 1.63313 5.80582 1.58789 6 1.58789C6.19418 1.58789 6.38568 1.63313 6.55933 1.72001L9.888 3.38535C9.95867 3.42002 10.0413 3.42002 10.112 3.38535L12.6913 2.09535C12.8819 2.00014 13.0936 1.95522 13.3064 1.96483C13.5192 1.97445 13.726 2.03829 13.9072 2.15029C14.0884 2.2623 14.238 2.41875 14.3417 2.6048C14.4455 2.79085 14.5 3.00033 14.5 3.21335V11.5367C14.5 12.01 14.2327 12.4433 13.8087 12.6547L10.5587 14.2793C10.3852 14.366 10.1939 14.4111 10 14.4111C9.80608 14.4111 9.61481 14.366 9.44133 14.2793L6.112 12.6147C6.07724 12.5973 6.03889 12.5882 6 12.5882C5.96111 12.5882 5.92276 12.5973 5.888 12.6147L3.30933 13.9047C3.11875 14 2.90695 14.0451 2.69405 14.0356C2.48115 14.026 2.27423 13.9622 2.09293 13.8502C1.91164 13.7382 1.762 13.5816 1.65822 13.3955C1.55444 13.2094 1.49998 12.9998 1.5 12.7867V4.46335C1.5 3.99002 1.76733 3.55668 2.19067 3.34535L5.44067 1.72068V1.72001ZM6 4.00002C6.13261 4.00002 6.25979 4.05269 6.35355 4.14646C6.44732 4.24023 6.5 4.36741 6.5 4.50002V10C6.5 10.1326 6.44732 10.2598 6.35355 10.3536C6.25979 10.4473 6.13261 10.5 6 10.5C5.86739 10.5 5.74022 10.4473 5.64645 10.3536C5.55268 10.2598 5.5 10.1326 5.5 10V4.50002C5.5 4.36741 5.55268 4.24023 5.64645 4.14646C5.74022 4.05269 5.86739 4.00002 6 4.00002ZM10.5 6.00002C10.5 5.86741 10.4473 5.74023 10.3536 5.64646C10.2598 5.55269 10.1326 5.50002 10 5.50002C9.86739 5.50002 9.74022 5.55269 9.64645 5.64646C9.55268 5.74023 9.5 5.86741 9.5 6.00002V11.5C9.5 11.6326 9.55268 11.7598 9.64645 11.8536C9.74022 11.9473 9.86739 12 10 12C10.1326 12 10.2598 11.9473 10.3536 11.8536C10.4473 11.7598 10.5 11.6326 10.5 11.5V6.00002Z" fill="black"/>
</g>
</svg>
