<svg width="162" height="147" viewBox="0 0 162 147" fill="none" xmlns="http://www.w3.org/2000/svg">
<path d="M137.503 14.134V0.634033H25.0031V14.134H37.7531L42.8911 19.272V88.626H119.615V19.272L124.753 14.134H137.503Z" fill="#407BFF"/>
<path opacity="0.6" d="M137.503 14.134V0.634033H25.0031V14.134H37.7531L42.8911 19.272V88.626H119.615V19.272L124.753 14.134H137.503Z" fill="white"/>
<path d="M67.2531 4.297H63.2531V11.964H67.2531V4.297Z" fill="white"/>
<path d="M99.2531 4.297H95.2531V11.964H99.2531V4.297Z" fill="white"/>
<path d="M51.2531 16.463H47.2531V24.13H51.2531V16.463Z" fill="white"/>
<path d="M83.2531 16.463H79.2531V24.13H83.2531V16.463Z" fill="white"/>
<path d="M91.2531 16.463H87.2531V24.13H91.2531V16.463Z" fill="white"/>
<path d="M107.253 16.463H103.253V24.13H107.253V16.463Z" fill="white"/>
<path d="M115.253 16.463H111.253V24.13H115.253V16.463Z" fill="white"/>
<path d="M67.2531 28.63H63.2531V36.297H67.2531V28.63Z" fill="white"/>
<path d="M51.2531 40.797H47.2531V48.464H51.2531V40.797Z" fill="white"/>
<path d="M75.2531 40.797H71.2531V48.464H75.2531V40.797Z" fill="white"/>
<path d="M99.2531 40.797H95.2531V48.464H99.2531V40.797Z" fill="white"/>
<path d="M115.253 40.797H111.253V48.464H115.253V40.797Z" fill="white"/>
<path d="M59.2531 52.963H55.2531V60.63H59.2531V52.963Z" fill="white"/>
<path d="M91.2531 52.963H87.2531V60.63H91.2531V52.963Z" fill="white"/>
<path d="M67.2531 65.13H63.2531V72.797H67.2531V65.13Z" fill="white"/>
<path d="M107.253 65.13H103.253V72.797H107.253V65.13Z" fill="white"/>
<path d="M83.2531 77.297H79.2531V84.964H83.2531V77.297Z" fill="white"/>
<path d="M49.252 64.1011H21.54V91.813H49.252V64.1011Z" fill="#407BFF"/>
<path opacity="0.5" d="M36.896 66.3961V89.5191C36.896 89.9581 37.252 90.3141 37.691 90.3141H46.958C47.397 90.3141 47.753 89.9581 47.753 89.5191V66.3961C47.753 65.9571 47.397 65.6011 46.958 65.6011H37.691C37.252 65.6021 36.896 65.9571 36.896 66.3961Z" fill="white"/>
<g opacity="0.2">
<path d="M45.255 69.7671H25.537C24.999 69.7671 24.563 69.3311 24.563 68.7931C24.563 68.2551 24.999 67.8191 25.537 67.8191H45.255C45.793 67.8191 46.229 68.2551 46.229 68.7931C46.23 69.3311 45.793 69.7671 45.255 69.7671Z" fill="black"/>
<path d="M45.255 75.8761H25.537C24.999 75.8761 24.563 75.4401 24.563 74.9021C24.563 74.3641 24.999 73.9281 25.537 73.9281H45.255C45.793 73.9281 46.229 74.3641 46.229 74.9021C46.23 75.4401 45.793 75.8761 45.255 75.8761Z" fill="black"/>
<path d="M45.255 81.9861H25.537C24.999 81.9861 24.563 81.5501 24.563 81.0121C24.563 80.4741 24.999 80.0381 25.537 80.0381H45.255C45.793 80.0381 46.229 80.4741 46.229 81.0121C46.23 81.5501 45.793 81.9861 45.255 81.9861Z" fill="black"/>
<path d="M45.255 88.0951H25.537C24.999 88.0951 24.563 87.6591 24.563 87.1211C24.563 86.5831 24.999 86.1471 25.537 86.1471H45.255C45.793 86.1471 46.229 86.5831 46.229 87.1211C46.23 87.6591 45.793 88.0951 45.255 88.0951Z" fill="black"/>
</g>
<path d="M79.608 64.1011H51.896V91.813H79.608V64.1011Z" fill="#407BFF"/>
<path opacity="0.5" d="M79.608 64.1011H51.896V91.813H79.608V64.1011Z" fill="black"/>
<path opacity="0.5" d="M67.2531 66.3961V89.5191C67.2531 89.9581 67.609 90.3141 68.048 90.3141H77.315C77.754 90.3141 78.11 89.9581 78.11 89.5191V66.3961C78.11 65.9571 77.754 65.6011 77.315 65.6011H68.048C67.608 65.6021 67.2531 65.9571 67.2531 66.3961Z" fill="white"/>
<g opacity="0.2">
<path d="M75.612 69.7671H55.894C55.356 69.7671 54.92 69.3311 54.92 68.7931C54.92 68.2551 55.356 67.8191 55.894 67.8191H75.612C76.15 67.8191 76.586 68.2551 76.586 68.7931C76.586 69.3311 76.15 69.7671 75.612 69.7671Z" fill="black"/>
<path d="M75.612 75.8761H55.894C55.356 75.8761 54.92 75.4401 54.92 74.9021C54.92 74.3641 55.356 73.9281 55.894 73.9281H75.612C76.15 73.9281 76.586 74.3641 76.586 74.9021C76.586 75.4401 76.15 75.8761 75.612 75.8761Z" fill="black"/>
<path d="M75.612 81.9861H55.894C55.356 81.9861 54.92 81.5501 54.92 81.0121C54.92 80.4741 55.356 80.0381 55.894 80.0381H75.612C76.15 80.0381 76.586 80.4741 76.586 81.0121C76.586 81.5501 76.15 81.9861 75.612 81.9861Z" fill="black"/>
<path d="M75.612 88.0951H55.894C55.356 88.0951 54.92 87.6591 54.92 87.1211C54.92 86.5831 55.356 86.1471 55.894 86.1471H75.612C76.15 86.1471 76.586 86.5831 76.586 87.1211C76.586 87.6591 76.15 88.0951 75.612 88.0951Z" fill="black"/>
</g>
<path d="M109.965 64.1011H82.2531V91.813H109.965V64.1011Z" fill="#407BFF"/>
<path opacity="0.4" d="M97.609 66.3961V89.5191C97.609 89.9581 97.965 90.3141 98.404 90.3141H107.671C108.11 90.3141 108.466 89.9581 108.466 89.5191V66.3961C108.466 65.9571 108.11 65.6011 107.671 65.6011H98.404C97.965 65.6021 97.609 65.9571 97.609 66.3961Z" fill="white"/>
<g opacity="0.2">
<path d="M105.968 69.7671H86.25C85.712 69.7671 85.276 69.3311 85.276 68.7931C85.276 68.2551 85.712 67.8191 86.25 67.8191H105.968C106.506 67.8191 106.942 68.2551 106.942 68.7931C106.942 69.3311 106.506 69.7671 105.968 69.7671Z" fill="black"/>
<path d="M105.968 75.8761H86.25C85.712 75.8761 85.276 75.4401 85.276 74.9021C85.276 74.3641 85.712 73.9281 86.25 73.9281H105.968C106.506 73.9281 106.942 74.3641 106.942 74.9021C106.942 75.4401 106.506 75.8761 105.968 75.8761Z" fill="black"/>
<path d="M105.968 81.9861H86.25C85.712 81.9861 85.276 81.5501 85.276 81.0121C85.276 80.4741 85.712 80.0381 86.25 80.0381H105.968C106.506 80.0381 106.942 80.4741 106.942 81.0121C106.942 81.5501 106.506 81.9861 105.968 81.9861Z" fill="black"/>
<path d="M105.968 88.0951H86.25C85.712 88.0951 85.276 87.6591 85.276 87.1211C85.276 86.5831 85.712 86.1471 86.25 86.1471H105.968C106.506 86.1471 106.942 86.5831 106.942 87.1211C106.942 87.6591 106.506 88.0951 105.968 88.0951Z" fill="black"/>
</g>
<path d="M63.108 34.803H35.396V62.515H63.108V34.803Z" fill="#407BFF"/>
<path opacity="0.5" d="M50.752 37.098V60.221C50.752 60.66 51.108 61.016 51.547 61.016H60.8139C61.2529 61.016 61.6089 60.66 61.6089 60.221V37.098C61.6089 36.659 61.2529 36.303 60.8139 36.303H51.547C51.108 36.303 50.752 36.659 50.752 37.098Z" fill="white"/>
<g opacity="0.2">
<path d="M59.1109 40.469H39.3929C38.8549 40.469 38.4189 40.033 38.4189 39.495C38.4189 38.957 38.8549 38.521 39.3929 38.521H59.1109C59.6489 38.521 60.0849 38.957 60.0849 39.495C60.0859 40.033 59.6489 40.469 59.1109 40.469Z" fill="black"/>
<path d="M59.1109 46.578H39.3929C38.8549 46.578 38.4189 46.142 38.4189 45.604C38.4189 45.066 38.8549 44.63 39.3929 44.63H59.1109C59.6489 44.63 60.0849 45.066 60.0849 45.604C60.0859 46.142 59.6489 46.578 59.1109 46.578Z" fill="black"/>
<path d="M59.1109 52.687H39.3929C38.8549 52.687 38.4189 52.251 38.4189 51.713C38.4189 51.175 38.8549 50.739 39.3929 50.739H59.1109C59.6489 50.739 60.0849 51.175 60.0849 51.713C60.0859 52.251 59.6489 52.687 59.1109 52.687Z" fill="black"/>
<path d="M59.1109 58.797H39.3929C38.8549 58.797 38.4189 58.361 38.4189 57.823C38.4189 57.285 38.8549 56.849 39.3929 56.849H59.1109C59.6489 56.849 60.0849 57.285 60.0849 57.823C60.0859 58.361 59.6489 58.797 59.1109 58.797Z" fill="black"/>
</g>
<path d="M93.464 34.803H65.752V62.515H93.464V34.803Z" fill="#407BFF"/>
<path opacity="0.3" d="M93.464 34.803H65.752V62.515H93.464V34.803Z" fill="white"/>
<path opacity="0.4" d="M81.1089 37.098V60.221C81.1089 60.66 81.4649 61.016 81.9039 61.016H91.1709C91.6099 61.016 91.9659 60.66 91.9659 60.221V37.098C91.9659 36.659 91.6099 36.303 91.1709 36.303H81.9039C81.4639 36.303 81.1089 36.659 81.1089 37.098Z" fill="white"/>
<g opacity="0.2">
<path d="M89.468 40.469H69.75C69.212 40.469 68.776 40.033 68.776 39.495C68.776 38.957 69.212 38.521 69.75 38.521H89.468C90.006 38.521 90.442 38.957 90.442 39.495C90.442 40.033 90.006 40.469 89.468 40.469Z" fill="black"/>
<path d="M89.468 46.578H69.75C69.212 46.578 68.776 46.142 68.776 45.604C68.776 45.066 69.212 44.63 69.75 44.63H89.468C90.006 44.63 90.442 45.066 90.442 45.604C90.442 46.142 90.006 46.578 89.468 46.578Z" fill="black"/>
<path d="M89.468 52.687H69.75C69.212 52.687 68.776 52.251 68.776 51.713C68.776 51.175 69.212 50.739 69.75 50.739H89.468C90.006 50.739 90.442 51.175 90.442 51.713C90.442 52.251 90.006 52.687 89.468 52.687Z" fill="black"/>
<path d="M89.468 58.797H69.75C69.212 58.797 68.776 58.361 68.776 57.823C68.776 57.285 69.212 56.849 69.75 56.849H89.468C90.006 56.849 90.442 57.285 90.442 57.823C90.442 58.361 90.006 58.797 89.468 58.797Z" fill="black"/>
</g>
<path d="M123.821 34.803H96.109V62.515H123.821V34.803Z" fill="#407BFF"/>
<path opacity="0.5" d="M111.465 37.098V60.221C111.465 60.66 111.821 61.016 112.26 61.016H121.527C121.966 61.016 122.322 60.66 122.322 60.221V37.098C122.322 36.659 121.966 36.303 121.527 36.303H112.26C111.821 36.303 111.465 36.659 111.465 37.098Z" fill="white"/>
<g opacity="0.2">
<path d="M119.824 40.469H100.105C99.567 40.469 99.131 40.033 99.131 39.495C99.131 38.957 99.567 38.521 100.105 38.521H119.824C120.362 38.521 120.798 38.957 120.798 39.495C120.798 40.033 120.362 40.469 119.824 40.469Z" fill="black"/>
<path d="M119.824 46.578H100.105C99.567 46.578 99.131 46.142 99.131 45.604C99.131 45.066 99.567 44.63 100.105 44.63H119.824C120.362 44.63 120.798 45.066 120.798 45.604C120.798 46.142 120.362 46.578 119.824 46.578Z" fill="black"/>
<path d="M119.824 52.687H100.105C99.567 52.687 99.131 52.251 99.131 51.713C99.131 51.175 99.567 50.739 100.105 50.739H119.824C120.362 50.739 120.798 51.175 120.798 51.713C120.798 52.251 120.362 52.687 119.824 52.687Z" fill="black"/>
<path d="M119.824 58.797H100.105C99.567 58.797 99.131 58.361 99.131 57.823C99.131 57.285 99.567 56.849 100.105 56.849H119.824C120.362 56.849 120.798 57.285 120.798 57.823C120.798 58.361 120.362 58.797 119.824 58.797Z" fill="black"/>
</g>
<path d="M140.321 64.1011H112.609V91.813H140.321V64.1011Z" fill="#407BFF"/>
<path opacity="0.3" d="M140.321 64.1011H112.609V91.813H140.321V64.1011Z" fill="black"/>
<path opacity="0.5" d="M127.965 66.3961V89.5191C127.965 89.9581 128.321 90.3141 128.76 90.3141H138.027C138.466 90.3141 138.822 89.9581 138.822 89.5191V66.3961C138.822 65.9571 138.466 65.6011 138.027 65.6011H128.76C128.321 65.6021 127.965 65.9571 127.965 66.3961Z" fill="white"/>
<g opacity="0.2">
<path d="M136.324 69.7671H116.606C116.068 69.7671 115.632 69.3311 115.632 68.7931C115.632 68.2551 116.068 67.8191 116.606 67.8191H136.324C136.862 67.8191 137.298 68.2551 137.298 68.7931C137.298 69.3311 136.862 69.7671 136.324 69.7671Z" fill="black"/>
<path d="M136.324 75.8761H116.606C116.068 75.8761 115.632 75.4401 115.632 74.9021C115.632 74.3641 116.068 73.9281 116.606 73.9281H136.324C136.862 73.9281 137.298 74.3641 137.298 74.9021C137.298 75.4401 136.862 75.8761 136.324 75.8761Z" fill="black"/>
<path d="M136.324 81.9861H116.606C116.068 81.9861 115.632 81.5501 115.632 81.0121C115.632 80.4741 116.068 80.0381 116.606 80.0381H136.324C136.862 80.0381 137.298 80.4741 137.298 81.0121C137.298 81.5501 136.862 81.9861 136.324 81.9861Z" fill="black"/>
<path d="M136.324 88.0951H116.606C116.068 88.0951 115.632 87.6591 115.632 87.1211C115.632 86.5831 116.068 86.1471 116.606 86.1471H136.324C136.862 86.1471 137.298 86.5831 137.298 87.1211C137.298 87.6591 136.862 88.0951 136.324 88.0951Z" fill="black"/>
</g>
<path d="M81.253 146.03V75.363C72.346 75.363 0.666016 91.363 0.666016 105.863C0.666016 117.4 6.92401 132.466 17.574 146.03H81.253Z" fill="#407BFF"/>
<path opacity="0.6" d="M81.253 146.03V75.363C72.346 75.363 0.666016 91.363 0.666016 105.863C0.666016 117.4 6.92401 132.466 17.574 146.03H81.253Z" fill="white"/>
<path d="M81.2531 146.03V75.363C90.1601 75.363 161.84 91.363 161.84 105.863C161.84 117.4 155.582 132.466 144.932 146.03H81.2531Z" fill="#407BFF"/>
<path opacity="0.5" d="M81.2531 146.03V75.363C90.1601 75.363 161.84 91.363 161.84 105.863C161.84 117.4 155.582 132.466 144.932 146.03H81.2531Z" fill="white"/>
<path d="M81.253 146.863H9.71399L10.382 142.363L14.379 140.196L75.173 141.863L81.253 143.53V146.863Z" fill="#407BFF"/>
<path d="M81.253 81.44V75.363C72.346 75.363 0.666016 91.363 0.666016 105.863C0.666016 106.42 0.693015 106.993 0.722015 107.566C12.202 94.956 68.969 82.51 81.253 81.44Z" fill="#263238"/>
<path opacity="0.2" d="M81.253 81.44V75.363C72.346 75.363 0.666016 91.363 0.666016 105.863C0.666016 106.42 0.693015 106.993 0.722015 107.566C12.202 94.956 68.969 82.51 81.253 81.44Z" fill="white"/>
<path d="M81.2531 146.863H152.792L152.123 142.363L148.126 140.196L87.332 141.863L81.2531 143.53V146.863Z" fill="#407BFF"/>
<path opacity="0.3" d="M81.2531 146.863H152.792L152.123 142.363L148.126 140.196L87.332 141.863L81.2531 143.53V146.863Z" fill="black"/>
<path d="M81.2531 81.44V75.363C90.1601 75.363 161.84 91.363 161.84 105.863C161.84 106.42 161.813 106.993 161.784 107.566C150.304 94.956 93.5361 82.51 81.2531 81.44Z" fill="#263238"/>
<path opacity="0.2" d="M91.149 76.773L81.252 98.639V75.363C82.83 75.363 86.382 75.867 91.149 76.773Z" fill="white"/>
<path d="M81.2531 145.363L152.123 142.363L153.82 132.568L81.2531 135.568V145.363Z" fill="#407BFF"/>
<path opacity="0.3" d="M71.356 76.773L81.253 98.639V75.363C79.675 75.363 76.123 75.867 71.356 76.773Z" fill="white"/>
<path d="M81.253 145.363L10.382 142.363L8.68604 132.568L81.253 135.568V145.363Z" fill="#407BFF"/>
<path opacity="0.2" d="M81.253 145.363L10.382 142.363L8.68604 132.568L81.253 135.568V145.363Z" fill="white"/>
<path d="M95.406 90.014C93.899 90.014 92.677 91.376 92.677 93.056C92.677 94.736 93.899 96.098 95.406 96.098C96.913 96.098 98.135 94.736 98.135 93.056C98.135 91.376 96.913 90.014 95.406 90.014ZM95.406 94.829C94.527 94.829 93.814 94.035 93.814 93.055C93.814 92.075 94.527 91.281 95.406 91.281C96.285 91.281 96.998 92.075 96.998 93.055C96.998 94.035 96.285 94.829 95.406 94.829Z" fill="#407BFF"/>
<path d="M91.384 100.6L91.633 100.384H91.636C91.648 100.441 91.66 100.499 91.673 100.556C92.355 103.457 95.125 104.443 97.937 105.121C98.243 105.195 99.006 105.783 99.006 105.783C99.006 105.783 99.427 104.916 99.668 104.714C101.884 102.855 103.925 100.738 103.244 97.838C103.23 97.781 103.216 97.724 103.201 97.667L103.204 97.665L103.523 97.747C103.65 97.78 103.75 97.637 103.675 97.529L103.232 96.893C103.106 96.712 102.827 96.76 102.768 96.972L102.535 97.816C102.5 97.943 102.642 98.045 102.751 97.971L103.037 97.778C102.994 99.947 101.76 101.934 99.834 102.932C99.432 103.14 98.94 102.923 98.831 102.483L97.056 95.285L99.414 94.731L99.268 94.107L96.903 94.663L96.618 93.507C96.949 93.243 97.118 92.804 97.015 92.365C96.87 91.746 96.241 91.366 95.623 91.531C95.037 91.687 94.672 92.306 94.818 92.894C94.925 93.327 95.269 93.639 95.679 93.727L95.939 94.889L93.574 95.445L93.72 96.069L96.078 95.515L97.695 102.751C97.794 103.193 97.45 103.607 96.997 103.6C94.827 103.565 92.836 102.334 91.832 100.411L92.176 100.457C92.307 100.474 92.388 100.32 92.3 100.222L91.715 99.57C91.568 99.406 91.296 99.488 91.264 99.706L91.151 100.473C91.132 100.603 91.285 100.686 91.384 100.6ZM95.33 92.761C95.254 92.438 95.454 92.115 95.777 92.039C96.1 91.963 96.423 92.163 96.499 92.486C96.575 92.809 96.375 93.132 96.052 93.208C95.729 93.284 95.406 93.084 95.33 92.761Z" fill="#263238"/>
</svg>
