<svg width="402" height="116" viewBox="0 0 402 116" fill="none" xmlns="http://www.w3.org/2000/svg">
<g clip-path="url(#clip0_734_181736)">
<path d="M248.168 82.8677L253.125 80.2234L247.821 75.6297L248.168 82.8677Z" fill="url(#paint0_linear_734_181736)"/>
<path d="M360.545 34.2388L371.895 29.8576L358.409 14.4122L360.545 34.2388Z" fill="url(#paint1_linear_734_181736)"/>
<path d="M123.578 85.7036L133.32 69.553L114.318 66.3799L123.578 85.7036Z" fill="#F4C8C3"/>
<path d="M257.693 50.9612L266.305 31.876L240.09 42.8729L257.693 50.9612Z" fill="#87C6A8"/>
<path d="M26.582 105.569L15.0407 110.391L19.3648 101.017L26.582 105.569Z" fill="#A5DBCA"/>
<path d="M387.052 21.313L401.699 9.42947L384.901 -0.00164986L387.052 21.313Z" fill="#87C6A8"/>
<path d="M314.387 40.8364L328.961 32.8104L314.806 22.2023L314.387 40.8364Z" fill="#87C6A8"/>
<path d="M354.057 43.1528L370.508 40.659L360.89 25.8097L354.057 43.1528Z" fill="#A5DBCA"/>
<path d="M41.4393 129.434L57.8906 126.94L48.2729 112.091L41.4393 129.434Z" fill="#EFAFAB"/>
<path d="M295.103 56.1305L313.695 59.2932L309.703 40.4465L295.103 56.1305Z" fill="url(#paint2_linear_734_181736)"/>
<path d="M343.183 64.2231L355.906 57.4311L342.286 45.6357L343.183 64.2231Z" fill="#EFAFAB"/>
<path d="M263.298 64.7739L267.094 58.4848L259.695 57.2508L263.298 64.7739Z" fill="#F4C8C3"/>
<path d="M352.295 115.469L358.703 114.495L354.955 108.713L352.295 115.469Z" fill="#F4C8C3"/>
<path d="M200.523 17.3417L183.74 12.4732L197.796 26.5239L200.523 17.3417Z" fill="#EFAFAB"/>
<path d="M112.516 105.872L110.976 96.1553L100.337 102.304L112.516 105.872Z" fill="url(#paint3_linear_734_181736)"/>
<path d="M279.418 63.7322L273.647 70.0161V62.9752L279.418 63.7322Z" fill="#A5DBCA"/>
<path d="M263.562 99.0727L253.286 84.939L255.775 104.657L263.562 99.0727Z" fill="#EFAFAB"/>
<path d="M91.365 80.3442L95.7617 71.5457L83.536 70.3583L91.365 80.3442Z" fill="#EFAFAB"/>
<path d="M304.077 30.7388L319.113 21.1677L296.305 15.6355L304.077 30.7388Z" fill="url(#paint4_linear_734_181736)"/>
<path d="M286.214 116.133L297.434 114.433L290.875 104.302L286.214 116.133Z" fill="#87C6A8"/>
<path d="M380.554 19.3325L383.945 13.7174L377.335 12.613L380.554 19.3325Z" fill="url(#paint5_linear_734_181736)"/>
<path d="M327.321 100.475C327.321 100.475 339.646 105.048 346.946 95.7934C354.246 86.5385 353.655 74.541 363.672 74.0017C363.672 74.0017 360.841 80.5398 358.166 86.5282C355.49 92.5166 343.596 110.86 327.327 100.475H327.321Z" fill="#E2AF54"/>
<path d="M287.659 80.4477C290.9 79.3797 294.145 79.0271 297.542 79.3797C297.754 79.4004 297.961 79.4263 298.169 79.4522C303.214 80.9144 308.787 83.5223 313.096 87.8879C330.221 105.252 341.094 103.064 341.094 103.064C331.274 106.532 322.543 102.722 307.538 89.6559C293.767 77.6687 283.963 82.1224 283.963 82.1224L284.248 81.7439C285.368 81.2566 286.503 80.821 287.649 80.4425L287.659 80.4477Z" fill="url(#paint6_linear_734_181736)"/>
<path d="M384.501 91.0649C378.482 96.9341 371.69 92.0189 368.548 84.1899C365.406 76.3609 359.702 75.0336 359.702 75.0336C370.378 69.3096 372.12 81.6079 376.418 87.6067C377.984 89.7895 382.194 91.7389 383.495 91.1271C383.495 91.1271 384.195 91.4849 385.865 88.1614C387.275 85.3513 385.865 81.3798 385.865 81.3798L389.759 79.9851C389.759 79.9851 390.07 81.8879 388.706 85.3409C387.342 88.7992 384.496 91.0597 384.496 91.0597L384.501 91.0649Z" fill="url(#paint7_linear_734_181736)"/>
<path d="M89.0356 130.012C89.0356 130.012 98.6793 135.809 106.291 129.172C113.902 122.536 115.302 112.342 123.82 113.478C123.82 113.478 120.404 118.533 117.199 123.147C114 127.762 101.085 141.325 89.0356 130.012Z" fill="#E2AF54"/>
<path d="M55.4533 107.718C55.4533 107.718 64.4075 105.514 74.0978 117.782C84.6592 131.148 91.3994 135.731 100.219 134.368C100.219 134.368 91.2957 134.088 79.0596 117.17C67.4354 101.097 55.4533 107.718 55.4533 107.718Z" fill="url(#paint8_linear_734_181736)"/>
<path d="M152.156 115.46C152.156 115.46 142.953 113.562 139.692 122.33C136.431 131.092 132.656 129.744 132.656 129.744C132.656 129.744 132.205 132.238 135.798 132.088C139.391 131.937 142.129 129.563 144.54 123.237C146.365 118.447 149.782 119.261 149.782 119.261L152.156 115.465V115.46Z" fill="#E2AF54"/>
<path d="M139.367 130.688C139.367 130.688 135.059 132.664 132.394 126.934C129.729 121.205 130.206 110.582 120.318 113.713C120.318 113.713 124.907 115.73 126.312 122.818C127.717 129.905 133.374 134.675 139.367 130.688Z" fill="url(#paint9_linear_734_181736)"/>
<path d="M150.019 82.6679C154.001 79.8733 159.31 78.6808 164.412 78.2401C170.935 77.6801 177.499 79.5777 183.959 80.7132C187.106 81.268 190.139 81.5635 193.1 80.6095C193.364 80.5265 193.623 80.428 193.883 80.3295C192.965 79.7073 192.083 79.0333 191.233 78.3023C190.331 77.5246 189.434 76.6068 189.014 75.544C188.698 74.7507 188.801 73.9574 189.014 73.1849C188.967 73.1279 189.201 72.4072 189.714 71.028C190.015 69.9911 190.315 68.866 191.109 68.0883C192.052 67.1654 193.463 66.9424 194.862 67.0617C196.397 67.1913 197.647 67.6579 198.606 68.8401C199.627 70.1 200.182 71.6243 200.255 73.1227C200.332 74.6677 199.731 76.1195 199.275 77.5557C199.166 77.8979 199.057 78.2401 198.943 78.5719C203.137 80.5214 207.928 81.7605 212.413 82.533C214.803 82.9478 217.178 82.7664 219.469 82.3049C221.383 81.9212 223.223 81.4805 224.587 80.2206C222.388 79.7696 220.283 78.883 218.681 77.3586C216.597 75.3729 215.301 72.2776 215.814 69.7059C215.799 69.7422 215.783 69.7681 215.767 69.8044C215.804 69.6955 215.835 69.5867 215.871 69.483C215.892 69.3948 215.907 69.3067 215.933 69.2237C216.343 67.8601 216.597 66.0351 217.556 64.8944C218.521 63.7486 220.175 63.5723 221.714 63.9612C223.145 64.3241 225.002 64.687 226.049 65.7551C227.034 66.761 227.262 68.2127 227.563 69.4415C228.169 71.9146 227.713 74.1959 227.034 76.4669C228.952 76.7261 230.907 76.6846 232.774 76.4306C234.044 76.2595 235.273 75.9639 236.486 75.6321C237.637 75.3158 238.84 75.0462 239.68 74.2478C239.322 74.5848 239.223 75.7669 239.078 76.2335C238.918 76.7468 238.845 77.8149 238.43 78.2038C237.367 79.2096 235.615 79.5103 234.148 79.8733C232.354 80.3192 230.497 80.5784 228.595 80.5888C227.656 80.5939 226.687 80.5369 225.722 80.4021C225.033 82.1649 224.079 83.8552 222.368 84.9284C221.129 85.7061 219.49 86.0069 218.002 86.2972C216.162 86.655 214.238 86.8416 212.309 86.6446C210.453 86.4527 208.618 85.9187 206.798 85.4987C204.714 85.0166 202.671 84.3944 200.649 83.6893C199.285 83.2123 197.989 82.6575 196.745 82.0094C194.624 83.85 191.321 85.0632 188.366 85.2032C184.415 85.3899 180.241 84.1455 176.348 83.3989C171.982 82.5642 167.549 81.7968 163.168 82.1753C159.279 82.5071 155.131 83.3004 151.72 84.8869C148.982 86.1624 146.727 88.003 145.052 90.2739C146.333 87.5415 148.08 85.0269 150.03 82.6471L150.019 82.6679ZM225.961 72.065C225.717 71.1888 225.401 70.2866 224.67 69.6074C223.804 68.8038 222.539 68.5134 221.414 68.1971C219.786 67.7357 218.178 67.5905 217.022 68.2801C217.359 69.7474 218.178 71.251 219.024 72.3761C220.496 74.3411 222.886 75.5699 225.349 76.1558C225.764 76.2543 226.184 76.3372 226.598 76.4046C226.64 74.9581 226.37 73.5323 225.961 72.0598V72.065ZM197.46 77.8512C197.6 77.9238 197.75 77.9964 197.89 78.069C198.284 77.7008 198.627 77.3068 198.969 76.8868C198.958 76.7209 198.948 76.5498 198.922 76.3787C198.829 75.7514 198.653 75.1292 198.388 74.5278C197.875 73.356 197.014 72.0702 195.702 71.4895C194.484 70.9503 192.83 70.8362 191.586 71.1317C191.124 71.2406 190.694 71.4273 190.315 71.6761C190.694 72.5886 191.44 73.413 192.234 74.1285C193.774 75.5129 195.588 76.8713 197.455 77.8512H197.46Z" fill="#A5DBCA"/>
<path d="M226.599 76.4166C226.599 76.4166 226.599 76.0744 226.588 75.53C226.573 74.9856 226.562 74.9908 226.516 74.7212C226.381 73.902 225.852 71.6985 225.323 70.7548C224.794 69.806 224.4 69.3964 223.446 68.8572C222.492 68.318 220.133 67.9188 218.842 67.8203C217.551 67.7218 217.022 68.2921 217.022 68.2921C217.022 68.2921 216.784 68.0121 216.747 67.5558C216.706 67.0996 216.789 66.2389 216.996 65.7826C217.198 65.3212 217.561 64.9116 217.561 64.9116C218.526 63.7658 220.18 63.5895 221.72 63.9783C223.151 64.3413 225.007 64.7042 226.054 65.7723C227.039 66.7781 227.267 68.2299 227.568 69.4587C228.175 71.9318 227.718 74.2131 227.039 76.484L226.604 76.4166H226.599ZM199.093 77.6713C199.124 77.0907 199.021 77.0232 198.927 76.3855C198.834 75.7478 198.497 74.7834 197.911 73.6013C197.325 72.4192 196.916 72.3258 196.045 71.6726C195.174 71.0193 193.794 71.0193 192.452 71.0089C191.114 70.9933 190.315 71.6881 190.315 71.6881C190.315 71.6881 189.859 70.8845 189.859 70.5112C189.859 70.1379 190.186 69.5468 190.445 68.9972C190.704 68.4476 191.103 68.1106 191.103 68.1106C192.047 67.1877 193.457 66.9648 194.857 67.084C196.392 67.2136 197.641 67.6803 198.601 68.8624C199.622 70.1223 200.177 71.6466 200.249 73.145C200.327 74.6901 199.726 76.1418 199.27 77.578C199.161 77.9202 199.052 78.2624 198.938 78.5942C198.938 78.5942 199.052 78.2624 199.083 77.6765L199.093 77.6713Z" fill="#A5DBCA"/>
<path d="M224.087 130.278L234.254 107.75L211.773 124.621L224.087 130.278Z" fill="#EFAFAB"/>
<path d="M232.454 127.747L243.316 119.047L228.312 110.279L232.454 127.747Z" fill="url(#paint10_linear_734_181736)"/>
</g>
<defs>
<linearGradient id="paint0_linear_734_181736" x1="250.47" y1="82.8677" x2="250.47" y2="75.6297" gradientUnits="userSpaceOnUse">
<stop stop-color="#A89100"/>
<stop offset="0.08" stop-color="#BCA10E"/>
<stop offset="0.2" stop-color="#D9B823"/>
<stop offset="0.32" stop-color="#EEC832"/>
<stop offset="0.44" stop-color="#FAD23B"/>
<stop offset="0.56" stop-color="#FFD63F"/>
<stop offset="0.64" stop-color="#FAD23B"/>
<stop offset="0.74" stop-color="#ECC731"/>
<stop offset="0.85" stop-color="#D6B521"/>
<stop offset="0.95" stop-color="#B79D0B"/>
<stop offset="1" stop-color="#A89100"/>
</linearGradient>
<linearGradient id="paint1_linear_734_181736" x1="365.149" y1="34.2388" x2="365.149" y2="14.4122" gradientUnits="userSpaceOnUse">
<stop stop-color="#FFF2A6"/>
<stop offset="1" stop-color="#CE8704"/>
</linearGradient>
<linearGradient id="paint2_linear_734_181736" x1="304.399" y1="59.2932" x2="304.399" y2="40.4465" gradientUnits="userSpaceOnUse">
<stop stop-color="#FFF2A6"/>
<stop offset="1" stop-color="#CE8704"/>
</linearGradient>
<linearGradient id="paint3_linear_734_181736" x1="106.429" y1="105.872" x2="106.429" y2="96.1553" gradientUnits="userSpaceOnUse">
<stop stop-color="#A89100"/>
<stop offset="0.08" stop-color="#BCA10E"/>
<stop offset="0.2" stop-color="#D9B823"/>
<stop offset="0.32" stop-color="#EEC832"/>
<stop offset="0.44" stop-color="#FAD23B"/>
<stop offset="0.56" stop-color="#FFD63F"/>
<stop offset="0.64" stop-color="#FAD23B"/>
<stop offset="0.74" stop-color="#ECC731"/>
<stop offset="0.85" stop-color="#D6B521"/>
<stop offset="0.95" stop-color="#B79D0B"/>
<stop offset="1" stop-color="#A89100"/>
</linearGradient>
<linearGradient id="paint4_linear_734_181736" x1="307.712" y1="30.7388" x2="307.712" y2="15.6355" gradientUnits="userSpaceOnUse">
<stop stop-color="#A89100"/>
<stop offset="0.08" stop-color="#BCA10E"/>
<stop offset="0.2" stop-color="#D9B823"/>
<stop offset="0.32" stop-color="#EEC832"/>
<stop offset="0.44" stop-color="#FAD23B"/>
<stop offset="0.56" stop-color="#FFD63F"/>
<stop offset="0.64" stop-color="#FAD23B"/>
<stop offset="0.74" stop-color="#ECC731"/>
<stop offset="0.85" stop-color="#D6B521"/>
<stop offset="0.95" stop-color="#B79D0B"/>
<stop offset="1" stop-color="#A89100"/>
</linearGradient>
<linearGradient id="paint5_linear_734_181736" x1="380.637" y1="19.3325" x2="380.637" y2="12.613" gradientUnits="userSpaceOnUse">
<stop stop-color="#A89100"/>
<stop offset="0.08" stop-color="#BCA10E"/>
<stop offset="0.2" stop-color="#D9B823"/>
<stop offset="0.32" stop-color="#EEC832"/>
<stop offset="0.44" stop-color="#FAD23B"/>
<stop offset="0.56" stop-color="#FFD63F"/>
<stop offset="0.64" stop-color="#FAD23B"/>
<stop offset="0.74" stop-color="#ECC731"/>
<stop offset="0.85" stop-color="#D6B521"/>
<stop offset="0.95" stop-color="#B79D0B"/>
<stop offset="1" stop-color="#A89100"/>
</linearGradient>
<linearGradient id="paint6_linear_734_181736" x1="312.531" y1="104.282" x2="312.531" y2="79.25" gradientUnits="userSpaceOnUse">
<stop stop-color="#FFF2A6"/>
<stop offset="1" stop-color="#CE8704"/>
</linearGradient>
<linearGradient id="paint7_linear_734_181736" x1="374.749" y1="93.6469" x2="374.749" y2="73.5507" gradientUnits="userSpaceOnUse">
<stop stop-color="#FFF2A6"/>
<stop offset="1" stop-color="#CE8704"/>
</linearGradient>
<linearGradient id="paint8_linear_734_181736" x1="77.836" y1="134.596" x2="77.836" y2="106.365" gradientUnits="userSpaceOnUse">
<stop stop-color="#FFF2A6"/>
<stop offset="1" stop-color="#CE8704"/>
</linearGradient>
<linearGradient id="paint9_linear_734_181736" x1="129.843" y1="132.135" x2="129.843" y2="113.148" gradientUnits="userSpaceOnUse">
<stop stop-color="#FFF2A6"/>
<stop offset="1" stop-color="#CE8704"/>
</linearGradient>
<linearGradient id="paint10_linear_734_181736" x1="235.814" y1="127.747" x2="235.814" y2="110.279" gradientUnits="userSpaceOnUse">
<stop stop-color="#A89100"/>
<stop offset="0.08" stop-color="#BCA10E"/>
<stop offset="0.2" stop-color="#D9B823"/>
<stop offset="0.32" stop-color="#EEC832"/>
<stop offset="0.44" stop-color="#FAD23B"/>
<stop offset="0.56" stop-color="#FFD63F"/>
<stop offset="0.64" stop-color="#FAD23B"/>
<stop offset="0.74" stop-color="#ECC731"/>
<stop offset="0.85" stop-color="#D6B521"/>
<stop offset="0.95" stop-color="#B79D0B"/>
<stop offset="1" stop-color="#A89100"/>
</linearGradient>
<clipPath id="clip0_734_181736">
<rect width="116" height="402" fill="white" transform="matrix(0 -1 -1 0 402 116)"/>
</clipPath>
</defs>
</svg>
