<svg width="431" height="186" viewBox="0 0 431 186" fill="none" xmlns="http://www.w3.org/2000/svg">
<g clip-path="url(#clip0_734_181666)">
<path d="M218.562 42.125L243.175 49.2593L222.565 28.6602L218.562 42.125Z" fill="#EFAFAB"/>
<path d="M153.531 102.203L148.574 104.847L153.878 109.441L153.531 102.203Z" fill="url(#paint0_linear_734_181666)"/>
<path d="M142.191 6.63647L123.547 9.5244L133.31 26.1364L142.191 6.63647Z" fill="#87C6A8"/>
<path d="M196.432 47.9492L185.176 56.9707L200.73 66.0545L196.432 47.9492Z" fill="#F4C8C3"/>
<path d="M186.022 17.082L174.766 26.0984L190.32 35.1873L186.022 17.082Z" fill="#A5DBCA"/>
<path d="M41.1581 150.832L29.8086 155.213L43.2942 170.659L41.1581 150.832Z" fill="url(#paint1_linear_734_181666)"/>
<path d="M278.121 99.3672L268.379 115.518L287.381 118.691L278.121 99.3672Z" fill="#F4C8C3"/>
<path d="M94.6108 34.2695L72.2695 46.8271L101.408 46.5626L94.6108 34.2695Z" fill="#EFAFAB"/>
<path d="M414.735 16.3842L405.05 6.65234L398.035 22.3L414.735 16.3842Z" fill="url(#paint2_linear_734_181666)"/>
<path d="M144.006 134.109L135.395 153.195L161.609 142.198L144.006 134.109Z" fill="#87C6A8"/>
<path d="M375.117 79.5015L386.659 74.6797L382.334 84.0538L375.117 79.5015Z" fill="#A5DBCA"/>
<path d="M14.647 163.758L0 175.641L16.7987 185.072L14.647 163.758Z" fill="#87C6A8"/>
<path d="M54.1512 31.4257L35.5586 28.2578L39.5509 47.1045L54.1512 31.4257Z" fill="url(#paint3_linear_734_181666)"/>
<path d="M357.086 3.40234L347.344 19.5529L366.346 22.726L357.086 3.40234Z" fill="url(#paint4_linear_734_181666)"/>
<path d="M144.677 20.2461L137.305 21.366L141.613 28.0233L144.677 20.2461Z" fill="#F4C8C3"/>
<path d="M87.3127 144.234L72.7383 152.26L86.8927 162.868L87.3127 144.234Z" fill="#87C6A8"/>
<path d="M31.7833 16.3828L15.332 18.8767L24.9498 33.7259L31.7833 16.3828Z" fill="#F4C8C3"/>
<path d="M47.6427 141.918L31.1914 144.412L40.8092 159.261L47.6427 141.918Z" fill="#A5DBCA"/>
<path d="M360.26 55.6367L343.809 58.1306L353.426 72.9798L360.26 55.6367Z" fill="#EFAFAB"/>
<path d="M106.6 128.94L88.0078 125.778L92.0001 144.624L106.6 128.94Z" fill="url(#paint5_linear_734_181666)"/>
<path d="M0.917969 57.2774L25.525 64.4116L4.92062 43.8125L0.917969 57.2774Z" fill="#EFAFAB"/>
<path d="M58.5164 120.848L45.793 127.64L59.4134 139.435L58.5164 120.848Z" fill="#EFAFAB"/>
<path d="M33.9345 49.832L26.6758 50.9571L30.4814 57.4225L33.9345 49.832Z" fill="#87C6A8"/>
<path d="M77.3706 26.4258L72.9531 28.1368L78.2001 34.1511L77.3706 26.4258Z" fill="url(#paint6_linear_734_181666)"/>
<path d="M272.891 4.8125L263.148 20.9683L282.151 24.1362L272.891 4.8125Z" fill="#F4C8C3"/>
<path d="M353.471 32.0023L349.132 27.6367L345.984 34.6517L353.471 32.0023Z" fill="url(#paint7_linear_734_181666)"/>
<path d="M425.215 39.841L430.7 38.6641L428.02 42.4386L425.215 39.841Z" fill="#A5DBCA"/>
<path d="M70.6885 54.5645L63.4453 53.3357L65.0007 60.6722L70.6885 54.5645Z" fill="url(#paint8_linear_734_181666)"/>
<path d="M59.4032 17.4883L53 18.463L56.7434 24.244L59.4032 17.4883Z" fill="url(#paint9_linear_734_181666)"/>
<path d="M138.405 120.297L134.609 126.586L142.008 127.82L138.405 120.297Z" fill="#F4C8C3"/>
<path d="M49.4045 69.6016L42.9961 70.5763L46.7447 76.3573L49.4045 69.6016Z" fill="#F4C8C3"/>
<path d="M285.085 24.0299L266.492 20.8672L270.484 39.7087L285.085 24.0299Z" fill="url(#paint10_linear_734_181666)"/>
<path d="M417.863 65.6133L415.836 72.2602L423.162 71.3165L417.863 65.6133Z" fill="#F4C8C3"/>
<path d="M201.176 167.729L217.959 172.598L203.903 158.547L201.176 167.729Z" fill="#EFAFAB"/>
<path d="M289.188 79.1992L290.727 88.9155L301.367 82.7663L289.188 79.1992Z" fill="url(#paint11_linear_734_181666)"/>
<path d="M310.612 0L297.898 1.97022L304.556 13.299L310.612 0Z" fill="#87C6A8"/>
<path d="M164.176 45.1144L157.571 38.4727L152.785 49.1481L164.176 45.1144Z" fill="url(#paint12_linear_734_181666)"/>
<path d="M122.281 121.339L128.052 115.055V122.096L122.281 121.339Z" fill="#A5DBCA"/>
<path d="M219.65 7.28906L215.066 19.3074L228.205 19.1363L219.65 7.28906Z" fill="#87C6A8"/>
<path d="M138.137 85.9981L148.413 100.132L145.924 80.4141L138.137 85.9981Z" fill="#EFAFAB"/>
<path d="M310.334 104.727L305.938 113.525L318.163 114.712L310.334 104.727Z" fill="#EFAFAB"/>
<path d="M282.607 34.293L276.121 35.2988L279.517 41.0747L282.607 34.293Z" fill="#A5DBCA"/>
<path d="M97.6257 154.332L82.5898 163.903L105.398 169.435L97.6257 154.332Z" fill="url(#paint13_linear_734_181666)"/>
<path d="M328.48 43.1933L329.523 34.7266L333.613 40.4557L328.48 43.1933Z" fill="#A5DBCA"/>
<path d="M200.811 43.4688L197.426 49.0839L204.031 50.1882L200.811 43.4688Z" fill="url(#paint14_linear_734_181666)"/>
<path d="M115.485 68.9375L104.266 70.6381L110.824 80.7692L115.485 68.9375Z" fill="#87C6A8"/>
<path d="M234.318 57.6562L228.594 58.5273L231.943 63.6913L234.318 57.6562Z" fill="#A5DBCA"/>
<path d="M378.948 32.3906L374.867 42.9779L386.917 42.2987L378.948 32.3906Z" fill="#F4C8C3"/>
<path d="M206.551 25.3008L203.16 30.9211L209.771 32.0203L206.551 25.3008Z" fill="url(#paint15_linear_734_181666)"/>
<path d="M21.1447 165.738L17.7539 171.353L24.3645 172.458L21.1447 165.738Z" fill="url(#paint16_linear_734_181666)"/>
<path d="M74.374 84.5956C74.374 84.5956 62.0497 80.0226 54.7496 89.2774C47.4494 98.5323 48.0404 110.53 38.0234 111.069C38.0234 111.069 40.8543 104.531 43.5297 98.5426C46.205 92.5542 58.0989 74.2105 74.3688 84.5956H74.374Z" fill="#E2AF54"/>
<path d="M114.04 104.623C110.799 105.691 107.554 106.044 104.158 105.691C103.945 105.67 103.738 105.644 103.53 105.619C98.4855 104.156 92.9119 101.548 88.6033 97.1829C71.478 79.8191 60.6055 82.0071 60.6055 82.0071C70.4255 78.5384 79.1566 82.3493 94.1614 95.4149C107.932 107.402 117.737 102.948 117.737 102.948L117.452 103.327C116.332 103.814 115.196 104.25 114.05 104.628L114.04 104.623Z" fill="url(#paint17_linear_734_181666)"/>
<path d="M17.1981 94.0059C23.2176 88.1367 30.0097 93.0519 33.1516 100.881C36.2936 108.71 41.9969 110.037 41.9969 110.037C31.3214 115.761 29.5793 103.463 25.2811 97.4641C23.7153 95.2813 19.5053 93.3319 18.2039 93.9437C18.2039 93.9437 17.504 93.5859 15.8345 96.9094C14.4242 99.7195 15.8345 103.691 15.8345 103.691L11.9407 105.086C11.9407 105.086 11.6296 103.183 12.9932 99.7299C14.3568 96.2716 17.2032 94.0111 17.2032 94.0111L17.1981 94.0059Z" fill="url(#paint18_linear_734_181666)"/>
<path d="M312.664 55.0588C312.664 55.0588 303.02 49.2622 295.409 55.8987C287.797 62.5352 286.397 72.7285 277.879 71.593C277.879 71.593 281.296 66.5379 284.5 61.9234C287.699 57.309 300.614 43.7456 312.664 55.0588Z" fill="#E2AF54"/>
<path d="M346.246 77.3528C346.246 77.3528 337.292 79.5563 327.601 67.2892C317.04 53.9228 310.3 49.3395 301.48 50.703C301.48 50.703 310.404 50.983 322.64 67.901C334.264 83.9738 346.246 77.3528 346.246 77.3528Z" fill="url(#paint19_linear_734_181666)"/>
<path d="M249.543 69.6107C249.543 69.6107 258.746 71.5083 262.007 62.7409C265.268 53.9786 269.043 55.3266 269.043 55.3266C269.043 55.3266 269.494 52.8327 265.901 52.9831C262.308 53.1335 259.57 55.5081 257.159 61.8335C255.334 66.6243 251.918 65.8102 251.918 65.8102L249.543 69.6055V69.6107Z" fill="#E2AF54"/>
<path d="M262.336 54.3826C262.336 54.3826 266.644 52.4072 269.309 58.1364C271.974 63.8656 271.497 74.4892 281.385 71.3576C281.385 71.3576 276.796 69.3407 275.391 62.2531C273.986 55.1655 268.33 50.3955 262.336 54.3826Z" fill="url(#paint20_linear_734_181666)"/>
<path d="M251.68 102.403C247.698 105.198 242.389 106.39 237.287 106.831C230.765 107.391 224.201 105.493 217.74 104.358C214.593 103.803 211.56 103.507 208.6 104.461C208.335 104.544 208.076 104.643 207.817 104.741C208.734 105.363 209.616 106.037 210.466 106.769C211.368 107.546 212.265 108.464 212.685 109.527C213.001 110.32 212.898 111.113 212.685 111.886C212.732 111.943 212.499 112.664 211.985 114.043C211.685 115.08 211.384 116.205 210.591 116.983C209.647 117.905 208.237 118.128 206.837 118.009C205.302 117.88 204.053 117.413 203.093 116.231C202.072 114.971 201.517 113.447 201.445 111.948C201.367 110.403 201.968 108.951 202.425 107.515C202.533 107.173 202.642 106.831 202.756 106.499C198.562 104.549 193.771 103.31 189.286 102.538C186.896 102.123 184.521 102.304 182.23 102.766C180.317 103.15 178.476 103.59 177.112 104.85C179.311 105.301 181.416 106.188 183.018 107.712C185.102 109.698 186.398 112.793 185.885 115.365C185.901 115.329 185.916 115.303 185.932 115.266C185.895 115.375 185.864 115.484 185.828 115.588C185.807 115.676 185.792 115.764 185.766 115.847C185.356 117.211 185.102 119.036 184.143 120.176C183.179 121.322 181.525 121.498 179.985 121.11C178.554 120.747 176.698 120.384 175.65 119.316C174.665 118.31 174.437 116.858 174.136 115.629C173.53 113.156 173.986 110.875 174.665 108.604C172.747 108.345 170.792 108.386 168.926 108.64C167.655 108.811 166.427 109.107 165.213 109.439C164.062 109.755 162.859 110.025 162.02 110.823C162.377 110.486 162.476 109.304 162.621 108.837C162.782 108.324 162.854 107.256 163.269 106.867C164.332 105.861 166.084 105.56 167.552 105.198C169.346 104.752 171.202 104.492 173.105 104.482C174.043 104.477 175.013 104.534 175.977 104.669C176.667 102.906 177.621 101.216 179.332 100.142C180.571 99.3647 182.209 99.0639 183.697 98.7736C185.538 98.4158 187.461 98.2292 189.39 98.4262C191.246 98.6181 193.082 99.1521 194.901 99.5721C196.986 100.054 199.028 100.676 201.051 101.382C202.414 101.859 203.71 102.413 204.955 103.061C207.075 101.221 210.378 100.008 213.333 99.8676C217.284 99.6809 221.458 100.925 225.352 101.672C229.717 102.507 234.15 103.274 238.531 102.896C242.42 102.564 246.568 101.77 249.979 100.184C252.717 98.9084 254.972 97.0678 256.647 94.7969C255.366 97.5293 253.619 100.044 251.67 102.424L251.68 102.403ZM175.738 113.006C175.982 113.882 176.298 114.784 177.029 115.463C177.895 116.267 179.16 116.557 180.286 116.874C181.914 117.335 183.521 117.48 184.677 116.791C184.34 115.323 183.521 113.82 182.676 112.695C181.203 110.73 178.813 109.501 176.35 108.915C175.935 108.817 175.516 108.734 175.101 108.666C175.059 110.113 175.329 111.539 175.738 113.011V113.006ZM204.239 107.22C204.099 107.147 203.949 107.074 203.809 107.002C203.415 107.37 203.073 107.764 202.73 108.184C202.741 108.35 202.751 108.521 202.777 108.692C202.87 109.319 203.047 109.942 203.311 110.543C203.824 111.715 204.685 113.001 205.997 113.581C207.215 114.121 208.869 114.235 210.114 113.939C210.575 113.83 211.005 113.644 211.384 113.395C211.005 112.482 210.259 111.658 209.465 110.942C207.926 109.558 206.111 108.2 204.244 107.22H204.239Z" fill="#A5DBCA"/>
<path d="M175.101 108.654C175.101 108.654 175.101 108.996 175.111 109.541C175.127 110.085 175.137 110.08 175.184 110.35C175.318 111.169 175.847 113.372 176.376 114.316C176.905 115.265 177.299 115.674 178.253 116.214C179.207 116.753 181.566 117.152 182.857 117.251C184.148 117.349 184.677 116.779 184.677 116.779C184.677 116.779 184.916 117.059 184.952 117.515C184.993 117.971 184.91 118.832 184.703 119.288C184.501 119.75 184.138 120.159 184.138 120.159C183.173 121.305 181.519 121.481 179.98 121.092C178.549 120.73 176.692 120.367 175.645 119.299C174.66 118.293 174.432 116.841 174.131 115.612C173.525 113.139 173.981 110.858 174.66 108.587L175.096 108.654H175.101ZM202.606 107.399C202.575 107.98 202.679 108.048 202.772 108.685C202.865 109.323 203.202 110.287 203.788 111.47C204.374 112.652 204.784 112.745 205.655 113.398C206.526 114.052 207.905 114.052 209.248 114.062C210.585 114.077 211.384 113.383 211.384 113.383C211.384 113.383 211.84 114.186 211.84 114.56C211.84 114.933 211.513 115.524 211.254 116.074C210.995 116.623 210.596 116.96 210.596 116.96C209.652 117.883 208.242 118.106 206.842 117.987C205.307 117.857 204.058 117.391 203.099 116.208C202.077 114.948 201.522 113.424 201.45 111.926C201.372 110.381 201.973 108.929 202.43 107.493C202.539 107.151 202.647 106.808 202.762 106.477C202.762 106.477 202.647 106.808 202.616 107.394L202.606 107.399Z" fill="#A5DBCA"/>
<path d="M148.787 29.8796C148.89 30.9995 149.077 31.9535 149.046 33.0942C149.01 34.3593 149.051 35.6503 148.771 36.8635C148.315 38.8234 147.185 40.4255 145.956 41.5661C143.628 43.7334 140.781 44.594 138.023 45.3199C137.997 45.3251 137.966 45.3354 137.94 45.3406C135.845 43.9407 133.523 43.049 131.361 42.9193C128.177 42.7275 124.734 42.9556 121.639 43.8941C117.999 44.9933 114.448 47.5027 112.436 51.8216C111.721 53.3615 111.378 55.0776 111.285 56.8612C112.566 57.81 113.857 58.7329 115.153 59.6402C115.013 57.7011 114.982 55.6739 115.417 53.8644C116.408 49.7944 119.249 46.7924 122.07 45.1488C123.532 44.2933 125.087 43.7282 126.668 43.3808C127.083 43.2875 127.498 43.2149 127.913 43.1527C127.959 43.1475 128.006 43.1423 128.053 43.1319C128.747 43.2564 130.5 43.7541 130.681 43.8215C132.149 44.3763 133.694 45.1695 135.125 46.2272C133.678 46.8235 132.33 47.736 131.459 49.3899C129.696 52.7497 130.178 58.4063 132.983 60.6357C134.223 61.6208 135.534 61.6053 136.882 61.5223C137.422 61.5171 138.044 61.4912 138.319 61.429C139.641 61.3253 140.802 61.0661 141.958 60.0084C143.317 58.764 144.141 56.9545 144.115 54.6784C144.084 52.1794 142.897 50.1366 141.538 48.5345C140.755 47.6116 139.864 46.7768 138.91 46.0406C140.418 45.4029 142.021 45.1177 143.56 44.6562C145.894 43.9563 148.304 42.9142 150.197 40.9232C151.27 39.7929 152.229 38.2582 152.597 36.4487C153.049 34.2245 152.774 31.9328 152.566 29.693C152.556 29.5582 148.802 29.9419 148.797 29.8796H148.787ZM139.402 51.1268C141.352 54.8858 139.983 59.1425 137.344 60.8483C137.24 60.7861 137.131 60.7239 137.033 60.6513C136.379 60.2002 135.778 59.5625 135.322 58.7899C134.446 57.3123 134.186 55.3835 134.254 53.5637C134.347 50.9454 135.13 48.8455 136.613 47.456C137.702 48.4826 138.666 49.701 139.407 51.1268H139.402Z" fill="url(#paint21_linear_734_181666)"/>
<path d="M121.659 43.8717C118.019 44.9709 114.467 47.4803 112.456 51.7992C111.74 53.3391 111.398 55.0553 111.305 56.8389C112.585 57.7877 113.876 58.7106 115.173 59.6179C115.033 57.6788 115.001 55.6515 115.437 53.8421C116.427 49.772 119.269 46.77 122.089 45.1264C123.551 44.2709 124.536 43.8458 126.112 43.4932C126.527 43.3999 128.067 43.1096 128.067 43.1096C126.911 42.8918 121.654 43.8769 121.654 43.8769L121.659 43.8717ZM137.369 60.8311C137.369 60.8311 136.918 60.5356 136.415 60.1105C135.906 59.6853 135.979 59.6542 135.238 58.5809C134.496 57.5077 134.061 55.2471 134.413 52.0481C134.766 48.8232 136.632 47.4388 136.632 47.4388C136.632 47.4388 136.233 47.0915 135.232 46.8115C134.232 46.5315 133.449 47.1174 132.687 47.7499C131.925 48.3825 131.474 49.3728 131.474 49.3728C129.711 52.7325 130.193 58.3891 132.998 60.6186C134.211 61.5829 135.72 61.4637 135.751 61.4637C136.565 61.4222 137.363 60.8363 137.363 60.8363L137.369 60.8311Z" fill="#E2AF54"/>
<path d="M177.617 54.793L167.449 77.3208L189.93 60.4496L177.617 54.793Z" fill="#EFAFAB"/>
<path d="M169.245 57.3242L158.383 66.0243L173.388 74.7917L169.245 57.3242Z" fill="url(#paint22_linear_734_181666)"/>
<path d="M292.377 15.1435L283.04 5.75391L276.273 20.8468L292.377 15.1435Z" fill="url(#paint23_linear_734_181666)"/>
<path d="M83.7305 37.5955L103.116 14.4766V40.3797L83.7305 37.5955Z" fill="#A5DBCA"/>
</g>
<defs>
<linearGradient id="paint0_linear_734_181666" x1="151.229" y1="102.203" x2="151.229" y2="109.441" gradientUnits="userSpaceOnUse">
<stop stop-color="#A89100"/>
<stop offset="0.08" stop-color="#BCA10E"/>
<stop offset="0.2" stop-color="#D9B823"/>
<stop offset="0.32" stop-color="#EEC832"/>
<stop offset="0.44" stop-color="#FAD23B"/>
<stop offset="0.56" stop-color="#FFD63F"/>
<stop offset="0.64" stop-color="#FAD23B"/>
<stop offset="0.74" stop-color="#ECC731"/>
<stop offset="0.85" stop-color="#D6B521"/>
<stop offset="0.95" stop-color="#B79D0B"/>
<stop offset="1" stop-color="#A89100"/>
</linearGradient>
<linearGradient id="paint1_linear_734_181666" x1="36.554" y1="150.832" x2="36.554" y2="170.659" gradientUnits="userSpaceOnUse">
<stop stop-color="#FFF2A6"/>
<stop offset="1" stop-color="#CE8704"/>
</linearGradient>
<linearGradient id="paint2_linear_734_181666" x1="406.388" y1="6.65234" x2="406.388" y2="22.3" gradientUnits="userSpaceOnUse">
<stop stop-color="#A89100"/>
<stop offset="0.08" stop-color="#BCA10E"/>
<stop offset="0.2" stop-color="#D9B823"/>
<stop offset="0.32" stop-color="#EEC832"/>
<stop offset="0.44" stop-color="#FAD23B"/>
<stop offset="0.56" stop-color="#FFD63F"/>
<stop offset="0.64" stop-color="#FAD23B"/>
<stop offset="0.74" stop-color="#ECC731"/>
<stop offset="0.85" stop-color="#D6B521"/>
<stop offset="0.95" stop-color="#B79D0B"/>
<stop offset="1" stop-color="#A89100"/>
</linearGradient>
<linearGradient id="paint3_linear_734_181666" x1="44.8549" y1="28.2578" x2="44.8549" y2="47.1045" gradientUnits="userSpaceOnUse">
<stop stop-color="#FFF2A6"/>
<stop offset="1" stop-color="#CE8704"/>
</linearGradient>
<linearGradient id="paint4_linear_734_181666" x1="356.842" y1="3.40234" x2="356.842" y2="22.726" gradientUnits="userSpaceOnUse">
<stop stop-color="#FFF2A6"/>
<stop offset="1" stop-color="#CE8704"/>
</linearGradient>
<linearGradient id="paint5_linear_734_181666" x1="97.3041" y1="125.778" x2="97.3041" y2="144.624" gradientUnits="userSpaceOnUse">
<stop stop-color="#FFF2A6"/>
<stop offset="1" stop-color="#CE8704"/>
</linearGradient>
<linearGradient id="paint6_linear_734_181666" x1="75.5766" y1="26.4258" x2="75.5766" y2="34.1511" gradientUnits="userSpaceOnUse">
<stop stop-color="#FFF2A6"/>
<stop offset="1" stop-color="#CE8704"/>
</linearGradient>
<linearGradient id="paint7_linear_734_181666" x1="349.728" y1="27.6367" x2="349.728" y2="34.6517" gradientUnits="userSpaceOnUse">
<stop stop-color="#A89100"/>
<stop offset="0.08" stop-color="#BCA10E"/>
<stop offset="0.2" stop-color="#D9B823"/>
<stop offset="0.32" stop-color="#EEC832"/>
<stop offset="0.44" stop-color="#FAD23B"/>
<stop offset="0.56" stop-color="#FFD63F"/>
<stop offset="0.64" stop-color="#FAD23B"/>
<stop offset="0.74" stop-color="#ECC731"/>
<stop offset="0.85" stop-color="#D6B521"/>
<stop offset="0.95" stop-color="#B79D0B"/>
<stop offset="1" stop-color="#A89100"/>
</linearGradient>
<linearGradient id="paint8_linear_734_181666" x1="67.0643" y1="53.3357" x2="67.0643" y2="60.6722" gradientUnits="userSpaceOnUse">
<stop stop-color="#FFF2A6"/>
<stop offset="1" stop-color="#CE8704"/>
</linearGradient>
<linearGradient id="paint9_linear_734_181666" x1="56.2042" y1="17.4883" x2="56.2042" y2="24.244" gradientUnits="userSpaceOnUse">
<stop stop-color="#A89100"/>
<stop offset="0.08" stop-color="#BCA10E"/>
<stop offset="0.2" stop-color="#D9B823"/>
<stop offset="0.32" stop-color="#EEC832"/>
<stop offset="0.44" stop-color="#FAD23B"/>
<stop offset="0.56" stop-color="#FFD63F"/>
<stop offset="0.64" stop-color="#FAD23B"/>
<stop offset="0.74" stop-color="#ECC731"/>
<stop offset="0.85" stop-color="#D6B521"/>
<stop offset="0.95" stop-color="#B79D0B"/>
<stop offset="1" stop-color="#A89100"/>
</linearGradient>
<linearGradient id="paint10_linear_734_181666" x1="275.788" y1="20.8672" x2="275.788" y2="39.7087" gradientUnits="userSpaceOnUse">
<stop stop-color="#FFF2A6"/>
<stop offset="1" stop-color="#CE8704"/>
</linearGradient>
<linearGradient id="paint11_linear_734_181666" x1="295.274" y1="79.1992" x2="295.274" y2="88.9155" gradientUnits="userSpaceOnUse">
<stop stop-color="#A89100"/>
<stop offset="0.08" stop-color="#BCA10E"/>
<stop offset="0.2" stop-color="#D9B823"/>
<stop offset="0.32" stop-color="#EEC832"/>
<stop offset="0.44" stop-color="#FAD23B"/>
<stop offset="0.56" stop-color="#FFD63F"/>
<stop offset="0.64" stop-color="#FAD23B"/>
<stop offset="0.74" stop-color="#ECC731"/>
<stop offset="0.85" stop-color="#D6B521"/>
<stop offset="0.95" stop-color="#B79D0B"/>
<stop offset="1" stop-color="#A89100"/>
</linearGradient>
<linearGradient id="paint12_linear_734_181666" x1="158.478" y1="38.4727" x2="158.478" y2="49.1481" gradientUnits="userSpaceOnUse">
<stop stop-color="#A89100"/>
<stop offset="0.08" stop-color="#BCA10E"/>
<stop offset="0.2" stop-color="#D9B823"/>
<stop offset="0.32" stop-color="#EEC832"/>
<stop offset="0.44" stop-color="#FAD23B"/>
<stop offset="0.56" stop-color="#FFD63F"/>
<stop offset="0.64" stop-color="#FAD23B"/>
<stop offset="0.74" stop-color="#ECC731"/>
<stop offset="0.85" stop-color="#D6B521"/>
<stop offset="0.95" stop-color="#B79D0B"/>
<stop offset="1" stop-color="#A89100"/>
</linearGradient>
<linearGradient id="paint13_linear_734_181666" x1="93.9912" y1="154.332" x2="93.9912" y2="169.435" gradientUnits="userSpaceOnUse">
<stop stop-color="#A89100"/>
<stop offset="0.08" stop-color="#BCA10E"/>
<stop offset="0.2" stop-color="#D9B823"/>
<stop offset="0.32" stop-color="#EEC832"/>
<stop offset="0.44" stop-color="#FAD23B"/>
<stop offset="0.56" stop-color="#FFD63F"/>
<stop offset="0.64" stop-color="#FAD23B"/>
<stop offset="0.74" stop-color="#ECC731"/>
<stop offset="0.85" stop-color="#D6B521"/>
<stop offset="0.95" stop-color="#B79D0B"/>
<stop offset="1" stop-color="#A89100"/>
</linearGradient>
<linearGradient id="paint14_linear_734_181666" x1="200.728" y1="43.4688" x2="200.728" y2="50.1882" gradientUnits="userSpaceOnUse">
<stop stop-color="#FFF2A6"/>
<stop offset="1" stop-color="#CE8704"/>
</linearGradient>
<linearGradient id="paint15_linear_734_181666" x1="206.463" y1="25.3008" x2="206.463" y2="32.0203" gradientUnits="userSpaceOnUse">
<stop stop-color="#FFF2A6"/>
<stop offset="1" stop-color="#CE8704"/>
</linearGradient>
<linearGradient id="paint16_linear_734_181666" x1="21.0618" y1="165.738" x2="21.0618" y2="172.458" gradientUnits="userSpaceOnUse">
<stop stop-color="#A89100"/>
<stop offset="0.08" stop-color="#BCA10E"/>
<stop offset="0.2" stop-color="#D9B823"/>
<stop offset="0.32" stop-color="#EEC832"/>
<stop offset="0.44" stop-color="#FAD23B"/>
<stop offset="0.56" stop-color="#FFD63F"/>
<stop offset="0.64" stop-color="#FAD23B"/>
<stop offset="0.74" stop-color="#ECC731"/>
<stop offset="0.85" stop-color="#D6B521"/>
<stop offset="0.95" stop-color="#B79D0B"/>
<stop offset="1" stop-color="#A89100"/>
</linearGradient>
<linearGradient id="paint17_linear_734_181666" x1="89.1685" y1="80.7886" x2="89.1685" y2="105.821" gradientUnits="userSpaceOnUse">
<stop stop-color="#FFF2A6"/>
<stop offset="1" stop-color="#CE8704"/>
</linearGradient>
<linearGradient id="paint18_linear_734_181666" x1="26.9506" y1="91.4239" x2="26.9506" y2="111.52" gradientUnits="userSpaceOnUse">
<stop stop-color="#FFF2A6"/>
<stop offset="1" stop-color="#CE8704"/>
</linearGradient>
<linearGradient id="paint19_linear_734_181666" x1="323.863" y1="50.4749" x2="323.863" y2="78.706" gradientUnits="userSpaceOnUse">
<stop stop-color="#FFF2A6"/>
<stop offset="1" stop-color="#CE8704"/>
</linearGradient>
<linearGradient id="paint20_linear_734_181666" x1="271.86" y1="52.936" x2="271.86" y2="71.9227" gradientUnits="userSpaceOnUse">
<stop stop-color="#FFF2A6"/>
<stop offset="1" stop-color="#CE8704"/>
</linearGradient>
<linearGradient id="paint21_linear_734_181666" x1="132.055" y1="29.6619" x2="132.055" y2="61.5534" gradientUnits="userSpaceOnUse">
<stop stop-color="#FFF2A6"/>
<stop offset="1" stop-color="#CE8704"/>
</linearGradient>
<linearGradient id="paint22_linear_734_181666" x1="165.885" y1="57.3242" x2="165.885" y2="74.7917" gradientUnits="userSpaceOnUse">
<stop stop-color="#A89100"/>
<stop offset="0.08" stop-color="#BCA10E"/>
<stop offset="0.2" stop-color="#D9B823"/>
<stop offset="0.32" stop-color="#EEC832"/>
<stop offset="0.44" stop-color="#FAD23B"/>
<stop offset="0.56" stop-color="#FFD63F"/>
<stop offset="0.64" stop-color="#FAD23B"/>
<stop offset="0.74" stop-color="#ECC731"/>
<stop offset="0.85" stop-color="#D6B521"/>
<stop offset="0.95" stop-color="#B79D0B"/>
<stop offset="1" stop-color="#A89100"/>
</linearGradient>
<linearGradient id="paint23_linear_734_181666" x1="284.325" y1="5.75391" x2="284.325" y2="20.8468" gradientUnits="userSpaceOnUse">
<stop stop-color="#A89100"/>
<stop offset="0.08" stop-color="#BCA10E"/>
<stop offset="0.2" stop-color="#D9B823"/>
<stop offset="0.32" stop-color="#EEC832"/>
<stop offset="0.44" stop-color="#FAD23B"/>
<stop offset="0.56" stop-color="#FFD63F"/>
<stop offset="0.64" stop-color="#FAD23B"/>
<stop offset="0.74" stop-color="#ECC731"/>
<stop offset="0.85" stop-color="#D6B521"/>
<stop offset="0.95" stop-color="#B79D0B"/>
<stop offset="1" stop-color="#A89100"/>
</linearGradient>
<clipPath id="clip0_734_181666">
<rect width="185.071" height="430.7" fill="white" transform="matrix(0 1 1 0 0 0)"/>
</clipPath>
</defs>
</svg>
