<svg width="16" height="16" viewBox="0 0 16 16" fill="none" xmlns="http://www.w3.org/2000/svg">
<path d="M11 4C11 3.46957 10.7893 2.96086 10.4142 2.58579C10.0391 2.21071 9.53043 2 9 2H4C3.46957 2 2.96086 2.21071 2.58579 2.58579C2.21071 2.96086 2 3.46957 2 4V9C2 9.53043 2.21071 10.0391 2.58579 10.4142C2.96086 10.7893 3.46957 11 4 11V7C4 6.20435 4.31607 5.44129 4.87868 4.87868C5.44129 4.31607 6.20435 4 7 4H11Z" fill="#B0B0B0"/>
<path d="M12 5C12.5304 5 13.0391 5.21071 13.4142 5.58579C13.7893 5.96086 14 6.46957 14 7V12C14 12.5304 13.7893 13.0391 13.4142 13.4142C13.0391 13.7893 12.5304 14 12 14H7C6.46957 14 5.96086 13.7893 5.58579 13.4142C5.21071 13.0391 5 12.5304 5 12V7C5 6.46957 5.21071 5.96086 5.58579 5.58579C5.96086 5.21071 6.46957 5 7 5H12Z" fill="#B0B0B0"/>
</svg>
