<svg width="174" height="43" viewBox="0 0 174 43" fill="none" xmlns="http://www.w3.org/2000/svg">
<g clip-path="url(#clip0_24_615)">
<path d="M35.5906 0.174109H35.5389C35.1804 0.227745 34.8165 0.301184 34.458 0.381225C34.4188 0.387826 34.367 0.401029 34.3278 0.415056C30.3363 1.39865 26.8334 4.40389 24.7305 8.66667L24.6325 8.89442C24.3007 9.60406 23.9226 10.2733 23.5187 10.8888C21.2786 14.2621 18.0102 16.1963 14.5395 16.1963C14.3379 16.1963 14.1293 16.1831 13.934 16.1699V6.15818C13.9277 2.83856 11.3033 0.141928 8.07409 0.141928H0V43.0008L1.61497 42.8201C2.02519 42.7665 2.39619 42.693 2.75463 42.6056C6.79795 41.6484 10.3275 38.6299 12.4437 34.3267H12.45L12.7167 33.7582C13.0225 33.136 13.3481 32.5733 13.6806 32.0848C16.018 28.5514 19.6056 26.5768 23.2716 26.8112V36.9037C23.2716 40.2233 25.8961 42.9266 29.1315 42.9266H37.2056V0L35.5977 0.174109H35.5914H35.5906ZM34.2886 40.0014H29.1252C27.4648 40.0014 26.1173 38.6159 26.1173 36.9095V27.4663C30.5386 29.2 33.8204 34.2261 34.2886 40.0014ZM26.1173 24.3679V12.1472C26.2341 11.9599 26.3518 11.766 26.4686 11.558L27.2828 9.95888C28.8648 6.75973 31.4367 4.38408 34.3474 3.4401V30.9601C32.3419 27.6743 29.4186 25.3382 26.1173 24.3679ZM23.2654 15.6005V23.8926C23.0701 23.8794 22.8685 23.8662 22.6598 23.8662C19.4628 23.8662 16.4415 25.0841 13.9214 27.3863V19.1008C13.9606 19.1008 13.9928 19.1008 14.0383 19.1074C14.2014 19.1206 14.3638 19.1273 14.5269 19.1273C17.7239 19.1273 20.739 17.9093 23.2654 15.6005ZM11.0829 6.15736V15.5271C6.68109 13.8074 3.40564 8.81438 2.91778 3.06548H8.07487C9.73534 3.06548 11.0829 4.45092 11.0829 6.15736ZM2.85268 12.0399C4.86453 15.3257 7.78153 17.6618 11.0829 18.6322V30.819C10.9919 30.9592 10.9009 31.1136 10.7895 31.2943L10.151 32.4792C8.58862 35.9795 5.92497 38.5557 2.84562 39.5467V12.0399H2.85189H2.85268Z" fill="#0156F7"/>
<path d="M73.0166 7.20696V35.3763H69.4486V23.0756H54.0299V35.3763H50.429V7.20696H54.0299V19.8427H69.4486V7.20696H73.0166Z" fill="#202020"/>
<path d="M92.4591 28.0489L92.4261 28.2362C91.7618 31.0937 89.7954 32.6063 86.7294 32.6063C81.9237 32.6063 80.6217 29.2198 80.3809 26.3755L80.3676 26.208H95.3635V24.7152C95.3635 18.7056 91.8865 14.9709 86.2737 14.9709C80.6609 14.9709 76.8254 18.9465 76.8254 25.1031C76.8254 31.7687 80.5307 35.751 86.7294 35.751C93.5015 35.751 95.4804 30.564 96.0145 28.3427L96.0859 28.0349H92.4591V28.0481V28.0489ZM80.3676 23.1433C80.5629 20.1719 82.9394 18.1709 86.2666 18.1709C89.5939 18.1709 91.6512 20.1249 91.8269 23.1433L91.8402 23.2976H80.3542L80.3676 23.1433Z" fill="#202020"/>
<path d="M114.539 27.4969H118.166L118.14 27.7642C117.659 33.292 113.225 35.7551 109.05 35.7551C103.106 35.7551 99.1143 31.5723 99.1143 25.3415C99.1143 19.1107 103.197 14.975 109.05 14.975C113.224 14.975 117.665 17.4447 118.14 22.9659L118.166 23.2333H114.539L114.507 23.0187C113.934 19.0365 111.225 18.1998 109.05 18.1998C104.381 18.1998 102.714 21.894 102.714 25.3341C102.714 28.7742 104.381 32.5155 109.05 32.5155C111.225 32.5155 113.934 31.6788 114.507 27.6966L114.539 27.482V27.4952V27.4969Z" fill="#202020"/>
<path d="M133.891 32.1186V35.3648L126.481 35.7666C125.589 35.8269 124.892 35.6123 124.41 35.1577C123.896 34.6626 123.635 33.8861 123.635 32.8555V18.6H119.435V15.3678H123.635V10.4086L127.203 9.27729V15.3678H133.128V18.6H127.203V32.5543L133.897 32.1194H133.891V32.1186Z" fill="#202020"/>
<path d="M154.44 32.1417V24.0502C154.44 18.5356 151.022 14.975 145.721 14.975C139.809 14.975 137.119 19.0645 137.119 22.8718V23.1194H140.642V22.8718C140.642 18.7823 143.819 18.1668 145.72 18.1668C148.807 18.1668 150.513 19.7527 150.799 22.8916L150.825 23.0459L143.48 23.7622C139.202 24.2243 137.041 26.2187 137.041 29.6984C137.041 31.1243 137.522 35.7551 143.617 35.7551C147.446 35.7551 150.115 33.7475 151.111 30.0862L151.137 29.979H151.573L151.15 31.7192V32.8365C151.15 34.4224 152.074 35.3664 153.63 35.3664H157.231V32.1343H154.438V32.1409L154.44 32.1417ZM150.826 26.1114C150.619 29.9459 147.89 32.5295 144.009 32.5295C141.834 32.5295 140.649 31.3916 140.649 29.3172C140.649 27.6578 141.645 26.8813 144.068 26.6469L150.84 25.9307L150.826 26.1048V26.1114Z" fill="#202020"/>
<path d="M174 15.3761V18.6082L163.96 18.2534V35.373H160.359V17.9258C160.359 16.915 160.613 16.1525 161.101 15.6706C161.582 15.202 162.299 14.975 163.236 15.0146L173.999 15.3761H174Z" fill="#202020"/>
</g>
<defs>
<clipPath id="clip0_24_615">
<rect width="174" height="43" fill="white"/>
</clipPath>
</defs>
</svg>
