<svg width="32" height="32" viewBox="0 0 32 32" fill="none" xmlns="http://www.w3.org/2000/svg">
<path d="M29.6167 7.5414C28.5988 7.99167 27.5193 8.2874 26.4141 8.41881C27.5785 7.72176 28.4499 6.6252 28.8657 5.3334C27.7716 5.98348 26.574 6.44102 25.3251 6.68614C24.2708 5.56141 22.7973 4.92404 21.2557 4.92578C18.1768 4.92578 15.6796 7.42214 15.6796 10.5024C15.6796 10.9394 15.7297 11.3632 15.8235 11.7721C11.1873 11.5387 7.0801 9.32007 4.32905 5.94588C3.83373 6.79689 3.57341 7.76424 3.57473 8.74889C3.57473 10.6835 4.55947 12.391 6.05533 13.3907C5.16983 13.3627 4.30385 13.1235 3.52958 12.693C3.52873 12.7164 3.52873 12.7398 3.52873 12.762C3.52873 15.4645 5.45093 17.7189 8.00266 18.2308C7.52374 18.3604 7.02977 18.4259 6.53363 18.4255C6.1733 18.4255 5.82362 18.3923 5.48373 18.3271C6.19375 20.542 8.25182 22.1545 10.6928 22.1988C8.71751 23.7491 6.27826 24.5901 3.76725 24.5865C3.32283 24.5869 2.87879 24.5607 2.4375 24.5081C4.98673 26.1469 7.95403 27.0167 10.9846 27.0135C21.2421 27.0135 26.8507 18.5167 26.8507 11.1481C26.8507 10.9071 26.8448 10.6651 26.8341 10.4266C27.9257 9.63793 28.868 8.66089 29.6167 7.5414Z" fill="black"/>
</svg>
