<svg width="32" height="32" viewBox="0 0 32 32" fill="none" xmlns="http://www.w3.org/2000/svg">
<path d="M17.3708 2.66797C18.8713 2.67045 19.6317 2.67838 20.2888 2.69794L20.5476 2.70641C20.8465 2.71704 21.1415 2.73037 21.4971 2.74704C22.9159 2.81258 23.8837 3.03704 24.7337 3.36704C25.6125 3.70592 26.3548 4.1637 27.0959 4.90481C27.8359 5.64592 28.2937 6.39037 28.6337 7.26704C28.9625 8.11592 29.1871 9.08481 29.2537 10.5037C29.2696 10.8592 29.2824 11.1542 29.2929 11.4532L29.3013 11.712C29.3208 12.369 29.3297 13.1295 29.3325 14.63L29.3336 15.6243C29.3337 15.7457 29.3337 15.8711 29.3337 16.0004L29.3336 16.3765L29.3328 17.3708C29.3303 18.8713 29.3224 19.6317 29.3028 20.2888L29.2943 20.5476C29.2837 20.8465 29.2704 21.1415 29.2537 21.4971C29.1881 22.9159 28.9625 23.8837 28.6337 24.7337C28.2948 25.6125 27.8359 26.3548 27.0959 27.0959C26.3548 27.8359 25.6092 28.2937 24.7337 28.6337C23.8837 28.9625 22.9159 29.1871 21.4971 29.2537C21.1415 29.2696 20.8465 29.2824 20.5476 29.2929L20.2888 29.3013C19.6317 29.3208 18.8713 29.3297 17.3708 29.3325L16.3765 29.3336C16.2551 29.3337 16.1297 29.3337 16.0004 29.3337L15.6243 29.3336L14.63 29.3328C13.1295 29.3303 12.369 29.3224 11.712 29.3028L11.4532 29.2943C11.1542 29.2837 10.8592 29.2704 10.5037 29.2537C9.08481 29.1881 8.11814 28.9625 7.26704 28.6337C6.38925 28.2948 5.64592 27.8359 4.90481 27.0959C4.1637 26.3548 3.70704 25.6092 3.36704 24.7337C3.03704 23.8837 2.8137 22.9159 2.74704 21.4971C2.7312 21.1415 2.71828 20.8465 2.70781 20.5476L2.69942 20.2888C2.67992 19.6317 2.67102 18.8713 2.66814 17.3708L2.66797 14.63C2.67045 13.1295 2.67838 12.369 2.69794 11.712L2.70641 11.4532C2.71704 11.1542 2.73037 10.8592 2.74704 10.5037C2.81258 9.0837 3.03704 8.11704 3.36704 7.26704C3.70592 6.38925 4.1637 5.64592 4.90481 4.90481C5.64592 4.1637 6.39037 3.70704 7.26704 3.36704C8.11704 3.03704 9.0837 2.8137 10.5037 2.74704C10.8592 2.7312 11.1542 2.71828 11.4532 2.70781L11.712 2.69942C12.369 2.67992 13.1295 2.67102 14.63 2.66814L17.3708 2.66797ZM16.0004 9.3337C12.3165 9.3337 9.3337 12.3197 9.3337 16.0004C9.3337 19.6843 12.3197 22.6671 16.0004 22.6671C19.6843 22.6671 22.6671 19.6809 22.6671 16.0004C22.6671 12.3165 19.6809 9.3337 16.0004 9.3337ZM16.0004 12.0004C18.2096 12.0004 20.0004 13.7905 20.0004 16.0004C20.0004 18.2096 18.2101 20.0004 16.0004 20.0004C13.7912 20.0004 12.0004 18.2101 12.0004 16.0004C12.0004 13.7912 13.7905 12.0004 16.0004 12.0004ZM23.0004 7.3337C22.0813 7.3337 21.3337 8.08024 21.3337 8.99924C21.3337 9.91822 22.0803 10.6659 23.0004 10.6659C23.9193 10.6659 24.6671 9.91938 24.6671 8.99924C24.6671 8.08024 23.9181 7.33254 23.0004 7.3337Z" fill="black"/>
</svg>
