<svg width="450" height="237" viewBox="0 0 450 237" fill="none" xmlns="http://www.w3.org/2000/svg">
<mask id="mask0_317_4220" style="mask-type:alpha" maskUnits="userSpaceOnUse" x="0" y="0" width="450" height="237">
<rect width="450" height="237" fill="#F9F9F9"/>
</mask>
<g mask="url(#mask0_317_4220)">
<g opacity="0.4">
<path d="M276.372 2.55187C276.937 1.72751 277.731 1.1647 278.616 0.732683C279.063 0.523643 279.548 0.377848 280.058 0.291016C280.314 0.248136 280.571 0.225627 280.848 0.226699C281.181 0.247067 281.508 0.309251 281.782 0.435747C282.898 0.952451 283.372 1.89045 283.907 2.63978C284.442 3.4084 285.008 4.08484 285.635 4.8138L284.71 4.95529C284.818 3.81682 285.208 2.7652 285.95 1.90652C286.665 1.05 287.595 0.343546 288.627 -0.0552377C289.66 -0.481894 290.761 -0.524765 291.801 -0.488317C292.32 -0.442221 292.835 -0.346815 293.333 -0.232111C293.829 -0.0809585 294.313 0.0959122 294.777 0.321032L294.754 0.534366C294.254 0.693022 293.775 0.805574 293.307 0.891334C292.84 1.02212 292.387 1.1304 291.944 1.2301C291.074 1.49702 290.235 1.72858 289.488 2.07805C288.736 2.40501 287.995 2.74483 287.366 3.27868C286.769 3.80289 286.096 4.43752 285.69 5.16648L285.091 6.2417L284.764 5.30799C284.481 4.49863 284.001 3.71284 283.342 3.14897C282.686 2.58724 281.792 2.26244 281.207 2.19168C281.059 2.15738 280.94 2.17345 280.828 2.1563C280.658 2.16381 280.467 2.15415 280.281 2.17344C279.903 2.19381 279.511 2.24099 279.105 2.29995C278.286 2.41144 277.441 2.60332 276.492 2.73089L276.372 2.55187Z" fill="#263238"/>
<path d="M337.665 2.55187C338.23 1.72751 339.023 1.1647 339.909 0.732683C340.356 0.523643 340.84 0.377848 341.351 0.291016C341.607 0.248136 341.864 0.225627 342.141 0.226699C342.474 0.247067 342.801 0.309251 343.074 0.435747C344.19 0.952451 344.665 1.89045 345.2 2.63978C345.735 3.4084 346.301 4.08484 346.928 4.8138L346.003 4.95529C346.11 3.81682 346.5 2.7652 347.243 1.90652C347.958 1.05 348.889 0.343546 349.92 -0.0552377C350.952 -0.481894 352.053 -0.524765 353.093 -0.488317C353.613 -0.442221 354.127 -0.346815 354.626 -0.232111C355.121 -0.0809585 355.606 0.0959122 356.07 0.321032L356.047 0.534366C355.547 0.693022 355.068 0.805574 354.599 0.891334C354.133 1.02212 353.68 1.1304 353.237 1.2301C352.366 1.49702 351.528 1.72858 350.781 2.07805C350.028 2.40501 349.288 2.74483 348.659 3.27868C348.062 3.80289 347.39 4.43752 346.984 5.16648L346.385 6.2417L346.058 5.30799C345.775 4.49863 345.293 3.71284 344.636 3.14897C343.98 2.58724 343.086 2.26244 342.501 2.19168C342.353 2.15738 342.234 2.17345 342.121 2.1563C341.952 2.16381 341.761 2.15415 341.575 2.17344C341.197 2.19381 340.805 2.24099 340.399 2.29995C339.58 2.41144 338.735 2.60332 337.786 2.73089L337.665 2.55187Z" fill="#263238"/>
<path d="M243.224 38.7768C238.117 19.5859 211.667 5.28325 188.613 8.02328C182.867 8.70614 177.277 10.505 172.96 13.826C167.073 18.3563 168.469 23.4976 165.554 29.1106C164.745 30.6682 163.168 32.0522 161.163 32.3405C155.43 33.1628 150.81 28.3827 145.005 28.3473C140.665 28.3205 135.115 30.3262 132.694 33.4608C130.44 36.3798 132.011 41.474 127.954 43.4122C123.416 45.5797 117.897 41.4568 112.991 42.949C106.894 44.8036 109.666 48.5117 107.449 50.8283C105.232 53.1459 100.798 52.2186 94.7026 51.7555C88.6061 51.2924 83.6191 57.3171 83.6191 57.3171H275.921C275.921 57.3171 277.584 54.9994 270.379 45.7298C263.175 36.4602 253.199 42.949 248.765 42.949C244.336 42.949 243.226 38.7843 243.224 38.7768Z" stroke="#263238" stroke-miterlimit="10"/>
<path d="M293.497 169.694H244.7V182.77H293.497V169.694Z" fill="white" stroke="#263238" stroke-miterlimit="10"/>
<path d="M293.497 169.694H260.004V182.77H293.497V169.694Z" fill="white" stroke="#263238" stroke-miterlimit="10"/>
<path d="M293.497 156.937H244.7V170.013H293.497V156.937Z" fill="white" stroke="#263238" stroke-miterlimit="10"/>
<path d="M293.497 156.937H260.004V170.013H293.497V156.937Z" fill="white" stroke="#263238" stroke-miterlimit="10"/>
<path d="M293.497 144.179H244.7V157.255H293.497V144.179Z" fill="white" stroke="#263238" stroke-miterlimit="10"/>
<path d="M293.497 144.179H260.004V157.255H293.497V144.179Z" fill="white" stroke="#263238" stroke-miterlimit="10"/>
<path d="M311.676 169.694H262.879V182.77H311.676V169.694Z" fill="white" stroke="#263238" stroke-miterlimit="10"/>
<path d="M311.676 169.694H278.183V182.77H311.676V169.694Z" fill="white" stroke="#263238" stroke-miterlimit="10"/>
<path d="M311.676 156.937H262.879V170.013H311.676V156.937Z" fill="white" stroke="#263238" stroke-miterlimit="10"/>
<path d="M311.676 156.937H278.183V170.013H311.676V156.937Z" fill="white" stroke="#263238" stroke-miterlimit="10"/>
<path d="M311.676 144.179H262.879V157.255H311.676V144.179Z" fill="white" stroke="#263238" stroke-miterlimit="10"/>
<path d="M311.676 144.179H278.183V157.255H311.676V144.179Z" fill="white" stroke="#263238" stroke-miterlimit="10"/>
<path d="M329.856 169.694H281.059V182.77H329.856V169.694Z" stroke="#263238" stroke-miterlimit="10"/>
<path d="M329.856 169.694H296.363V182.77H329.856V169.694Z" stroke="#263238" stroke-miterlimit="10"/>
<path d="M329.856 156.937H281.059V170.013H329.856V156.937Z" fill="white" stroke="#263238" stroke-miterlimit="10"/>
<path d="M329.856 156.937H296.363V170.013H329.856V156.937Z" fill="white" stroke="#263238" stroke-miterlimit="10"/>
<path d="M329.856 144.179H281.059V157.255H329.856V144.179Z" stroke="#263238" stroke-miterlimit="10"/>
<path d="M329.856 144.179H296.363V157.255H329.856V144.179Z" stroke="#263238" stroke-miterlimit="10"/>
<path d="M264.471 99.8413H262.624V121.646H264.471V99.8413Z" fill="white" stroke="#263238" stroke-miterlimit="10"/>
<path d="M266.112 114.876H260.983V124.519H266.112V114.876Z" fill="white" stroke="#263238" stroke-miterlimit="10"/>
<path d="M229.451 135.005L243.934 136.991V129.129H229.451V135.005Z" fill="white" stroke="#263238" stroke-miterlimit="10"/>
<path d="M286.628 123.493H243.934V129.129H286.628V123.493Z" fill="white" stroke="#263238" stroke-miterlimit="10"/>
<path d="M286.628 123.493H277.277V129.129H286.628V123.493Z" fill="white" stroke="#263238" stroke-miterlimit="10"/>
<path d="M283.837 129.129H239.563V184.989H283.837V129.129Z" fill="white" stroke="#263238" stroke-miterlimit="10"/>
<path d="M290.41 129.129H279.285V184.989H290.41V129.129Z" fill="white" stroke="#263238" stroke-miterlimit="10"/>
<path d="M298.318 135.005L283.837 136.991V129.129H298.318V135.005Z" fill="white" stroke="#263238" stroke-miterlimit="10"/>
<path d="M301.909 129.129H298.318V135.225H301.909V129.129Z" fill="white" stroke="#263238" stroke-miterlimit="10"/>
<path d="M301.91 135.225L291.315 137.212H283.837L298.318 135.225H301.91Z" fill="white" stroke="#263238" stroke-miterlimit="10"/>
<path d="M243.932 133.34H241.697V136.992H243.932V133.34Z" fill="#263238"/>
<path d="M247.648 133.34H245.412V136.992H247.648V133.34Z" fill="#263238"/>
<path d="M257.156 133.34H254.92V136.992H257.156V133.34Z" fill="#263238"/>
<path d="M260.87 133.34H258.634V136.992H260.87V133.34Z" fill="#263238"/>
<path d="M270.378 133.34H268.143V136.992H270.378V133.34Z" fill="#263238"/>
<path d="M274.091 133.34H271.856V136.992H274.091V133.34Z" fill="#263238"/>
<path d="M243.932 144.624H241.697V148.275H243.932V144.624Z" fill="#263238"/>
<path d="M247.648 144.624H245.412V148.275H247.648V144.624Z" fill="#263238"/>
<path d="M257.156 144.624H254.92V148.275H257.156V144.624Z" fill="#263238"/>
<path d="M260.87 144.624H258.634V148.275H260.87V144.624Z" fill="#263238"/>
<path d="M270.378 144.624H268.143V148.275H270.378V144.624Z" fill="#263238"/>
<path d="M274.091 144.624H271.856V148.275H274.091V144.624Z" fill="#263238"/>
<path d="M243.932 155.908H241.697V159.558H243.932V155.908Z" fill="#263238"/>
<path d="M247.648 155.908H245.412V159.558H247.648V155.908Z" fill="#263238"/>
<path d="M257.156 155.908H254.92V159.558H257.156V155.908Z" fill="#263238"/>
<path d="M260.87 155.908H258.634V159.558H260.87V155.908Z" fill="#263238"/>
<path d="M270.378 155.908H268.143V159.558H270.378V155.908Z" fill="#263238"/>
<path d="M274.091 155.908H271.856V159.558H274.091V155.908Z" fill="#263238"/>
<path d="M243.932 167.192H241.697V170.843H243.932V167.192Z" fill="#263238"/>
<path d="M247.648 167.192H245.412V170.843H247.648V167.192Z" fill="#263238"/>
<path d="M257.156 167.192H254.92V170.843H257.156V167.192Z" fill="#263238"/>
<path d="M260.87 167.192H258.634V170.843H260.87V167.192Z" fill="#263238"/>
<path d="M270.378 167.192H268.143V170.843H270.378V167.192Z" fill="#263238"/>
<path d="M274.091 167.192H271.856V170.843H274.091V167.192Z" fill="#263238"/>
<path d="M250.725 125.544H246.006V128.622H250.725V125.544Z" fill="#263238"/>
<path d="M256.777 125.544H252.058V128.622H256.777V125.544Z" fill="#263238"/>
<path d="M262.83 125.544H258.111V128.622H262.83V125.544Z" fill="#263238"/>
<path d="M268.882 125.544H264.163V128.622H268.882V125.544Z" fill="#263238"/>
<path d="M274.934 125.544H270.215V128.622H274.934V125.544Z" fill="#263238"/>
<path d="M219.733 169.694H170.936V182.77H219.733V169.694Z" fill="white" stroke="#263238" stroke-miterlimit="10"/>
<path d="M219.733 169.694H186.24V182.77H219.733V169.694Z" fill="white" stroke="#263238" stroke-miterlimit="10"/>
<path d="M219.733 156.937H170.936V170.013H219.733V156.937Z" fill="white" stroke="#263238" stroke-miterlimit="10"/>
<path d="M219.733 156.937H186.24V170.013H219.733V156.937Z" fill="white" stroke="#263238" stroke-miterlimit="10"/>
<path d="M219.733 144.179H170.936V157.255H219.733V144.179Z" fill="white" stroke="#263238" stroke-miterlimit="10"/>
<path d="M219.733 144.179H186.24V157.255H219.733V144.179Z" fill="white" stroke="#263238" stroke-miterlimit="10"/>
<path d="M237.912 169.694H189.115V182.77H237.912V169.694Z" fill="white" stroke="#263238" stroke-miterlimit="10"/>
<path d="M237.912 169.694H204.418V182.77H237.912V169.694Z" stroke="#263238" stroke-miterlimit="10"/>
<path d="M237.912 156.937H189.115V170.013H237.912V156.937Z" fill="white" stroke="#263238" stroke-miterlimit="10"/>
<path d="M237.912 156.937H204.418V170.013H237.912V156.937Z" fill="white" stroke="#263238" stroke-miterlimit="10"/>
<path d="M237.912 144.179H189.115V157.255H237.912V144.179Z" fill="white" stroke="#263238" stroke-miterlimit="10"/>
<path d="M237.912 144.179H204.418V157.255H237.912V144.179Z" stroke="#263238" stroke-miterlimit="10"/>
<path d="M256.092 169.694H207.295V182.77H256.092V169.694Z" fill="white" stroke="#263238" stroke-miterlimit="10"/>
<path d="M256.092 169.694H222.599V182.77H256.092V169.694Z" fill="white" stroke="#263238" stroke-miterlimit="10"/>
<path d="M256.092 156.937H207.295V170.013H256.092V156.937Z" stroke="#263238" stroke-miterlimit="10"/>
<path d="M256.092 156.937H222.599V170.013H256.092V156.937Z" stroke="#263238" stroke-miterlimit="10"/>
<path d="M256.092 144.179H207.295V157.255H256.092V144.179Z" stroke="#263238" stroke-miterlimit="10"/>
<path d="M256.092 144.179H222.599V157.255H256.092V144.179Z" stroke="#263238" stroke-miterlimit="10"/>
<path d="M119.578 169.694H70.7809V182.77H119.578V169.694Z" fill="white" stroke="#263238" stroke-miterlimit="10"/>
<path d="M119.578 169.694H86.0847V182.77H119.578V169.694Z" fill="white" stroke="#263238" stroke-miterlimit="10"/>
<path d="M119.578 156.937H70.7809V170.013H119.578V156.937Z" fill="white" stroke="#263238" stroke-miterlimit="10"/>
<path d="M119.578 156.937H86.0847V170.013H119.578V156.937Z" fill="white" stroke="#263238" stroke-miterlimit="10"/>
<path d="M119.578 144.179H70.7809V157.255H119.578V144.179Z" stroke="#263238" stroke-miterlimit="10"/>
<path d="M119.578 144.179H86.0847V157.255H119.578V144.179Z" stroke="#263238" stroke-miterlimit="10"/>
<path d="M161.8 169.694H113.003V182.77H161.8V169.694Z" fill="white" stroke="#263238" stroke-miterlimit="10"/>
<path d="M161.8 169.694H128.307V182.77H161.8V169.694Z" fill="white" stroke="#263238" stroke-miterlimit="10"/>
<path d="M161.8 156.937H113.003V170.013H161.8V156.937Z" fill="white" stroke="#263238" stroke-miterlimit="10"/>
<path d="M161.8 156.937H128.307V170.013H161.8V156.937Z" fill="white" stroke="#263238" stroke-miterlimit="10"/>
<path d="M161.8 144.179H113.003V157.255H161.8V144.179Z" fill="white" stroke="#263238" stroke-miterlimit="10"/>
<path d="M161.8 144.179H128.307V157.255H161.8V144.179Z" fill="white" stroke="#263238" stroke-miterlimit="10"/>
<path d="M179.98 169.694H131.183V182.77H179.98V169.694Z" fill="white" stroke="#263238" stroke-miterlimit="10"/>
<path d="M179.98 169.694H146.487V182.77H179.98V169.694Z" fill="white" stroke="#263238" stroke-miterlimit="10"/>
<path d="M179.98 156.937H131.183V170.013H179.98V156.937Z" fill="white" stroke="#263238" stroke-miterlimit="10"/>
<path d="M179.98 156.937H146.487V170.013H179.98V156.937Z" fill="white" stroke="#263238" stroke-miterlimit="10"/>
<path d="M179.98 144.179H131.183V157.255H179.98V144.179Z" fill="white" stroke="#263238" stroke-miterlimit="10"/>
<path d="M179.98 144.179H146.487V157.255H179.98V144.179Z" fill="white" stroke="#263238" stroke-miterlimit="10"/>
<path d="M198.159 169.694H149.362V182.77H198.159V169.694Z" stroke="#263238" stroke-miterlimit="10"/>
<path d="M198.159 169.694H164.666V182.77H198.159V169.694Z" stroke="#263238" stroke-miterlimit="10"/>
<path d="M198.159 156.937H149.362V170.013H198.159V156.937Z" fill="white" stroke="#263238" stroke-miterlimit="10"/>
<path d="M198.159 156.937H164.666V170.013H198.159V156.937Z" fill="white" stroke="#263238" stroke-miterlimit="10"/>
<path d="M198.159 144.179H149.362V157.255H198.159V144.179Z" stroke="#263238" stroke-miterlimit="10"/>
<path d="M198.159 144.179H164.666V157.255H198.159V144.179Z" stroke="#263238" stroke-miterlimit="10"/>
<path d="M137.758 169.694H88.9609V182.77H137.758V169.694Z" fill="white" stroke="#263238" stroke-miterlimit="10"/>
<path d="M137.758 169.694H104.265V182.77H137.758V169.694Z" fill="white" stroke="#263238" stroke-miterlimit="10"/>
<path d="M137.758 156.937H88.9609V170.013H137.758V156.937Z" fill="white" stroke="#263238" stroke-miterlimit="10"/>
<path d="M137.758 156.937H104.265V170.013H137.758V156.937Z" fill="white" stroke="#263238" stroke-miterlimit="10"/>
<path d="M137.758 144.179H88.9609V157.255H137.758V144.179Z" stroke="#263238" stroke-miterlimit="10"/>
<path d="M137.758 144.179H104.265V157.255H137.758V144.179Z" stroke="#263238" stroke-miterlimit="10"/>
<path d="M155.937 169.694H107.14V182.77H155.937V169.694Z" fill="white" stroke="#263238" stroke-miterlimit="10"/>
<path d="M155.937 169.694H122.444V182.77H155.937V169.694Z" fill="white" stroke="#263238" stroke-miterlimit="10"/>
<path d="M155.937 156.937H107.14V170.013H155.937V156.937Z" fill="white" stroke="#263238" stroke-miterlimit="10"/>
<path d="M155.937 156.937H122.444V170.013H155.937V156.937Z" stroke="#263238" stroke-miterlimit="10"/>
<path d="M155.937 144.179H107.14V157.255H155.937V144.179Z" fill="white" stroke="#263238" stroke-miterlimit="10"/>
<path d="M155.937 144.179H122.444V157.255H155.937V144.179Z" fill="white" stroke="#263238" stroke-miterlimit="10"/>
<path d="M131.698 172.883V158.85C131.698 158.85 133.294 157.892 134.25 160.763C135.207 163.634 139.191 176.232 139.191 176.232L131.698 172.883Z" fill="white" stroke="#263238" stroke-miterlimit="10"/>
<path d="M131.698 158.864H67.5917V171.927H131.698V158.864Z" fill="white" stroke="#263238" stroke-miterlimit="10"/>
<path d="M336.235 181.3H149.319L139.03 171.868H60.1477L82.0122 204.449C82.0122 204.449 83.7274 209.594 78.5829 210.88C76.7208 211.346 74.8577 211.699 73.24 211.961C70.3939 212.42 68.2938 214.858 68.2938 217.74H302.971C302.971 217.74 331.519 214.31 336.235 181.3Z" fill="black"/>
<path d="M81.2564 209.365C80.6936 210.013 79.8467 210.564 78.5818 210.881C76.7197 211.346 74.8566 211.7 73.2389 211.961C70.3928 212.42 68.2927 214.858 68.2927 217.74H302.97C302.97 217.74 312.398 216.594 321.314 209.365H81.2564Z" fill="white" stroke="#263238" stroke-miterlimit="10"/>
<path d="M500.948 164.179H445.486V172.396H500.948V164.179Z" stroke="#263238" stroke-miterlimit="10"/>
<path d="M734.428 206.759H256.63V217.74H734.428V206.759Z" stroke="#263238" stroke-miterlimit="10"/>
<path d="M734.43 206.759H436.369V217.74H734.43V206.759Z" stroke="#263238" stroke-miterlimit="10"/>
<path d="M371.536 40.3711H336.615V53.2094H371.536V40.3711Z" fill="white" stroke="#263238" stroke-miterlimit="10"/>
<path d="M371.536 40.3711H356.13V53.2094H371.536V40.3711Z" fill="white" stroke="#263238" stroke-miterlimit="10"/>
<path d="M424.43 40.3711H389.51V53.2094H424.43V40.3711Z" fill="white" stroke="#263238" stroke-miterlimit="10"/>
<path d="M424.43 40.3711H409.025V53.2094H424.43V40.3711Z" fill="white" stroke="#263238" stroke-miterlimit="10"/>
<path d="M454.73 164.179H399.268V172.396H454.73V164.179Z" stroke="#263238" stroke-miterlimit="10"/>
<path d="M402.348 57.3169H395.158V206.803H402.348V57.3169Z" stroke="#263238" stroke-miterlimit="10"/>
<path d="M434.701 57.3169H427.511V206.803H434.701V57.3169Z" stroke="#263238" stroke-miterlimit="10"/>
<path d="M438.878 -10.1858H434.047V55.6222H438.878V-10.1858Z" stroke="#263238" stroke-miterlimit="10"/>
<path d="M304.262 54.2361L437.013 -9.9563L417.241 57.3171" stroke="#263238" stroke-width="2" stroke-miterlimit="10"/>
<path d="M593.896 53.209H318.128V57.3169H593.896V53.209Z" stroke="#263238" stroke-miterlimit="10"/>
<path d="M560.004 54.2361L437.013 -9.9563L447.026 57.3171" stroke="#263238" stroke-width="2" stroke-miterlimit="10"/>
<path d="M574.383 53.209H298.614V57.3169H574.383V53.209Z" stroke="#263238" stroke-miterlimit="10"/>
<path d="M391.466 193.427H342.669V206.503H391.466V193.427Z" fill="white" stroke="#263238" stroke-miterlimit="10"/>
<path d="M391.466 193.427H357.973V206.503H391.466V193.427Z" fill="white" stroke="#263238" stroke-miterlimit="10"/>
<path d="M391.466 180.67H342.669V193.746H391.466V180.67Z" stroke="#263238" stroke-miterlimit="10"/>
<path d="M391.466 180.67H357.973V193.746H391.466V180.67Z" stroke="#263238" stroke-miterlimit="10"/>
<path d="M391.466 167.912H342.669V180.988H391.466V167.912Z" fill="white" stroke="#263238" stroke-miterlimit="10"/>
<path d="M391.466 167.912H357.973V180.988H391.466V167.912Z" fill="white" stroke="#263238" stroke-miterlimit="10"/>
<path d="M409.645 193.427H360.848V206.503H409.645V193.427Z" stroke="#263238" stroke-miterlimit="10"/>
<path d="M409.645 193.427H376.152V206.503H409.645V193.427Z" stroke="#263238" stroke-miterlimit="10"/>
<path d="M409.645 180.67H360.848V193.746H409.645V180.67Z" fill="white" stroke="#263238" stroke-miterlimit="10"/>
<path d="M409.645 180.67H376.152V193.746H409.645V180.67Z" fill="white" stroke="#263238" stroke-miterlimit="10"/>
<path d="M409.645 167.912H360.848V180.988H409.645V167.912Z" stroke="#263238" stroke-miterlimit="10"/>
<path d="M409.645 167.912H376.152V180.988H409.645V167.912Z" stroke="#263238" stroke-miterlimit="10"/>
<path d="M427.826 193.427H379.028V206.503H427.826V193.427Z" stroke="#263238" stroke-miterlimit="10"/>
<path d="M427.826 193.427H394.332V206.503H427.826V193.427Z" stroke="#263238" stroke-miterlimit="10"/>
<path d="M427.826 180.67H379.028V193.746H427.826V180.67Z" stroke="#263238" stroke-miterlimit="10"/>
<path d="M427.826 180.67H394.332V193.746H427.826V180.67Z" stroke="#263238" stroke-miterlimit="10"/>
<path d="M427.826 167.912H379.028V180.988H427.826V167.912Z" fill="white" stroke="#263238" stroke-miterlimit="10"/>
<path d="M427.826 167.912H394.332V180.988H427.826V167.912Z" fill="white" stroke="#263238" stroke-miterlimit="10"/>
<path d="M343.805 57.3169H314.02V62.9653H343.805V57.3169Z" stroke="#263238" stroke-miterlimit="10"/>
<path d="M377.699 57.3169H347.913V62.9653H377.699V57.3169Z" stroke="#263238" stroke-miterlimit="10"/>
<path d="M2.41736 217.739H769.167" stroke="#263238" stroke-miterlimit="10"/>
<path d="M59.8787 233.9H112.85" stroke="#263238" stroke-miterlimit="10"/>
<path d="M147.866 226.718H287.03" stroke="#263238" stroke-miterlimit="10"/>
<path d="M218.795 233.9H257.401" stroke="#263238" stroke-miterlimit="10"/>
<path d="M137.99 235.696H156.844" stroke="#263238" stroke-miterlimit="10"/>
<path d="M342.696 224.922H386.69" stroke="#263238" stroke-miterlimit="10"/>
<path d="M312.17 234.797H375.018" stroke="#263238" stroke-miterlimit="10"/>
<path d="M421.706 230.309H478.269" stroke="#263238" stroke-miterlimit="10"/>
<path d="M47.3084 233.9H35.6365" stroke="#263238" stroke-miterlimit="10"/>
</g>
</g>
</svg>
